<svg width="64" height="54" viewBox="0 0 64 54" fill="none" xmlns="http://www.w3.org/2000/svg">
<g clip-path="url(#clip0_3292_12927)">
<path d="M5.174 32.9902L5.33873 33.1266C5.16027 31.8987 5.06417 30.5617 5.4211 29.3884C5.9565 27.5056 6.62917 25.6774 6.97237 23.7264C7.24693 22.212 7.56267 20.5066 7.38421 19.0468C7.17829 19.8381 6.97237 20.6157 6.53307 21.2979C4.87198 23.8492 3.16971 26.8507 4.33659 30.0978C4.30913 30.1387 4.26795 30.1797 4.22677 30.1524C3.76001 29.0746 3.65019 27.8603 3.34817 26.7143C2.53822 23.6718 0.19073 21.1205 0.87713 17.6006C0.506474 18.3646 0.369194 19.2241 0.177002 20.0564C-0.234839 22.212 0.177002 24.4904 0.767306 26.4823C1.49489 28.9518 3.92475 30.7254 5.174 32.9902Z" fill="#AED0F3"/>
<path d="M4.54252 17.1908C5.09164 16.0721 5.98396 15.0079 7.05475 14.2166C9.41597 12.443 11.9968 10.1509 12.038 7.14937C11.2418 9.30501 8.86685 10.2055 7.28813 11.6789C6.45072 12.4566 5.8055 13.398 5.43484 14.3803L5.37993 14.3394C5.57212 13.4662 5.94278 12.6885 6.20361 11.8427C6.89001 9.55058 6.76646 6.80829 9.01785 5.2666C7.8647 5.56675 6.89001 6.30349 6.02515 7.25852C4.19932 9.26408 4.36406 12.2247 4.59743 14.8442C4.6798 15.6628 4.63862 16.3586 4.54252 17.1908Z" fill="#AED0F3"/>
<path d="M7.28809 10.6561C8.55106 9.48279 10.0062 8.60962 11.077 7.21801C12.3537 5.53989 13.4657 3.65712 15.1405 2.21094C12.8754 3.08411 10.4318 3.98456 8.9629 6.30391C8.09804 7.6546 7.96076 9.25086 7.28809 10.6561Z" fill="#AED0F3"/>
<path d="M8.23532 16.5906C8.78444 15.4855 9.12764 14.2303 9.27865 13.016C9.07273 13.5345 8.75698 14.012 8.31769 14.4213C6.47813 16.154 4.32283 17.8458 3.91099 20.3015C3.85608 20.6563 3.8149 21.011 3.7188 21.3521C3.63643 21.393 3.63643 21.2975 3.60898 21.2702L3.84235 18.2414C4.062 15.2808 2.49701 11.9928 4.21301 9.38694C4.1581 9.37329 4.11691 9.42787 4.07573 9.44151C2.51074 11.4198 1.46741 13.6027 1.46741 16.2631C1.46741 19.5512 3.3756 21.8569 3.60898 24.9402C4.10319 21.7204 6.82133 19.4284 8.23532 16.5906Z" fill="#AED0F3"/>
<path d="M4.59736 36.7965C6.36827 38.1881 8.48239 39.2659 10.1023 40.4938C9.78655 39.6889 9.26488 38.9521 9.05896 38.1199C8.11173 34.3134 8.63339 29.893 6.99976 26.373C7.30178 28.3786 6.50555 30.1522 6.32709 32.0623C6.17608 33.6313 6.45064 35.1593 7.0684 36.4691C7.24686 36.8647 7.57634 37.2058 7.67243 37.6151C7.08213 37.083 6.65656 36.4145 6.25845 35.7596C4.35025 32.6899 0.355402 30.698 0.080842 26.9597C-0.0564382 28.6242 0.09457 30.3842 0.643691 31.8576C1.39873 33.8768 2.88136 35.4458 4.59736 36.7965Z" fill="#AED0F3"/>
<path d="M28.6763 46.8789C25.5875 46.8789 22.8145 48.366 20.11 49.4848C17.6527 50.4944 14.3992 50.3034 12.2164 48.8026C13.2872 50.1396 14.7287 50.9719 16.225 51.5313C18.9843 52.6227 22.2104 51.7905 24.5716 50.2897C26.2602 49.2119 27.7154 47.6839 29.7334 47.6839C32.9869 47.6839 36.4052 50.9992 39.3293 54.0007C39.7823 53.6323 40.2628 53.2503 40.6334 52.8274C37.5721 49.935 33.2477 46.8789 28.6763 46.8789Z" fill="#AED0F3"/>
<path d="M23.1576 47.2064C23.6381 47.0836 24.2147 47.1245 24.654 46.9608C22.8144 46.5925 21.0435 46.0331 19.6158 44.737C17.5703 42.8815 15.7582 40.9032 13.5754 39.457C15.2914 41.7491 15.7719 45.0781 18.9019 46.2377C19.451 46.4424 20.0963 46.4833 20.5767 46.7835C19.9727 46.879 19.451 46.688 18.8882 46.5652C14.8521 45.7056 9.93752 46.8107 6.91736 43.3999C8.05678 45.6374 10.418 47.3974 12.6969 48.1341C16.1975 49.3075 19.8629 48.0114 23.1576 47.2064Z" fill="#AED0F3"/>
<path d="M16.4035 45.5279C13.7815 43.4268 13.3834 40.2752 12.2165 37.5193C11.4889 35.8003 10.3083 34.2586 9.0453 32.7578C10.4318 35.5137 9.8278 39.061 11.6262 41.6532C12.189 42.4718 12.9715 43.2495 13.6991 43.8907L13.6716 43.9316C13.0127 43.6315 12.4224 43.1676 11.8184 42.6765C8.67464 40.0706 3.93848 39.7432 2.05774 35.5001C2.56568 38.6108 5.05045 41.3667 7.74114 43.113C10.2945 44.7775 13.5755 44.6001 16.4035 45.5279Z" fill="#AED0F3"/>
<path d="M52.9338 7.21801C54.0046 8.62327 55.4598 9.48279 56.7227 10.6561C56.0501 9.25086 55.9128 7.6546 55.0616 6.30391C53.5927 3.98456 51.1492 3.08411 48.884 2.21094C50.5314 3.65712 51.6434 5.52625 52.9338 7.21801Z" fill="#AED0F3"/>
<path d="M57.807 11.8427C58.0541 12.6749 58.4248 13.4662 58.6307 14.3394L58.5758 14.3803C58.2051 13.398 57.5599 12.4566 56.7225 11.6789C55.1438 10.1918 52.7688 9.30501 51.9863 7.13573C52.0275 10.1509 54.6084 12.443 56.9696 14.2029C58.0267 14.9942 58.9327 16.0584 59.4818 17.1772C59.3857 16.3449 59.3445 15.6491 59.4269 14.8442C59.674 12.211 59.825 9.26408 58.0129 7.25852C57.1481 6.30349 56.1734 5.55311 55.0202 5.2666C57.2442 6.80829 57.1206 9.55058 57.807 11.8427Z" fill="#AED0F3"/>
<path d="M60.1682 18.2283L60.4016 21.2571C60.3742 21.2844 60.3742 21.3663 60.2918 21.339C60.1957 20.9979 60.1545 20.6432 60.0996 20.2884C59.6878 17.8463 57.5187 16.1409 55.6929 14.4082C55.2536 13.9989 54.9379 13.5214 54.7319 13.0029C54.8829 14.2172 55.2261 15.4724 55.7753 16.5775C57.1893 19.4153 59.9074 21.7073 60.4016 24.9408C60.635 21.8438 62.5432 19.5517 62.5432 16.2637C62.5432 13.6032 61.4999 11.4203 59.9349 9.44205C59.8937 9.41476 59.8525 9.37383 59.7976 9.38748C61.5136 11.9933 59.9349 15.2814 60.1682 18.2283Z" fill="#AED0F3"/>
<path d="M60.6626 26.7006C60.3605 27.8466 60.2507 29.0745 59.784 30.1387C59.7428 30.166 59.7016 30.1114 59.6741 30.0841C60.841 26.837 59.1388 23.8491 57.4777 21.2842C57.0384 20.6157 56.8324 19.8244 56.6265 19.0331C56.4481 20.5065 56.7638 22.1983 57.0384 23.7127C57.3953 25.6637 58.0542 27.4919 58.5896 29.3747C58.9466 30.548 58.8505 31.8714 58.672 33.1129L58.8367 32.9765C60.0723 30.7117 62.5158 28.9381 63.2572 26.455C63.8475 24.4767 64.2593 22.1847 63.8475 20.029C63.6553 19.1968 63.5043 18.3373 63.1473 17.5732C63.82 21.1068 61.4725 23.6581 60.6626 26.7006Z" fill="#AED0F3"/>
<path d="M43.8869 49.4848C41.1688 48.366 38.4094 46.8789 35.3206 46.8789C30.7629 46.8789 26.4249 49.9486 23.391 52.8274C23.7616 53.2503 24.2421 53.646 24.6952 54.0007C27.6055 51.0128 31.0375 47.6839 34.291 47.6839C36.3091 47.6839 37.7642 49.2119 39.4528 50.2897C41.8003 51.7768 45.0263 52.6227 47.7994 51.5313C49.282 50.9719 50.7235 50.1396 51.808 48.8026C49.6115 50.2897 46.3442 50.4944 43.8869 49.4848Z" fill="#AED0F3"/>
<path d="M57.766 35.7323C57.3541 36.3871 56.9423 37.0693 56.352 37.5877C56.4481 37.1921 56.7775 36.8374 56.956 36.4417C57.5738 35.1183 57.8483 33.6039 57.6973 32.0349C57.5051 30.1249 56.7089 28.3513 57.0246 26.3457C55.3773 29.8657 55.9127 34.2861 54.9654 38.0925C54.7595 38.9384 54.2379 39.6752 53.9221 40.4665C55.542 39.2386 57.6561 38.1608 59.427 36.7692C61.1431 35.4321 62.6257 33.8495 63.4082 31.803C63.971 30.3295 64.1083 28.5696 63.971 26.9051C63.6827 30.6706 59.6742 32.6625 57.766 35.7323Z" fill="#AED0F3"/>
<path d="M52.165 42.6765C51.561 43.1676 50.9707 43.6315 50.3117 43.9316L50.2843 43.8907C51.0118 43.2358 51.7943 42.4582 52.3572 41.6532C54.1556 39.061 53.5515 35.5001 54.938 32.7578C53.6751 34.2586 52.4945 35.8003 51.7669 37.5193C50.6 40.2752 50.2019 43.4268 47.5798 45.5279C50.4078 44.6001 53.6888 44.7775 56.2285 43.1267C58.9054 41.3803 61.3902 38.6244 61.9119 35.5137C60.0449 39.7432 55.3224 40.0706 52.165 42.6765Z" fill="#AED0F3"/>
<path d="M45.1225 46.5788C44.5596 46.7016 44.0379 46.879 43.4339 46.7971C43.9144 46.497 44.5459 46.456 45.1087 46.2514C48.2387 45.0781 48.7192 41.7491 50.4352 39.4707C48.2524 40.9169 46.4403 42.8952 44.3949 44.7506C42.9672 46.0468 41.1962 46.5925 39.3567 46.9745C39.796 47.1382 40.3726 47.0973 40.853 47.2201C44.1615 48.0387 47.8131 49.3211 51.3275 48.1615C53.5926 47.4111 55.9539 45.6511 57.107 43.4272C54.0731 46.8244 49.1448 45.733 45.1225 46.5788Z" fill="#AED0F3"/>
<path d="M31.9986 0.000976562C19.5061 0.000976562 9.34741 10.097 9.34741 22.5123C9.34741 34.9277 19.5061 45.0237 31.9986 45.0237C44.4911 45.0237 54.6499 34.9277 54.6499 22.5123C54.6499 10.097 44.4911 0.000976562 31.9986 0.000976562ZM31.9986 26.81C29.61 26.81 27.6743 24.8863 27.6743 22.5123C27.6743 20.1384 29.61 18.2147 31.9986 18.2147C34.3873 18.2147 36.323 20.1384 36.323 22.5123C36.323 24.8863 34.3873 26.81 31.9986 26.81ZM35.2522 18.8969C34.4559 18.1874 33.4263 17.7372 32.2869 17.669V13.9853C34.4422 14.0535 36.4053 14.9131 37.8742 16.291L35.2522 18.8969ZM31.7241 17.669C30.5847 17.7372 29.555 18.1874 28.7588 18.8969L26.1368 16.291C27.6057 14.9131 29.5688 14.0535 31.7241 13.9853V17.669ZM28.3744 19.2925C27.6606 20.0838 27.2076 21.1071 27.1389 22.2395H23.4324C23.501 20.0975 24.3659 18.1465 25.7524 16.6867L28.3744 19.2925ZM27.1389 22.7852C27.2076 23.9176 27.6606 24.9408 28.3744 25.7322L25.7524 28.338C24.3659 26.8782 23.501 24.9272 23.4324 22.7852H27.1389ZM28.7588 26.1278C29.555 26.8373 30.5847 27.2875 31.7241 27.3557V31.0394C29.5688 30.9712 27.6057 30.1116 26.1368 28.7337L28.7588 26.1278ZM32.2732 27.3421C33.4126 27.2738 34.4422 26.8236 35.2384 26.1142L37.8605 28.72C36.3916 30.098 34.4285 30.9575 32.2732 31.0257V27.3421ZM35.6366 25.7322C36.3504 24.9408 36.8034 23.9176 36.8721 22.7852H40.5786C40.51 24.9272 39.6451 26.8782 38.2586 28.338L35.6366 25.7322ZM36.8721 22.2395C36.8034 21.1071 36.3504 20.0838 35.6366 19.2925L38.2586 16.6867C39.6451 18.1465 40.51 20.0975 40.5786 22.2395H36.8721ZM38.2586 15.909C36.6799 14.4355 34.5932 13.5078 32.2732 13.4396V9.3466C35.7189 9.41482 38.8489 10.8064 41.1689 13.0166L38.2586 15.909ZM31.7241 13.4396C29.4178 13.5078 27.3174 14.4355 25.7387 15.909L22.8283 13.0166C25.1484 10.8064 28.2783 9.41482 31.7241 9.3466V13.4396ZM25.3543 16.291C23.8717 17.86 22.9381 19.9338 22.8695 22.2395H18.7511C18.8197 18.815 20.22 15.7044 22.4439 13.3987L25.3543 16.291ZM22.8832 22.7852C22.9519 25.0773 23.8854 27.1647 25.368 28.7337L22.4439 31.626C20.22 29.3203 18.8197 26.2097 18.7511 22.7852H22.8832ZM25.7524 29.1157C27.3311 30.5892 29.4178 31.5169 31.7378 31.5851V35.6781C28.2921 35.6099 25.1621 34.2183 22.842 32.008L25.7524 29.1157ZM32.2732 31.5715C34.5795 31.5032 36.6799 30.5755 38.2586 29.102L41.1689 31.9944C38.8489 34.2046 35.7189 35.5962 32.2732 35.6644V31.5715ZM38.643 28.72C40.1256 27.1511 41.0591 25.0773 41.1278 22.7716H45.2462C45.1775 26.196 43.7773 29.3067 41.5533 31.6124L38.643 28.72ZM41.1278 22.2395C41.0591 19.9474 40.1256 17.86 38.643 16.291L41.5533 13.3987C43.7773 15.7044 45.1775 18.815 45.2462 22.2395H41.1278ZM41.5533 12.6346C39.1372 10.3289 35.8699 8.88274 32.2732 8.81452V5.18541C36.8721 5.25363 41.0454 7.10911 44.1205 10.0697L41.5533 12.6346ZM31.7241 8.80087C28.1273 8.86909 24.8601 10.3153 22.4439 12.621L19.8768 10.0697C22.9519 7.10911 27.1252 5.25363 31.7241 5.18541V8.80087ZM22.0596 13.0166C19.7395 15.4179 18.2843 18.6649 18.2157 22.2395H14.5778C14.6464 17.669 16.5134 13.5214 19.4924 10.4654L22.0596 13.0166ZM18.2157 22.7852C18.2843 26.3597 19.7395 29.6068 22.0596 32.008L19.4924 34.5593C16.5134 31.5032 14.6464 27.3557 14.5778 22.7852H18.2157ZM22.4439 32.3901C24.8601 34.6958 28.1273 36.142 31.7241 36.2102V39.8256C27.1252 39.7574 22.9519 37.9019 19.8768 34.9413L22.4439 32.3901ZM32.2732 36.2238C35.8699 36.1556 39.1372 34.7094 41.5533 32.4037L44.1205 34.955C41.0454 37.9156 36.8721 39.7711 32.2732 39.8393V36.2238ZM41.9514 32.008C44.2715 29.6068 45.7266 26.3597 45.7953 22.7852H49.4332C49.3646 27.3557 47.4976 31.5032 44.5186 34.5593L41.9514 32.008ZM45.7953 22.2395C45.7266 18.6649 44.2715 15.4179 41.9514 13.0166L44.5186 10.4654C47.4976 13.5214 49.3646 17.669 49.4332 22.2395H45.7953ZM44.5186 9.68769C41.3337 6.61795 37.0368 4.7079 32.2732 4.63968V0.546707C38.1625 0.614923 43.5027 2.98885 47.4289 6.79532L44.5186 9.68769ZM31.7241 4.63968C26.9742 4.7079 22.6636 6.61795 19.4787 9.68769L16.5821 6.79532C20.5083 2.98885 25.8485 0.614923 31.7378 0.546707V4.63968H31.7241ZM19.0943 10.0697C16.0055 13.2349 14.0836 17.5053 14.0149 22.2395H9.89653C9.96517 16.3865 12.3538 11.0793 16.184 7.17733L19.0943 10.0697ZM14.0287 22.7852C14.0973 27.5058 16.0192 31.7898 19.108 34.955L16.184 37.8337C12.3538 33.9454 9.9789 28.6382 9.91026 22.7852H14.0287ZM19.4924 35.337C22.6773 38.4067 26.9742 40.3168 31.7378 40.385V44.478C25.8485 44.4098 20.5083 42.0358 16.5821 38.2294L19.4924 35.337ZM32.2732 40.385C37.0231 40.3168 41.3337 38.4067 44.5186 35.337L47.4289 38.2294C43.5027 42.0358 38.1625 44.4098 32.2732 44.478V40.385ZM44.903 34.9413C47.9918 31.7761 49.9137 27.5058 49.9823 22.7716H54.1007C54.0321 28.6245 51.6434 33.9317 47.8133 37.8337L44.903 34.9413ZM49.9823 22.2395C49.9137 17.5189 47.9918 13.2349 44.903 10.0697L47.8133 7.17733C51.6434 11.0793 54.0321 16.3865 54.1007 22.2395H49.9823Z" fill="#AED0F3"/>
<path d="M33.3028 17.3008L33.1655 17.3144V17.4781L33.3028 17.4645V17.3008Z" fill="#AED0F3"/>
<path d="M33.1379 17.083H32.9595V17.2194H33.1379V17.083Z" fill="#AED0F3"/>
<path d="M32.6299 17.0417L32.7946 17.069L32.8083 16.9326L32.6436 16.9053L32.6299 17.0417Z" fill="#AED0F3"/>
<path d="M32.4928 16.987L32.3418 16.9733L32.3555 16.8369L32.5203 16.8506L32.4928 16.987Z" fill="#AED0F3"/>
<path d="M31.3533 16.8096H31.1748V16.946H31.3533V16.8096Z" fill="#AED0F3"/>
<path d="M30.7769 17.0827L30.9416 17.11L30.9553 16.9736L30.8043 16.9463L30.7769 17.0827Z" fill="#AED0F3"/>
<path d="M30.8042 17.3014L30.6121 17.2468L30.6532 17.1104L30.8317 17.1649L30.8042 17.3014Z" fill="#AED0F3"/>
<path d="M30.4747 17.4645L30.4473 17.3281L30.5845 17.3008L30.612 17.4372L30.4747 17.4645Z" fill="#AED0F3"/>
<path d="M12.5597 31.5854V31.8856H12.697L12.6695 31.5445L12.491 31.4763V31.3535H12.3812V31.5854H12.5597Z" fill="#AED0F3"/>
<path d="M13.5208 32.418L13.864 32.5817L13.9738 32.8955L14.1385 33.0183L14.2895 33.3594L14.2072 33.5231L13.9463 33.2911L13.7679 33.0319L13.6718 32.8273L13.5208 32.418Z" fill="#AED0F3"/>
<path d="M19.2864 39.4984L19.4099 39.7986L19.2452 39.8941L19.1491 39.7576L18.9294 39.6894L18.902 39.4848L18.7235 39.2119L18.9981 39.2528L19.2864 39.4984Z" fill="#AED0F3"/>
<path d="M31.2984 18.7884H31.0513L31.0101 18.2836L31.1474 18.1881V17.9289H30.3512L30.3237 17.6696L30.4336 17.6014L30.2551 17.5332L30.1178 17.7106L30.0766 17.9152L29.8433 17.9561V18.0653H29.6785V18.3654L29.0333 18.8975L27.7566 18.8566C27.6605 19.0612 27.4409 18.8293 27.4409 18.8293C27.3997 18.6929 27.0702 18.8293 27.0702 18.8293C27.0702 19.0885 26.6309 18.7202 26.6309 18.7202L25.8347 18.1471C25.3817 17.7379 24.6953 18.2563 24.6678 18.3791C24.6953 18.7065 24.1461 18.4473 24.1461 18.4473C24.1461 18.4473 23.6931 18.3109 23.6245 18.4882C23.5558 18.6656 23.2538 18.6247 23.2538 18.6247L23.2126 18.7202L22.9793 18.7611L22.9381 18.8975L22.6635 18.9385L23.3499 18.9112C23.5284 18.8839 23.2813 19.3068 23.1714 19.2795L22.8557 19.3068L22.7459 19.416H22.4439L22.3066 19.607L21.8673 19.5797C21.8673 19.5797 21.6202 19.7843 21.6339 19.8526C21.6614 19.9208 21.5927 20.1254 21.5241 20.1254C21.4554 20.1254 21.3182 20.3301 21.3594 20.3983C21.4005 20.4665 21.2221 20.6984 21.2221 20.6984L21.1809 20.9304L21.0436 20.9713V21.5989L20.769 21.7899V22.0628L20.3572 22.4993L20.3984 22.8677L20.0552 23.2361L20.0964 23.6045L19.8905 23.6727L19.8493 23.8364L19.7532 24.3139L19.9866 24.3412C20.0964 24.3003 20.0826 24.6413 19.9866 24.6823C19.8905 24.7232 19.6434 24.8187 19.7806 24.9142C19.9179 25.0097 19.41 24.9824 19.41 24.846C19.41 24.7096 19.1354 24.5868 19.0668 24.6413C18.9981 24.6823 18.8883 24.4367 18.8883 24.4367C18.6412 24.1775 17.8587 24.464 17.8587 24.464L17.7489 24.8323C17.5018 24.8733 17.337 25.2962 17.337 25.2962C17.1311 25.3644 16.9664 25.6237 17.035 25.6919C17.1037 25.7601 16.9252 25.7874 16.9252 25.7874V26.2922L16.8154 26.4559L16.8428 27.0016C16.9801 27.0016 16.9527 27.2608 16.9527 27.2608C16.7193 27.2881 16.7742 27.5883 16.7742 27.5883L16.2937 27.752L16.1976 27.8884L15.6073 27.8611L15.4426 28.0249L15.2778 27.8611H14.1384L14.0972 27.752L13.8639 27.7111L13.8364 27.4518L13.4932 27.4791L13.4246 27.6156L13.0539 27.6429C13.0814 27.8748 12.6832 28.2159 12.6421 28.1204C12.6009 28.0249 12.34 27.7793 12.4636 27.7247C12.5734 27.6838 12.8754 27.6292 12.8754 27.6292V27.4655L12.0243 27.4382L11.9282 27.5746L11.585 27.6019V27.9703L11.4203 28.0112C11.3104 28.0794 11.4477 28.3387 11.4477 28.3387C11.6125 28.5024 11.4203 28.748 11.4203 28.748C11.283 28.8844 11.5301 29.1436 11.5301 29.1436C11.7086 29.1845 11.4203 29.321 11.4203 29.321C11.4615 29.5529 11.5987 29.6211 11.5987 29.6211C11.4615 29.8531 11.6948 29.9622 11.6948 29.9622L11.7223 30.3579L11.887 30.4534V30.7126L11.9831 30.8763H12.3538L12.3263 30.3033C12.0106 29.9349 12.6009 29.8394 12.6283 29.9759C12.6558 30.1123 12.9029 30.1805 12.9029 30.1805C12.9441 30.5216 13.3422 30.7262 13.452 30.3851C13.5618 30.0441 13.6579 30.2487 13.7266 30.4124C13.7952 30.5762 14.2345 30.9718 14.2345 30.9718H14.5777L14.6189 31.2992C15.0033 31.272 15.1268 31.3265 15.2778 31.845C15.4426 32.3771 15.8681 32.5135 15.8681 32.5135L16.1839 32.4862C16.1839 32.2133 16.4996 32.5271 16.4996 32.6772C16.4996 32.8137 17.1174 33.3457 17.1174 33.3457L17.7352 33.4822L18.3117 33.946L18.751 33.9051H18.9295C19.0393 33.5095 19.5884 33.9324 19.6434 34.0688C19.6845 34.2053 20.0552 34.4372 20.0964 34.3281C20.1376 34.2189 20.3984 34.2871 20.4396 34.6282C20.4808 34.9693 20.6455 34.9011 20.6455 34.9011L21.9497 34.8738L22.4027 34.4781L23.5696 34.4508C24.1599 34.4236 23.8029 33.6186 23.6794 33.6186C23.4735 33.4549 23.748 32.7864 23.748 32.7864L22.0869 31.2447C21.7026 31.2447 22.0458 30.6853 22.0458 30.6853C22.3478 30.4943 21.9771 30.2078 21.9771 30.2078C22.0183 29.9349 21.8124 29.6075 21.8124 29.6075C21.4005 29.3346 21.5104 28.8025 21.5104 28.8025V28.4342C21.1672 28.1067 21.6476 28.0658 21.6476 28.0658C21.8124 27.7929 21.5378 27.5883 21.5378 27.5883L21.5104 27.2881L21.1397 27.2472L21.0985 26.1694L20.2748 24.9961C20.1101 24.9551 20.2337 24.6686 20.2337 24.6686C20.4396 24.5595 20.1925 24.273 20.1925 24.273L20.165 23.7682L20.6455 23.7272L20.7553 23.5499H20.9887L20.9612 22.9496C21.0711 22.6494 21.3456 22.8131 21.3456 22.8131L21.6614 22.8404L21.8398 22.4993L21.881 22.2265L21.6339 22.1992C21.3594 22.0355 21.4966 21.4352 21.4966 21.4352C21.9359 20.7939 22.4301 21.1623 22.4301 21.1623L22.7459 21.135C23.2264 21.4625 22.7871 22.0491 22.7871 22.0491C22.691 22.1856 22.7459 22.6221 22.7459 22.6221L22.8557 23.3589L22.5537 23.6181C22.3066 23.7545 22.3066 24.082 22.5811 24.1502C22.7596 24.1775 22.691 24.6141 22.4164 24.3139C22.0046 24.3139 22.6498 24.6823 22.4576 24.5868C22.8694 24.7914 22.7733 24.4094 22.7733 24.4094L23.3225 23.9728C23.5284 23.8091 23.899 24.3139 23.899 24.3821C23.899 24.4503 24.8051 24.4094 24.8051 24.4094C25.0522 24.5731 25.1483 24.9824 25.1483 24.9824C25.3954 24.655 25.9308 24.9551 25.5327 25.1461C25.9033 25.3781 25.9033 25.5827 25.9033 25.5827C26.2053 25.4872 26.2053 25.7192 26.2053 25.7874C26.2053 25.8556 26.3014 25.4463 26.3014 25.4463C25.9582 25.1871 26.7545 25.1052 26.5348 25.5554L26.3975 25.7601L26.6309 25.9374L26.6584 26.4695C27.1663 26.4286 27.029 25.801 27.029 25.801L27.2624 25.7601C27.2624 25.5554 27.4271 25.6646 27.4271 25.6646C27.2624 24.8869 27.7978 24.7505 27.7978 24.7505C28.0998 24.6823 28.1135 24.0547 28.1135 24.0547C27.9076 23.9592 28.0174 23.6454 28.2508 23.9182C28.4842 24.1911 28.1135 23.3589 28.1135 23.3589L27.9351 23.1952L27.688 23.1679L27.6605 22.9086H27.2487L27.18 23.2361L27.029 23.3043L26.9878 23.2088L26.9192 23.468H26.5074L26.4799 23.1952L26.727 23.1269L26.8231 22.9905L26.8917 22.6221H27.1938L27.5781 22.513C27.6056 22.1173 27.8115 22.2128 27.8115 22.2128L27.9488 22.322L28.1547 22.4857L28.1822 22.6221L28.0449 22.6904L28.0174 22.8814L28.0861 23.1406H28.2645C28.3332 22.7722 28.8137 22.7722 28.9509 23.0041L29.0882 22.6767C28.7725 22.513 29.0882 22.2674 29.1706 22.3766C29.2667 22.4857 29.4726 22.0764 29.4726 22.0764C29.4726 22.0764 29.6373 22.2811 29.4726 22.0082C29.3079 21.7353 29.5824 21.5989 29.5824 21.5989C29.5413 21.326 29.8845 21.367 29.8845 21.367L29.9119 20.9986L29.5962 20.9713C29.5275 21.2987 29.253 21.0122 29.3902 20.944C29.5275 20.8758 29.6648 20.7394 29.6648 20.7394V20.5074L29.8021 20.4665L29.8295 20.2346H30.1727L30.4748 20.0981L30.5434 19.989L30.8591 19.9617L31.3122 19.5524L31.271 19.375C30.9964 19.375 31.271 19.1704 31.271 19.1704L31.2984 18.7884Z" fill="#AED0F3"/>
<path d="M22.1007 23.3446L21.6889 23.3037L21.7163 23.4674H21.8261C22.0046 23.7949 21.8536 24.5725 21.8536 24.5725C21.8536 24.5725 21.579 24.5998 21.5379 24.4634C21.4967 24.327 21.3731 24.7635 21.4692 24.8318C21.5653 24.9 21.8811 24.8318 21.9085 25.091C21.936 25.3502 22.1144 24.9273 22.1144 24.9273L22.1007 23.3446Z" fill="#AED0F3"/>
<path d="M21.6888 25.2137V25.7594L22.0458 26.2506L22.183 25.9231L22.238 25.7185L22.0732 25.6503L22.1007 25.3092L22.238 25.2819L22.2517 25.1182L21.9085 25.3501L21.6888 25.2137Z" fill="#AED0F3"/>
<path d="M22.2792 26.7554V26.5234L22.1144 26.5507L22.1007 26.7281L22.2792 26.7554Z" fill="#AED0F3"/>
<path d="M22.0732 27.861V27.6973L21.881 27.7246V27.8883L22.0732 27.861Z" fill="#AED0F3"/>
<path d="M22.3478 27.151C22.4027 27.151 22.4439 27.11 22.4439 27.0555C22.4439 27.0009 22.4027 26.96 22.3478 26.96C22.2929 26.96 22.2517 27.0009 22.2517 27.0555C22.2517 27.11 22.2929 27.151 22.3478 27.151Z" fill="#AED0F3"/>
<path d="M22.4987 27.6285C22.5518 27.6285 22.5948 27.5857 22.5948 27.533C22.5948 27.4803 22.5518 27.4375 22.4987 27.4375C22.4456 27.4375 22.4026 27.4803 22.4026 27.533C22.4026 27.5857 22.4456 27.6285 22.4987 27.6285Z" fill="#AED0F3"/>
<path d="M22.5125 24.9957C22.5656 24.9957 22.6086 24.9529 22.6086 24.9002C22.6086 24.8474 22.5656 24.8047 22.5125 24.8047C22.4594 24.8047 22.4164 24.8474 22.4164 24.9002C22.4164 24.9529 22.4594 24.9957 22.5125 24.9957Z" fill="#AED0F3"/>
<path d="M29.8295 21.7757H29.9668L29.9943 21.9258L29.8982 22.0077L29.857 22.1305L29.6785 22.1714L29.2667 22.567L29.2392 22.7444L29.1294 22.9081L28.9921 23.2492L28.5116 23.2765L28.4155 23.6858L28.4842 24.0405L28.896 24.2042L28.9372 23.9723L29.0745 23.9041L29.1019 23.6722L29.198 23.5084L29.3353 23.3447L29.3765 23.1673L29.6099 23.0309L29.8844 22.9763L29.9943 22.8399L30.0354 22.567L30.0629 22.3624L30.159 22.2123L30.4335 22.1032V21.6666H30.2963L30.2688 21.5029L30.0217 21.4756L29.9668 21.5984H29.857L29.8295 21.7757Z" fill="#AED0F3"/>
<path d="M30.9003 23.0716V22.7441L30.8592 22.444L30.516 22.2803L30.2689 22.5122L30.2277 22.8396V23.0443L29.9943 23.0852L29.9531 23.7128L29.7746 23.781L29.8021 24.013L29.555 24.0812L29.3079 24.1494L29.2667 24.4496L29.0882 24.5587L28.9921 24.8316L28.8823 25.5001C28.8823 25.5001 29.0882 25.8957 29.1981 25.7047C29.3079 25.5274 29.5001 25.5001 29.5001 25.5001L29.5687 25.3364L30.1865 25.3637C30.2277 25.1044 30.5297 25.1999 30.5297 25.3227C30.5297 25.4319 30.7631 25.35 30.7631 25.35L30.9278 25.0908H31.1749L31.2024 24.8179L31.3122 24.7497V24.3404C31.6828 24.2313 31.6279 23.8765 31.6279 23.8765L31.724 23.7674L31.6828 23.6037C31.5044 23.5355 31.5867 23.3717 31.7103 23.4127C31.8201 23.4536 31.5456 23.208 31.5456 23.208C31.4083 23.3172 31.2985 23.0716 31.2985 23.0716H30.9003Z" fill="#AED0F3"/>
<path d="M31.271 25.8551C31.2436 26.128 30.9004 26.2235 30.9004 26.2235L30.6533 26.1553L30.516 26.0461L30.4885 25.7187L30.6944 25.6914L30.7356 25.8278L31.271 25.8551Z" fill="#AED0F3"/>
<path d="M32.5066 24.3815C32.5615 24.5861 32.5478 24.0541 32.6439 24.0813C32.74 24.1086 32.6714 23.7539 32.6714 23.7539L32.2595 24.0541C32.4517 24.0813 32.4792 24.286 32.5066 24.3815Z" fill="#AED0F3"/>
<path d="M33.7145 23.1808C33.8106 23.3855 33.7831 23.6856 34.1263 23.9176C34.2361 23.9994 34.0577 24.1495 33.9478 24.0813C33.838 24.0131 33.5085 23.5083 33.5085 23.5083V23.2081C33.5772 23.0308 33.6733 23.099 33.7145 23.1808Z" fill="#AED0F3"/>
<path d="M33.7146 30.1804L33.7832 30.2486L33.8519 30.3714L34.0029 30.1122L33.8793 30.0713L33.7146 30.1804Z" fill="#AED0F3"/>
<path d="M36.4464 29.4839L36.6248 29.3611L36.5562 29.252L36.364 29.3611L36.4464 29.4839Z" fill="#AED0F3"/>
<path d="M43.0496 34.2872L43.2555 34.3827L43.283 34.7783C43.5575 35.0512 44.4498 34.8192 44.4498 34.751C44.4498 34.6828 44.4087 33.9051 44.4087 33.9051L44.2988 33.796L44.2714 33.223C44.3675 32.9228 43.8321 32.4862 43.7909 32.5817C43.7497 32.6772 43.4477 32.609 43.4477 32.6909C43.4477 32.7864 43.2692 33.2366 43.3516 33.4003C43.4477 33.5641 43.283 33.5641 43.2555 33.7278C43.2281 33.8642 42.9947 34.1371 43.0496 34.2872Z" fill="#AED0F3"/>
<path d="M42.5416 33.3594C42.5004 33.5368 42.3356 33.6323 42.2395 33.564C42.1435 33.4958 42.3494 33.6732 42.4043 33.7687C42.4455 33.8642 42.5827 33.8642 42.6377 33.7687C42.6788 33.6732 42.6651 33.4685 42.7063 33.373C42.7475 33.2912 42.569 33.2639 42.5416 33.3594Z" fill="#AED0F3"/>
<path d="M41.6494 29.1436H41.4846V29.5801H41.6494V29.1436Z" fill="#AED0F3"/>
<path d="M43.846 24.7097C43.7499 24.5732 44.299 24.3413 44.3951 24.6142C44.4912 24.887 44.3951 24.8461 44.299 24.8188C44.2166 24.7915 43.9832 24.887 43.846 24.7097Z" fill="#AED0F3"/>
<path d="M44.3402 21.626L44.3127 21.7624L44.5598 21.8033L44.5873 21.6669L44.3402 21.626Z" fill="#AED0F3"/>
<path d="M43.6949 22.0211L43.7087 22.062L43.8459 22.0074L43.791 21.8983L43.7636 21.8164L43.6949 21.8573L43.5302 21.9528L43.3792 21.8573L43.3105 21.9801L43.489 22.0893L43.5302 22.1166L43.5576 22.0893L43.6949 22.0211Z" fill="#AED0F3"/>
<path d="M44.5596 16.4141H44.2164C44.2164 16.4141 44.3262 16.455 44.0105 16.1549C43.6947 15.8547 43.4888 16.2231 43.4888 16.2231L43.1182 16.264V16.6324L42.9397 16.7006L42.9672 16.9325L43.2143 16.9052C43.2143 16.9052 43.2143 17.1781 43.2829 17.069C43.3515 16.9598 43.9281 17.0962 43.8732 17.3691C43.8595 17.4783 44.4498 17.7784 44.3811 18.1468C44.6832 18.1877 44.6145 18.4879 44.6145 18.4879L44.9989 18.5288L45.1087 18.2969L45.2185 18.3241V18.1877L44.9714 18.1195L44.9303 17.3828L44.7655 17.2736L44.8067 17.0826L44.6282 17.0144L44.7243 16.7142L44.5596 16.4141Z" fill="#AED0F3"/>
<path d="M45.5617 18.7607L45.3833 18.7334L44.9714 18.8016L44.7381 19.2382C44.7381 19.2382 44.8479 19.3064 44.944 19.4701C45.0401 19.6339 45.0813 20.5752 44.8067 20.739C44.5321 20.9027 44.8342 20.8072 44.8342 20.8072L44.793 21.312C44.8616 21.5439 44.9714 21.4211 45.0401 21.312C45.1087 21.2028 45.1774 21.1755 45.2735 21.0527C45.3695 20.9436 45.5068 20.7253 45.5206 20.5752C45.548 20.4115 45.6578 20.1659 45.5892 20.0977C45.5206 20.0295 45.6578 19.7021 45.6578 19.7021C45.6578 19.7021 45.7539 19.5111 45.6578 19.3337C45.5617 19.1427 45.6853 18.938 45.7539 18.8562L45.5617 18.7607Z" fill="#AED0F3"/>
<path d="M45.8364 19.7018L45.8502 19.5244L45.9874 19.5381L45.9737 19.7291L45.8364 19.7018Z" fill="#AED0F3"/>
<path d="M45.8228 20.3433L45.6992 20.2751L45.7679 20.1387L45.8914 20.2069L45.8228 20.3433Z" fill="#AED0F3"/>
<path d="M45.6304 18.5152L45.5343 18.3106C45.5343 18.3106 45.5343 18.1332 45.5755 18.0377C45.6167 17.9422 45.4794 17.8604 45.4108 17.8331C45.3421 17.8058 45.3696 17.6284 45.3421 17.5329C45.3147 17.4374 45.1637 17.3692 45.1637 17.3692C45.1637 17.3692 45.1225 17.0281 45.1225 16.9599C45.1225 16.8917 44.9166 16.7962 44.9852 16.728C45.0538 16.6598 45.095 16.5643 45.1637 16.5233C45.2323 16.4824 45.095 16.155 45.2048 16.2232C45.3147 16.2914 45.3147 16.4142 45.3696 16.496C45.4108 16.5916 45.3421 16.9053 45.4657 16.9736C45.5755 17.0418 45.4382 17.2737 45.6304 17.2737C45.8089 17.2737 45.6991 17.7103 45.6991 17.7103C45.6991 17.7103 45.6579 18.0377 45.7677 18.0514C45.8775 18.0787 45.8089 18.6244 45.8089 18.6244L45.6304 18.5152Z" fill="#AED0F3"/>
<path d="M44.1477 14.791C44.2163 14.8865 44.3536 14.9547 44.3536 15.0502C44.3536 15.1457 44.3124 15.2139 44.4497 15.2276C44.587 15.2549 44.6831 15.2003 44.7243 15.3231C44.7655 15.4322 44.7655 15.6232 44.7517 15.7187C44.7243 15.8142 44.7792 15.9507 44.889 15.9507C44.9988 15.9507 45.0263 15.978 45.0263 16.0462C45.0263 16.1144 45.1636 15.7869 45.1636 15.7869C45.0538 15.6914 44.9577 15.4868 44.9577 15.4868C44.9577 15.4868 44.8478 15.1594 44.8478 15.1184C44.8478 15.0775 44.6831 15.0229 44.6145 15.0093C44.5458 14.982 44.436 14.7773 44.436 14.7773L44.1477 14.791Z" fill="#AED0F3"/>
<path d="M44.3676 14.5719C44.2989 14.4764 44.2303 14.4082 44.1342 14.3673C44.0381 14.3263 43.9694 14.2718 43.8871 14.2718C43.791 14.2718 43.7086 14.1763 43.7498 14.0671C43.791 13.958 43.6812 13.9034 43.6812 13.8079C43.6812 13.7124 43.7498 13.7124 43.8596 13.7806C43.9694 13.8488 43.9557 13.8761 44.0381 13.9852C44.1342 14.0944 44.1754 14.2172 44.2715 14.1899C44.3676 14.1626 44.4362 14.3945 44.5186 14.3263C44.6147 14.2581 44.5872 14.4901 44.5872 14.4901L44.3676 14.5719Z" fill="#AED0F3"/>
<path d="M41.7042 17.1785C41.8278 17.3013 41.0178 17.2741 41.0178 17.1785C41.0178 17.083 41.0865 16.7693 41.2924 16.8375C41.4983 16.9057 41.5258 16.4282 41.5258 16.4282C41.5258 16.4282 41.3473 16.4555 41.4983 16.36C41.663 16.2645 41.4983 16.128 41.4297 16.0598C41.361 15.9916 41.2924 15.8688 41.2924 15.8688H41.6081C41.7454 15.7733 41.7866 15.3367 41.7866 15.3367C42.0612 15.4322 42.1984 15.2412 42.1984 15.2412C42.1984 15.2412 42.2396 15.3776 42.3357 15.5004C42.4318 15.6096 42.1023 15.6642 42.2259 15.7324C42.3357 15.8006 42.3906 16.0052 42.3357 16.0734C42.2945 16.1417 42.0337 16.1007 42.0337 16.0052C42.0337 15.9097 41.9376 16.1144 42.0337 16.2372C42.1298 16.3463 41.9239 16.51 41.869 16.51C41.8278 16.51 41.5258 16.551 41.7729 16.701C42.02 16.8375 42.2945 16.7693 42.2945 16.7693C42.2945 16.7693 42.5005 16.742 42.5691 16.8648C42.6377 16.9739 42.5416 17.0012 42.4318 17.0012C42.322 17.0012 41.7729 16.9603 41.7729 16.9603C41.7729 16.9603 41.6356 17.1103 41.7042 17.1785Z" fill="#AED0F3"/>
<path d="M40.2353 17.3827C40.3451 17.3554 40.6197 17.3418 40.6746 17.41C40.7158 17.4782 40.5098 17.5737 40.5098 17.5737L40.2353 17.6146C40.1529 17.5055 40.1255 17.41 40.2353 17.3827Z" fill="#AED0F3"/>
<path d="M43.187 15.4591C43.3655 15.3636 43.7636 15.3636 43.7361 15.2272C43.7087 15.0907 43.9695 15.0498 43.9695 15.0498L44.0381 15.3227L44.2441 15.4591L44.2715 15.7183C44.2715 15.7183 44.3401 15.6774 44.093 15.7456C43.8459 15.8138 43.997 15.923 43.997 15.923L43.4478 15.9503L43.3792 15.7183L43.187 15.4591Z" fill="#AED0F3"/>
<path d="M42.2947 14.2035C42.432 14.2035 42.2535 14.7356 42.6104 14.681C42.9811 14.6401 42.6379 14.8447 42.9125 14.8584C43.187 14.8857 43.1184 14.6537 43.2145 14.49C43.3106 14.3263 43.2557 14.2308 43.1046 14.1899C42.9399 14.1489 42.9399 14.1489 42.8987 13.9579C42.8575 13.7806 42.6653 13.726 42.6653 13.726L42.5967 13.4531L42.2947 13.6305L41.9927 14.0261C41.9927 14.3536 42.1574 14.2035 42.2947 14.2035Z" fill="#AED0F3"/>
<path d="M42.8987 16.155L42.9673 16.0186L43.0909 16.0731L43.0222 16.2232L42.8987 16.155Z" fill="#AED0F3"/>
<path d="M42.8026 15.9365H42.6653V16.1002H42.8026V15.9365Z" fill="#AED0F3"/>
<path d="M42.7752 12.8672L42.8027 13.0718L42.6654 13.0855L42.6379 12.8808L42.7752 12.8672Z" fill="#AED0F3"/>
<path d="M42.5279 15.0088H42.3906V15.1179H42.5279V15.0088Z" fill="#AED0F3"/>
<path d="M42.0201 15.0085L42.0063 14.872L42.2397 14.8584L42.2534 14.9948L42.0201 15.0085Z" fill="#AED0F3"/>
<path d="M40.1394 17.2329L40.0159 17.1784L40.0845 17.0146L40.2081 17.0692L40.1394 17.2329Z" fill="#AED0F3"/>
<path d="M39.4253 16.8102L39.4116 16.6738L39.645 16.6465L39.6587 16.7829L39.4253 16.8102Z" fill="#AED0F3"/>
<path d="M35.4718 16.7686L34.9639 16.7822L34.9776 16.9186L35.4718 16.905V16.7686Z" fill="#AED0F3"/>
<path d="M34.6343 16.9595L34.5793 16.7548L34.7166 16.7275L34.7578 16.9322L34.6343 16.9595Z" fill="#AED0F3"/>
<path d="M34.5383 17.11L34.4971 16.9736L34.5657 16.96L34.6069 17.0827L34.5383 17.11Z" fill="#AED0F3"/>
<path d="M35.6776 16.7142L35.6501 16.878L35.8973 16.9052C35.8973 16.9052 36.0071 17.0007 36.0071 17.069C36.0071 17.1372 36.1718 17.2054 36.2542 17.2054C36.3503 17.2054 36.5974 17.0144 36.5974 17.0144C36.5974 17.0144 36.7072 16.6869 36.6248 16.7142C36.5287 16.7415 36.3503 16.878 36.3228 16.7415C36.2954 16.6051 36.0208 16.6733 36.0208 16.6733L35.6776 16.7142Z" fill="#AED0F3"/>
<path d="M36.8171 16.4688C36.8171 16.537 36.7759 16.6325 36.9132 16.6598C37.0504 16.6871 37.2976 16.5643 37.325 16.7008C37.3525 16.8372 37.3525 16.9327 37.5309 17.0009C37.7094 17.0691 37.8329 17.0964 37.9702 17.0964C38.1075 17.0964 38.4095 17.0555 38.4095 17.0555C38.4095 17.0555 38.739 17.1101 38.7939 17.1646C39.041 17.4239 39.2057 17.4921 39.2744 17.3693C39.343 17.2601 39.2469 17.0009 39.2332 16.9054C39.2057 16.8099 38.89 16.3733 38.7802 16.4688C38.6704 16.5643 38.6429 16.4688 38.437 16.537C38.2311 16.6053 37.7918 16.5643 37.778 16.4688C37.7506 16.3733 37.4348 16.3324 37.4348 16.2369C37.4348 16.1414 37.2015 16.0322 37.2289 16.1687C37.2564 16.3051 37.0642 16.3733 37.023 16.3324C36.9544 16.2778 36.8171 16.4688 36.8171 16.4688Z" fill="#AED0F3"/>
<path d="M42.0612 13.5217L42.2259 13.0169C41.9925 12.9759 42.0474 12.7167 42.0474 12.7167C42.02 12.5121 41.7042 12.2801 41.5944 12.3483C41.4846 12.4166 41.5258 11.8708 41.5258 11.8708C41.5258 11.8708 41.7317 11.7344 41.8278 11.8026C41.9239 11.8708 41.0453 10.6566 40.8668 10.7657C40.6884 10.8749 40.2765 10.6566 40.2903 10.4383C40.3177 10.2336 39.4666 9.53783 39.4666 9.53783C39.4666 9.53783 39.192 9.36046 39.1508 9.4969C39.1096 9.63333 39.0135 9.72883 39.1508 9.79705C39.2881 9.86526 39.2606 9.6879 39.4254 9.83798C39.5901 10.0017 39.8784 10.2063 39.7686 10.3428C39.6588 10.4792 39.5215 10.5338 39.5215 10.5338L39.6862 10.7248H39.9333L39.9745 11.1204C39.9745 11.1204 40.2491 11.2569 40.3177 11.4206C40.3863 11.5843 40.3863 11.6798 40.3177 11.7617C40.2491 11.8572 40.1118 12.0209 40.1392 12.171C40.1667 12.3347 40.3452 12.4029 40.3452 12.4029L40.5236 12.4302L40.6609 12.4984V12.7986C40.8394 12.7576 41.1414 13.0032 41.1139 13.1669C41.0865 13.3306 41.1551 13.2351 41.3885 13.3989C41.6219 13.5626 41.5532 13.5899 41.7042 13.699C41.8553 13.7945 41.9925 13.7263 42.0612 13.5217Z" fill="#AED0F3"/>
<path d="M38.2999 10.3839C38.2724 10.2883 38.2312 9.97455 38.3685 9.9882C38.5058 10.0155 38.4097 9.9882 38.5744 10.0564C38.7392 10.1246 38.7529 9.94727 38.7529 9.94727H39L39.3157 10.2065L39.2746 10.4111L39.0412 10.4384C38.9314 10.2611 38.698 10.3293 38.7392 10.4794C38.7803 10.6431 38.6293 10.9432 38.5332 10.9569C38.4371 10.9842 38.1489 10.9842 38.1626 10.8477C38.2038 10.7113 38.2999 10.3839 38.2999 10.3839Z" fill="#AED0F3"/>
<path d="M38.1212 9.76942V9.59205C38.1212 9.59205 38.0937 9.41469 37.9839 9.41469C37.8741 9.41469 37.6682 9.27826 37.7093 9.18276C37.7505 9.08725 37.325 8.99175 37.325 8.99175C37.325 8.99175 36.9406 8.62338 37.0779 8.66431C37.2151 8.70524 37.1465 8.50059 37.1465 8.50059C37.1465 8.50059 36.8719 8.54152 36.8033 8.52788C36.7347 8.50059 36.7621 8.29594 36.7621 8.29594C36.7621 8.29594 36.4875 8.22773 36.4875 8.29594C36.4875 8.36416 36.5836 8.36416 36.6248 8.50059C36.666 8.63703 36.6523 8.86896 36.8582 8.90989C37.0641 8.95082 37.1053 9.00539 37.1328 9.1009C37.1602 9.1964 37.4073 9.21004 37.4073 9.21004L37.5858 9.30555L38.1212 9.76942Z" fill="#AED0F3"/>
<path d="M35.6502 7.42334L35.5815 7.23234L35.4031 7.19141V7.39605L35.6502 7.42334Z" fill="#AED0F3"/>
<path d="M35.5817 6.4547C35.3483 6.27734 35.8974 6.59114 35.8974 6.59114C36.0759 6.59114 36.1995 6.72757 36.1995 6.79578C36.1995 6.864 36.4466 6.83671 36.4466 6.83671L36.474 6.67299L36.2956 6.44106L36.1308 6.33191C36.1308 6.33191 35.8837 6.30463 35.8837 6.23641C35.8837 6.18184 35.6778 6.52292 35.5817 6.4547Z" fill="#AED0F3"/>
<path d="M39.7824 6.59108C39.7137 6.79573 39.6863 7.0686 39.5764 7.0686C39.4666 7.0686 39.5078 7.36875 39.5078 7.36875C39.5078 7.36875 39.8098 7.36875 39.8922 7.39603C39.9883 7.42332 39.9883 7.65526 39.9883 7.65526C40.3315 7.62797 40.4688 8.09184 40.4276 8.21463C40.3864 8.32378 40.5649 8.32378 40.5649 8.32378C40.5649 8.32378 40.5649 8.69214 40.5237 8.78765C40.4825 8.88315 40.8257 8.95136 40.9081 9.0878C41.0042 9.22423 40.8669 9.6881 40.7982 9.71539C40.7296 9.74267 40.9767 9.81089 40.963 9.92004C40.9355 10.0292 41.0316 9.92004 41.0591 10.111C41.0865 10.2884 41.1277 10.6841 41.1277 10.6841L41.4435 10.7113C41.4846 10.4112 42.0749 10.3975 42.171 10.4385C42.5554 10.5749 42.8574 11.1752 42.8574 11.3116C42.8574 11.4481 42.6103 11.4754 42.6103 11.4754L42.6515 12.1439C43.0359 12.253 43.3654 12.8124 43.3105 12.9079C43.2693 13.0034 43.585 12.9761 43.585 12.9761C43.6262 12.5668 44.0243 12.7033 44.0381 12.8397C44.0655 12.9761 44.1341 13.2763 44.1341 13.2763L44.244 13.4809L44.4087 13.6446L44.6558 13.6174L44.7245 13.7538L45.0265 13.7947C45.0265 13.7947 45.2736 14.0676 45.301 14.1358C45.3285 14.204 45.6717 14.1767 45.7541 14.204C45.8501 14.2313 45.9874 14.2995 46.0012 14.4087C46.0286 14.5178 46.1659 14.7088 46.1659 14.7088C46.1659 14.7088 46.4405 14.777 46.4679 14.8725C46.4954 14.968 46.6052 15.1727 46.6052 15.1727L46.8386 15.3637L46.866 15.5683L47.1131 15.5956L47.1818 15.8685L47.5936 15.8412L47.827 15.6775C48.129 15.5138 48.3349 15.3091 48.3486 15.2136C48.3761 15.1181 48.4173 14.777 48.6507 14.8453C48.884 14.9135 48.7193 14.3405 48.7193 14.3405C48.7193 14.3405 48.4036 14.1085 48.4173 13.9994C48.4447 13.8902 48.1015 13.6583 48.1153 13.5628C48.1427 13.4673 47.8133 13.2899 47.8407 13.1944C47.8682 13.0989 47.676 12.8533 47.676 12.8533L47.3328 12.5259L47.2916 12.3212L47.017 12.294L46.4679 11.6254L46.4954 11.4344L46.3306 11.4072V11.1479L46.1659 11.0524L45.9188 11.0251L45.4109 10.4794L45.3697 10.2202H45.1226L45.1637 9.74267C45.3285 9.53802 45.2324 9.14237 45.2324 9.14237C45.2324 9.14237 44.9166 9.30609 44.7519 9.23787C44.5872 9.16966 44.8205 9.00594 44.8205 9.00594V8.82858L44.6833 8.69214C44.6833 8.69214 44.2989 8.73307 44.2714 8.66486C44.244 8.59664 44.1753 8.29649 44.1753 8.29649L44.1479 7.90083L43.9831 7.83262L43.9557 7.69618L43.7086 7.72347V7.45061L43.5713 7.40968L43.434 7.34146L43.4066 7.0686L42.8986 7.04131L42.7339 6.80937L42.5554 6.53651L41.9788 6.49558L41.8416 6.35915L41.6082 6.31822L41.4435 6.25L41.3748 6.35915L40.9355 6.38643L40.9081 6.52287C40.7159 6.61837 39.8098 6.52287 39.7824 6.59108Z" fill="#AED0F3"/>
<path d="M42.1848 5.99058C42.1436 5.81322 42.6378 5.6495 42.7614 5.78593C42.8712 5.92237 43.2007 5.94965 43.2419 6.63181C43.2556 6.87739 42.83 6.37259 42.83 6.37259L42.4868 6.26345C42.2946 6.22252 42.1985 6.11337 42.1848 5.99058Z" fill="#AED0F3"/>
<path d="M35.4854 6.27677L35.3618 6.2222L35.4579 6.00391L35.5815 6.07212L35.4854 6.27677Z" fill="#AED0F3"/>
<path d="M34.3048 4.01239L34.0028 3.71224V3.45301L33.9067 3.35751L33.8106 3.03007L33.5086 2.93457L33.2065 3.04372L32.8908 3.24836L32.5476 3.28929L32.3691 3.49394L33.0967 3.56216L33.234 3.79409L33.7557 3.83502L34.0989 4.17611C34.4146 4.31254 34.4833 4.17611 34.3048 4.01239Z" fill="#AED0F3"/>
<path d="M34.2636 2.88046C34.2087 2.67581 33.9204 3.13968 34.2224 3.22154C34.5244 3.31705 34.8127 3.22154 34.8127 3.22154L34.8814 3.08511L36.0208 3.1124C36.1169 3.01689 36.1581 2.88046 36.1581 2.88046C36.1581 2.88046 36.4326 2.78496 36.5425 2.83953C36.6523 2.88046 36.5699 2.51209 36.4464 2.56667C36.3365 2.6076 36.1032 2.59395 36.1032 2.59395H35.6913C35.6639 2.43024 35.3069 2.49845 35.2795 2.59395C35.2658 2.67581 35.1285 2.7031 35.1285 2.7031L34.6068 2.74403C34.5519 2.88046 34.2911 2.97596 34.2636 2.88046Z" fill="#AED0F3"/>
<path d="M31.9985 6.7686C32.3555 6.87775 32.479 6.79589 32.5065 6.70038C32.5339 6.60488 32.5477 6.59124 32.6849 6.56395C32.8222 6.53667 32.6575 6.2638 32.5202 6.29109C32.3829 6.31837 32.2456 6.25016 32.2182 6.12737C32.1907 6.01822 31.9711 5.71807 31.9436 5.95001C31.9162 6.18194 31.7789 6.18194 31.8063 6.34566C31.8475 6.49574 31.9162 6.74131 31.9985 6.7686Z" fill="#AED0F3"/>
<path d="M29.3765 7.028C29.3628 6.94614 29.8295 6.93249 29.8982 7.00071C29.9668 7.06892 29.9256 7.19171 30.1316 7.19171C30.3375 7.19171 30.2414 7.32815 30.2277 7.39636C30.2002 7.46458 29.9805 7.43729 29.9531 7.36908C29.9256 7.30086 29.5824 7.27357 29.5824 7.27357C29.5824 7.27357 29.404 7.13714 29.3765 7.028Z" fill="#AED0F3"/>
<path d="M36.8995 2.37538L36.9545 2.42995L36.9956 2.38902L37.229 2.19801L37.1329 2.08887L36.9545 2.23894L36.8446 2.11615L36.7485 2.2253L36.8995 2.37538Z" fill="#AED0F3"/>
<path d="M35.8837 1.84312L35.9112 1.81583L36.172 1.65211L36.0896 1.54297L35.8837 1.6794L35.7327 1.5839L35.6641 1.70669L35.8425 1.81583L35.8837 1.84312Z" fill="#AED0F3"/>
<path d="M35.0599 6.53679L35.2109 6.76873L35.3207 6.68687L35.1697 6.44129L35.1422 6.41401H35.1148L34.8814 6.38672L34.8677 6.52315L35.0599 6.53679Z" fill="#AED0F3"/>
<path d="M27.5918 12.8262L27.6193 13.0854H27.9625C28.0997 13.0854 27.8526 12.9217 27.8526 12.9217C27.8526 12.9217 27.5781 12.949 27.5918 12.8262Z" fill="#AED0F3"/>
<path d="M28.0312 12.8396L28.1136 12.7305L28.2509 12.8396L28.1685 12.9488L28.0312 12.8396Z" fill="#AED0F3"/>
<path d="M23.8716 8.52812L23.9677 8.43262L24.105 8.56905L24.0089 8.66455L23.8716 8.52812Z" fill="#AED0F3"/>
<path d="M30.31 38.2846L30.4061 38.3801L30.5159 38.271L30.5845 38.2028L30.5022 38.1482L30.2688 38.0391L30.2139 38.1619L30.3511 38.2301L30.31 38.2846Z" fill="#AED0F3"/>
<path d="M28.5118 36.6196L28.6765 36.7288L28.7589 36.6196L28.6628 36.5514L28.7314 36.4968L28.649 36.3877L28.5118 36.5105L28.4431 36.5651L28.5118 36.6196Z" fill="#AED0F3"/>
<path d="M45.7128 32.1315C45.6854 32.0087 45.5481 31.9678 45.5343 31.9678L45.4932 32.1042C45.5069 32.1042 45.5206 32.1178 45.5343 32.1315L45.5618 32.2543C45.5481 32.2679 45.5343 32.2816 45.5343 32.2952L45.6304 32.3907C45.6991 32.2816 45.7265 32.2134 45.7128 32.1315Z" fill="#AED0F3"/>
<path d="M45.9189 31.6949L45.6992 31.6812L45.7129 31.4766L45.9326 31.5039L45.9189 31.6949Z" fill="#AED0F3"/>
<path d="M51.204 29.9073C51.3001 29.8527 51.4236 29.7299 51.4099 29.9892C51.3962 30.2484 51.2863 30.1665 51.204 30.2484C51.1216 30.3302 51.0667 29.9892 51.204 29.9073Z" fill="#AED0F3"/>
<path d="M52.371 28.9254V28.8981C52.371 28.8572 52.3573 28.8026 52.3299 28.748L52.2063 28.8163C52.22 28.8435 52.22 28.8845 52.2338 28.9118C52.2338 28.9527 52.2475 28.9936 52.2749 29.0209C52.3024 29.0346 52.3299 29.0482 52.371 29.0346L52.3436 28.8981C52.3436 28.9118 52.3573 28.9118 52.371 28.9254Z" fill="#AED0F3"/>
<path d="M52.0688 29.0341C52.11 29.1705 52.1512 29.307 52.1512 29.3206L52.2748 29.266C52.2748 29.266 52.2199 29.1296 52.1924 28.9932L52.0688 29.0341Z" fill="#AED0F3"/>
<path d="M51.561 29.5801L51.4237 29.5664C51.4099 29.6756 51.4374 29.812 51.5472 29.8256L51.5747 29.6892C51.5747 29.6892 51.561 29.6346 51.561 29.5801Z" fill="#AED0F3"/>
<path d="M50.9707 26.8375C50.957 26.7966 50.9433 26.7556 50.9021 26.742C50.806 26.701 50.6275 26.7693 50.5452 26.8238L50.6275 26.933C50.7099 26.8784 50.8335 26.8511 50.8472 26.8648C50.8472 26.8648 50.8472 26.8648 50.8472 26.8511L50.9707 26.8375Z" fill="#AED0F3"/>
<path d="M44.6422 19.4841C44.5461 19.5796 44.3401 19.6205 44.3401 19.6205L44.2715 19.8797L44.1617 19.9752C44.1617 19.9752 44.1891 20.0434 44.1617 20.2072C44.1342 20.3709 43.9283 20.4664 43.9283 20.4664L43.8322 20.5755C43.8322 20.5755 43.2831 20.6028 43.2144 20.5755C43.0085 20.48 43.1458 20.2072 43.2831 20.2345C43.4204 20.2617 43.2556 19.8388 43.2556 19.8388L43.4341 19.8115C43.4341 19.8115 43.4615 19.4022 43.5302 19.4022C43.5988 19.4022 43.5027 19.2658 43.4204 19.1976C43.3243 19.1293 43.2144 18.8974 43.1183 18.9247C43.0223 18.952 42.6653 18.9247 42.6653 18.9247L42.5967 19.0611L42.3496 19.1021C42.3496 19.1021 42.377 19.2794 42.3221 19.334C42.1848 19.4977 41.6632 19.8388 41.8828 19.2658L41.9515 19.1293V18.9247L41.5396 18.8974C41.5396 18.8974 41.3337 18.8292 41.3337 18.7337C41.3337 18.6382 41.3062 18.529 41.3062 18.529L40.8258 17.997L40.2492 17.9287L40.208 17.8196L39.8648 17.7787C39.453 17.574 39.0823 17.7514 39.1509 18.1061C39.2196 18.4472 39.3294 18.5836 39.1098 18.5836C38.8764 18.5836 38.8352 18.4063 38.8352 18.4063C38.8352 18.4063 38.6567 18.338 38.6567 18.4335C38.6567 18.529 38.5881 18.7064 38.6567 18.8019C38.7254 18.8974 38.5606 19.0338 38.492 18.9656C38.4234 18.8974 38.2449 18.6928 38.2861 18.6245C38.3273 18.5563 37.9703 18.1197 38.3273 18.0515C38.6979 17.9833 38.2998 17.7787 38.4371 17.7241L38.6156 17.6286H38.794L38.9038 17.5331L38.6018 17.4922L38.4234 17.4649L38.0802 17.4376C37.737 17.6695 37.6683 17.9424 37.6683 17.9424C37.4899 18.2835 37.0506 17.806 37.2153 17.6149C37.38 17.4239 36.7074 17.5877 36.5975 17.6832C36.4877 17.7787 36.1445 17.7241 36.1445 17.7241C36.0759 17.9287 35.7601 17.6968 35.8425 17.5604C35.9386 17.4239 35.9386 17.3284 35.9386 17.3284L35.8288 17.3012L35.6915 17.5604C35.3757 17.5604 35.2797 17.7377 35.3483 17.8605C35.4169 17.9697 35.2522 17.8332 35.211 17.997C35.1698 18.1607 35.2385 18.1607 35.3757 18.2289C35.513 18.2971 35.3071 18.2971 35.4032 18.4063C35.4993 18.5154 35.7739 18.4063 35.6091 18.57C35.4444 18.7337 35.1286 18.6655 35.1286 18.6655C35.1012 18.8701 34.6756 18.8292 34.6207 18.761C34.5795 18.6928 34.2363 18.2835 34.2363 18.2835L33.797 18.2562C33.7558 17.9287 34.0029 18.0925 34.099 17.8469C34.1951 17.5877 34.2363 17.1784 34.2363 17.1784C34.2363 17.1784 33.8657 17.1511 33.8519 17.2739C33.8245 17.383 33.6048 17.4649 33.6048 17.4649C33.6048 17.4649 33.4264 17.5331 33.495 17.6286C33.5636 17.7241 33.3577 17.765 33.3577 17.765C33.3577 17.765 33.3989 17.9151 33.3303 17.9697C33.1518 18.1607 32.6851 17.997 32.6164 17.9287L32.3419 17.8196L32.0673 17.6422L31.7515 17.7787L31.6555 17.8742H31.3123L31.2848 18.147L31.9026 18.2153L31.9437 18.7883L31.6966 18.7064H31.5319L31.4633 18.57L31.326 18.5427V19.0475L31.4633 19.1566L31.5731 19.2658L31.8065 19.2931L31.8476 19.5659L32.4242 19.5932L32.4929 19.7024L32.8361 19.7297L33.495 20.3982L33.4538 20.6028L33.344 20.671C33.3852 20.8348 33.042 20.7393 33.042 20.7393V20.8757L33.2067 20.903L33.3715 20.9985L33.6048 20.6028C33.8519 20.4391 33.9755 20.671 33.9892 20.8075C34.0167 20.9439 33.8794 20.9166 33.8794 20.9166V21.2441L34.0167 21.285C34.25 21.5578 33.9206 21.7216 33.9206 21.7216L33.8519 21.9535C33.7833 22.1582 33.5362 22.1172 33.5362 22.1172L33.4401 22.2537L33.1655 22.3219L33.7009 22.3901C33.7558 22.1991 33.8931 22.1582 33.9618 22.2537C34.0304 22.3492 34.0304 22.5129 34.0304 22.5129L34.1677 22.5402L34.1402 22.7994L34.2775 22.8403V23.577L34.4422 23.7544C34.7168 23.6453 34.7168 23.8226 34.5795 23.9181C34.4422 24.0136 34.5383 24.4229 34.5383 24.4229L34.4285 24.5321V24.7231L34.2912 24.8186V25.0778C34.0579 24.9687 33.7833 25.0096 33.7147 25.0778C33.5087 24.9414 33.0694 24.9823 33.0694 25.1051C33.2067 25.2825 32.9047 25.337 32.9047 25.337L32.74 25.5144C32.8498 25.7463 32.6301 25.7736 32.6301 25.7736V26.2102L32.3556 26.4694L32.383 27.0697C32.383 27.2334 32.7262 27.2471 32.7949 27.1652C32.8635 27.0697 33.1381 27.3562 33.1381 27.3562H33.344L33.3852 26.9469L33.2479 26.8787V26.2102L33.4813 25.951C33.7558 25.8555 33.6597 26.5513 33.6597 26.6195C33.6872 26.8787 33.797 26.8514 33.9068 26.7969C34.1402 26.7014 33.948 27.0561 33.7696 27.0288C33.5911 27.0015 33.7009 27.2607 33.7009 27.2607L33.8108 27.3017L33.6048 27.4654L33.4264 27.67L33.193 27.6018L32.9184 27.5745L32.8223 27.4108L32.6576 27.3835L32.6301 27.711L32.5203 27.8474L32.2458 28.1203C32.6164 28.1203 32.2046 28.3795 32.1085 28.3795C32.3144 28.4477 32.081 28.6523 31.5594 28.4886V28.6523L31.3809 28.6796L31.5456 28.857L31.7241 28.8843L31.6555 29.2799C31.6555 29.5801 30.9004 29.3754 30.8318 29.3072L30.8043 29.7165L30.667 29.7438L30.6945 30.0167L30.667 30.4123L30.9141 30.3714V30.5351L31.5319 30.5624L32.4242 29.621L32.9459 29.5119C32.9871 29.2799 33.2204 29.5528 33.2204 29.5528C33.4538 29.5255 33.495 29.6892 33.495 29.6892L33.797 29.7302C34.0441 29.7984 33.8931 29.8257 33.9068 29.9212C33.9343 30.0576 34.0441 30.0167 34.0441 30.0167L34.0853 29.7165L34.2226 29.7438L34.0853 29.5801L33.8382 29.4709L33.5636 29.3618C33.3852 29.1026 33.6048 29.1571 33.797 29.1844H34.099C34.099 29.1844 34.4422 29.6483 34.4422 29.7574C34.4422 29.8666 34.607 29.8939 34.607 29.8939L34.8129 29.8666L34.8815 30.0303H35.0875L35.1561 30.1667H35.5679L35.5954 29.9621L35.211 29.8939L35.1836 29.6619L34.909 29.5937C34.8129 29.1981 34.9776 29.0889 35.0875 29.2663L35.2247 29.2936L35.1836 28.9525L35.3483 28.9116L35.3071 28.434L35.1698 28.3931V28.2294L35.7464 28.2567C35.7052 27.9565 35.7739 27.8201 35.7739 27.8201H35.9386L35.9661 27.9292L36.6662 27.9975L37.1604 27.4381C37.1329 27.3972 37.2153 27.3699 37.1604 27.3153C37.0917 27.2471 36.9957 27.3153 36.8858 27.2471C36.776 27.1789 36.8858 26.7832 36.8584 26.7014C36.8309 26.6058 37.2428 26.4694 37.1741 26.6741C37.1055 26.8787 37.1741 26.9742 37.1741 26.9742C37.4761 26.7014 37.7232 27.0015 37.6958 27.0697C37.6683 27.1379 37.8605 27.2062 37.9703 27.1379C38.0802 27.0697 38.2174 27.3426 38.1763 27.479C38.1351 27.6155 37.7232 27.5882 37.6958 27.4517C37.6683 27.3153 37.5997 27.3562 37.5585 27.4244C37.5173 27.4927 37.3114 27.5336 37.1878 27.4654C37.1604 27.4517 37.1604 27.4381 37.1467 27.4244L36.6525 27.9838H36.6799C36.9545 28.1475 36.8172 28.3522 36.7211 28.3931C36.625 28.434 36.474 28.434 36.474 28.434L36.4328 28.5295L35.8425 28.5705L35.8013 28.8024C35.4993 28.7615 35.3895 29.0753 35.4581 29.239C35.5268 29.4027 35.4581 29.5391 35.4581 29.5391L35.7052 29.6483L36.021 29.5528C36.0621 29.3209 36.2681 29.2799 36.4603 29.1435C36.6387 29.0071 36.9407 29.4027 36.8446 29.5801C36.7485 29.7574 36.7485 29.8393 36.7485 29.8393L36.776 30.0439L36.5426 30.1395L36.3642 30.235L36.3367 30.3441H35.7189L35.6091 30.4532L35.3071 30.4805L35.211 30.617L35.0051 30.6443C35.0051 30.6443 34.6619 30.808 34.7992 30.9853C34.9365 31.1763 34.2226 31.1491 34.0716 30.8898C34.0304 31.1218 33.7696 30.9171 33.7696 30.9171L33.5225 30.8489L33.495 30.5078C33.4538 30.2759 33.0145 30.2759 33.042 30.4396C33.0694 30.6033 32.2183 30.5078 32.2183 30.5078L31.9437 30.6443L31.6966 30.7943L31.6692 30.9035L31.2573 30.9444L31.0789 31.0399L31.0102 30.9035H30.8318L30.6533 31.1627C30.1728 31.19 29.7198 31.4628 29.761 31.572C29.8022 31.6811 29.5825 31.8039 29.5825 31.8039L29.3766 31.8721L29.2393 32.0768L28.9648 32.1723L28.9236 32.6498L28.7863 32.7453V32.95L28.6216 32.9909V33.1L28.3882 33.1273L28.5255 33.4684L28.7039 33.5639C29.0197 33.6048 28.8824 34.0005 28.8824 34.0005L29.0609 34.0278L29.157 34.287L29.3354 34.6554C29.4041 34.9282 29.61 34.86 29.7061 34.8464C29.8022 34.8191 29.8845 35.1192 29.8845 35.1192L30.7906 35.1465C30.7906 35.1465 30.7494 35.242 30.9004 35.283C31.0651 35.3239 32.1085 35.3785 32.1497 35.3102C32.1085 35.1056 32.7262 35.051 32.9733 35.242C33.2204 35.4194 33.5636 35.3102 33.5636 35.3102L33.9068 35.7195L34.1402 36.2243L34.5246 36.3335L34.7992 36.4017L34.8953 36.7974L35.1012 36.8246L35.1698 37.0839C35.4169 37.2612 35.1012 37.6569 35.1012 37.6569V38.1617L35.2797 38.2572L35.2522 38.4482L35.5542 38.7483L35.8974 38.7756L36.7623 39.6897L37.4487 39.8944L37.5585 40.2627L37.737 40.2355L37.8742 40.1263L38.4234 40.099L38.6979 39.8398L38.9999 39.7989L41.5396 37.6569L41.3062 37.5205V37.0156C41.7181 36.7155 41.7455 36.1834 41.3474 36.1425C41.0591 36.1016 41.1827 35.8014 41.4573 35.7468L41.622 35.6786V35.474L42.1437 34.9965V34.6281L41.0042 33.6867C40.4963 33.5093 41.0042 32.4042 41.3474 32.4179C41.6906 32.4452 41.32 30.7125 41.32 30.7125L41.1415 30.617L41.1827 30.0576H40.9356L40.5238 30.5897L40.4139 30.958C40.3727 31.4356 38.9588 31.3537 38.8901 31.2855C38.8215 31.2173 38.341 31.0126 38.341 31.0126C38.341 31.0126 37.9703 30.7125 37.9017 30.808C37.8331 30.9035 37.5173 30.6988 37.5173 30.767C37.5173 30.8353 37.2153 30.6033 37.2153 30.6033L36.7623 30.4396L37.1055 30.3714L37.0368 30.0985L37.6271 30.3987C37.6958 30.4942 37.9978 30.4669 37.9978 30.4669L38.0939 30.576C38.0939 30.576 38.2724 30.5487 38.3959 30.6852C38.5057 30.8216 39.1098 30.7125 39.1098 30.7125L39.2745 30.8489L39.5216 30.9444L40.2355 30.9717L40.2629 30.5351L40.4002 30.3987L40.3727 30.1258L40.5375 29.9894V29.7574L40.6748 29.7165L40.7022 29.2117L40.812 29.1844V28.0793L40.4688 27.7519C40.4414 27.861 40.0845 27.861 40.0845 27.861C40.0845 27.861 39.9884 28.0247 39.9197 28.0247C39.8511 28.0247 40.0158 28.2294 39.9609 28.3658C39.9197 28.5023 39.7275 28.5023 39.7275 28.5023L39.3843 28.5978L39.2882 28.7069H38.9176L38.8764 28.4068L39.2882 28.2976L39.5216 28.1885L39.6314 27.9565C39.6589 27.7246 39.9334 27.7519 39.9334 27.7519C39.9334 27.7519 40.4551 27.3153 40.4826 27.1106C40.51 26.906 40.6885 26.333 41.0042 26.333H41.5945C41.8279 26.2375 41.7593 25.9373 41.7593 25.9373L42.0613 25.8964L42.1025 26.0601C42.1025 26.0601 42.5143 26.101 42.5555 26.0328C42.5967 25.9646 42.6928 25.8009 42.8026 25.8691C42.9124 25.9373 43.2831 25.7054 43.2831 25.7054C43.3105 25.5417 43.8734 25.6099 43.8734 25.6099L43.942 25.4052C43.942 25.4052 43.5576 24.8732 43.489 24.8732C43.4204 24.8732 43.0497 24.5457 43.0085 24.6685C42.6379 24.573 42.6653 24.0682 42.6653 24.0682L42.528 23.7408C42.528 23.5498 42.1848 23.1678 42.1162 23.2087C41.773 22.9495 42.0201 22.663 42.1162 22.6357C42.2123 22.6084 42.4319 22.2946 42.4319 22.2946L42.5418 21.9671L42.9262 21.858L42.9673 21.5578L42.7614 21.5306C42.7614 21.5306 42.9948 21.1213 43.1046 21.1213C43.2144 21.1213 43.9695 21.1213 44.0381 21.0803C44.1068 21.0394 44.244 20.671 44.244 20.6028C44.244 20.5346 44.4225 20.5073 44.4912 20.4937C44.5598 20.4664 44.7245 20.289 44.7657 20.1935C44.8893 19.9616 44.7383 19.3886 44.6422 19.4841Z" fill="#AED0F3"/>
<path d="M31.9986 27.7787C32.026 27.7514 32.0672 27.8878 32.1359 27.8605C32.2045 27.8469 32.232 27.9833 32.1633 27.9833C32.0947 27.9833 32.0947 28.0652 32.0947 28.1061C32.0947 28.147 32.0947 28.2289 32.0398 28.2835C31.9849 28.3381 31.9437 28.2971 31.875 28.2698C31.8064 28.2289 31.7789 28.2289 31.6829 28.2289C31.6005 28.2289 31.6691 28.3653 31.6691 28.3653C31.6691 28.3653 31.3122 28.3517 31.3808 28.2971C31.4495 28.2426 31.5181 28.2289 31.4632 28.188C31.4083 28.147 31.4632 28.1198 31.4632 28.0515C31.4632 27.9833 31.6279 28.0106 31.5868 27.9697C31.5318 27.9151 31.5868 27.7241 31.6691 27.8333L31.724 27.7105C31.6691 27.6559 31.7103 27.6422 31.6005 27.6013C31.5044 27.5604 31.5868 27.3557 31.5868 27.3557L31.6005 27.2193C31.6279 27.0419 31.9711 27.0283 31.9986 27.1784C32.0123 27.3284 31.9986 27.4376 31.9986 27.4376L32.0947 27.4785C32.0947 27.4785 32.081 27.5877 31.9986 27.5877C31.9162 27.5877 31.9986 27.6422 31.9437 27.6968L31.9986 27.7787Z" fill="#AED0F3"/>
<path d="M30.8728 27.956C30.9277 27.8468 31.0375 27.4102 31.1748 27.5467C31.3121 27.6831 31.3945 27.5467 31.3945 27.5467C31.3945 27.5467 31.4631 27.6149 31.4219 27.7513C31.3945 27.8877 31.3533 28.0242 31.2709 28.0515C31.1885 28.0651 31.1199 28.1197 31.0101 28.1333C30.9277 28.147 30.8728 27.956 30.8728 27.956Z" fill="#AED0F3"/>
</g>
<defs>
<clipPath id="clip0_3292_12927">
<rect width="64" height="54" fill="white"/>
</clipPath>
</defs>
</svg>
