<svg width="64" height="59" viewBox="0 0 64 59" fill="none" xmlns="http://www.w3.org/2000/svg">
<g clip-path="url(#clip0_3292_13038)">
<path d="M23.711 39.1336L23.4964 43.725C23.4964 43.725 40.4671 42.3695 54.6105 30.4848C62.3317 23.9967 60.8869 13.5609 60.8869 13.5609C60.8869 13.5609 60.6724 23.4376 45.6518 31.4458C30.6368 39.451 23.711 39.1336 23.711 39.1336ZM32.9916 5.07227L36.0493 7.58149C36.0493 7.58149 29.0175 15.9098 15.7179 16.604C6.44453 17.0881 8.31494 8.54247 8.31494 8.54247C8.31494 8.54247 11.0761 12.9674 16.7908 12.1728C24.0865 11.1585 33.1525 5.28582 32.9916 5.07227Z" fill="#AED0F3"/>
<path d="M48.0658 41.1619L51.2309 43.7245C51.2309 43.7245 40.7717 52.3559 24.5694 52.7471C10.0879 53.0967 6.16919 47.0346 6.16919 47.0346C6.16919 47.0346 14.5378 50.1311 26.1787 48.5294C37.8197 46.9278 48.0658 41.1619 48.0658 41.1619ZM19.3122 20.0738L19.3658 24.3448C19.3658 24.3448 35.405 24.4159 46.081 12.9198C52.2416 6.28596 45.7042 0.0360194 44.1497 0C44.1497 0 47.6402 5.31765 41.9503 11.2648C37.9307 15.4662 25.98 19.8813 19.3122 20.0738H19.3122Z" fill="#AED0F3"/>
<path d="M35.7811 54.936L35.6202 59.1536C35.6202 59.1536 47.3284 59.5241 55.5761 52.2666C62.9753 45.7557 63.7838 40.8416 63.8911 34.5419C63.3546 36.7842 61.1587 44.7021 50.0507 50.8785C42.2908 55.1933 35.7811 54.936 35.7811 54.936ZM0 27.5481C0 27.5481 2.86196 36.0467 17.1664 35.0757C34.3481 33.9095 43.667 25.3592 43.667 25.3592L40.7165 22.2627C40.7165 22.2627 29.5542 31.0911 14.6451 31.4454C3.4255 31.712 0 27.5481 0 27.5481Z" fill="#AED0F3"/>
</g>
<defs>
<clipPath id="clip0_3292_13038">
<rect width="64" height="59" fill="white"/>
</clipPath>
</defs>
</svg>
