<svg width="657" height="64" viewBox="0 0 657 64" fill="none" xmlns="http://www.w3.org/2000/svg">
<path d="M202.36 37.304C202.36 39.2667 201.656 40.76 200.248 41.784C198.84 42.808 197.133 43.32 195.128 43.32C193.763 43.32 192.515 43.1707 191.384 42.872C190.253 42.5733 189.357 42.2 188.696 41.752L189.08 37.944L190.584 38.104L190.456 40.728C191.139 41.0907 191.864 41.3467 192.632 41.496C193.4 41.624 194.211 41.688 195.064 41.688C196.515 41.688 197.763 41.368 198.808 40.728C199.875 40.0667 200.408 38.9787 200.408 37.464C200.408 35.7787 199.832 34.68 198.68 34.168C197.528 33.6347 196.291 33.2187 194.968 32.92C194.008 32.7067 193.048 32.44 192.088 32.12C191.149 31.7787 190.36 31.256 189.72 30.552C189.101 29.848 188.792 28.824 188.792 27.48C188.792 25.624 189.411 24.2267 190.648 23.288C191.885 22.3493 193.389 21.88 195.16 21.88C196.269 21.88 197.4 22.0293 198.552 22.328C199.704 22.6053 200.611 22.9787 201.272 23.448L201.464 27.48L199.96 27.64L199.608 24.344C198.925 24.0027 198.221 23.7787 197.496 23.672C196.771 23.5653 196.088 23.512 195.448 23.512C194.019 23.512 192.867 23.8427 191.992 24.504C191.139 25.1653 190.712 26.104 190.712 27.32C190.712 28.728 191.224 29.6667 192.248 30.136C193.293 30.6053 194.424 30.9893 195.64 31.288C196.579 31.5013 197.571 31.7893 198.616 32.152C199.661 32.4933 200.547 33.0587 201.272 33.848C201.997 34.616 202.36 35.768 202.36 37.304ZM230.564 23.832H227.78V41.368H230.5V43H223.364V41.368H225.956V26.712H225.828L218.436 42.104H217.316L209.86 26.68H209.732V41.368H212.356V43H205.252V41.368H207.972V23.832H205.188V22.2H209.604L217.892 39.384H218.02L226.148 22.2H230.564V23.832ZM248.61 43H233.282V41.368H236.002V23.832H233.282V22.2H248.29L248.93 28.024L247.298 28.216L246.658 23.832H237.826V31.608H247.906V33.24H237.826V41.368H246.978L247.618 36.984L249.218 37.144L248.61 43ZM276.553 41.56C274.931 42.7333 272.691 43.32 269.833 43.32C266.803 43.32 264.361 42.296 262.505 40.248C260.649 38.2 259.721 35.672 259.721 32.664C259.721 30.68 260.137 28.8773 260.969 27.256C261.822 25.6133 262.974 24.312 264.425 23.352C265.897 22.3707 267.561 21.88 269.417 21.88C271.123 21.88 272.542 22.104 273.673 22.552C274.825 22.9787 275.849 23.5653 276.745 24.312L277.321 28.056L275.721 28.248L275.081 25.112C274.377 24.6427 273.63 24.2693 272.841 23.992C272.051 23.6933 271.006 23.544 269.705 23.544C267.315 23.544 265.374 24.408 263.881 26.136C262.387 27.864 261.641 30.0293 261.641 32.632C261.641 35.256 262.398 37.4213 263.913 39.128C265.427 40.8133 267.507 41.656 270.153 41.656C271.113 41.656 271.955 41.592 272.681 41.464C273.427 41.3147 274.163 41.0587 274.889 40.696L275.529 37.624L277.128 37.816L276.553 41.56ZM294.039 35.896C294.039 38.0293 293.421 39.8 292.183 41.208C290.946 42.616 289.25 43.32 287.095 43.32C284.962 43.32 283.298 42.6267 282.103 41.24C280.93 39.832 280.343 38.0827 280.343 35.992C280.343 33.9227 280.93 32.1627 282.103 30.712C283.277 29.24 284.983 28.504 287.223 28.504C289.463 28.504 291.159 29.24 292.311 30.712C293.463 32.1627 294.039 33.8907 294.039 35.896ZM292.151 35.864C292.151 34.2 291.725 32.824 290.871 31.736C290.018 30.6267 288.781 30.072 287.159 30.072C285.538 30.072 284.301 30.6373 283.447 31.768C282.615 32.8773 282.199 34.2533 282.199 35.896C282.199 37.5173 282.615 38.904 283.447 40.056C284.301 41.1867 285.538 41.752 287.159 41.752C288.781 41.752 290.018 41.1867 290.871 40.056C291.725 38.9253 292.151 37.528 292.151 35.864ZM322.576 43H315.568V41.528H318.192V34.456C318.192 32.8347 317.861 31.704 317.2 31.064C316.56 30.4027 315.749 30.072 314.768 30.072C313.36 30.072 312.272 30.6053 311.504 31.672C310.757 32.7387 310.362 33.7093 310.32 34.584V41.528H312.944V43H305.936V41.528H308.56V34.456C308.56 32.8133 308.229 31.672 307.568 31.032C306.928 30.392 306.128 30.072 305.168 30.072C303.76 30.072 302.672 30.5947 301.904 31.64C301.157 32.6853 300.762 33.6453 300.72 34.52V41.528H303.28V43H296.304V41.528H298.96V30.296H296.272V28.792H300.72V31.576C301.189 30.7013 301.818 29.976 302.608 29.4C303.397 28.8027 304.389 28.504 305.584 28.504C306.693 28.504 307.653 28.792 308.464 29.368C309.274 29.9227 309.818 30.808 310.096 32.024C310.544 31.0213 311.194 30.1893 312.048 29.528C312.901 28.8453 313.957 28.504 315.216 28.504C316.602 28.504 317.733 28.9413 318.608 29.816C319.504 30.6907 319.952 32.0987 319.952 34.04V41.528H322.576V43ZM338.908 35.48C338.908 36.7173 338.694 37.944 338.268 39.16C337.841 40.3547 337.158 41.3467 336.22 42.136C335.281 42.9253 334.022 43.32 332.444 43.32C331.462 43.32 330.545 43.1173 329.692 42.712C328.838 42.2853 328.166 41.6667 327.676 40.856V48.344H331.164V49.816H323.26V48.344H325.916V30.296H323.228V28.792H327.676V31.832C328.124 30.9573 328.753 30.1893 329.564 29.528C330.374 28.8453 331.441 28.504 332.764 28.504C334.598 28.504 336.081 29.1227 337.212 30.36C338.342 31.576 338.908 33.2827 338.908 35.48ZM337.052 35.64C337.052 33.8267 336.614 32.4507 335.74 31.512C334.865 30.552 333.766 30.072 332.444 30.072C331.121 30.072 330.001 30.616 329.084 31.704C328.188 32.792 327.718 33.8587 327.676 34.904V37.432C327.676 38.6267 328.113 39.6507 328.988 40.504C329.862 41.336 330.918 41.752 332.156 41.752C333.926 41.752 335.185 41.1227 335.932 39.864C336.678 38.584 337.052 37.176 337.052 35.64ZM353.914 39.032C353.701 40.2267 353.103 41.24 352.122 42.072C351.141 42.904 349.818 43.32 348.154 43.32C346.17 43.32 344.581 42.68 343.386 41.4C342.191 40.12 341.594 38.3493 341.594 36.088C341.594 33.8693 342.17 32.056 343.322 30.648C344.474 29.2187 346.021 28.504 347.962 28.504C349.903 28.504 351.354 29.144 352.314 30.424C353.295 31.6827 353.786 33.1227 353.786 34.744C353.786 35.2133 353.733 35.7467 353.626 36.344H343.45C343.493 38.0507 343.93 39.384 344.762 40.344C345.594 41.2827 346.767 41.752 348.282 41.752C350.522 41.752 351.909 40.728 352.442 38.68L353.914 39.032ZM351.93 34.872C352.037 33.7413 351.759 32.664 351.098 31.64C350.437 30.5947 349.359 30.072 347.866 30.072C346.437 30.072 345.381 30.552 344.698 31.512C344.037 32.472 343.631 33.592 343.482 34.872H351.93ZM366.58 39.32C366.153 41.9867 364.713 43.32 362.26 43.32C360.873 43.32 359.828 42.9147 359.124 42.104C358.441 41.2933 358.1 40.2053 358.1 38.84V30.296H355.764V28.792H358.1V24.184H359.86V28.792H365.524V30.296H359.86V38.648C359.86 39.5867 360.052 40.344 360.436 40.92C360.82 41.4747 361.492 41.752 362.452 41.752C363.07 41.752 363.625 41.5707 364.116 41.208C364.606 40.824 364.969 40.0453 365.204 38.872L366.58 39.32ZM370.364 24.824V22.296H372.348V24.824H370.364ZM374.972 43H367.932V41.528H370.588V30.296H367.9V28.792H372.348V41.528H374.972V43ZM387.048 39.32C386.622 41.9867 385.182 43.32 382.728 43.32C381.342 43.32 380.296 42.9147 379.592 42.104C378.91 41.2933 378.568 40.2053 378.568 38.84V30.296H376.232V28.792H378.568V24.184H380.328V28.792H385.992V30.296H380.328V38.648C380.328 39.5867 380.52 40.344 380.904 40.92C381.288 41.4747 381.96 41.752 382.92 41.752C383.539 41.752 384.094 41.5707 384.584 41.208C385.075 40.824 385.438 40.0453 385.672 38.872L387.048 39.32ZM390.833 24.824V22.296H392.817V24.824H390.833ZM395.441 43H388.401V41.528H391.057V30.296H388.368V28.792H392.817V41.528H395.441V43ZM411.59 30.296H409.766L404.55 43H403.174L397.734 30.296H396.006V28.792H402.374V30.296H399.622L403.878 40.536H404.07L408.006 30.296H405.414V28.792H411.59V30.296ZM425.039 39.032C424.826 40.2267 424.228 41.24 423.247 42.072C422.266 42.904 420.943 43.32 419.279 43.32C417.295 43.32 415.706 42.68 414.511 41.4C413.316 40.12 412.719 38.3493 412.719 36.088C412.719 33.8693 413.295 32.056 414.447 30.648C415.599 29.2187 417.146 28.504 419.087 28.504C421.028 28.504 422.479 29.144 423.439 30.424C424.42 31.6827 424.911 33.1227 424.911 34.744C424.911 35.2133 424.858 35.7467 424.751 36.344H414.575C414.618 38.0507 415.055 39.384 415.887 40.344C416.719 41.2827 417.892 41.752 419.407 41.752C421.647 41.752 423.034 40.728 423.567 38.68L425.039 39.032ZM423.055 34.872C423.162 33.7413 422.884 32.664 422.223 31.64C421.562 30.5947 420.484 30.072 418.991 30.072C417.562 30.072 416.506 30.552 415.823 31.512C415.162 32.472 414.756 33.592 414.607 34.872H423.055ZM444.233 43H437.225V41.528H439.849V34.456C439.849 32.8347 439.507 31.704 438.825 31.064C438.163 30.4027 437.331 30.072 436.329 30.072C434.942 30.072 433.833 30.5307 433.001 31.448C432.169 32.344 431.731 33.3467 431.689 34.456V41.528H434.312V43H427.273V41.528H429.929V30.296H427.241V28.792H431.689V31.416C432.734 29.4747 434.419 28.504 436.745 28.504C438.153 28.504 439.315 28.9413 440.233 29.816C441.15 30.6907 441.609 32.0987 441.609 34.04V41.528H444.233V43ZM458.164 39.032C457.951 40.2267 457.353 41.24 456.372 42.072C455.391 42.904 454.068 43.32 452.404 43.32C450.42 43.32 448.831 42.68 447.636 41.4C446.441 40.12 445.844 38.3493 445.844 36.088C445.844 33.8693 446.42 32.056 447.572 30.648C448.724 29.2187 450.271 28.504 452.212 28.504C454.153 28.504 455.604 29.144 456.564 30.424C457.545 31.6827 458.036 33.1227 458.036 34.744C458.036 35.2133 457.983 35.7467 457.876 36.344H447.7C447.743 38.0507 448.18 39.384 449.012 40.344C449.844 41.2827 451.017 41.752 452.532 41.752C454.772 41.752 456.159 40.728 456.692 38.68L458.164 39.032ZM456.18 34.872C456.287 33.7413 456.009 32.664 455.348 31.64C454.687 30.5947 453.609 30.072 452.116 30.072C450.687 30.072 449.631 30.552 448.948 31.512C448.287 32.472 447.881 33.592 447.732 34.872H456.18ZM471.886 38.968C471.886 40.2907 471.32 41.3467 470.19 42.136C469.08 42.9253 467.704 43.32 466.062 43.32C465.059 43.32 464.067 43.1813 463.086 42.904C462.126 42.6053 461.39 42.2747 460.878 41.912L461.262 38.904L462.702 39.032L462.574 40.952C463.576 41.4853 464.718 41.752 465.998 41.752C467.043 41.752 467.982 41.5493 468.814 41.144C469.667 40.7173 470.094 40.056 470.094 39.16C470.094 38.3067 469.784 37.6987 469.166 37.336C468.568 36.9733 467.822 36.7173 466.926 36.568C466.03 36.3973 465.134 36.216 464.238 36.024C463.363 35.832 462.616 35.48 461.998 34.968C461.4 34.456 461.102 33.656 461.102 32.568C461.102 31.1173 461.624 30.0827 462.67 29.464C463.715 28.824 464.856 28.504 466.094 28.504C467.075 28.504 467.992 28.6427 468.845 28.92C469.72 29.1973 470.424 29.496 470.958 29.816L471.278 33.08L469.806 33.272L469.422 30.872C468.974 30.6373 468.504 30.4453 468.014 30.296C467.523 30.1467 466.958 30.072 466.318 30.072C465.315 30.072 464.504 30.2533 463.886 30.616C463.267 30.9787 462.958 31.5653 462.958 32.376C462.958 33.1867 463.256 33.7627 463.854 34.104C464.451 34.424 465.198 34.6587 466.094 34.808C466.99 34.9573 467.875 35.1387 468.75 35.352C469.646 35.5653 470.392 35.9387 470.99 36.472C471.587 37.0053 471.886 37.8373 471.886 38.968ZM485.698 38.968C485.698 40.2907 485.133 41.3467 484.002 42.136C482.893 42.9253 481.517 43.32 479.874 43.32C478.871 43.32 477.879 43.1813 476.898 42.904C475.938 42.6053 475.202 42.2747 474.69 41.912L475.074 38.904L476.514 39.032L476.386 40.952C477.389 41.4853 478.53 41.752 479.81 41.752C480.855 41.752 481.794 41.5493 482.626 41.144C483.479 40.7173 483.906 40.056 483.906 39.16C483.906 38.3067 483.597 37.6987 482.978 37.336C482.381 36.9733 481.634 36.7173 480.738 36.568C479.842 36.3973 478.946 36.216 478.05 36.024C477.175 35.832 476.429 35.48 475.81 34.968C475.213 34.456 474.914 33.656 474.914 32.568C474.914 31.1173 475.437 30.0827 476.482 29.464C477.527 28.824 478.669 28.504 479.906 28.504C480.887 28.504 481.805 28.6427 482.658 28.92C483.533 29.1973 484.237 29.496 484.77 29.816L485.09 33.08L483.618 33.272L483.234 30.872C482.786 30.6373 482.317 30.4453 481.826 30.296C481.335 30.1467 480.77 30.072 480.13 30.072C479.127 30.072 478.317 30.2533 477.698 30.616C477.079 30.9787 476.77 31.5653 476.77 32.376C476.77 33.1867 477.069 33.7627 477.666 34.104C478.263 34.424 479.01 34.6587 479.906 34.808C480.802 34.9573 481.687 35.1387 482.562 35.352C483.458 35.5653 484.205 35.9387 484.802 36.472C485.399 37.0053 485.698 37.8373 485.698 38.968ZM514.297 43H507.161V41.368H510.233L508.537 36.856H499.161L497.369 41.368H500.665V43H493.561V41.368H495.513L502.553 23.832H499.129V22.2H504.729L512.185 41.368H514.297V43ZM507.993 35.384L504.025 24.888H503.865L499.737 35.384H507.993ZM525.048 39.32C524.622 41.9867 523.182 43.32 520.728 43.32C519.342 43.32 518.296 42.9147 517.592 42.104C516.91 41.2933 516.568 40.2053 516.568 38.84V30.296H514.232V28.792H516.568V24.184H518.328V28.792H523.992V30.296H518.328V38.648C518.328 39.5867 518.52 40.344 518.904 40.92C519.288 41.4747 519.96 41.752 520.92 41.752C521.539 41.752 522.094 41.5707 522.584 41.208C523.075 40.824 523.438 40.0453 523.672 38.872L525.048 39.32ZM532.993 43H525.985V41.528H528.609V22.456H525.953V20.984H530.369V41.528H532.993V43ZM536.376 29.912C536.974 29.4213 537.688 29.0693 538.52 28.856C539.374 28.6213 540.227 28.504 541.08 28.504C544.366 28.504 546.008 30.0933 546.008 33.272V40.184C546.008 41.272 546.424 41.816 547.256 41.816C547.683 41.816 548.035 41.7413 548.312 41.592L548.344 42.872C547.875 43.1707 547.32 43.32 546.68 43.32C545.059 43.32 544.248 42.36 544.248 40.44V40.376C543.8 41.144 543.15 41.8267 542.296 42.424C541.464 43.0213 540.483 43.32 539.352 43.32C538.414 43.32 537.454 43.0427 536.472 42.488C535.512 41.912 535.032 40.8667 535.032 39.352C535.032 37.56 535.747 36.3867 537.176 35.832C538.606 35.256 540.11 34.968 541.688 34.968C542.136 34.968 542.574 34.9893 543 35.032C543.448 35.0533 543.864 35.0747 544.248 35.096V33.592C544.248 32.504 543.992 31.6507 543.48 31.032C542.99 30.392 542.094 30.072 540.792 30.072C539.726 30.072 538.766 30.2853 537.912 30.712L537.336 33.272L535.864 33.08L536.376 29.912ZM544.248 37.784V36.472C543.843 36.4293 543.406 36.3973 542.936 36.376C542.467 36.3333 541.976 36.312 541.464 36.312C540.312 36.312 539.256 36.4933 538.296 36.856C537.358 37.1973 536.888 37.9653 536.888 39.16C536.888 40.184 537.219 40.8773 537.88 41.24C538.542 41.5813 539.182 41.752 539.8 41.752C540.867 41.752 541.859 41.3893 542.776 40.664C543.694 39.9173 544.184 38.9573 544.248 37.784ZM561.354 38.968C561.354 40.2907 560.789 41.3467 559.658 42.136C558.549 42.9253 557.173 43.32 555.53 43.32C554.528 43.32 553.536 43.1813 552.554 42.904C551.594 42.6053 550.858 42.2747 550.346 41.912L550.73 38.904L552.17 39.032L552.042 40.952C553.045 41.4853 554.186 41.752 555.466 41.752C556.512 41.752 557.45 41.5493 558.282 41.144C559.136 40.7173 559.562 40.056 559.562 39.16C559.562 38.3067 559.253 37.6987 558.634 37.336C558.037 36.9733 557.29 36.7173 556.394 36.568C555.498 36.3973 554.602 36.216 553.706 36.024C552.832 35.832 552.085 35.48 551.466 34.968C550.869 34.456 550.57 33.656 550.57 32.568C550.57 31.1173 551.093 30.0827 552.138 29.464C553.184 28.824 554.325 28.504 555.562 28.504C556.544 28.504 557.461 28.6427 558.314 28.92C559.189 29.1973 559.893 29.496 560.426 29.816L560.746 33.08L559.274 33.272L558.89 30.872C558.442 30.6373 557.973 30.4453 557.482 30.296C556.992 30.1467 556.426 30.072 555.786 30.072C554.784 30.072 553.973 30.2533 553.354 30.616C552.736 30.9787 552.426 31.5653 552.426 32.376C552.426 33.1867 552.725 33.7627 553.322 34.104C553.92 34.424 554.666 34.6587 555.562 34.808C556.458 34.9573 557.344 35.1387 558.218 35.352C559.114 35.5653 559.861 35.9387 560.458 36.472C561.056 37.0053 561.354 37.8373 561.354 38.968Z" fill="white"/>
<path d="M101.469 40.4844V22.9531C101.469 21.5781 101.781 21.25 103.688 20.9688V20.4375H95.875V20.9688C97.7969 21.25 98.0938 21.5781 98.0938 22.9531V40.4844C98.0938 41.8594 97.7969 42.1875 95.875 42.4688V43H103.688V42.4688C101.781 42.1875 101.469 41.8594 101.469 40.4844ZM125.623 20.4375H107.373L107.139 25.7656H107.639C108.373 22.1562 109.701 21.3438 113.904 21.1094L114.811 21.0625V40.2656C114.811 41.7812 114.514 42.2031 112.42 42.4688V43H120.592V42.4688C118.483 42.2031 118.186 41.7812 118.186 40.2656V21.0625L119.092 21.1094C123.311 21.3438 124.623 22.1719 125.358 25.7656H125.858L125.623 20.4375ZM129.137 31.5469C129.137 38.7812 134.121 43.3281 140.684 43.3281C143.965 43.3281 146.778 42.4375 147.856 41.625L148.074 36.5156H147.574C146.668 40.7344 144.199 42.5469 140.824 42.5469C135.715 42.5469 132.918 37.2812 132.918 31.2344C132.918 24.9688 135.856 20.8906 140.731 20.8906C144.403 20.8906 146.668 23.0156 147.496 26.8281H147.996L147.778 21.7031C146.621 20.8594 144.324 20.1094 140.574 20.1094C134.278 20.1094 129.137 24.1875 129.137 31.5469Z" fill="white"/>
<rect width="10.1863" height="17.8261" transform="matrix(0.707107 -0.707106 0.707107 0.707106 13.998 7.20264)" fill="white"/>
<rect width="10.1863" height="33.6588" transform="matrix(0.707106 -0.707108 0.707106 0.707108 31.8242 31.2681)" fill="white"/>
<rect width="10.1863" height="17.8261" transform="matrix(-0.707107 -0.707106 -0.707107 0.707106 54.7441 11.0225)" fill="white"/>
<rect width="10.1863" height="32.9977" transform="matrix(-0.707106 -0.707107 -0.707106 0.707107 30.5508 28.8486)" fill="white"/>
<rect width="10.1863" height="25.4658" transform="matrix(-0.707106 -0.707107 -0.707106 0.707107 36.918 41.5815)" fill="white"/>
<rect width="10.1863" height="14.0062" transform="matrix(-0.707105 -0.707108 -0.707105 0.707108 61.1094 22.4824)" fill="white"/>
<rect x="6.35938" y="18.6626" width="10.1863" height="11.4596" transform="rotate(-45 6.35938 18.6626)" fill="white"/>
<rect width="10.1863" height="19.0994" transform="matrix(0.707105 -0.707108 0.707105 0.707108 31.8242 50.4946)" fill="white"/>
<rect x="169.998" y="7" width="1" height="51" fill="white"/>
</svg>
