<svg width="100" height="101" viewBox="0 0 100 101" fill="none" xmlns="http://www.w3.org/2000/svg">
<g filter="url(#filter0_d_2938_20620)">
<path d="M48.709 58.8848H51.2896V61.4654H48.709V58.8848Z" fill="white"/>
<path d="M53.8711 58.8848H56.4518V61.4654H53.8711V58.8848Z" fill="white"/>
<path d="M43.5488 58.8848H46.1295V61.4654H43.5488V58.8848Z" fill="white"/>
<path d="M49.9999 43.4009C47.8657 43.4009 46.1289 45.1376 46.1289 47.2718C46.1289 49.406 47.8657 51.1428 49.9999 51.1428C52.1341 51.1428 53.8708 49.406 53.8708 47.2718C53.8708 45.1376 52.1341 43.4009 49.9999 43.4009ZM49.9999 48.5622C49.2889 48.5622 48.7095 47.9828 48.7095 47.2718C48.7095 46.5609 49.2889 45.9815 49.9999 45.9815C50.7108 45.9815 51.2902 46.5609 51.2902 47.2718C51.2902 47.9828 50.7108 48.5622 49.9999 48.5622Z" fill="white"/>
<path d="M82.2589 53.7235H79.6783C78.2551 53.7235 77.0977 54.8809 77.0977 56.3042V61.4654C77.0977 62.8887 78.2551 64.0461 79.6783 64.0461H82.2589C83.6822 64.0461 84.8396 62.8887 84.8396 61.4654V56.3042C84.8396 54.8809 83.6822 53.7235 82.2589 53.7235ZM79.6783 61.4654V56.3042H82.2589L82.2602 61.4654H79.6783Z" fill="white"/>
<path d="M17.7428 64.0461H20.3234C21.7466 64.0461 22.904 62.8887 22.904 61.4654V56.3042C22.904 54.8809 21.7466 53.7235 20.3234 53.7235H17.7428C16.3195 53.7235 15.1621 54.8809 15.1621 56.3042V61.4654C15.1621 62.8887 16.3195 64.0461 17.7428 64.0461ZM17.7428 56.3042H20.3234L20.3247 61.4654H17.7428V56.3042Z" fill="white"/>
<path d="M87.4193 43.4008V30.4976C87.4193 29.0744 86.2619 27.917 84.8387 27.917H77.0968C75.6735 27.917 74.5161 29.0744 74.5161 30.4976V35.6589C74.5161 37.0821 75.6735 38.2395 77.0968 38.2395H84.8387V43.4008H71.9355V31.7879C71.9355 21.5518 63.9419 13.1673 53.871 12.4989V11.1428C53.871 9.46277 52.7884 8.04342 51.2903 7.50923V4.69116H48.7097V7.50923C47.2116 8.04342 46.129 9.46277 46.129 11.1428V12.4989C36.0581 13.1673 28.0645 21.5518 28.0645 31.7879V43.4008H22.9032V30.4976C22.9032 29.0744 21.7458 27.917 20.3226 27.917H12.5806C11.1574 27.917 10 29.0744 10 30.4976V35.6589C10 37.0821 11.1574 38.2395 12.5806 38.2395H20.3226V43.4008H12.5806C11.1574 43.4008 10 44.5583 10 45.9815V84.6912H90V45.9815C90 44.5583 88.8426 43.4008 87.4193 43.4008ZM77.0968 35.6589V30.4976H84.8387V35.6589H77.0968ZM12.5806 35.6589V30.4976H20.3226V35.6589H12.5806ZM44.9045 71.7879C45.2297 68.8924 47.6645 66.6266 50.6452 66.6266C53.6258 66.6266 56.0606 68.8924 56.3858 71.7879H44.9045ZM44.8387 74.3686H48.7097V82.1105H44.8387V74.3686ZM51.2903 74.3686H56.4516V82.1105H51.2903V74.3686ZM50.6452 64.046C46.0206 64.046 42.2581 67.8086 42.2581 72.4331V82.1105H38.3871V80.8202C38.3871 79.397 37.2297 78.2395 35.8064 78.2395V61.4654C37.2297 61.4654 38.3871 60.3079 38.3871 58.8847V56.3041H61.6129V58.8847C61.6129 60.3079 62.7703 61.4654 64.1935 61.4654V78.2395C62.7703 78.2395 61.6129 79.397 61.6129 80.8202V82.1105H59.0323V72.4331C59.0323 67.8086 55.2697 64.046 50.6452 64.046ZM50 35.6589C60.2361 35.6589 68.6206 43.6525 69.289 53.7234H66.7084C66.0465 45.077 58.8142 38.2395 50 38.2395C41.1858 38.2395 33.9535 45.077 33.2916 53.7234H30.711C31.3794 43.6525 39.7639 35.6589 50 35.6589ZM38.3948 30.4976L38.3871 36.4383C37.4813 37.006 36.6168 37.6292 35.8052 38.3195V30.4976H38.3948ZM47.9045 15.0137H52.0955C55.8 18.1157 58.1755 22.4344 58.7768 27.2434L58.8606 27.917H41.1394L41.2232 27.2434C41.8245 22.4344 44.2 18.1157 47.9045 15.0137ZM64.1935 30.4976V38.3195C63.3832 37.6292 62.5187 37.0073 61.6129 36.4383V30.4976H64.1935ZM59.0323 35.0473C58.1961 34.6679 57.3394 34.3234 56.4516 34.0499V30.4976H59.0323V35.0473ZM48.7097 30.4976V33.1441C47.8348 33.1957 46.9729 33.2912 46.129 33.4421V30.4976H48.7097ZM51.2903 30.4976H53.871V33.4408C53.0271 33.2899 52.1652 33.1944 51.2903 33.1428V30.4976ZM43.5484 30.4976V34.0499C42.6606 34.3234 41.8039 34.6679 40.9677 35.0473V30.4976H43.5484ZM69.3548 58.8847H64.1935V56.3041H69.3548V58.8847ZM30.6452 58.8847V56.3041H35.8064V58.8847H30.6452ZM35.8723 53.7234C36.5265 46.5002 42.609 40.8202 50 40.8202C57.391 40.8202 63.4735 46.5002 64.1277 53.7234H35.8723ZM30.6452 61.4654H33.2258V78.2395H30.6452V61.4654ZM35.8064 80.8202V82.1105H28.0645V80.8202H35.8064ZM64.1935 80.8202H71.9355V82.1105H64.1935V80.8202ZM66.7742 78.2395V61.4654H69.3548V78.2395H66.7742ZM69.9664 45.9815H87.4193V48.5621H70.9639C70.6903 47.6744 70.3471 46.8176 69.9664 45.9815ZM68.5755 43.4008C68.0284 42.5299 67.4348 41.6912 66.7742 40.9079V30.4976H69.289C69.3226 30.9247 69.3548 31.3518 69.3548 31.7879V43.4008H68.5755ZM68.8865 27.917H61.4581L61.3381 26.9221C60.7987 22.6021 58.9961 18.6305 56.1884 15.4137C62.4555 16.7944 67.4065 21.6873 68.8865 27.917ZM50 9.85245C50.711 9.85245 51.2903 10.4318 51.2903 11.1428V12.4331H48.7097V11.1428C48.7097 10.4318 49.289 9.85245 50 9.85245ZM43.8129 15.415C41.0039 18.6318 39.2026 22.6034 38.6632 26.9234L38.5381 27.917H31.1135C32.5935 21.6873 37.5445 16.7944 43.8129 15.415ZM30.6452 31.7879C30.6452 31.3518 30.6774 30.9247 30.711 30.4976H33.2258V40.9079C32.5652 41.6912 31.9716 42.5299 31.4245 43.4008H30.6452V31.7879ZM30.0335 45.9815C29.6542 46.8176 29.3097 47.6744 29.0361 48.5621H12.5806V45.9815H30.0335ZM12.5806 51.1428H28.4271C28.2026 52.4021 28.0645 53.6912 28.0645 55.0137V78.2395C26.6413 78.2395 25.4839 79.397 25.4839 80.8202V82.1105H22.9032V69.2073C22.9032 67.7841 21.7458 66.6266 20.3226 66.6266H17.7419C16.3187 66.6266 15.1613 67.7841 15.1613 69.2073V82.1105H12.5806V51.1428ZM20.3226 82.1105H17.7419V69.2073H20.3226V82.1105ZM82.2581 82.1105H79.6774V69.2073H82.2581V82.1105ZM84.8387 82.1105V69.2073C84.8387 67.7841 83.6813 66.6266 82.2581 66.6266H79.6774C78.2542 66.6266 77.0968 67.7841 77.0968 69.2073V82.1105H74.5161V80.8202C74.5161 79.397 73.3587 78.2395 71.9355 78.2395V55.0137C71.9355 53.6912 71.7974 52.4021 71.5729 51.1428H87.4193V82.1105H84.8387Z" fill="white"/>
</g>
<defs>
<filter id="filter0_d_2938_20620" x="0" y="0.691162" width="100" height="100" filterUnits="userSpaceOnUse" color-interpolation-filters="sRGB">
<feFlood flood-opacity="0" result="BackgroundImageFix"/>
<feColorMatrix in="SourceAlpha" type="matrix" values="0 0 0 0 0 0 0 0 0 0 0 0 0 0 0 0 0 0 127 0" result="hardAlpha"/>
<feOffset dy="6"/>
<feGaussianBlur stdDeviation="5"/>
<feComposite in2="hardAlpha" operator="out"/>
<feColorMatrix type="matrix" values="0 0 0 0 0 0 0 0 0 0 0 0 0 0 0 0 0 0 0.15 0"/>
<feBlend mode="normal" in2="BackgroundImageFix" result="effect1_dropShadow_2938_20620"/>
<feBlend mode="normal" in="SourceGraphic" in2="effect1_dropShadow_2938_20620" result="shape"/>
</filter>
</defs>
</svg>
