<svg width="86" height="101" viewBox="0 0 86 101" fill="none" xmlns="http://www.w3.org/2000/svg">
<g filter="url(#filter0_d_2938_20712)">
<path d="M72.6876 4.69116H22.6878C20.9646 4.69116 19.5628 6.09303 19.5628 7.81615V12.8164H13.3125C11.5894 12.8164 10.1875 14.2183 10.1875 15.9414V81.5663C10.1875 83.2894 11.5894 84.6913 13.3125 84.6913H63.3123C65.0354 84.6913 66.4373 83.2894 66.4373 81.5663V76.5659H72.6876C74.4107 76.5659 75.8126 75.164 75.8126 73.4409V7.81615C75.8126 6.09303 74.4107 4.69116 72.6876 4.69116V4.69116ZM63.3123 81.5662H13.3125V15.9414H19.5628V73.4409C19.5628 75.164 20.9646 76.5659 22.6878 76.5659H63.3123V81.5662ZM22.6878 73.4409L22.6875 7.81615H72.6876V73.4409H22.6878Z" fill="white"/>
<path d="M27.375 15.9415H39.0156C39.8786 15.9415 40.5781 15.242 40.5781 14.379C40.5781 13.5161 39.8786 12.8165 39.0156 12.8165H27.375C26.512 12.8165 25.8125 13.5161 25.8125 14.379C25.8125 15.242 26.512 15.9415 27.375 15.9415Z" fill="white"/>
<path d="M27.375 22.608H34.7967C35.6597 22.608 36.3592 21.9085 36.3592 21.0455C36.3592 20.1826 35.6597 19.483 34.7967 19.483H27.375C26.512 19.483 25.8125 20.1826 25.8125 21.0455C25.8125 21.9085 26.512 22.608 27.375 22.608Z" fill="white"/>
<path d="M27.375 35.9412H39.0156C39.8786 35.9412 40.5781 35.2416 40.5781 34.3787C40.5781 33.5157 39.8786 32.8162 39.0156 32.8162H27.375C26.512 32.8162 25.8125 33.5157 25.8125 34.3787C25.8125 35.2416 26.512 35.9412 27.375 35.9412Z" fill="white"/>
<path d="M68.0002 45.6284H34.4063C33.5433 45.6284 32.8438 46.3279 32.8438 47.1909C32.8438 48.0539 33.5433 48.7534 34.4063 48.7534H68.0002C68.8631 48.7534 69.5627 48.0539 69.5627 47.1909C69.5627 46.3279 68.8631 45.6284 68.0002 45.6284Z" fill="white"/>
<path d="M67.9994 52.295H27.375C26.512 52.295 25.8125 52.9946 25.8125 53.8575C25.8125 54.7205 26.512 55.42 27.375 55.42H67.9994C68.8623 55.42 69.5619 54.7205 69.5619 53.8575C69.5619 52.9946 68.8623 52.295 67.9994 52.295Z" fill="white"/>
<path d="M47.6872 58.9617H27.375C26.512 58.9617 25.8125 59.6612 25.8125 60.5242C25.8125 61.3871 26.512 62.0867 27.375 62.0867H47.6872C48.5502 62.0867 49.2497 61.3871 49.2497 60.5242C49.2497 59.6612 48.5502 58.9617 47.6872 58.9617Z" fill="white"/>
<path d="M47.6872 65.6281H27.375C26.512 65.6281 25.8125 66.3276 25.8125 67.1906C25.8125 68.0535 26.512 68.7531 27.375 68.7531H47.6872C48.5502 68.7531 49.2497 68.0535 49.2497 67.1906C49.2497 66.3276 48.5502 65.6281 47.6872 65.6281Z" fill="white"/>
<path d="M27.3756 48.7534C28.2386 48.7534 28.9381 48.0539 28.9381 47.1909C28.9381 46.3279 28.2386 45.6284 27.3756 45.6284H27.3744C26.5114 45.6284 25.8125 46.3279 25.8125 47.1909C25.8125 48.0539 26.5127 48.7534 27.3756 48.7534Z" fill="white"/>
<path d="M46.7791 23.8836L46.7308 24.5516C46.6247 25.6013 47.0468 26.6234 47.8636 27.2916L48.3388 27.6808L48.5085 28.1922C48.7836 29.2434 49.5915 30.0853 50.6346 30.4005L50.8129 30.4544V39.4983C50.8129 40.0361 51.0894 40.5361 51.545 40.8219C52.0008 41.1077 52.5711 41.1391 53.0554 40.9052L57.0629 38.9683L61.0704 40.9052C61.2858 41.0092 61.5183 41.0608 61.7502 41.0608C62.0394 41.0608 62.3279 40.9805 62.5807 40.8219C63.0363 40.5359 63.3129 40.0361 63.3129 39.4983V30.4539L63.3765 30.4328C64.4279 30.1577 65.2696 29.3499 65.5846 28.3069L65.7615 27.7211L66.3036 27.252C67.0854 26.5874 67.4922 25.5813 67.3916 24.5586L67.3311 23.9513L67.6393 23.337C68.1236 22.4175 68.1213 21.3239 67.6305 20.4039L67.3465 19.8738L67.3947 19.2056C67.5007 18.1559 67.0788 17.1339 66.2619 16.4658L65.7868 16.0767L65.6171 15.5652C65.3419 14.5139 64.534 13.672 63.491 13.3569L62.9051 13.1799L62.4361 12.6378C61.7715 11.8559 60.7652 11.4484 59.7429 11.5497L59.1355 11.6102L58.5211 11.302C57.6013 10.8177 56.5077 10.8202 55.588 11.3109L55.0582 11.595L54.3901 11.5466C53.3411 11.4413 52.3183 11.8625 51.65 12.6794L51.2608 13.1547L50.7493 13.3245C49.698 13.5995 48.8563 14.4074 48.541 15.4505L48.364 16.0364L47.8218 16.5055C47.0402 17.1702 46.6333 18.1763 46.7338 19.1988L46.7943 19.8063L46.4861 20.4206C46.0021 21.3402 46.0043 22.4338 46.4949 23.3538L46.7791 23.8836ZM57.7427 35.8261C57.3132 35.6186 56.8124 35.6186 56.3829 35.8261L53.9379 37.0078V32.2184C54.0852 32.225 54.2338 32.2224 54.3829 32.2077L54.9902 32.1472L55.6044 32.4553C56.0616 32.6961 56.5618 32.8166 57.0624 32.8166C57.5685 32.8166 58.0751 32.6933 58.5377 32.4466L59.0677 32.1625L59.7357 32.2108C59.8874 32.2263 60.0383 32.2294 60.1879 32.2231V37.008L57.7427 35.8261ZM49.2715 21.8377L49.7907 20.8025C49.9233 20.5381 49.9782 20.2414 49.9488 19.947L49.8432 18.8902L50.751 18.1036C50.9747 17.91 51.139 17.6569 51.2244 17.3738L51.5401 16.348C51.5865 16.3372 51.6324 16.3242 51.6776 16.3092L52.6749 15.9781C52.9555 15.885 53.2041 15.7141 53.3915 15.4852L54.0766 14.6563C54.0971 14.6586 54.1177 14.6605 54.1383 14.662L55.2841 14.745C55.5796 14.7656 55.8743 14.7034 56.1351 14.5638L57.0611 14.0666C57.0619 14.0666 57.064 14.067 57.0654 14.0678C57.078 14.0745 57.0908 14.0813 57.1036 14.0877L58.1388 14.607C58.4032 14.7397 58.6999 14.7947 58.9944 14.7652L60.0513 14.6594L60.8379 15.5674C61.0315 15.7911 61.2846 15.9553 61.5677 16.0408L62.5935 16.3564C62.6043 16.4027 62.6172 16.4486 62.6322 16.4938L62.9633 17.4913C63.0566 17.772 63.2274 18.0205 63.4563 18.208L64.2852 18.8931C64.2829 18.9138 64.281 18.9342 64.2794 18.955L64.1966 20.1006C64.1754 20.3956 64.2382 20.6906 64.3779 20.9514L64.8738 21.8817C64.8669 21.8945 64.8602 21.9075 64.8538 21.9205L64.3346 22.9556C64.2019 23.22 64.1471 23.5167 64.1765 23.8111L64.2822 24.8681L63.3743 25.6547C63.1505 25.8483 62.9863 26.1013 62.9008 26.3845L62.5852 27.4103C62.5388 27.4211 62.493 27.4341 62.4479 27.4491L61.4504 27.7802C61.1696 27.8733 60.9211 28.0442 60.7338 28.2731L60.049 29.102C60.0283 29.0997 60.0077 29.0978 59.9869 29.0963L58.8413 29.0134C58.5461 28.9922 58.2511 29.055 57.9905 29.1947L57.0602 29.6905C57.0474 29.6838 57.0346 29.677 57.0216 29.6706L55.9865 29.1514C55.7683 29.042 55.5285 28.9855 55.286 28.9855C55.2344 28.9855 55.1827 28.988 55.131 28.9931L54.0741 29.0989L53.2874 28.1909C53.0938 27.9672 52.8408 27.8031 52.5577 27.7175L51.5319 27.4019C51.5211 27.3555 51.5082 27.3097 51.4932 27.2645L51.1621 26.2672C51.069 25.9864 50.898 25.7378 50.6691 25.5505L49.8402 24.8656C49.8426 24.845 49.8444 24.8244 49.846 24.8036L49.9288 23.658C49.95 23.363 49.8872 23.0678 49.7475 22.8072L49.2518 21.8767C49.2583 21.8633 49.265 21.8505 49.2715 21.8377Z" fill="white"/>
</g>
<defs>
<filter id="filter0_d_2938_20712" x="-7" y="0.691162" width="100" height="100" filterUnits="userSpaceOnUse" color-interpolation-filters="sRGB">
<feFlood flood-opacity="0" result="BackgroundImageFix"/>
<feColorMatrix in="SourceAlpha" type="matrix" values="0 0 0 0 0 0 0 0 0 0 0 0 0 0 0 0 0 0 127 0" result="hardAlpha"/>
<feOffset dy="6"/>
<feGaussianBlur stdDeviation="5"/>
<feComposite in2="hardAlpha" operator="out"/>
<feColorMatrix type="matrix" values="0 0 0 0 0 0 0 0 0 0 0 0 0 0 0 0 0 0 0.15 0"/>
<feBlend mode="normal" in2="BackgroundImageFix" result="effect1_dropShadow_2938_20712"/>
<feBlend mode="normal" in="SourceGraphic" in2="effect1_dropShadow_2938_20712" result="shape"/>
</filter>
</defs>
</svg>
