<svg width="96" height="96" viewBox="0 0 96 96" fill="none" xmlns="http://www.w3.org/2000/svg">
<g filter="url(#filter0_d_2938_20663)">
<path d="M83.0001 46.3696L82.6714 47.7646H53.3289L52.9676 46.2284C52.8339 45.6634 52.3301 45.2646 51.7501 45.2646H45.5001C45.5001 41.8184 42.6964 39.0146 39.2501 39.0146H35.5001V37.7646C35.5001 33.9271 33.3251 30.5921 30.1451 28.9171C32.6064 27.3659 34.2501 24.6321 34.2501 21.5146C34.2501 16.6896 30.3239 12.7646 25.5001 12.7646C20.6764 12.7646 16.7501 16.6896 16.7501 21.5146C16.7501 24.6321 18.3939 27.3659 20.8551 28.9171C17.6751 30.5921 15.5001 33.9271 15.5001 37.7646V49.0684C15.5001 50.7496 16.1614 52.3209 17.3326 53.4884L15.5514 62.3834L10.6076 73.5059C10.3514 74.0834 10.5664 74.7609 11.1064 75.0859L17.3564 78.8359C17.5539 78.9546 17.7751 79.0146 18.0001 79.0146C18.1176 79.0146 18.2351 78.9984 18.3489 78.9646C18.6839 78.8671 18.9614 78.6346 19.1176 78.3234L25.3676 65.8234C25.4176 65.7234 25.4526 65.6184 25.4751 65.5109L26.4514 60.6446L26.8726 60.9722L30.5276 78.0271C30.6514 78.6021 31.1601 79.0146 31.7501 79.0146H39.2501C39.6201 79.0146 39.9701 78.8509 40.2076 78.5684C40.4451 78.2859 40.5464 77.9121 40.4814 77.5484L36.7314 56.2984C36.7101 56.1796 36.6726 56.0646 36.6189 55.9571L32.5226 47.7646H50.7601L55.5001 67.9109V72.7646C55.5001 74.8321 57.1826 76.5146 59.2501 76.5146H60.7301C61.2476 77.9659 62.6226 79.0146 64.2501 79.0146C65.8776 79.0146 67.2527 77.9659 67.7701 76.5146H73.2314C73.7489 77.9659 75.1239 79.0146 76.7514 79.0146C78.8189 79.0146 80.5014 77.3321 80.5014 75.2646C80.5014 73.1971 78.8189 71.5146 76.7514 71.5146C75.1239 71.5146 73.7489 72.5634 73.2314 74.0146H67.7701C67.2527 72.5634 65.8776 71.5146 64.2501 71.5146C62.6226 71.5146 61.2476 72.5634 60.7301 74.0146H59.2501C58.5601 74.0146 58.0001 73.4534 58.0001 72.7646V69.0146H79.2501C79.8301 69.0146 80.3339 68.6159 80.4676 68.0509L85.4676 46.8009C85.4889 46.7071 85.5001 46.6109 85.5001 46.5146V45.2646H83.0001V46.3696ZM19.2501 21.5146C19.2501 18.0684 22.0539 15.2646 25.5001 15.2646C28.9464 15.2646 31.7501 18.0684 31.7501 21.5146C31.7501 24.9609 28.9464 27.7646 25.5001 27.7646C22.0539 27.7646 19.2501 24.9609 19.2501 21.5146ZM23.0576 64.8546L17.4864 75.9984L13.3426 73.5121L17.8939 63.2734C17.9301 63.1897 17.9589 63.1009 17.9764 63.0109L19.5276 55.2596L24.2464 58.9296L23.0576 64.8546ZM29.2501 45.2646C28.5601 45.2646 28.0001 44.7034 28.0001 44.0146V36.5146H25.5001V44.0146C25.5001 46.0821 27.1826 47.7646 29.2501 47.7646H29.7276L34.3001 56.9109L37.7601 76.5146H32.7614L29.2226 60.0034C29.1614 59.7159 29.0001 59.4584 28.7689 59.2784L19.4489 52.0309C18.5414 51.3246 18.0001 50.2171 18.0001 49.0684V37.7646C18.0001 33.6284 21.3639 30.2646 25.5001 30.2646C29.6364 30.2646 33.0001 33.6284 33.0001 37.7646V40.2646C33.0001 40.9546 33.5589 41.5146 34.2501 41.5146H39.2501C41.3176 41.5146 43.0001 43.1971 43.0001 45.2646H29.2501ZM76.7501 74.0146C77.4401 74.0146 78.0001 74.5759 78.0001 75.2646C78.0001 75.9534 77.4401 76.5146 76.7501 76.5146C76.0602 76.5146 75.5001 75.9534 75.5001 75.2646C75.5001 74.5759 76.0602 74.0146 76.7501 74.0146ZM64.2501 74.0146C64.9401 74.0146 65.5001 74.5759 65.5001 75.2646C65.5001 75.9534 64.9401 76.5146 64.2501 76.5146C63.5601 76.5146 63.0001 75.9534 63.0001 75.2646C63.0001 74.5759 63.5601 74.0146 64.2501 74.0146ZM82.0839 50.2646L81.2014 54.0146H54.7989L53.9164 50.2646H82.0839ZM55.3876 56.5146H80.6126L79.7301 60.2646H56.2701L55.3876 56.5146ZM57.7401 66.5146L56.8576 62.7646H79.1426L78.2601 66.5146H57.7401Z" fill="white"/>
<path d="M48 21.5146V6.51465H51.75V4.01465H46.75C46.0588 4.01465 45.5 4.57465 45.5 5.26465V20.9971L42.1062 24.3909C41.6175 24.1559 41.0775 24.0146 40.5 24.0146C38.4325 24.0146 36.75 25.6971 36.75 27.7646C36.75 29.8321 38.4325 31.5146 40.5 31.5146C42.5675 31.5146 44.25 29.8321 44.25 27.7646C44.25 27.1871 44.1087 26.6471 43.8737 26.1584L47.6338 22.3984C47.8688 22.1646 48 21.8459 48 21.5146ZM40.5 29.0146C39.81 29.0146 39.25 28.4534 39.25 27.7646C39.25 27.0759 39.81 26.5146 40.5 26.5146C41.19 26.5146 41.75 27.0759 41.75 27.7646C41.75 28.4534 41.19 29.0146 40.5 29.0146Z" fill="white"/>
<path d="M54.25 4.01465H59.25V6.51465H54.25V4.01465Z" fill="white"/>
<path d="M54.25 9.01465H68V11.5146H54.25V9.01465Z" fill="white"/>
<path d="M76.75 14.0146H85.5V16.5146H76.75V14.0146Z" fill="white"/>
<path d="M54.25 19.0146H70.5V21.5146H54.25V19.0146Z" fill="white"/>
<path d="M61.75 4.01465H74.25V6.51465H61.75V4.01465Z" fill="white"/>
<path d="M76.75 4.01465H85.5V6.51465H76.75V4.01465Z" fill="white"/>
<path d="M70.5 9.01465H85.5V11.5146H70.5V9.01465Z" fill="white"/>
<path d="M54.25 14.0146H56.75V16.5146H54.25V14.0146Z" fill="white"/>
<path d="M59.25 14.0146H74.25V16.5146H59.25V14.0146Z" fill="white"/>
<path d="M73 19.0146H75.5V21.5146H73V19.0146Z" fill="white"/>
<path d="M78 19.0146H80.5V21.5146H78V19.0146Z" fill="white"/>
<path d="M83 19.0146H85.5V21.5146H83V19.0146Z" fill="white"/>
<path d="M73 29.0146V26.5146C73 25.8246 72.4412 25.2646 71.75 25.2646H65.5C64.8088 25.2646 64.25 25.8246 64.25 26.5146V34.0146H59.25C58.5588 34.0146 58 34.5746 58 35.2646V40.2646H54.25V42.7646H83V40.2646H79.25V30.2646C79.25 29.5746 78.6912 29.0146 78 29.0146H73ZM66.75 27.7646H70.5V30.2646V40.2646H66.75V35.2646V27.7646ZM60.5 36.5146H64.25V40.2646H60.5V36.5146ZM73 40.2646V31.5146H76.75V40.2646H73Z" fill="white"/>
</g>
<defs>
<filter id="filter0_d_2938_20663" x="-2" y="-2.48535" width="100" height="100" filterUnits="userSpaceOnUse" color-interpolation-filters="sRGB">
<feFlood flood-opacity="0" result="BackgroundImageFix"/>
<feColorMatrix in="SourceAlpha" type="matrix" values="0 0 0 0 0 0 0 0 0 0 0 0 0 0 0 0 0 0 127 0" result="hardAlpha"/>
<feOffset dy="6"/>
<feGaussianBlur stdDeviation="5"/>
<feComposite in2="hardAlpha" operator="out"/>
<feColorMatrix type="matrix" values="0 0 0 0 0 0 0 0 0 0 0 0 0 0 0 0 0 0 0.15 0"/>
<feBlend mode="normal" in2="BackgroundImageFix" result="effect1_dropShadow_2938_20663"/>
<feBlend mode="normal" in="SourceGraphic" in2="effect1_dropShadow_2938_20663" result="shape"/>
</filter>
</defs>
</svg>
