<svg width="100" height="101" viewBox="0 0 100 101" fill="none" xmlns="http://www.w3.org/2000/svg">
<g filter="url(#filter0_d_2938_20694)">
<path d="M50.0003 50.3612C53.2242 50.3612 55.8469 47.7385 55.8469 44.5146C55.8469 41.8315 54.0299 39.5671 51.5628 38.8817V20.2178C51.5628 19.3547 50.8634 18.6553 50.0003 18.6553C49.1373 18.6553 48.4378 19.3547 48.4378 20.2178V38.8817C47.4704 39.1503 46.6037 39.6611 45.9067 40.3453L35.9024 34.2955C35.1639 33.8494 34.2032 34.0862 33.7571 34.8241C33.3103 35.5626 33.5471 36.5233 34.2856 36.9695L44.3393 43.0498C44.2185 43.5179 44.1538 44.0087 44.1538 44.5146C44.1538 47.7385 46.7765 50.3612 50.0003 50.3612ZM50.0003 41.7925C51.5012 41.7925 52.7219 43.0138 52.7219 44.5146C52.7219 46.0155 51.5012 47.2362 50.0003 47.2362C48.4995 47.2362 47.2788 46.0155 47.2788 44.5146C47.2788 43.0138 48.4995 41.7925 50.0003 41.7925Z" fill="white"/>
<path d="M75.6478 17.846C75.9078 18.471 76.5682 18.8732 77.2444 18.8037C77.9219 18.7341 78.4877 18.2214 78.6226 17.5537C78.9009 16.1779 77.2847 15.1715 76.1641 15.9918C75.5935 16.4093 75.3756 17.1923 75.6478 17.846Z" fill="white"/>
<path d="M89.1083 53.4679L83.1866 49.1021C82.1985 48.3721 81.524 47.285 81.2762 46.0771H88.4375C89.3005 46.0771 90 45.3777 90 44.5146C90 36.234 87.4915 28.2878 82.7448 21.5361C82.2491 20.8306 81.2744 20.6603 80.5682 21.1565C79.8621 21.6527 79.6924 22.6274 80.1886 23.3336C84.2633 29.1301 86.5485 35.8831 86.8427 42.9521H83.7665C83.385 34.5104 79.9158 26.6277 73.9014 20.6133C67.5171 14.229 59.0289 10.7128 50 10.7128C40.9711 10.7128 32.4829 14.229 26.0986 20.6133C20.0836 26.6277 16.615 34.5104 16.2335 42.9521H13.1573C13.5406 33.6888 17.3303 25.0359 23.9252 18.4398C30.8905 11.4757 40.1508 7.63965 50 7.63965C57.3981 7.63965 64.5343 9.82166 70.636 13.9501C71.3507 14.4335 72.3218 14.2461 72.8058 13.5314C73.2892 12.8167 73.1018 11.845 72.3871 11.3616C65.766 6.8822 58.0249 4.51465 50 4.51465C39.3158 4.51465 29.2712 8.67542 21.7157 16.2303C14.1608 23.7853 10 33.8304 10 44.5146C10 45.3777 10.6995 46.0771 11.5625 46.0771H18.7244C18.476 47.2844 17.8021 48.3715 16.8152 49.1008L10.8917 53.4679C10.2515 53.9397 10.0677 54.8168 10.4651 55.5059L21.0773 73.9244C21.4685 74.6019 22.2992 74.8876 23.0237 74.5903L29.7424 71.837C31.1816 71.2474 32.8204 71.3628 34.1223 72.1422C34.2816 72.2386 34.4397 72.3314 34.6075 72.4291C35.9296 73.189 36.8274 74.5677 37.0093 76.118L37.8357 83.1353C37.9285 83.9214 38.595 84.5146 39.3872 84.5146H60.6128C61.4044 84.5146 62.0715 83.9214 62.1643 83.1353L62.9907 76.1168C63.1726 74.5671 64.0704 73.189 65.4004 72.4242C65.5603 72.3314 65.7184 72.2386 65.8734 72.1447C67.1814 71.3634 68.8202 71.2487 70.2576 71.837L76.9763 74.5903C77.7002 74.8876 78.5321 74.6025 78.9227 73.9244L89.5349 55.5059C89.9316 54.8168 89.7485 53.9397 89.1083 53.4679ZM76.897 71.1803L71.4423 68.9452C69.0991 67.9857 66.4178 68.1786 64.2657 69.4652C64.1193 69.5531 63.9746 69.6385 63.8361 69.7191C61.6595 70.9697 60.1831 73.225 59.8871 75.7518L59.223 81.3896H40.777L40.1129 75.7531C39.8169 73.225 38.3405 70.9697 36.1725 69.724C36.0254 69.6385 35.8807 69.5531 35.7312 69.4634C33.5852 68.178 30.9033 67.9839 28.5577 68.9452L23.103 71.1803L13.8696 55.1549L18.6707 51.6149C20.4535 50.2977 21.6132 48.2787 21.8915 46.0771H33.8916C34.3091 51.566 37.4908 56.4806 42.4054 59.1033C43.1665 59.5098 44.1132 59.2223 44.5197 58.4606C44.9261 57.6995 44.6381 56.7528 43.877 56.3463C39.9835 54.2687 37.439 50.4076 37.0294 46.0771H37.688C38.5504 46.0771 39.2505 45.3777 39.2505 44.5146C39.2505 43.6522 38.5504 42.9521 37.688 42.9521H19.3628C19.5825 38.5851 20.722 34.4567 22.5879 30.7543L23.8263 31.5154C24.0814 31.6722 24.364 31.7467 24.6429 31.7467C25.1678 31.7467 25.6805 31.4818 25.9753 31.0015C26.4276 30.2666 26.1975 29.3041 25.462 28.8524L24.1345 28.037C26.3922 24.5055 29.353 21.4647 32.8174 19.1136L33.429 20.1219C33.7231 20.6066 34.2383 20.8739 34.7668 20.8739C35.0427 20.8739 35.3223 20.8007 35.5756 20.6469C36.3135 20.1995 36.5485 19.2382 36.1011 18.5009L35.4895 17.4932C39.3805 15.3954 43.7732 14.1124 48.4375 13.8774V15.1396C48.4375 16.0027 49.137 16.7021 50 16.7021C50.863 16.7021 51.5625 16.0027 51.5625 15.1396V13.8774C56.2268 14.1124 60.6195 15.3954 64.5105 17.4932L63.8989 18.5009C63.4515 19.2388 63.6865 20.1995 64.4244 20.6469C64.6777 20.8007 64.9573 20.8739 65.2332 20.8739C65.7617 20.8739 66.2769 20.606 66.571 20.1219L67.1826 19.1136C70.647 21.4647 73.6078 24.5055 75.8655 28.037L74.538 28.8524C73.8025 29.3041 73.5724 30.2666 74.0247 31.0015C74.3195 31.4818 74.8322 31.7467 75.3571 31.7467C75.636 31.7467 75.9186 31.6716 76.1737 31.5154L77.4121 30.7543C79.278 34.4567 80.4175 38.5851 80.6372 42.9521H62.4695C61.6064 42.9521 60.907 43.6522 60.907 44.5146C60.907 45.3777 61.6064 46.0771 62.4695 46.0771H62.9712C62.5604 50.4222 60.0037 54.29 56.0901 56.364C55.3271 56.7681 55.0366 57.7141 55.4407 58.4764C55.8447 59.2388 56.7914 59.5293 57.5531 59.1252C62.4927 56.5081 65.6903 51.5837 66.109 46.0771H78.1091C78.3875 48.2799 79.5471 50.2983 81.3306 51.6161L86.131 55.1549L76.897 71.1803Z" fill="white"/>
<path d="M72.6126 48.4326C71.774 48.2287 70.9287 48.7426 70.7248 49.5812C69.614 54.1418 66.9675 58.2739 63.2724 61.2158C59.4663 64.2461 54.877 65.8477 50.0003 65.8477C45.1236 65.8477 40.5344 64.2461 36.7288 61.2158C33.0338 58.2739 30.3873 54.1418 29.2764 49.5812C29.072 48.7426 28.2266 48.2287 27.3886 48.4326C26.55 48.637 26.0361 49.4818 26.2399 50.3204C27.5143 55.5517 30.5478 60.2892 34.7818 63.6602C39.147 67.1356 44.4095 68.9727 50.0003 68.9727C55.5911 68.9727 60.8542 67.1356 65.2188 63.6602C69.4534 60.2892 72.4869 55.5517 73.7607 50.3204C73.9652 49.4818 73.4512 48.637 72.6126 48.4326Z" fill="white"/>
<path d="M50.5973 57.9929C49.2862 57.4461 47.9709 58.8761 48.6063 60.1371C48.906 60.7316 49.5694 61.0789 50.2292 60.9806C50.8878 60.883 51.4249 60.3581 51.5397 59.7031C51.6642 58.9933 51.265 58.2664 50.5973 57.9929Z" fill="white"/>
</g>
<defs>
<filter id="filter0_d_2938_20694" x="0" y="0.514648" width="100" height="100" filterUnits="userSpaceOnUse" color-interpolation-filters="sRGB">
<feFlood flood-opacity="0" result="BackgroundImageFix"/>
<feColorMatrix in="SourceAlpha" type="matrix" values="0 0 0 0 0 0 0 0 0 0 0 0 0 0 0 0 0 0 127 0" result="hardAlpha"/>
<feOffset dy="6"/>
<feGaussianBlur stdDeviation="5"/>
<feComposite in2="hardAlpha" operator="out"/>
<feColorMatrix type="matrix" values="0 0 0 0 0 0 0 0 0 0 0 0 0 0 0 0 0 0 0.15 0"/>
<feBlend mode="normal" in2="BackgroundImageFix" result="effect1_dropShadow_2938_20694"/>
<feBlend mode="normal" in="SourceGraphic" in2="effect1_dropShadow_2938_20694" result="shape"/>
</filter>
</defs>
</svg>
