<svg width="88" height="101" viewBox="0 0 88 101" fill="none" xmlns="http://www.w3.org/2000/svg">
<g filter="url(#filter0_d_2938_20755)">
<path d="M19.8238 24.3126H27.0589V53.1917C27.0589 53.5997 27.221 53.991 27.5096 54.2795C27.7981 54.5681 28.1894 54.7301 28.5974 54.7301C29.0054 54.7301 29.3967 54.5681 29.6853 54.2795C29.9738 53.991 30.1359 53.5997 30.1359 53.1917V22.7741C30.1383 22.5676 30.0991 22.3627 30.0206 22.1717C29.9422 21.9807 29.8261 21.8074 29.6792 21.6622C29.5324 21.517 29.3578 21.4028 29.1659 21.3265C28.974 21.2502 28.7687 21.2133 28.5622 21.2181H23.8238L38.1183 8.4796L52.404 21.2181H47.6567C47.2487 21.2181 46.8574 21.3801 46.5689 21.6687C46.2804 21.9572 46.1183 22.3485 46.1183 22.7565V29.0159C42.3197 29.3793 38.7936 31.1478 36.2307 33.975C33.6678 36.8022 32.2527 40.4843 32.2626 44.3003C32.2725 48.1162 33.7067 51.791 36.2842 54.6048C38.8618 57.4187 42.397 59.1688 46.1974 59.5126V64.7873H38.9359C38.6237 64.7873 38.3189 64.8824 38.062 65.0598C37.8051 65.2372 37.6083 65.4885 37.4976 65.7804C37.3869 66.0723 37.3677 66.391 37.4425 66.6941C37.5172 66.9972 37.6824 67.2704 37.9161 67.4774L56.237 83.829C56.5171 84.0842 56.8823 84.2256 57.2611 84.2256C57.64 84.2256 58.0052 84.0842 58.2853 83.829L76.615 67.5038C76.8493 67.2963 77.0147 67.0223 77.0892 66.7183C77.1637 66.4144 77.1437 66.095 77.0319 65.8027C76.9202 65.5104 76.7219 65.2591 76.4637 65.0824C76.2054 64.9057 75.8994 64.8119 75.5864 64.8137H68.3513V36.0312C68.3513 35.6232 68.1892 35.2319 67.9007 34.9434C67.6121 34.6549 67.2208 34.4928 66.8128 34.4928C66.4048 34.4928 66.0135 34.6549 65.7249 34.9434C65.4364 35.2319 65.2743 35.6232 65.2743 36.0312V66.3521C65.2743 66.7602 65.4364 67.1515 65.7249 67.44C66.0135 67.7285 66.4048 67.8906 66.8128 67.8906H71.5513L57.2655 80.6466L42.971 67.8906H47.7183C48.1263 67.8906 48.5176 67.7285 48.8061 67.44C49.0947 67.1515 49.2567 66.7602 49.2567 66.3521V59.5038C53.0375 59.1213 56.541 57.3468 59.0864 54.5252C61.6318 51.7036 63.0372 48.0364 63.0295 44.2363C63.0219 40.4363 61.6016 36.7748 59.0449 33.9635C56.4881 31.1522 52.9775 29.3919 49.1952 29.0247V24.3126H56.4392C56.7505 24.3114 57.0541 24.2158 57.31 24.0385C57.5658 23.8611 57.7618 23.6103 57.8721 23.3192C57.9859 23.0282 58.0073 22.7092 57.9333 22.4056C57.8594 22.102 57.6938 21.8286 57.4589 21.6225L39.1644 5.27081C38.8844 5.01568 38.5191 4.87427 38.1403 4.87427C37.7614 4.87427 37.3962 5.01568 37.1161 5.27081L18.7688 21.6225C18.5327 21.8314 18.3666 22.1078 18.2927 22.4144C18.2189 22.7209 18.2411 23.0427 18.3562 23.3362C18.4713 23.6297 18.6738 23.8808 18.9363 24.0554C19.1988 24.23 19.5086 24.3198 19.8238 24.3126ZM59.9644 44.2686C59.9662 46.6899 59.2501 49.0574 57.9067 51.0718C56.5633 53.0863 54.6529 54.6573 52.4169 55.5863C50.1808 56.5153 47.7196 56.7606 45.3443 56.2912C42.9689 55.8218 40.786 54.6588 39.0714 52.9491C37.3568 51.2395 36.1875 49.0599 35.7113 46.6859C35.2351 44.3118 35.4734 41.8499 36.3959 39.6113C37.3185 37.3726 38.884 35.4577 40.8946 34.1085C42.9052 32.7593 45.2706 32.0365 47.6919 32.0312C50.936 32.0359 54.046 33.3267 56.3399 35.6206C58.6338 37.9146 59.9246 41.0245 59.9293 44.2686H59.9644Z" fill="white"/>
<path d="M75.5873 39.7324C75.9953 39.7324 76.3866 39.5703 76.6751 39.2818C76.9637 38.9933 77.1257 38.602 77.1257 38.194V21.2621C77.1257 20.8541 76.9637 20.4628 76.6751 20.1742C76.3866 19.8857 75.9953 19.7236 75.5873 19.7236C75.1793 19.7236 74.788 19.8857 74.4994 20.1742C74.2109 20.4628 74.0488 20.8541 74.0488 21.2621V38.194C74.0488 38.602 74.2109 38.9933 74.4994 39.2818C74.788 39.5703 75.1793 39.7324 75.5873 39.7324Z" fill="white"/>
<path d="M75.5873 50.0091C75.9953 50.0091 76.3866 49.847 76.6751 49.5585C76.9637 49.2699 77.1257 48.8786 77.1257 48.4706V45.4113C77.1257 45.0032 76.9637 44.6119 76.6751 44.3234C76.3866 44.0349 75.9953 43.8728 75.5873 43.8728C75.1793 43.8728 74.788 44.0349 74.4994 44.3234C74.2109 44.6119 74.0488 45.0032 74.0488 45.4113V48.4706C74.0488 48.8786 74.2109 49.2699 74.4994 49.5585C74.788 49.847 75.1793 50.0091 75.5873 50.0091Z" fill="white"/>
<path d="M19.8236 46.5454C20.2316 46.5454 20.623 46.3833 20.9115 46.0948C21.2 45.8063 21.3621 45.415 21.3621 45.007V43.0641C21.3621 42.6561 21.2 42.2648 20.9115 41.9762C20.623 41.6877 20.2316 41.5256 19.8236 41.5256C19.4156 41.5256 19.0243 41.6877 18.7358 41.9762C18.4472 42.2648 18.2852 42.6561 18.2852 43.0641V45.007C18.2852 45.415 18.4472 45.8063 18.7358 46.0948C19.0243 46.3833 19.4156 46.5454 19.8236 46.5454Z" fill="white"/>
<path d="M19.8237 67.6093C20.2287 67.6001 20.6137 67.4315 20.8951 67.1402C21.1766 66.8489 21.3318 66.4583 21.327 66.0533V51.4071C21.327 50.9991 21.1649 50.6078 20.8764 50.3193C20.5879 50.0307 20.1966 49.8687 19.7886 49.8687C19.3805 49.8687 18.9892 50.0307 18.7007 50.3193C18.4122 50.6078 18.2501 50.9991 18.2501 51.4071V66.0533C18.2477 66.2598 18.2869 66.4646 18.3653 66.6557C18.4438 66.8467 18.5599 67.02 18.7067 67.1652C18.8536 67.3104 19.0282 67.4246 19.2201 67.5009C19.412 67.5772 19.6173 67.614 19.8237 67.6093Z" fill="white"/>
<path d="M12.3685 64.3916C12.7766 64.3916 13.1679 64.2295 13.4564 63.941C13.7449 63.6524 13.907 63.2611 13.907 62.8531V54.0619C13.907 53.6539 13.7449 53.2626 13.4564 52.974C13.1679 52.6855 12.7766 52.5234 12.3685 52.5234C11.9605 52.5234 11.5692 52.6855 11.2807 52.974C10.9922 53.2626 10.8301 53.6539 10.8301 54.0619V62.8531C10.8324 63.2604 10.9952 63.6504 11.2832 63.9384C11.5713 64.2264 11.9612 64.3893 12.3685 64.3916Z" fill="white"/>
<path d="M46.398 35.038V35.4951H46.0199C42.9078 35.4951 40.3672 37.7281 40.3672 40.4709V40.6556C40.415 41.6494 40.79 42.5995 41.434 43.358C42.078 44.1164 42.9547 44.6406 43.9276 44.849L46.398 45.3501V49.5698H46.0199C44.6221 49.5698 43.4441 48.6907 43.4441 47.6534C43.4441 47.2453 43.282 46.854 42.9935 46.5655C42.705 46.277 42.3137 46.1149 41.9056 46.1149C41.4976 46.1149 41.1063 46.277 40.8178 46.5655C40.5293 46.854 40.3672 47.2453 40.3672 47.6534C40.3672 50.405 42.8991 52.6468 46.0199 52.6468H46.398V53.2621C46.398 53.6702 46.56 54.0615 46.8486 54.35C47.1371 54.6385 47.5284 54.8006 47.9364 54.8006C48.3444 54.8006 48.7358 54.6385 49.0243 54.35C49.3128 54.0615 49.4749 53.6702 49.4749 53.2621V52.638C52.5342 52.5764 54.9958 50.3698 54.9958 47.6534V47.4775C54.975 46.4614 54.6027 45.4838 53.9424 44.7113C53.282 43.9387 52.3743 43.4188 51.3738 43.2402L49.4749 42.8446V38.5808C50.8199 38.6336 51.9276 39.46 51.9276 40.4709C51.9276 40.879 52.0897 41.2703 52.3782 41.5588C52.6667 41.8473 53.0581 42.0094 53.4661 42.0094C53.8741 42.0094 54.2654 41.8473 54.5539 41.5588C54.8425 41.2703 55.0045 40.879 55.0045 40.4709C55.0045 37.772 52.5342 35.5654 49.4749 35.5039V35.038C49.4749 34.6299 49.3128 34.2386 49.0243 33.9501C48.7358 33.6616 48.3444 33.4995 47.9364 33.4995C47.5284 33.4995 47.1371 33.6616 46.8486 33.9501C46.56 34.2386 46.398 34.6299 46.398 35.038ZM46.398 42.2116L44.5606 41.8336C44.2815 41.7673 44.0275 41.6216 43.8294 41.4141C43.6313 41.2066 43.4975 40.9462 43.4441 40.6643V40.4709C43.4441 39.4424 44.6221 38.572 46.0199 38.572H46.398V42.2116ZM49.4749 45.983L50.6969 46.238C51.4441 46.4226 51.9276 46.9061 51.9188 47.4775V47.6534C51.9188 48.6556 50.8111 49.5083 49.4749 49.5611V45.983Z" fill="white"/>
</g>
<defs>
<filter id="filter0_d_2938_20755" x="-6" y="0.514648" width="100" height="100" filterUnits="userSpaceOnUse" color-interpolation-filters="sRGB">
<feFlood flood-opacity="0" result="BackgroundImageFix"/>
<feColorMatrix in="SourceAlpha" type="matrix" values="0 0 0 0 0 0 0 0 0 0 0 0 0 0 0 0 0 0 127 0" result="hardAlpha"/>
<feOffset dy="6"/>
<feGaussianBlur stdDeviation="5"/>
<feComposite in2="hardAlpha" operator="out"/>
<feColorMatrix type="matrix" values="0 0 0 0 0 0 0 0 0 0 0 0 0 0 0 0 0 0 0.15 0"/>
<feBlend mode="normal" in2="BackgroundImageFix" result="effect1_dropShadow_2938_20755"/>
<feBlend mode="normal" in="SourceGraphic" in2="effect1_dropShadow_2938_20755" result="shape"/>
</filter>
</defs>
</svg>
