<svg width="92" height="101" viewBox="0 0 92 101" fill="none" xmlns="http://www.w3.org/2000/svg">
<g filter="url(#filter0_d_2938_20793)">
<path d="M79.3309 24.81H77.0823C77.0807 24.8062 77.0791 24.8023 77.0777 24.7986L76.6463 23.7456C76.6435 23.7387 76.6407 23.732 76.6377 23.7252C76.6379 23.7241 76.638 23.7228 76.6382 23.7219L78.2359 22.112C78.9909 21.3512 78.9909 20.1131 78.2359 19.3522L75.2349 16.3284C74.867 15.9575 74.376 15.7531 73.8527 15.7531C73.3295 15.7531 72.8387 15.9575 72.4707 16.3283L70.8796 17.9312C70.8759 17.9295 70.872 17.928 70.868 17.9264L69.8309 17.4948C69.8259 17.4927 69.8207 17.4908 69.8155 17.4886C69.8152 17.4881 69.8149 17.4877 69.8146 17.4872V15.2059C69.8146 14.1291 68.9385 13.2528 67.8615 13.2528H63.6237C62.5466 13.2528 61.6705 14.1291 61.6705 15.2059V17.4872C61.6702 17.4877 61.6699 17.4881 61.6696 17.4886C61.6645 17.4908 61.6595 17.4927 61.6543 17.4948L60.6173 17.9264C60.6134 17.9281 60.6096 17.9297 60.6057 17.9312L59.0149 16.3281C58.6468 15.9573 58.156 15.7531 57.6329 15.7531C57.1212 15.7531 56.6413 15.9497 56.2762 16.305C53.374 15.2027 50.2318 14.5973 46.9515 14.5973C32.3349 14.5973 20.4434 26.5759 20.4434 41.2997C20.4434 46.7548 22.0657 52.0011 25.1352 56.4716C27.9821 60.6177 31.8807 63.8377 36.4455 65.8222V70.1728C35.4007 70.5577 34.6521 71.5602 34.6521 72.7369V75.2792C34.6521 76.7869 35.8788 78.0136 37.3865 78.0136H39.0955V82.1292C39.0955 83.542 40.2426 84.6912 41.6524 84.6912H52.2507C53.6605 84.6912 54.8076 83.542 54.8076 82.1292V78.0136H56.5166C58.0243 78.0136 59.251 76.7869 59.251 75.2792V72.7369C59.251 71.5602 58.5023 70.5575 57.4574 70.1728V65.8223C63.3937 63.2427 68.1605 58.6051 70.9343 52.6887C71.209 52.1028 70.9566 51.405 70.3707 51.1302C69.7846 50.8553 69.0868 51.1078 68.8123 51.6937C66.4293 56.7764 62.4351 60.8239 57.4574 63.2425V56.8867H57.7205C58.7976 56.8867 59.6737 56.0106 59.6737 54.9336V51.8798C59.6737 50.8028 58.7976 49.9267 57.7205 49.9267H54.7401C53.663 49.9267 52.787 50.8028 52.787 51.8798V54.9336C52.787 56.0106 53.663 56.8867 54.7401 56.8867H55.1138V70.0022H53.4073V61.0119C53.4073 60.2673 53.041 59.3787 52.517 58.8506L43.6773 49.9431L44.0535 49.5639C44.8085 48.8031 44.8085 47.565 44.0535 46.8041L41.9416 44.6761C41.5737 44.3052 41.0827 44.1008 40.5595 44.1008C40.0362 44.1008 39.5454 44.3052 39.1774 44.6759L37.0385 46.8312C36.2835 47.592 36.2835 48.8302 37.0385 49.5911L39.1504 51.7191C39.5184 52.09 40.0093 52.2944 40.5326 52.2944C41.0559 52.2944 41.5466 52.09 41.9146 51.7192L42.0262 51.6067L50.8532 60.5014C50.9396 60.5914 51.0615 60.8875 51.0637 61.0119V70.0022H48.6409V60.16C48.6409 59.5126 48.1162 58.9881 47.469 58.9881C46.8218 58.9881 46.2971 59.5126 46.2971 60.16V70.0023H42.752V61.6191H43.0704C44.1474 61.6191 45.0235 60.743 45.0235 59.6659V56.6122C45.0235 55.5352 44.1474 54.6591 43.0704 54.6591H40.0899C39.0129 54.6591 38.1368 55.5352 38.1368 56.6122V59.6659C38.1368 60.743 39.0129 61.6191 40.0899 61.6191H40.4082V70.0023H38.7895V65.0412C38.7895 64.5619 38.4974 64.1309 38.0524 63.953C33.6018 62.1748 29.8034 59.1289 27.0676 55.1447C24.2674 51.0666 22.7873 46.2791 22.7873 41.2997C22.7873 27.8683 33.6273 16.9411 46.9516 16.9411C49.568 16.9411 52.0877 17.3647 54.4491 18.1437L53.2501 19.352C52.4951 20.1128 52.4951 21.3509 53.2501 22.1117L54.8474 23.7217C54.8476 23.7228 54.8479 23.7241 54.8479 23.725C54.8449 23.7317 54.8421 23.7386 54.8393 23.7453L54.4079 24.7981C54.4063 24.802 54.4048 24.8059 54.4032 24.8097H52.1546C51.0776 24.8097 50.2015 25.6858 50.2015 26.7628V31.0453C50.2015 32.1223 51.0776 32.9984 52.1546 32.9984H54.4032C54.4048 33.0022 54.4063 33.0062 54.4079 33.01L54.8391 34.0625C54.842 34.0694 54.8448 34.0761 54.8477 34.083C54.8477 34.0841 54.8474 34.085 54.8473 34.0861L53.2499 35.6962C52.4951 36.4569 52.4949 37.695 53.2499 38.4561L56.2509 41.4806C56.6188 41.8512 57.1098 42.0555 57.6329 42.0555C58.156 42.0555 58.6468 41.8512 59.0151 41.4803L60.6057 39.8772C60.6096 39.8787 60.6134 39.8805 60.6173 39.882L61.6543 40.3136C61.6595 40.3158 61.6645 40.3177 61.6696 40.3198C61.6699 40.3203 61.6702 40.3208 61.6705 40.3212V42.6025C61.6705 43.6795 62.5466 44.5556 63.6237 44.5556H67.8616C68.9387 44.5556 69.8148 43.6795 69.8148 42.6025V40.3212C69.8151 40.3208 69.8154 40.3203 69.8157 40.3198C69.8209 40.3177 69.826 40.3156 69.8312 40.3134L70.8684 39.8817C70.8723 39.8801 70.876 39.8786 70.8799 39.8769L71.0848 40.0833C71.1048 40.4861 71.116 40.8914 71.116 41.2992C71.116 42.3828 71.0448 43.4723 70.9044 44.5378C70.8199 45.1795 71.2715 45.7681 71.9132 45.8527C72.5551 45.938 73.1435 45.4856 73.228 44.8439C73.351 43.9111 73.423 42.9617 73.448 42.0126C73.5798 42.0403 73.7151 42.0553 73.853 42.0553C74.3762 42.0553 74.867 41.8511 75.2352 41.4802L78.2363 38.4558C78.9912 37.695 78.9912 36.4569 78.2362 35.6959L76.6387 34.0864C76.6385 34.0853 76.6382 34.0841 76.6382 34.083C76.641 34.0762 76.644 34.0695 76.6466 34.0628L77.078 33.01C77.0796 33.0062 77.0812 33.0022 77.0827 32.9984H79.3313C80.4084 32.9984 81.2845 32.1223 81.2845 31.0453V26.7631C81.284 25.6861 80.4079 24.81 79.3309 24.81ZM40.5323 49.7847L38.9709 48.2112L40.5593 46.6108L42.1207 48.1842L40.5323 49.7847ZM52.2505 82.3475H41.6523C41.5368 82.3475 41.4391 82.2475 41.4391 82.1292V81.2156H52.4637V82.1292C52.4637 82.2477 52.366 82.3475 52.2505 82.3475ZM52.4637 78.8719H41.4391V78.0136H52.4637V78.8719ZM55.1304 52.2706H57.3296V54.5431H55.1304V52.2706ZM40.4802 57.0028H42.6795V59.2753H40.4802V57.0028ZM36.9957 72.7367C36.9957 72.525 37.1746 72.3461 37.3863 72.3461H56.5165C56.7282 72.3461 56.9071 72.525 56.9071 72.7367V75.2791C56.9071 75.4908 56.7282 75.6697 56.5165 75.6697H37.3863C37.1746 75.6697 36.9957 75.4908 36.9957 75.2791V72.7367ZM78.9402 30.655H77.0276C76.1035 30.655 75.2151 31.2802 74.8985 32.147L74.4888 33.147C74.1052 33.9817 74.2909 35.0486 74.9387 35.7014L76.3034 37.0764L73.8527 39.5462L72.5002 38.183C72.088 37.768 71.494 37.5298 70.8699 37.5298C70.542 37.5298 70.2216 37.5987 69.9404 37.7297L68.9562 38.1392C68.093 38.4594 67.4709 39.348 67.4709 40.2695V42.2122H64.0143V40.2695C64.0143 39.348 63.3921 38.4594 62.529 38.1392L61.5445 37.7297C61.2634 37.5989 60.9432 37.53 60.6154 37.53C59.9913 37.53 59.3971 37.7681 58.9848 38.1836L57.6329 39.5462L55.1823 37.0764L56.5471 35.7008C57.1949 35.0481 57.3804 33.9812 56.9966 33.1466L56.587 32.1469C56.2702 31.2798 55.382 30.6548 54.4579 30.6548H52.5451V27.1537H54.4579C55.382 27.1537 56.2704 26.5287 56.587 25.6616L56.9966 24.6616C57.3802 23.827 57.1946 22.76 56.547 22.1073L55.1823 20.7319L57.6327 18.2627L58.9849 19.6253C59.3971 20.0403 59.9913 20.2786 60.6154 20.2786C60.9432 20.2786 61.2634 20.2097 61.5445 20.0789L62.529 19.6694C63.3921 19.3492 64.0143 18.4606 64.0143 17.5391V15.5966H67.471V17.5392C67.471 18.4606 68.0932 19.3495 68.9565 19.6695L69.9405 20.0789C70.2218 20.2098 70.5421 20.2787 70.8701 20.2787C71.4943 20.2787 72.0885 20.0406 72.5004 19.6253L73.8527 18.2628L76.3034 20.732L74.9385 22.1073C74.2909 22.76 74.1052 23.8269 74.4888 24.6614L74.8985 25.6617C75.2152 26.5286 76.1035 27.1537 77.0276 27.1537H78.9402V30.655Z" fill="white"/>
<path d="M73.426 26.3576C73.2248 25.7425 72.5627 25.4069 71.9477 25.6083C71.3326 25.8095 70.9971 26.4712 71.1985 27.0864C71.3895 27.6701 71.4863 28.2817 71.4863 28.9042C71.4863 32.1006 68.9095 34.7011 65.7421 34.7011C62.5748 34.7011 59.998 32.1006 59.998 28.9042C59.998 25.7078 62.5748 23.1072 65.7421 23.1072C66.3937 23.1072 67.0324 23.2161 67.6407 23.4309C68.2512 23.6461 68.9204 23.3262 69.1359 22.7161C69.3513 22.1059 69.0315 21.4366 68.4212 21.2209C67.5615 20.9175 66.6601 20.7634 65.7421 20.7634C61.2824 20.7634 57.6543 24.4153 57.6543 28.9042C57.6543 33.393 61.2824 37.0448 65.7421 37.0448C70.2018 37.0448 73.8301 33.393 73.8301 28.9042C73.8301 28.0339 73.6941 27.177 73.426 26.3576Z" fill="white"/>
<path d="M65.7418 24.7864C63.4835 24.7864 61.6465 26.6336 61.6465 28.9042C61.6465 31.1747 63.4837 33.022 65.7418 33.022C68.0001 33.022 69.8371 31.1748 69.8371 28.9042C69.8373 26.6337 68.0001 24.7864 65.7418 24.7864ZM65.7418 30.6781C64.7759 30.6781 63.9902 29.8823 63.9902 28.904C63.9902 27.9258 64.776 27.13 65.7418 27.13C66.7077 27.13 67.4934 27.9258 67.4934 28.904C67.4935 29.8825 66.7077 30.6781 65.7418 30.6781Z" fill="white"/>
<path d="M48.959 36.2494H45.9785C44.9015 36.2494 44.0254 37.1255 44.0254 38.2025V41.2563C44.0254 42.3333 44.9015 43.2094 45.9785 43.2094H46.297V50.4724C46.297 51.1197 46.8216 51.6442 47.4688 51.6442C48.116 51.6442 48.6407 51.1197 48.6407 50.4724V43.2094H48.959C50.036 43.2094 50.9121 42.3333 50.9121 41.2563V38.2025C50.9121 37.1255 50.036 36.2494 48.959 36.2494ZM48.5684 40.8656H46.3691V38.5931H48.5684V40.8656Z" fill="white"/>
<path d="M47.4688 4.69116C46.8216 4.69116 46.2969 5.21569 46.2969 5.86304V9.12835C46.2969 9.77569 46.8216 10.3002 47.4688 10.3002C48.1159 10.3002 48.6406 9.77569 48.6406 9.12835V5.86304C48.6406 5.21569 48.1159 4.69116 47.4688 4.69116Z" fill="white"/>
<path d="M39.1765 10.2718L38.2424 7.14365C38.0571 6.52334 37.4043 6.17068 36.7841 6.356C36.164 6.54131 35.8113 7.19396 35.9966 7.81412L36.9305 10.9422C37.0824 11.4507 37.5483 11.7791 38.053 11.7791C38.164 11.7791 38.2769 11.7632 38.3888 11.7299C39.009 11.5446 39.3616 10.8919 39.1765 10.2718Z" fill="white"/>
<path d="M30.4353 14.0938L28.6459 11.3666C28.2909 10.8254 27.5644 10.6748 27.0233 11.0298C26.4822 11.3849 26.3312 12.1113 26.6864 12.6524L28.4759 15.3794C28.7009 15.7224 29.0752 15.9087 29.4567 15.9087C29.6773 15.9087 29.9003 15.8465 30.0984 15.7165C30.6395 15.3615 30.7905 14.6349 30.4353 14.0938Z" fill="white"/>
<path d="M23.1566 20.2733L20.6624 18.1763C20.1669 17.7596 19.4277 17.8237 19.0113 18.319C18.5948 18.8144 18.6587 19.5537 19.1541 19.9701L21.6482 22.0671C21.8679 22.2519 22.1355 22.3421 22.4018 22.3421C22.7358 22.3421 23.0676 22.2001 23.2994 21.9244C23.716 21.429 23.6519 20.6897 23.1566 20.2733Z" fill="white"/>
<path d="M17.9495 28.2894L14.9607 26.9994C14.3664 26.7428 13.6768 27.0166 13.4204 27.6109C13.164 28.205 13.4378 28.8945 14.032 29.1511L17.0207 30.4411C17.1721 30.5064 17.3296 30.5373 17.4845 30.5373C17.9381 30.5373 18.37 30.2725 18.5611 29.8295C18.8175 29.2353 18.5437 28.5458 17.9495 28.2894Z" fill="white"/>
<path d="M15.2555 37.4677L12.0236 37.0935C11.3805 37.0187 10.7992 37.4801 10.7247 38.1229C10.6502 38.7657 11.1111 39.3473 11.7541 39.4218L14.9859 39.796C15.0317 39.8013 15.077 39.804 15.1222 39.804C15.7091 39.804 16.2158 39.3638 16.2849 38.7667C16.3594 38.1238 15.8984 37.5423 15.2555 37.4677Z" fill="white"/>
<path d="M16.6576 47.9843C16.5437 47.3472 15.9349 46.9233 15.2976 47.037L12.0946 47.61C11.4576 47.7239 11.0334 48.3328 11.1474 48.9698C11.2488 49.5372 11.7429 49.9356 12.2996 49.9356C12.3681 49.9356 12.4376 49.9297 12.5074 49.9172L15.7104 49.3442C16.3474 49.2303 16.7715 48.6214 16.6576 47.9843Z" fill="white"/>
<path d="M19.6509 56.7065C19.3584 56.1293 18.653 55.8986 18.0759 56.1908L15.1717 57.6625C14.5944 57.9552 14.3636 58.6604 14.6561 59.2375C14.8626 59.645 15.2747 59.88 15.7023 59.88C15.8805 59.88 16.0614 59.8391 16.2311 59.7532L19.1353 58.2814C19.7126 57.9888 19.9434 57.2836 19.6509 56.7065Z" fill="white"/>
<path d="M25.0128 64.1991C24.5667 63.7302 23.825 63.7119 23.356 64.1579L20.995 66.4046C20.526 66.8507 20.5076 67.5926 20.9539 68.0615C21.1842 68.3037 21.4932 68.4255 21.8029 68.4255C22.0931 68.4255 22.3839 68.3184 22.6106 68.1027L24.9717 65.856C25.4406 65.4099 25.459 64.668 25.0128 64.1991Z" fill="white"/>
<path d="M38.1914 33.6056H35.2109C34.1339 33.6056 33.2578 34.4817 33.2578 35.5587V38.6125C33.2578 39.6895 34.1339 40.5656 35.2109 40.5656H38.1914C39.2684 40.5656 40.1445 39.6895 40.1445 38.6125V35.5587C40.1445 34.4817 39.2684 33.6056 38.1914 33.6056ZM37.8008 38.2218H35.6016V35.9493H37.8008V38.2218Z" fill="white"/>
<path d="M43.5391 24.6241H40.5586C39.4816 24.6241 38.6055 25.5002 38.6055 26.5773V29.631C38.6055 30.7081 39.4816 31.5841 40.5586 31.5841H43.5391C44.6161 31.5841 45.4922 30.7081 45.4922 29.631V26.5773C45.4922 25.5002 44.6161 24.6241 43.5391 24.6241ZM43.1484 29.2404H40.9492V26.9679H43.1484V29.2404Z" fill="white"/>
</g>
<defs>
<filter id="filter0_d_2938_20793" x="-4" y="0.691162" width="100" height="100" filterUnits="userSpaceOnUse" color-interpolation-filters="sRGB">
<feFlood flood-opacity="0" result="BackgroundImageFix"/>
<feColorMatrix in="SourceAlpha" type="matrix" values="0 0 0 0 0 0 0 0 0 0 0 0 0 0 0 0 0 0 127 0" result="hardAlpha"/>
<feOffset dy="6"/>
<feGaussianBlur stdDeviation="5"/>
<feComposite in2="hardAlpha" operator="out"/>
<feColorMatrix type="matrix" values="0 0 0 0 0 0 0 0 0 0 0 0 0 0 0 0 0 0 0.15 0"/>
<feBlend mode="normal" in2="BackgroundImageFix" result="effect1_dropShadow_2938_20793"/>
<feBlend mode="normal" in="SourceGraphic" in2="effect1_dropShadow_2938_20793" result="shape"/>
</filter>
</defs>
</svg>
