<svg width="98" height="98" viewBox="0 0 98 98" fill="none" xmlns="http://www.w3.org/2000/svg">
<g filter="url(#filter0_d_2938_20737)">
<path d="M86 64.6029C87.1287 63.0992 87.75 61.2354 87.75 59.3529V43.1029C87.75 41.0354 86.0675 39.3529 84 39.3529C83.5062 39.3529 83.0375 39.4542 82.605 39.6279C82.1738 38.0342 80.7288 36.8529 79 36.8529C78.0362 36.8529 77.165 37.2292 76.5 37.8279C75.835 37.2279 74.9638 36.8529 74 36.8529C73.56 36.8529 73.1425 36.9429 72.75 37.0829V31.4442C73.2025 31.2404 73.7088 30.9892 74.2238 30.7242L77.1663 32.4017L82.05 27.5167L80.3613 24.5604C80.4912 24.2779 80.6113 23.9917 80.7188 23.7042L84 22.8067V15.8992L80.7188 15.0017C80.6113 14.7142 80.4912 14.4279 80.3613 14.1454L82.05 11.1892L77.1663 6.30416L74.2075 7.99166C73.9238 7.86166 73.6387 7.74166 73.3525 7.63416L72.455 4.35291H65.5462L64.6488 7.63416C64.3625 7.74166 64.0762 7.86041 63.7925 7.99166L60.835 6.30416L55.9513 11.1892L57.64 14.1454C57.51 14.4279 57.39 14.7142 57.2825 15.0017L54 15.8992V18.1029H46.5C44.4325 18.1029 42.75 19.7854 42.75 21.8529V24.4267C42.3387 24.3804 41.9225 24.3529 41.5 24.3529C41.0775 24.3529 40.6612 24.3804 40.25 24.4267V18.1029C40.25 16.0354 38.5675 14.3529 36.5 14.3529H32.6763C32.0525 8.73666 27.2812 4.35291 21.5 4.35291C15.2963 4.35291 10.25 9.40041 10.25 15.6029C10.25 21.8054 15.2963 26.8529 21.5 26.8529C27.2812 26.8529 32.0525 22.4692 32.6763 16.8529H36.5C37.19 16.8529 37.75 17.4142 37.75 18.1029V25.0092C35.4513 25.8254 33.49 27.3592 32.1525 29.3529H16.5C13.0538 29.3529 10.25 32.1567 10.25 35.6029V60.6029C10.25 64.0492 13.0538 66.8529 16.5 66.8529H26.5V69.3529H25.25C22.4925 69.3529 20.25 71.5954 20.25 74.3529C20.25 75.7317 21.3713 76.8529 22.75 76.8529H50.25C51.6287 76.8529 52.75 75.7317 52.75 74.3529C52.75 71.5954 50.5075 69.3529 47.75 69.3529H46.5V66.8529H56.5C58.0312 66.8529 59.475 66.2729 60.5963 65.2829L61.5 67.1404V69.3529H59V81.8529H86.5V69.3529H84V67.2692L86 64.6029ZM16.0975 22.4729C17.205 20.5542 19.24 19.3529 21.5 19.3529C23.76 19.3529 25.795 20.5542 26.9025 22.4729C25.4125 23.6467 23.5387 24.3529 21.5 24.3529C19.4613 24.3529 17.5875 23.6467 16.0975 22.4729ZM19 14.3529C19 12.9742 20.1213 11.8529 21.5 11.8529C22.8787 11.8529 24 12.9742 24 14.3529C24 15.7317 22.8787 16.8529 21.5 16.8529C20.1213 16.8529 19 15.7317 19 14.3529ZM28.6613 20.6154C27.7763 19.3392 26.5925 18.3229 25.2075 17.6767C26.0025 16.7917 26.5 15.6342 26.5 14.3529C26.5 11.5954 24.2575 9.35291 21.5 9.35291C18.7425 9.35291 16.5 11.5954 16.5 14.3529C16.5 15.6342 16.9975 16.7917 17.7925 17.6767C16.4075 18.3229 15.2238 19.3392 14.3387 20.6154C13.3412 19.1942 12.75 17.4679 12.75 15.6029C12.75 10.7779 16.6762 6.85291 21.5 6.85291C26.3237 6.85291 30.25 10.7779 30.25 15.6029C30.25 17.4679 29.6588 19.1942 28.6613 20.6154ZM53.2825 44.2267L54.5688 46.1567C54.8675 46.6054 55.0925 47.1017 55.25 47.6179V59.3529H17.75V36.8529H30.3237C30.9475 42.4692 35.7188 46.8529 41.5 46.8529C47.2812 46.8529 52.0525 42.4692 52.6763 36.8529H55.25V39.3742C53.8237 39.6829 52.75 40.9517 52.75 42.4692C52.75 43.0967 52.9338 43.7042 53.2825 44.2267ZM39 34.3529C39 32.9742 40.1213 31.8529 41.5 31.8529C42.8787 31.8529 44 32.9742 44 34.3529C44 35.7317 42.8787 36.8529 41.5 36.8529C40.1213 36.8529 39 35.7317 39 34.3529ZM41.5 39.3529C43.76 39.3529 45.795 40.5542 46.9025 42.4729C45.4125 43.6467 43.5387 44.3529 41.5 44.3529C39.4613 44.3529 37.5875 43.6467 36.0975 42.4729C37.205 40.5542 39.24 39.3529 41.5 39.3529ZM55.25 34.3529H52.6763C52.58 33.4854 52.3762 32.6504 52.0938 31.8529H56.5C58.5675 31.8529 60.25 33.5354 60.25 35.6029V40.5992C59.4888 40.1104 58.6488 39.7504 57.75 39.5392V36.8529C57.75 35.4742 56.6287 34.3529 55.25 34.3529ZM61.5737 31.9804L63.7775 30.7242C64.2787 30.9842 64.7912 31.2367 65.2513 31.4442V49.3704C65.2513 49.9392 65.12 50.5092 64.8688 51.0192L63.82 45.7767C63.625 44.8054 63.2513 43.9067 62.7487 43.1029H62.75V35.6029C62.75 34.2504 62.3075 33.0042 61.5737 31.9804ZM66.0188 23.3529C64.77 22.4229 64 20.9567 64 19.3529C64 16.5954 66.2425 14.3529 69 14.3529C71.7575 14.3529 74 16.5954 74 19.3529C74 20.9592 73.23 22.4242 71.9812 23.3542C71.2962 22.4479 70.2212 21.8529 69 21.8529C67.78 21.8529 66.7038 22.4479 66.0188 23.3529ZM56.5 17.8067L59.2412 17.0567L59.4425 16.4004C59.6225 15.8217 59.8625 15.2454 60.1575 14.6892L60.48 14.0817L59.0675 11.6079L61.2538 9.42041L63.7275 10.8317L64.335 10.5104C64.8938 10.2142 65.47 9.97416 66.0475 9.79666L66.7025 9.59416L67.455 6.85291H70.5462L71.2975 9.59416L71.9525 9.79666C72.5262 9.97416 73.1038 10.2142 73.6663 10.5117L74.2725 10.8317L76.7462 9.42041L78.9325 11.6079L77.52 14.0817L77.8425 14.6892C78.1375 15.2454 78.3788 15.8217 78.5575 16.4004L78.7588 17.0567L81.5 17.8067V20.8992L78.7588 21.6492L78.5575 22.3054C78.3775 22.8842 78.1375 23.4604 77.8425 24.0167L77.52 24.6242L78.9325 27.0979L76.7462 29.2854L74.2725 27.8742L73.6663 28.1942C73.33 28.3717 73.0262 28.5292 72.7513 28.6692V25.8367C75.0512 24.5079 76.5013 22.0592 76.5013 19.3529C76.5013 15.2167 73.1375 11.8529 69.0013 11.8529C64.865 11.8529 61.5013 15.2167 61.5013 19.3529C61.5013 22.0567 62.9512 24.5067 65.2513 25.8367V28.6692C64.985 28.5342 64.6875 28.3804 64.3375 28.1954L63.73 27.8742L61.2562 29.2854L59.07 27.0979L60.4825 24.6242L60.16 24.0167C59.865 23.4604 59.6237 22.8842 59.445 22.3054L59.2438 21.6492L56.5 20.8992V17.8067ZM45.25 21.8529C45.25 21.1642 45.81 20.6029 46.5 20.6029H54V22.8067L57.2812 23.7042C57.3887 23.9917 57.5088 24.2779 57.6387 24.5604L55.95 27.5167L57.9837 29.5504C57.5062 29.4329 57.0137 29.3529 56.5 29.3529H50.8475C49.51 27.3592 47.5488 25.8254 45.25 25.0092V21.8529ZM41.5 26.8529C46.3237 26.8529 50.25 30.7779 50.25 35.6029C50.25 37.4679 49.6587 39.1942 48.6613 40.6154C47.7762 39.3392 46.5925 38.3229 45.2075 37.6767C46.0025 36.7917 46.5 35.6342 46.5 34.3529C46.5 31.5954 44.2575 29.3529 41.5 29.3529C38.7425 29.3529 36.5 31.5954 36.5 34.3529C36.5 35.6342 36.9975 36.7917 37.7925 37.6767C36.4075 38.3229 35.2237 39.3392 34.3387 40.6154C33.3412 39.1942 32.75 37.4679 32.75 35.6029C32.75 30.7779 36.6763 26.8529 41.5 26.8529ZM50.25 74.3529L22.75 74.3554V74.3529C22.75 72.9742 23.8713 71.8529 25.25 71.8529H47.75C49.1287 71.8529 50.25 72.9742 50.25 74.3529ZM44 69.3529H29V66.8529H44V69.3529ZM56.5 64.3529H16.5C14.4325 64.3529 12.75 62.6704 12.75 60.6029V35.6029C12.75 33.5354 14.4325 31.8529 16.5 31.8529H30.9062C30.6225 32.6504 30.42 33.4854 30.3237 34.3529H17.75C16.3713 34.3529 15.25 35.4742 15.25 36.8529V59.3529C15.25 60.7317 16.3713 61.8529 17.75 61.8529H55.25C56.6063 61.8529 57.7087 60.7654 57.7437 59.4167L59.4213 62.8667C58.7163 63.7817 57.6562 64.3529 56.5 64.3529ZM84 79.3529H61.5V71.8529H84V79.3529ZM64 69.3529V66.5654L59.58 57.4817C59.1675 56.7629 58.9075 55.9817 58.805 55.1579L57.94 48.2404C57.7863 47.0067 57.3412 45.8067 56.65 44.7717L55.3625 42.8404C55.2887 42.7304 55.25 42.6017 55.25 42.4692C55.25 42.1004 55.55 41.8004 55.9188 41.8004C58.5575 41.8004 60.8488 43.6792 61.3675 46.2667L62.975 54.3004H66.0225L67.09 52.1642C67.5213 51.3017 67.75 50.3342 67.75 49.3704V25.6029C67.75 24.9142 68.31 24.3529 69 24.3529C69.69 24.3529 70.25 24.9142 70.25 25.6029V40.6029V45.6029H72.75V40.6029C72.75 39.9142 73.31 39.3529 74 39.3529C74.69 39.3529 75.25 39.9142 75.25 40.6029V45.6029H77.75V40.6029C77.75 39.9142 78.31 39.3529 79 39.3529C79.69 39.3529 80.25 39.9142 80.25 40.6029V43.1029V45.6029H82.75V43.1029C82.75 42.4142 83.31 41.8529 84 41.8529C84.69 41.8529 85.25 42.4142 85.25 43.1029V59.3529C85.25 60.6967 84.8063 62.0292 84 63.1029L81.5 66.4367V69.3529H64Z" fill="white"/>
<path d="M47.75 49.3529H45.25V54.3529H42.75V51.8529H40.25V54.3529H37.75V49.3529H35.25V54.3529H32.75V44.3529H30.25V54.3529H27.75V41.8529H25.25V54.3529H22.75V39.3529H20.25V56.8529H50.25V54.3529H47.75V49.3529Z" fill="white"/>
</g>
<defs>
<filter id="filter0_d_2938_20737" x="-1" y="-0.897095" width="100" height="100" filterUnits="userSpaceOnUse" color-interpolation-filters="sRGB">
<feFlood flood-opacity="0" result="BackgroundImageFix"/>
<feColorMatrix in="SourceAlpha" type="matrix" values="0 0 0 0 0 0 0 0 0 0 0 0 0 0 0 0 0 0 127 0" result="hardAlpha"/>
<feOffset dy="6"/>
<feGaussianBlur stdDeviation="5"/>
<feComposite in2="hardAlpha" operator="out"/>
<feColorMatrix type="matrix" values="0 0 0 0 0 0 0 0 0 0 0 0 0 0 0 0 0 0 0.15 0"/>
<feBlend mode="normal" in2="BackgroundImageFix" result="effect1_dropShadow_2938_20737"/>
<feBlend mode="normal" in="SourceGraphic" in2="effect1_dropShadow_2938_20737" result="shape"/>
</filter>
</defs>
</svg>
