<svg width="100" height="101" viewBox="0 0 100 101" fill="none" xmlns="http://www.w3.org/2000/svg">
<g filter="url(#filter0_d_2938_20775)">
<path d="M85.2171 57.305C80.9668 53.0548 74.7025 51.5291 69.0064 53.2823L63.2953 47.5711L88.2497 22.6169C89.3783 21.4883 89.9998 19.9876 89.9998 18.3916C89.9998 16.7955 89.3783 15.2947 88.2497 14.1662L80.7611 6.67765C79.6325 5.5489 78.1318 4.92749 76.5357 4.92749C74.9395 4.92749 73.439 5.5489 72.3104 6.67765L47.3561 31.632L41.645 25.9208C43.3982 20.2248 41.8725 13.9603 37.6223 9.70999C35.2703 7.35796 32.302 5.80671 29.0384 5.22405C25.8509 4.65483 22.6054 5.04171 19.6532 6.34249C19.1814 6.55046 18.8425 6.9778 18.7475 7.48468C18.6526 7.9914 18.8137 8.51249 19.1784 8.87718L26.6329 16.3316L21.3628 21.6016L13.9082 14.1473C13.5436 13.7826 13.0222 13.622 12.5157 13.7164C12.0089 13.8112 11.5815 14.1501 11.3737 14.6222C10.0729 17.5745 9.68621 20.8198 10.2551 24.0073C10.8378 27.2709 12.389 30.2392 14.7412 32.5914C18.9914 36.8414 25.2562 38.3673 30.952 36.6141L36.6631 42.3251C36.6631 42.3251 22.3287 56.6595 17.5506 61.4378C17.2659 61.7225 17.1723 62.0511 17.1714 62.0542L10.3665 82.5862C10.1806 83.147 10.327 83.7648 10.7448 84.1825C11.0426 84.4801 11.4418 84.6402 11.8498 84.6402C12.0142 84.6402 12.18 84.6142 12.3411 84.5608L32.8532 77.7626C33.1757 77.6706 33.4895 77.3767 33.4895 77.3767L52.602 58.2642L58.3132 63.9755C56.56 69.6714 58.0857 75.9361 62.3359 80.1864C64.6879 82.5384 67.6562 84.0895 70.9198 84.6723C71.8751 84.843 72.8353 84.9276 73.7914 84.9276C76.0259 84.9276 78.2373 84.4648 80.3048 83.5539C80.7767 83.3459 81.1156 82.9186 81.2106 82.4117C81.3054 81.905 81.1443 81.3839 80.7797 81.0192L73.3251 73.5648L78.5953 68.2947L86.0497 75.7491C86.4143 76.1137 86.9354 76.2756 87.4422 76.18C87.949 76.0851 88.3764 75.7462 88.5842 75.2742C89.885 72.3219 90.2718 69.0766 89.7028 65.8891C89.1204 62.6253 87.5692 59.6572 85.2171 57.305ZM74.5201 8.88733C75.0586 8.3489 75.7743 8.05233 76.5357 8.05233C77.2971 8.05233 78.0129 8.34874 78.5514 8.88733L86.04 16.3759C86.5782 16.9142 86.8748 17.63 86.8748 18.3916C86.8748 19.153 86.5782 19.8689 86.0398 20.4072L80.97 25.477L69.4503 13.9572L74.5201 8.88733ZM32.4726 33.7155C32.1742 33.417 31.7747 33.2578 31.3675 33.2578C31.1818 33.2578 30.9943 33.2909 30.8145 33.3591C26.0179 35.1753 20.5761 34.0069 16.9506 30.3814C13.68 27.1108 12.4212 22.497 13.4725 18.1309L20.2576 24.9162C20.8678 25.5262 21.8572 25.5262 22.4673 24.9162L29.9472 17.4364C30.5573 16.8262 30.5573 15.8369 29.9472 15.2267L23.162 8.44155C27.5278 7.38999 32.1417 8.64905 35.4125 11.9197C39.0379 15.5451 40.2067 20.987 38.3901 25.7834C38.1725 26.3583 38.3118 27.0072 38.7464 27.4417L45.1462 33.8416L38.8725 40.1153L32.4726 33.7155ZM14.3115 80.6158L16.5717 73.7958L21.1312 78.3553L14.3115 80.6158ZM24.4507 77.2555L17.6718 70.4766L19.3415 65.4384L29.4887 75.5856L24.4507 77.2555ZM32.3848 74.0622L27.7298 69.4072L43.0242 54.1128C43.6343 53.5026 43.6343 52.5133 43.0242 51.9031C42.4142 51.2931 41.4247 51.2931 40.8145 51.9031L25.5201 67.1975L20.865 62.5425L67.2406 16.1669L67.3667 16.293L71.8954 20.8219L50.8032 41.9142C50.1931 42.5244 50.1931 43.5137 50.8032 44.1239C51.1082 44.4289 51.5082 44.5816 51.9081 44.5816C52.3079 44.5816 52.7079 44.4289 53.0129 44.1239L74.1051 23.0316L78.7601 27.6867L32.3848 74.0622ZM86.4856 71.7651L79.7004 64.98C79.4075 64.687 79.01 64.5223 78.5956 64.5223C78.1812 64.5223 77.7837 64.687 77.4907 64.98L70.0111 72.4598C69.4009 73.07 69.4009 74.0594 70.0111 74.6695L76.7962 81.4548C72.4298 82.5059 67.8164 81.2473 64.5457 77.9767C60.9203 74.3512 59.7515 68.9094 61.5681 64.1128C61.7857 63.538 61.6464 62.8891 61.2117 62.4545L54.8118 56.0547L61.0856 49.7809L67.4856 56.1809C67.9201 56.6155 68.5689 56.7551 69.1439 56.5372C73.94 54.7206 79.3822 55.8894 83.0076 59.5148C86.2782 62.7855 87.537 67.3992 86.4856 71.7651Z" fill="white"/>
<path d="M46.9342 49.5559C46.2809 49.5559 45.6847 49.1324 45.4647 48.519C45.2478 47.914 45.4334 47.2188 45.9234 46.8023C46.4353 46.3671 47.1878 46.3159 47.7586 46.6665C48.3064 47.0031 48.5897 47.6699 48.4653 48.2981C48.3226 49.0192 47.6697 49.5559 46.9342 49.5559Z" fill="white"/>
</g>
<defs>
<filter id="filter0_d_2938_20775" x="0" y="0.92749" width="100" height="100" filterUnits="userSpaceOnUse" color-interpolation-filters="sRGB">
<feFlood flood-opacity="0" result="BackgroundImageFix"/>
<feColorMatrix in="SourceAlpha" type="matrix" values="0 0 0 0 0 0 0 0 0 0 0 0 0 0 0 0 0 0 127 0" result="hardAlpha"/>
<feOffset dy="6"/>
<feGaussianBlur stdDeviation="5"/>
<feComposite in2="hardAlpha" operator="out"/>
<feColorMatrix type="matrix" values="0 0 0 0 0 0 0 0 0 0 0 0 0 0 0 0 0 0 0.15 0"/>
<feBlend mode="normal" in2="BackgroundImageFix" result="effect1_dropShadow_2938_20775"/>
<feBlend mode="normal" in="SourceGraphic" in2="effect1_dropShadow_2938_20775" result="shape"/>
</filter>
</defs>
</svg>
