<svg width="100" height="101" viewBox="0 0 100 101" fill="none" xmlns="http://www.w3.org/2000/svg">
<g filter="url(#filter0_d_2938_20641)">
<path d="M87.7894 11.1909L74.456 4.52425C73.9002 4.24801 73.288 4.10425 72.6674 4.10425C72.0467 4.10425 71.4345 4.24801 70.8787 4.52425L57.5454 11.1909C56.8793 11.5214 56.319 12.0317 55.9281 12.6642C55.5371 13.2967 55.3311 14.026 55.3334 14.7696V26.7696H54C53.2429 26.7692 52.4945 26.9304 51.8047 27.2424C51.1149 27.5544 50.4996 28.0101 50 28.5789C49.5004 28.0101 48.8852 27.5544 48.1954 27.2424C47.5056 26.9304 46.7571 26.7692 46 26.7696H44.6667V14.7696C44.6691 14.0262 44.4632 13.2969 44.0725 12.6645C43.6818 12.032 43.1219 11.5215 42.456 11.1909L29.1227 4.52425C28.5669 4.24801 27.9547 4.10425 27.334 4.10425C26.7134 4.10425 26.1011 4.24801 25.5454 4.52425L12.212 11.1909C11.5459 11.5214 10.9857 12.0317 10.5947 12.6642C10.2038 13.2967 9.99776 14.026 10 14.7696V36.1029C10 36.8102 10.281 37.4884 10.7811 37.9885C11.2812 38.4886 11.9594 38.7696 12.6667 38.7696H42C42.7073 38.7696 43.3855 38.4886 43.8856 37.9885C44.3857 37.4884 44.6667 36.8102 44.6667 36.1029V29.4363H46C46.7073 29.4363 47.3855 29.7172 47.8856 30.2173C48.3857 30.7174 48.6667 31.3957 48.6667 32.1029V44.1029H28.6667C27.6058 44.1029 26.5884 44.5243 25.8383 45.2745C25.0881 46.0246 24.6667 47.0421 24.6667 48.1029V68.1029C23.9594 68.1029 23.2812 68.3839 22.7811 68.884C22.281 69.3841 22 70.0623 22 70.7696V74.7696C22 75.4768 22.281 76.1551 22.7811 76.6552C23.2812 77.1553 23.9594 77.4363 24.6667 77.4363H28.7867C29.1001 79.2996 30.0636 80.9916 31.5062 82.2118C32.9488 83.4321 34.7772 84.1016 36.6667 84.1016C38.5562 84.1016 40.3845 83.4321 41.8272 82.2118C43.2698 80.9916 44.2333 79.2996 44.5467 77.4363H56.7867C57.1001 79.2996 58.0636 80.9916 59.5062 82.2118C60.9488 83.4321 62.7772 84.1016 64.6667 84.1016C66.5562 84.1016 68.3845 83.4321 69.8272 82.2118C71.2698 80.9916 72.2333 79.2996 72.5467 77.4363H75.3334C76.0406 77.4363 76.7189 77.1553 77.219 76.6552C77.7191 76.1551 78 75.4768 78 74.7696V70.7696C78 70.0623 77.7191 69.3841 77.219 68.884C76.7189 68.3839 76.0406 68.1029 75.3334 68.1029V56.1029C75.3312 53.9818 74.4877 51.9482 72.9879 50.4484C71.488 48.9486 69.4544 48.105 67.3334 48.1029H56.6667C56.6667 47.0421 56.2453 46.0246 55.4951 45.2745C54.745 44.5243 53.7276 44.1029 52.6667 44.1029H51.3334V32.1029C51.3334 31.3957 51.6143 30.7174 52.1144 30.2173C52.6145 29.7172 53.2928 29.4363 54 29.4363H55.3334V36.1029C55.3334 36.8102 55.6143 37.4884 56.1144 37.9885C56.6145 38.4886 57.2928 38.7696 58 38.7696H87.3334C88.0406 38.7696 88.7189 38.4886 89.219 37.9885C89.7191 37.4884 90 36.8102 90 36.1029V14.7696C90.0024 14.0262 89.7966 13.2969 89.4059 12.6645C89.0152 12.032 88.4552 11.5215 87.7894 11.1909ZM36.6667 20.1029H18V17.4363H36.6667V20.1029ZM18 22.7696H36.6667V36.1029H34V33.4363C34 32.729 33.7191 32.0507 33.219 31.5506C32.7189 31.0505 32.0406 30.7696 31.3334 30.7696H28.6667V28.1029C28.6667 27.3957 28.3857 26.7174 27.8856 26.2173C27.3855 25.7172 26.7073 25.4363 26 25.4363H23.3334C22.6261 25.4363 21.9478 25.7172 21.4477 26.2173C20.9476 26.7174 20.6667 27.3957 20.6667 28.1029V36.1029H18V22.7696ZM26 30.7696H23.3334V28.1029H26V30.7696ZM23.3334 33.4363H26V36.1029H23.3334V33.4363ZM28.6667 36.1029V33.4363H31.3334V36.1029H28.6667ZM39.3334 36.1029V17.4363C39.3334 16.729 39.0524 16.0507 38.5523 15.5506C38.0522 15.0505 37.3739 14.7696 36.6667 14.7696H18C17.2928 14.7696 16.6145 15.0505 16.1144 15.5506C15.6143 16.0507 15.3334 16.729 15.3334 17.4363V36.1029H12.6667V14.7696C12.6656 14.5216 12.7342 14.2783 12.8645 14.0674C12.9949 13.8564 13.1818 13.6863 13.404 13.5763L26.7374 6.90959C26.9225 6.81733 27.1265 6.7694 27.3334 6.76959C27.5397 6.76703 27.7438 6.81268 27.9294 6.90292L41.2627 13.5696C41.4859 13.6801 41.6735 13.8513 41.8039 14.0635C41.9344 14.2758 42.0023 14.5205 42 14.7696V36.1029H39.3334ZM24.6667 70.7696H30.72C29.7096 71.8928 29.0391 73.28 28.7867 74.7696H24.6667V70.7696ZM36.6667 81.4363C35.6119 81.4363 34.5807 81.1235 33.7036 80.5374C32.8266 79.9514 32.143 79.1184 31.7393 78.1439C31.3357 77.1694 31.23 76.097 31.4358 75.0624C31.6416 74.0279 32.1496 73.0776 32.8955 72.3317C33.6413 71.5858 34.5916 71.0779 35.6262 70.8721C36.6608 70.6663 37.7331 70.7719 38.7077 71.1756C39.6822 71.5792 40.5152 72.2628 41.1012 73.1399C41.6872 74.0169 42 75.0481 42 76.1029C42 77.5174 41.4381 78.874 40.4379 79.8742C39.4377 80.8744 38.0812 81.4363 36.6667 81.4363ZM58.72 70.7696C57.7096 71.8928 57.0391 73.28 56.7867 74.7696H44.5467C44.2943 73.28 43.6238 71.8928 42.6133 70.7696H58.72ZM64.6667 81.4363C63.6119 81.4363 62.5807 81.1235 61.7036 80.5374C60.8266 79.9514 60.143 79.1184 59.7393 78.1439C59.3357 77.1694 59.23 76.097 59.4358 75.0624C59.6416 74.0279 60.1496 73.0776 60.8955 72.3317C61.6413 71.5858 62.5916 71.0779 63.6262 70.8721C64.6608 70.6663 65.7331 70.7719 66.7077 71.1756C67.6822 71.5792 68.5152 72.2628 69.1012 73.1399C69.6872 74.0169 70 75.0481 70 76.1029C70 77.5174 69.4381 78.874 68.4379 79.8742C67.4377 80.8744 66.0812 81.4363 64.6667 81.4363ZM75.3334 74.7696H72.5467C72.2943 73.28 71.6238 71.8928 70.6134 70.7696H75.3334V74.7696ZM69.1187 51.0989L67.724 52.4936C67.5967 52.6166 67.4951 52.7637 67.4252 52.9264C67.3553 53.0891 67.3186 53.264 67.317 53.4411C67.3155 53.6181 67.3492 53.7937 67.4163 53.9575C67.4833 54.1214 67.5823 54.2703 67.7075 54.3954C67.8327 54.5206 67.9816 54.6196 68.1454 54.6867C68.3093 54.7537 68.4849 54.7875 68.6619 54.7859C68.8389 54.7844 69.0139 54.7476 69.1766 54.6777C69.3392 54.6078 69.4864 54.5063 69.6094 54.3789L71.3534 52.6363C72.195 53.5955 72.6614 54.8268 72.6667 56.1029V57.4363H66C65.6464 57.4363 65.3073 57.2958 65.0572 57.0457C64.8072 56.7957 64.6667 56.4565 64.6667 56.1029V50.7696H67.3334C67.943 50.7758 68.547 50.8872 69.1187 51.0989ZM62 50.7696V56.1029C62 57.1638 62.4215 58.1812 63.1716 58.9313C63.9217 59.6815 64.9392 60.1029 66 60.1029H72.6667V68.1029H56.6667V50.7696H62ZM54 48.1029V68.1029H27.3334V48.1029C27.3334 47.7493 27.4738 47.4102 27.7239 47.1601C27.9739 46.9101 28.3131 46.7696 28.6667 46.7696H52.6667C53.0203 46.7696 53.3595 46.9101 53.6095 47.1601C53.8595 47.4102 54 47.7493 54 48.1029ZM82 20.1029H63.3334V17.4363H82V20.1029ZM63.3334 22.7696H82V36.1029H79.3334V33.4363C79.3334 32.729 79.0524 32.0507 78.5523 31.5506C78.0522 31.0505 77.3739 30.7696 76.6667 30.7696H74V28.1029C74 27.3957 73.7191 26.7174 73.219 26.2173C72.7189 25.7172 72.0406 25.4363 71.3334 25.4363H68.6667C67.9594 25.4363 67.2812 25.7172 66.7811 26.2173C66.281 26.7174 66 27.3957 66 28.1029V36.1029H63.3334V22.7696ZM71.3334 30.7696H68.6667V28.1029H71.3334V30.7696ZM68.6667 33.4363H71.3334V36.1029H68.6667V33.4363ZM74 36.1029V33.4363H76.6667V36.1029H74ZM84.6667 36.1029V17.4363C84.6667 16.729 84.3857 16.0507 83.8856 15.5506C83.3855 15.0505 82.7073 14.7696 82 14.7696H63.3334C62.6261 14.7696 61.9478 15.0505 61.4477 15.5506C60.9476 16.0507 60.6667 16.729 60.6667 17.4363V36.1029H58V14.7696C57.999 14.5216 58.0675 14.2783 58.1979 14.0674C58.3282 13.8564 58.5151 13.6863 58.7374 13.5763L72.0707 6.90959C72.2558 6.81733 72.4599 6.7694 72.6667 6.76959C72.873 6.76703 73.0771 6.81268 73.2627 6.90292L86.596 13.5696C86.8193 13.6801 87.0069 13.8513 87.1373 14.0635C87.2677 14.2758 87.3357 14.5205 87.3334 14.7696V36.1029H84.6667Z" fill="white"/>
<path d="M28.666 9.43628H25.9993C25.6457 9.43628 25.3066 9.57676 25.0565 9.8268C24.8065 10.0769 24.666 10.416 24.666 10.7696C24.666 11.1232 24.8065 11.4624 25.0565 11.7124C25.3066 11.9625 25.6457 12.1029 25.9993 12.1029H28.666C29.0196 12.1029 29.3588 11.9625 29.6088 11.7124C29.8589 11.4624 29.9994 11.1232 29.9994 10.7696C29.9994 10.416 29.8589 10.0769 29.6088 9.8268C29.3588 9.57676 29.0196 9.43628 28.666 9.43628Z" fill="white"/>
<path d="M74 9.43628H71.3333C70.9797 9.43628 70.6406 9.57676 70.3905 9.8268C70.1405 10.0769 70 10.416 70 10.7696C70 11.1232 70.1405 11.4624 70.3905 11.7124C70.6406 11.9625 70.9797 12.1029 71.3333 12.1029H74C74.3536 12.1029 74.6928 11.9625 74.9428 11.7124C75.1929 11.4624 75.3333 11.1232 75.3333 10.7696C75.3333 10.416 75.1929 10.0769 74.9428 9.8268C74.6928 9.57676 74.3536 9.43628 74 9.43628Z" fill="white"/>
<path d="M65.9993 65.4362H68.666C69.0196 65.4362 69.3588 65.2957 69.6088 65.0457C69.8589 64.7956 69.9994 64.4565 69.9994 64.1029C69.9994 63.7492 69.8589 63.4101 69.6088 63.1601C69.3588 62.91 69.0196 62.7695 68.666 62.7695H65.9993C65.6457 62.7695 65.3066 62.91 65.0565 63.1601C64.8065 63.4101 64.666 63.7492 64.666 64.1029C64.666 64.4565 64.8065 64.7956 65.0565 65.0457C65.3066 65.2957 65.6457 65.4362 65.9993 65.4362Z" fill="white"/>
<path d="M48.666 62.7695H33.9993C33.6457 62.7695 33.3066 62.91 33.0565 63.1601C32.8065 63.4101 32.666 63.7492 32.666 64.1029C32.666 64.4565 32.8065 64.7956 33.0565 65.0457C33.3066 65.2957 33.6457 65.4362 33.9993 65.4362H48.666C49.0196 65.4362 49.3588 65.2957 49.6088 65.0457C49.8589 64.7956 49.9993 64.4565 49.9993 64.1029C49.9993 63.7492 49.8589 63.4101 49.6088 63.1601C49.3588 62.91 49.0196 62.7695 48.666 62.7695Z" fill="white"/>
<path d="M48.666 56.1029H33.9993C33.6457 56.1029 33.3066 56.2434 33.0565 56.4934C32.8065 56.7435 32.666 57.0826 32.666 57.4362C32.666 57.7899 32.8065 58.129 33.0565 58.379C33.3066 58.6291 33.6457 58.7696 33.9993 58.7696H48.666C49.0196 58.7696 49.3588 58.6291 49.6088 58.379C49.8589 58.129 49.9993 57.7899 49.9993 57.4362C49.9993 57.0826 49.8589 56.7435 49.6088 56.4934C49.3588 56.2434 49.0196 56.1029 48.666 56.1029Z" fill="white"/>
<path d="M48.666 49.4363H33.9993C33.6457 49.4363 33.3066 49.5768 33.0565 49.8268C32.8065 50.0768 32.666 50.416 32.666 50.7696C32.666 51.1232 32.8065 51.4624 33.0565 51.7124C33.3066 51.9625 33.6457 52.1029 33.9993 52.1029H48.666C49.0196 52.1029 49.3588 51.9625 49.6088 51.7124C49.8589 51.4624 49.9993 51.1232 49.9993 50.7696C49.9993 50.416 49.8589 50.0768 49.6088 49.8268C49.3588 49.5768 49.0196 49.4363 48.666 49.4363Z" fill="white"/>
<path d="M38 74.7697H35.3333C34.9797 74.7697 34.6406 74.9101 34.3905 75.1602C34.1405 75.4102 34 75.7494 34 76.103C34 76.4566 34.1405 76.7957 34.3905 77.0458C34.6406 77.2958 34.9797 77.4363 35.3333 77.4363H38C38.3536 77.4363 38.6928 77.2958 38.9428 77.0458C39.1929 76.7957 39.3333 76.4566 39.3333 76.103C39.3333 75.7494 39.1929 75.4102 38.9428 75.1602C38.6928 74.9101 38.3536 74.7697 38 74.7697Z" fill="white"/>
<path d="M66 74.7697H63.3333C62.9797 74.7697 62.6406 74.9101 62.3905 75.1602C62.1405 75.4102 62 75.7494 62 76.103C62 76.4566 62.1405 76.7957 62.3905 77.0458C62.6406 77.2958 62.9797 77.4363 63.3333 77.4363H66C66.3536 77.4363 66.6928 77.2958 66.9428 77.0458C67.1929 76.7957 67.3333 76.4566 67.3333 76.103C67.3333 75.7494 67.1929 75.4102 66.9428 75.1602C66.6928 74.9101 66.3536 74.7697 66 74.7697Z" fill="white"/>
</g>
<defs>
<filter id="filter0_d_2938_20641" x="0" y="0.102905" width="100" height="100" filterUnits="userSpaceOnUse" color-interpolation-filters="sRGB">
<feFlood flood-opacity="0" result="BackgroundImageFix"/>
<feColorMatrix in="SourceAlpha" type="matrix" values="0 0 0 0 0 0 0 0 0 0 0 0 0 0 0 0 0 0 127 0" result="hardAlpha"/>
<feOffset dy="6"/>
<feGaussianBlur stdDeviation="5"/>
<feComposite in2="hardAlpha" operator="out"/>
<feColorMatrix type="matrix" values="0 0 0 0 0 0 0 0 0 0 0 0 0 0 0 0 0 0 0.15 0"/>
<feBlend mode="normal" in2="BackgroundImageFix" result="effect1_dropShadow_2938_20641"/>
<feBlend mode="normal" in="SourceGraphic" in2="effect1_dropShadow_2938_20641" result="shape"/>
</filter>
</defs>
</svg>
