<svg width="106" height="106" viewBox="0 0 106 106" fill="none" xmlns="http://www.w3.org/2000/svg">
<g clip-path="url(#clip0_3292_13112)">
<path d="M62.9423 0.0585938H100.947C103.809 0.0585938 105.941 2.61383 105.941 5.404V29.3425C105.941 32.1327 103.809 34.6879 100.947 34.6879H62.9423C60.0586 34.6879 57.9476 32.1327 57.9476 29.3425V25.0055L49.8592 20.8785C47.3734 19.6121 47.3734 15.8847 49.8592 14.6182C52.5559 13.2352 55.2517 11.8752 57.9476 10.4913V5.404C57.9468 2.61383 60.0578 0.0585938 62.9423 0.0585938V0.0585938ZM100.947 3.36411H62.9423C61.8876 3.36411 61.2539 4.44278 61.2539 5.404V11.5005C61.2539 12.0862 60.9264 12.6727 60.3399 12.9539C57.338 14.5016 54.3608 16.0493 51.3597 17.573C51.196 17.6665 51.2423 17.8774 51.3597 17.9246L60.2001 22.4734C60.8089 22.7075 61.2548 23.294 61.2548 23.9971V29.3425C61.2548 30.3037 61.8884 31.3824 62.9431 31.3824H100.948C102.003 31.3824 102.637 30.3037 102.637 29.3425V5.404C102.636 4.44278 102.002 3.36411 100.947 3.36411Z" fill="#10476A"/>
<path d="M69.9044 11.7108C67.7231 11.7108 67.7231 8.40527 69.9044 8.40527H94.7099C96.8672 8.40527 96.8672 11.7108 94.7099 11.7108H69.9044ZM69.9044 26.3647C67.7231 26.3647 67.7231 23.0584 69.9044 23.0584H84.6287C86.8092 23.0584 86.8092 26.3647 84.6287 26.3647H69.9044ZM69.9044 19.0266C67.7231 19.0266 67.7231 15.7203 69.9044 15.7203H94.7099C96.8672 15.7203 96.8672 19.0266 94.7099 19.0266H69.9044Z" fill="#10476A"/>
<path d="M21.3477 31.3584C20.8555 31.1706 20.4336 30.9597 20.0349 30.7256L19.776 32.6249L25.2157 38.7437L30.6314 32.6249L30.3733 30.7256C29.9754 30.9597 29.5527 31.1715 29.0837 31.3584C26.904 32.2262 23.505 32.2262 21.3477 31.3584ZM17.0338 28.311L16.87 28.1704C14.3371 25.9195 13.0955 22.825 13.0955 19.4483V11.8512C13.0955 4.67688 18.1596 0.0585938 25.2165 0.0585938C32.2734 0.0585938 37.3144 4.67688 37.3144 11.8512V19.4483C37.3144 22.825 36.0719 25.9195 33.5399 28.1704L33.3753 28.311L33.9146 32.2965L36.7519 34.7814L44.794 38.2755C46.5295 39.0498 47.9126 40.2451 48.8738 41.7456C49.835 43.2693 50.3512 45.0512 50.3512 46.9504V51.5224C50.3512 52.4364 49.6241 53.1875 48.71 53.1875C47.7959 53.1875 47.0448 52.4373 47.0448 51.5224V46.9504C47.0448 45.6608 46.7173 44.4887 46.0836 43.5274C45.4748 42.5662 44.5839 41.7928 43.4812 41.3006L36.8934 38.4401L34.1264 47.0919C33.8683 47.9596 32.931 48.4286 32.0633 48.1705C31.8995 48.1002 31.7349 48.0299 31.5943 47.9125L26.8577 44.4655V51.5224C26.8577 52.4364 26.1314 53.1875 25.2174 53.1875C24.3033 53.1875 23.5514 52.4364 23.5514 51.5224V44.4655L18.8388 47.9356C18.8388 47.9356 18.3937 48.1466 18.3466 48.1697C17.4788 48.4278 16.5648 47.9588 16.2835 47.091L13.5405 38.4393L6.92866 41.2998C5.82682 41.792 4.93592 42.5654 4.32627 43.5266C3.71662 44.4878 3.36506 45.6608 3.36506 46.9496V67.6984C3.36506 68.6133 2.63794 69.3636 1.72388 69.3636C0.809819 69.3636 0.0587158 68.6149 0.0587158 67.7001V46.9504C0.0587158 45.0512 0.574892 43.2693 1.55927 41.7456C2.49732 40.2451 3.88041 39.0489 5.61506 38.2755L13.6572 34.7822L16.4945 32.2973L17.0338 28.311ZM19.7768 26.3414C19.8703 26.4117 19.9414 26.482 20.0117 26.5755C20.7852 27.2555 21.5818 27.9123 22.5438 28.287C23.9277 28.8263 26.507 28.8263 27.8669 28.287C28.8281 27.9114 29.6255 27.2555 30.399 26.5755C30.4701 26.482 30.5636 26.4117 30.6571 26.3414C30.892 26.1305 31.1261 25.9195 31.337 25.7078C33.166 24.0666 34.0097 21.8861 34.0097 19.4483V15.9318C27.9372 17.08 24.4902 14.3138 22.7316 12.0167C20.762 14.3378 18.2539 14.4545 16.425 14.1029V19.4483C16.425 21.8861 17.2456 24.0666 19.0745 25.7078C19.3086 25.9195 19.5427 26.1305 19.7768 26.3414ZM17.9015 35.4614L16.4473 36.7278L18.7213 43.9022L22.7771 40.9482L17.9015 35.4614ZM32.5084 35.4614L27.6551 40.9482L31.6878 43.9022L33.9626 36.7278L32.5084 35.4614ZM9.76515 56.6345C9.76515 55.7204 10.5154 54.9693 11.4303 54.9693C12.3452 54.9693 13.0715 55.7196 13.0715 56.6345V67.7001C13.0715 68.6149 12.3444 69.3652 11.4303 69.3652C10.5163 69.3652 9.76515 68.6158 9.76515 67.7001V56.6345ZM16.4713 10.7262C17.7617 11.0546 20.0117 11.1481 21.2311 8.14701C21.8175 6.73994 23.7631 6.69361 24.3256 8.26448C24.3256 8.26448 26.4118 14.2898 34.0089 12.5552V11.8512C34.0089 6.50584 30.4453 3.36411 25.2165 3.36411C20.5039 3.36411 16.9643 5.91935 16.4713 10.7262Z" fill="#10476A"/>
<path d="M68.8273 72.1093C65.8022 69.4358 64.3257 66.2237 64.3257 62.1671V53.5865C64.3257 45.6379 69.9292 40.5034 77.7843 40.5034C85.6155 40.5034 91.2181 45.6387 91.2181 53.5865V62.1671C91.2181 66.2229 89.7639 69.4349 86.7405 72.1093L87.3973 78.9313L99.7996 83.5975C103.644 85.2859 105.942 89.0141 105.942 93.1873V104.277C105.942 105.191 105.193 105.942 104.278 105.942C103.363 105.942 102.637 105.192 102.637 104.277V93.1873C102.637 90.3269 101.16 87.8179 98.51 86.6458L85.2871 81.6519C80.3412 80.0819 75.3457 79.7527 70.3287 81.2301L57.0347 86.6458C54.4091 87.8179 52.9317 90.3269 52.9317 93.1873V104.277C52.9317 105.191 52.1815 105.942 51.2666 105.942C50.3533 105.942 49.6262 105.192 49.6262 104.277V93.1873C49.6262 89.0141 51.9234 85.2859 55.7691 83.5975L68.2193 78.5334L68.8273 72.1093ZM82.8245 73.7496H72.7193C72.2975 73.7496 71.9451 74.078 71.8987 74.4991L71.6175 77.501C75.7428 76.6804 79.8937 76.8674 83.9735 77.8526L83.6451 74.4991C83.6211 74.078 83.2695 73.7496 82.8245 73.7496ZM72.5787 70.4913H82.9651C83.5739 70.4913 84.325 69.928 84.9818 69.2951C86.9746 67.3256 87.9126 65.0284 87.9126 62.1679V53.5865C87.9126 47.4428 83.8097 43.8089 77.7843 43.8089C71.7589 43.8089 67.632 47.4437 67.632 53.5865V62.1671C67.632 65.1922 68.7338 67.6531 70.9855 69.6467C71.524 70.1389 72.0857 70.4913 72.5787 70.4913Z" fill="#10476A"/>
<path d="M17.0813 71.7568L19.8235 56.0481C20.2462 53.6335 22.5433 51.6631 24.9819 51.6631H52.8588C55.5778 51.6631 57.4307 53.9851 56.9625 56.6106L53.4453 76.6563C52.9994 79.2355 50.5616 81.3457 47.9352 81.3457H20.6449H12.0875C10.2577 81.3457 8.42954 80.3142 7.96052 78.4381L6.83552 73.819C6.57743 72.7643 7.37486 71.7559 8.43037 71.7559H17.0813V71.7568ZM38.1353 64.7933C39.0494 64.7933 39.7765 65.5204 39.7765 66.4337C39.7765 67.3477 39.0494 68.0989 38.1353 68.0989C37.2213 68.0989 36.4702 67.3486 36.4702 66.4337C36.471 65.5204 37.2213 64.7933 38.1353 64.7933ZM19.5662 76.6571C19.4488 77.4546 19.8475 78.0402 20.6681 78.0402H47.9361C48.9908 78.0402 49.9991 77.1262 50.1877 76.0938L53.7042 56.0481C53.8216 55.4145 53.4932 54.9694 52.8596 54.9694H24.9828C24.115 54.9694 23.2473 55.7437 23.0835 56.6106C21.9113 63.292 20.7384 69.975 19.5662 76.6571ZM16.4948 75.0623H10.5397L11.1726 77.6415C11.4546 78.1337 11.8525 78.0394 12.0875 78.0394H16.3542C16.2136 77.4066 16.2136 76.7266 16.307 76.093L16.4948 75.0623Z" fill="#10476A"/>
</g>
<defs>
<clipPath id="clip0_3292_13112">
<rect width="105.882" height="105.882" fill="white" transform="translate(0.0587158 0.0585938)"/>
</clipPath>
</defs>
</svg>
