<svg width="107" height="106" viewBox="0 0 107 106" fill="none" xmlns="http://www.w3.org/2000/svg">
<g clip-path="url(#clip0_3292_13097)">
<path d="M68.2531 27.5761C71.1038 27.5761 73.4231 25.2568 73.4231 22.4061C73.4231 19.5553 71.1038 17.2358 68.2531 17.2358C65.4023 17.2358 63.083 19.5553 63.083 22.4061C63.083 23.5704 63.4702 24.6457 64.1222 25.511L55.6276 37.3816C55.1208 37.2151 54.58 37.1237 54.0179 37.1237C52.6594 37.1237 51.4223 37.6513 50.4988 38.5112L44.8367 35.2983C44.9122 34.9476 44.9528 34.584 44.9528 34.2111C44.9528 31.3604 42.6335 29.0411 39.7827 29.0411C36.932 29.0411 34.6127 31.3604 34.6127 34.2111C34.6127 34.584 34.6532 34.9476 34.7287 35.2983L29.0667 38.5112C28.1431 37.6513 26.906 37.1239 25.5475 37.1239C22.6968 37.1239 20.3775 39.4434 20.3775 42.2942C20.3775 45.1449 22.6968 47.4644 25.5475 47.4644C28.3983 47.4644 30.7176 45.1449 30.7176 42.2942C30.7176 41.9213 30.677 41.5578 30.6016 41.207L36.2636 37.9942C37.1872 38.854 38.4242 39.3816 39.7827 39.3816C41.1412 39.3816 42.3781 38.854 43.3019 37.9944L48.9639 41.2072C48.8884 41.558 48.8479 41.9215 48.8479 42.2944C48.8479 45.1451 51.1671 47.4646 54.0179 47.4646C56.8689 47.4646 59.1881 45.1451 59.1881 42.2944C59.1881 41.1299 58.8008 40.0543 58.1488 39.1891L66.6433 27.3184C67.15 27.4847 67.691 27.5761 68.2531 27.5761ZM68.2531 20.3379C69.3934 20.3379 70.3211 21.2656 70.3211 22.4061C70.3211 23.5464 69.3934 24.4741 68.2531 24.4741C67.1128 24.4741 66.1851 23.5464 66.1851 22.4061C66.1849 21.2656 67.1126 20.3379 68.2531 20.3379ZM25.5469 44.362C24.4066 44.362 23.4789 43.4343 23.4789 42.2938C23.4789 41.1533 24.4066 40.2255 25.5469 40.2255C26.6872 40.2255 27.6149 41.1533 27.6149 42.2938C27.6149 43.4343 26.6872 44.362 25.5469 44.362ZM39.7823 36.2792C38.642 36.2792 37.7143 35.3514 37.7143 34.2109C37.7143 33.0706 38.642 32.1429 39.7823 32.1429C40.9226 32.1429 41.8503 33.0706 41.8503 34.2109C41.8505 35.3514 40.9226 36.2792 39.7823 36.2792ZM54.0177 44.362C52.8774 44.362 51.9497 43.4343 51.9497 42.2938C51.9497 41.1533 52.8774 40.2255 54.0177 40.2255C55.1582 40.2255 56.0859 41.1533 56.0859 42.2938C56.0859 43.4343 55.158 44.362 54.0177 44.362Z" fill="#10476A"/>
<path d="M87.3137 78.0159H76.4595H17.3387H5.09335C4.38464 78.0159 3.80808 77.4393 3.80808 76.7306V12.7423C3.80808 12.0336 4.38464 11.457 5.09335 11.457H12.405C13.2616 11.457 13.956 10.7628 13.956 9.90599C13.956 9.04921 13.2616 8.35498 12.405 8.35498H5.09335C2.67418 8.35498 0.706055 10.3231 0.706055 12.7423V76.7306C0.706055 79.1497 2.67418 81.1179 5.09335 81.1179H15.7877V84.5313C15.7877 86.4759 17.3697 88.0579 19.3143 88.0579H34.8397L27.5313 102.327C27.1409 103.089 27.4422 104.024 28.2047 104.414C28.4309 104.531 28.6724 104.585 28.9105 104.585C29.474 104.585 30.0177 104.277 30.2921 103.741L38.3249 88.0579H55.4733L63.5061 103.741C63.7807 104.277 64.3242 104.585 64.8877 104.585C65.1257 104.585 65.3673 104.53 65.5935 104.414C66.356 104.024 66.6575 103.089 66.2669 102.327L58.9585 88.0579H74.4839C76.4285 88.0579 78.0105 86.4761 78.0105 84.5313V81.1179H87.3137C88.1703 81.1179 88.8647 80.4237 88.8647 79.5669C88.8647 78.7101 88.1703 78.0159 87.3137 78.0159ZM74.9085 84.5313C74.9085 84.7654 74.718 84.9559 74.4839 84.9559H19.3143C19.0802 84.9559 18.8897 84.7654 18.8897 84.5313V81.1179H74.9085V84.5313Z" fill="#10476A"/>
<path d="M18.6098 11.4569H39.8426H53.957H88.7054C89.4141 11.4569 89.9907 12.0335 89.9907 12.7422V27.4894C89.9907 28.3462 90.6851 29.0404 91.5417 29.0404C92.3983 29.0404 93.0927 28.3462 93.0927 27.4894V12.7422C93.0927 10.323 91.1246 8.35488 88.7054 8.35488H55.5082V5.30622C55.5082 3.16065 53.7626 1.41504 51.6168 1.41504H42.1829C40.0374 1.41504 38.2916 3.16065 38.2916 5.30622V8.35488H18.6098C17.7533 8.35488 17.0588 9.04912 17.0588 9.90589C17.0588 10.7627 17.7533 11.4569 18.6098 11.4569ZM41.3936 5.30622C41.3936 4.87111 41.7476 4.51706 42.1829 4.51706H51.6168C52.0519 4.51706 52.4062 4.87111 52.4062 5.30622V8.35488H41.3938V5.30622H41.3936Z" fill="#10476A"/>
<path d="M22.3996 55.394C21.543 55.394 20.8486 56.0883 20.8486 56.9451V70.6502C20.8486 71.507 21.543 72.2012 22.3996 72.2012H28.6919C29.5485 72.2012 30.2429 71.507 30.2429 70.6502V56.9451C30.2429 56.0883 29.5485 55.394 28.6919 55.394H22.3996ZM27.1409 69.0994H23.9506V58.4963H27.1409V69.0994Z" fill="#10476A"/>
<path d="M36.6358 47.4678C35.7793 47.4678 35.0848 48.162 35.0848 49.0188V70.6504C35.0848 71.5072 35.7793 72.2014 36.6358 72.2014H42.9282C43.7848 72.2014 44.4792 71.5072 44.4792 70.6504V49.0188C44.4792 48.162 43.7848 47.4678 42.9282 47.4678H36.6358ZM41.3774 69.0994H38.1871V50.5698H41.3774V69.0994Z" fill="#10476A"/>
<path d="M50.8713 55.394C50.0148 55.394 49.3203 56.0883 49.3203 56.9451V70.6502C49.3203 71.507 50.0148 72.2012 50.8713 72.2012H57.1637C58.0202 72.2012 58.7147 71.507 58.7147 70.6502V56.9451C58.7147 56.0883 58.0202 55.394 57.1637 55.394H50.8713ZM55.6127 69.0994H52.4223V58.4963H55.6127V69.0994Z" fill="#10476A"/>
<path d="M65.1068 64.5464C64.2502 64.5464 63.5558 65.2406 63.5558 66.0974V70.6505C63.5558 71.5073 64.2502 72.2016 65.1068 72.2016H71.3991C72.2557 72.2016 72.9502 71.5073 72.9502 70.6505C72.9502 69.7938 72.2557 69.0995 71.3991 69.0995H66.6578V66.0974C66.6578 65.2406 65.9634 64.5464 65.1068 64.5464Z" fill="#10476A"/>
<path d="M105.797 79.4747L96.8991 64.0627C99.1534 61.6598 100.795 58.7239 101.672 55.4514C103.073 50.2212 102.354 44.7581 99.6466 40.0687C94.0576 30.3877 81.6349 27.0597 71.9545 32.6485C62.2739 38.2373 58.9454 50.6601 64.5345 60.3406C67.2419 65.0301 71.6135 68.3844 76.8437 69.7861C78.5903 70.2541 80.3624 70.4855 82.1233 70.4855C83.6623 70.4855 85.1925 70.3085 86.6889 69.9581L95.5851 85.3706C96.6755 87.2602 98.6612 88.3176 100.701 88.3174C101.7 88.3174 102.713 88.0632 103.639 87.5288C105.458 86.4789 106.588 84.5211 106.588 82.4196C106.588 81.3899 106.315 80.3718 105.797 79.4747ZM77.6465 66.7897C73.2166 65.6027 69.5138 62.7615 67.2206 58.7896C62.4869 50.5904 65.3062 40.0687 73.5053 35.3348C76.2026 33.7776 79.1501 33.0381 82.0615 33.0381C87.9998 33.0381 93.7836 36.118 96.9601 41.6197C99.2531 45.5916 99.8623 50.2185 98.6753 54.6486C97.4883 59.0787 94.647 62.7811 90.6752 65.0743C86.7036 67.3675 82.0766 67.9764 77.6465 66.7897ZM102.089 84.8421C100.754 85.6126 99.0418 85.1539 98.2718 83.8201L89.7127 68.9916C90.5706 68.6414 91.4106 68.232 92.2266 67.7609C93.0433 67.2894 93.8167 66.7645 94.549 66.1962L103.111 81.0253C103.356 81.4516 103.486 81.9338 103.486 82.4198C103.486 83.4162 102.951 84.3445 102.089 84.8421Z" fill="#10476A"/>
<path d="M96.1527 54.5738C97.2477 51.0466 96.987 47.2704 95.4184 43.9409C95.0532 43.1658 94.1292 42.8337 93.3543 43.1987C92.5792 43.5639 92.2471 44.4879 92.6123 45.2628C93.8496 47.8892 94.0549 50.869 93.1903 53.6537C92.3209 56.4538 90.4427 58.8037 87.9018 60.2708C85.2129 61.8234 82.0801 62.2354 79.0813 61.432C76.0822 60.6283 73.5754 58.7049 72.0231 56.016C68.8183 50.4653 70.7271 43.3422 76.2779 40.1374C80.3364 37.7946 85.373 38.1077 89.1101 40.935C89.7934 41.452 90.766 41.3174 91.2828 40.6341C91.7996 39.9511 91.6649 38.9783 90.9817 38.4615C86.2478 34.8795 79.8671 34.483 74.7267 37.4509C71.3202 39.4175 68.8835 42.5932 67.8654 46.3925C66.8473 50.1919 67.3699 54.1604 69.3366 57.5669C71.3033 60.9735 74.4789 63.41 78.2783 64.4283C79.547 64.7683 80.8345 64.9364 82.1136 64.9364C84.6651 64.9364 87.1838 64.2672 89.4526 62.9571C92.6719 61.0988 95.0513 58.1217 96.1527 54.5738Z" fill="#10476A"/>
</g>
<defs>
<clipPath id="clip0_3292_13097">
<rect width="105.882" height="105.882" fill="white" transform="translate(0.706055 0.0585938)"/>
</clipPath>
</defs>
</svg>
