<svg width="106" height="106" viewBox="0 0 106 106" fill="none" xmlns="http://www.w3.org/2000/svg">
<g clip-path="url(#clip0_3292_13239)">
<path d="M92.3976 10.3364H87.0967V5.03568C87.0967 2.29143 84.8639 0.0585938 82.1194 0.0585938H17.0257C14.2811 0.0585938 12.0482 2.29143 12.0482 5.03568V7.12686C10.0664 7.74023 8.62256 9.58987 8.62256 11.7706V12.0049C8.62256 14.1856 10.0664 16.0352 12.0482 16.6486V29.3419C12.0482 30.1987 12.7425 30.8929 13.5992 30.8929C14.456 30.8929 15.1502 30.1987 15.1502 29.3419V16.8647H22.2229C23.9904 16.8647 25.4283 15.4268 25.4283 13.6593V10.1162C25.4283 8.34864 23.9904 6.91075 22.2229 6.91075H15.1502V5.03589C15.1502 4.00188 15.9915 3.16082 17.0255 3.16082H82.1194C83.1534 3.16082 83.9945 4.00188 83.9945 5.03589V90.6858C83.9945 91.7198 83.1534 92.5611 82.1194 92.5611H17.0257C15.9917 92.5611 15.1505 91.7198 15.1505 90.6858V35.5459C15.1505 34.6892 14.4562 33.9949 13.5994 33.9949C12.7427 33.9949 12.0484 34.6892 12.0484 35.5459V90.6858C12.0484 93.4305 14.2813 95.6631 17.0257 95.6631H22.3265V100.964C22.3265 103.708 24.5593 105.941 27.3036 105.941H72.5205C73.3773 105.941 74.0715 105.247 74.0715 104.39C74.0715 103.533 73.3773 102.839 72.5205 102.839H27.3036C26.2695 102.839 25.4285 101.998 25.4285 100.964V95.6631H82.1196C84.8641 95.6631 87.0967 93.4303 87.0967 90.6858V13.4384H92.3976C93.4316 13.4384 94.2727 14.2797 94.2727 15.3137V100.964C94.2727 101.998 93.4316 102.839 92.3976 102.839H78.7247C77.868 102.839 77.1737 103.533 77.1737 104.39C77.1737 105.247 77.868 105.941 78.7247 105.941H92.3976C95.1421 105.941 97.3747 103.708 97.3747 100.964V15.3139C97.3747 12.5693 95.1419 10.3364 92.3976 10.3364ZM22.3265 10.1162V13.6593C22.3265 13.7162 22.2799 13.7627 22.2231 13.7627H13.4824C12.5131 13.7627 11.7246 12.974 11.7246 12.0049V11.7706C11.7246 10.8013 12.5131 10.0128 13.4824 10.0128H22.2231C22.2799 10.0128 22.3265 10.0591 22.3265 10.1162Z" fill="#10476A"/>
<path d="M34.1553 47.699C38.2956 47.699 42.0536 46.0386 44.8051 43.3518C44.8525 43.3144 44.8988 43.2747 44.9427 43.2311C44.9865 43.1872 45.0262 43.1409 45.0636 43.0935C47.7504 40.3423 49.4104 36.5843 49.4104 32.4441C49.4104 24.0324 42.5669 17.189 34.1553 17.189C25.7436 17.189 18.9001 24.0324 18.9001 32.4441C18.9001 40.8557 25.7436 47.699 34.1553 47.699ZM46.3082 32.4441C46.3082 35.2367 45.3589 37.8104 43.7697 39.8647L38.5947 34.6897C38.9378 34.0145 39.1324 33.2519 39.1324 32.4441C39.1324 30.2412 37.6932 28.3691 35.7063 27.7156V20.3934C41.6773 21.1579 46.3082 26.2686 46.3082 32.4441ZM34.1553 30.5688C35.1893 30.5688 36.0303 31.4099 36.0303 32.4439C36.0303 33.4777 35.1893 34.3187 34.1553 34.3187C33.1215 34.3187 32.2804 33.4777 32.2804 32.4439C32.2802 31.4101 33.1215 30.5688 34.1553 30.5688ZM32.6043 20.3934V27.7156C30.6173 28.3691 29.1784 30.241 29.1784 32.4441C29.1784 35.1883 31.411 37.421 34.1553 37.421C34.963 37.421 35.7259 37.2264 36.4011 36.8833L41.5761 42.0583C39.5216 43.6478 36.9479 44.597 34.1553 44.597C27.4541 44.597 22.0022 39.1453 22.0022 32.4439C22.0022 26.2686 26.6333 21.1579 32.6043 20.3934Z" fill="#10476A"/>
<path d="M56.3668 27.1429H66.7621C68.5296 27.1429 69.9675 25.705 69.9675 23.9375V20.3944C69.9675 18.6269 68.5296 17.189 66.7621 17.189H56.3668C54.5993 17.189 53.1614 18.6269 53.1614 20.3944V23.9375C53.1614 25.705 54.5993 27.1429 56.3668 27.1429ZM56.2634 20.3944C56.2634 20.3375 56.3099 20.291 56.3668 20.291H66.7621C66.819 20.291 66.8655 20.3375 66.8655 20.3944V23.9375C66.8655 23.9944 66.819 24.0409 66.7621 24.0409H56.3668C56.3099 24.0409 56.2634 23.9944 56.2634 23.9375V20.3944Z" fill="#10476A"/>
<path d="M54.7124 33.9946H78.6945C79.5513 33.9946 80.2455 33.3004 80.2455 32.4436C80.2455 31.5868 79.5513 30.8926 78.6945 30.8926H54.7124C53.8556 30.8926 53.1614 31.5868 53.1614 32.4436C53.1614 33.3002 53.8558 33.9946 54.7124 33.9946Z" fill="#10476A"/>
<path d="M54.7124 40.8467H78.6945C79.5513 40.8467 80.2455 40.1524 80.2455 39.2956C80.2455 38.4389 79.5513 37.7446 78.6945 37.7446H54.7124C53.8556 37.7446 53.1614 38.4389 53.1614 39.2956C53.1614 40.1524 53.8558 40.8467 54.7124 40.8467Z" fill="#10476A"/>
<path d="M54.7124 47.6987H68.4165C69.2733 47.6987 69.9675 47.0045 69.9675 46.1477C69.9675 45.2909 69.2733 44.5967 68.4165 44.5967H54.7124C53.8556 44.5967 53.1614 45.2909 53.1614 46.1477C53.1614 47.0045 53.8558 47.6987 54.7124 47.6987Z" fill="#10476A"/>
<path d="M18.9001 65.0495C18.9001 66.8171 20.338 68.255 22.1056 68.255H32.5009C34.2684 68.255 35.7063 66.8171 35.7063 65.0495V61.5062C35.7063 59.7387 34.2684 58.3008 32.5009 58.3008H22.1056C20.338 58.3008 18.9001 59.7387 18.9001 61.5062V65.0495ZM22.0022 61.5062C22.0022 61.4493 22.0487 61.4028 22.1056 61.4028H32.5009C32.5577 61.4028 32.6043 61.4493 32.6043 61.5062V65.0495C32.6043 65.1064 32.5577 65.1529 32.5009 65.1529H22.1056C22.0487 65.1529 22.0022 65.1064 22.0022 65.0495V61.5062Z" fill="#10476A"/>
<path d="M20.4512 75.1069H44.4333C45.2901 75.1069 45.9843 74.4127 45.9843 73.5559C45.9843 72.6991 45.2901 72.0049 44.4333 72.0049H20.4512C19.5944 72.0049 18.9001 72.6991 18.9001 73.5559C18.9001 74.4127 19.5946 75.1069 20.4512 75.1069Z" fill="#10476A"/>
<path d="M20.4512 81.9585H44.4333C45.2901 81.9585 45.9843 81.2642 45.9843 80.4075C45.9843 79.5507 45.2901 78.8564 44.4333 78.8564H20.4512C19.5944 78.8564 18.9001 79.5507 18.9001 80.4075C18.9001 81.2642 19.5946 81.9585 20.4512 81.9585Z" fill="#10476A"/>
<path d="M20.4512 88.8105H34.1553C35.012 88.8105 35.7063 88.1163 35.7063 87.2595C35.7063 86.4027 35.012 85.7085 34.1553 85.7085H20.4512C19.5944 85.7085 18.9001 86.4027 18.9001 87.2595C18.9001 88.1163 19.5946 88.8105 20.4512 88.8105Z" fill="#10476A"/>
<path d="M50.1895 78.0791C50.4922 78.3819 50.8893 78.5333 51.2862 78.5333C51.683 78.5333 52.0801 78.3819 52.383 78.0791L58.5571 71.9049L67.9258 75.0276C68.4831 75.2131 69.0978 75.0679 69.5132 74.6531L77.1436 67.0229V83.8342C77.1436 84.868 76.3025 85.7091 75.2685 85.7091H51.2862C50.4294 85.7091 49.7351 86.4033 49.7351 87.2601C49.7351 88.1169 50.4294 88.8111 51.2862 88.8111H75.2681C78.0126 88.8111 80.2452 86.5785 80.2452 83.8342V63.2794C80.2452 63.2788 80.2452 63.2779 80.2452 63.2773V59.8523C80.2452 58.9955 79.551 58.3013 78.6942 58.3013C77.8374 58.3013 77.1432 58.9955 77.1432 59.8523V62.6358L67.9972 71.7818L58.6284 68.6589C58.0707 68.4732 57.4565 68.6184 57.041 69.0334L50.1891 75.8858C49.5836 76.4913 49.5836 77.4732 50.1895 78.0791Z" fill="#10476A"/>
</g>
<defs>
<clipPath id="clip0_3292_13239">
<rect width="105.882" height="105.882" fill="white" transform="translate(0.0585938 0.0585938)"/>
</clipPath>
</defs>
</svg>
