<svg width="106" height="106" viewBox="0 0 106 106" fill="none" xmlns="http://www.w3.org/2000/svg">
<g clip-path="url(#clip0_3292_13154)">
<path d="M15.9392 0.0585938C10.1016 0.0585938 5.35095 4.80738 5.35095 10.6468C5.35095 16.4863 10.1016 21.2351 15.9392 21.2351C21.7768 21.2351 26.5274 16.4863 26.5274 10.6468C26.5274 4.80738 21.7768 0.0585938 15.9392 0.0585938ZM15.9392 17.7056C12.0462 17.7056 8.88043 14.5397 8.88043 10.6468C8.88043 6.754 12.0462 3.58807 15.9392 3.58807C19.8322 3.58807 22.998 6.754 22.998 10.6468C22.998 14.5397 19.8322 17.7056 15.9392 17.7056Z" fill="#10476A"/>
<path d="M23.0032 14.176H22.9592C22.4068 14.176 21.8844 14.4353 21.5509 14.8766C20.1938 16.6748 18.1486 17.7053 15.9409 17.7053C13.7333 17.7053 11.6881 16.6748 10.331 14.8764C9.99747 14.4353 9.43104 14.1758 8.87868 14.1758C4.01512 14.176 0.0585938 18.1323 0.0585938 22.9959V30.0581C0.0585938 31.0322 0.849196 31.8228 1.82323 31.8228H30.0585C31.0325 31.8228 31.8231 31.0322 31.8231 30.0581V22.9959C31.8233 18.1323 27.8668 14.176 23.0032 14.176ZM28.2938 28.2935H3.58807V22.9959C3.58807 20.3399 5.55393 18.1358 8.14102 17.7617C10.1493 19.9801 12.9427 21.2347 15.9409 21.2347C18.941 21.2347 21.7361 19.9782 23.7444 17.7565C26.312 18.1182 28.2938 20.3312 28.2938 22.9959V28.2935Z" fill="#10476A"/>
<path d="M90.0586 0.0585938C84.221 0.0585938 79.4703 4.80738 79.4703 10.6468C79.4703 16.4863 84.221 21.2351 90.0586 21.2351C95.8962 21.2351 100.647 16.4863 100.647 10.6468C100.647 4.80738 95.8962 0.0585938 90.0586 0.0585938ZM90.0586 17.7056C86.1655 17.7056 82.9998 14.5397 82.9998 10.6468C82.9998 6.754 86.1657 3.58807 90.0586 3.58807C93.9516 3.58807 97.1173 6.754 97.1173 10.6468C97.1173 14.5397 93.9516 17.7056 90.0586 17.7056Z" fill="#10476A"/>
<path d="M97.1215 14.1763H97.0774C96.5251 14.1763 96.0027 14.4356 95.6691 14.8769C94.3121 16.6751 92.2668 17.7058 90.059 17.7058C87.8514 17.7058 85.8061 16.6753 84.4491 14.8769C84.1155 14.4358 83.5491 14.1763 82.9967 14.1763C78.1332 14.1763 74.1766 18.1328 74.1766 22.9964V30.0586C74.1766 31.0327 74.9672 31.8233 75.9413 31.8233H104.177C105.151 31.8233 105.941 31.0327 105.941 30.0586V22.9964C105.942 18.1326 101.985 14.1763 97.1215 14.1763ZM102.412 28.2938H77.7063V22.9961C77.7063 20.3402 79.6722 18.1361 82.2593 17.762C84.2675 19.9802 87.061 21.235 90.0592 21.235C93.0593 21.235 95.8544 19.9785 97.8626 17.7568C100.43 18.1185 102.412 20.3315 102.412 22.9961V28.2938Z" fill="#10476A"/>
<path d="M15.9392 74.1763C10.1016 74.1763 5.35095 78.9251 5.35095 84.7645C5.35095 90.604 10.1016 95.3527 15.9392 95.3527C21.7768 95.3527 26.5274 90.604 26.5274 84.7645C26.5274 78.9251 21.7768 74.1763 15.9392 74.1763ZM15.9392 91.8233C12.0462 91.8233 8.88043 88.6573 8.88043 84.7645C8.88043 80.8715 12.0464 77.7058 15.9392 77.7058C19.832 77.7058 22.998 80.8717 22.998 84.7645C22.998 88.6575 19.8322 91.8233 15.9392 91.8233Z" fill="#10476A"/>
<path d="M23.0021 88.2939H22.958C22.4057 88.2939 21.8833 88.5533 21.5497 88.9946C20.1927 90.7927 18.1474 91.8234 15.9396 91.8234C13.732 91.8234 11.6867 90.7929 10.3297 88.9946C9.99613 88.5535 9.4297 88.2939 8.87733 88.2939C4.01378 88.2939 0.057251 92.2505 0.057251 97.114V104.176C0.0574578 105.15 0.84806 105.941 1.82209 105.941H30.0573C31.0314 105.941 31.822 105.15 31.822 104.176V97.114C31.8222 92.2503 27.8656 88.2939 23.0021 88.2939ZM28.2927 102.411H3.58694V97.1138C3.58694 94.4579 5.55279 92.2538 8.13988 91.8797C10.1481 94.098 12.9416 95.3527 15.9398 95.3527C18.9399 95.3527 21.735 94.0962 23.7433 91.8745C26.3109 92.2362 28.2927 94.4492 28.2927 97.1138V102.411Z" fill="#10476A"/>
<path d="M90.0586 74.1763C84.221 74.1763 79.4703 78.9251 79.4703 84.7645C79.4703 90.604 84.221 95.3527 90.0586 95.3527C95.8962 95.3527 100.647 90.604 100.647 84.7645C100.647 78.9251 95.8962 74.1763 90.0586 74.1763ZM90.0586 91.8233C86.1655 91.8233 82.9998 88.6573 82.9998 84.7645C82.9998 80.8715 86.1657 77.7058 90.0586 77.7058C93.9516 77.7058 97.1173 80.8717 97.1173 84.7645C97.1173 88.6575 93.9516 91.8233 90.0586 91.8233Z" fill="#10476A"/>
<path d="M97.1215 88.2939H97.0774C96.5251 88.2939 96.0027 88.5533 95.6691 88.9946C94.3121 90.7927 92.2668 91.8234 90.059 91.8234C87.8514 91.8234 85.8061 90.7929 84.4491 88.9946C84.1155 88.5535 83.5491 88.2939 82.9967 88.2939C78.1332 88.2939 74.1766 92.2505 74.1766 97.114V104.176C74.1766 105.15 74.9672 105.941 75.9413 105.941H104.177C105.151 105.941 105.941 105.15 105.941 104.176V97.114C105.942 92.2503 101.985 88.2939 97.1215 88.2939ZM102.412 102.411H77.7063V97.1138C77.7063 94.4579 79.6722 92.2538 82.2593 91.8797C84.2675 94.0978 87.061 95.3527 90.0592 95.3527C93.0593 95.3527 95.8544 94.0962 97.8626 91.8745C100.43 92.2362 102.412 94.4492 102.412 97.1138V102.411Z" fill="#10476A"/>
<path d="M82.2425 8.87155C80.7231 7.86381 79.1384 6.92513 77.5326 6.08325C76.6696 5.63138 75.6037 5.9633 75.1502 6.82628C74.6983 7.68927 75.0319 8.75678 75.8949 9.20864C77.3948 9.99572 78.8737 10.8709 80.2909 11.8116C80.5909 12.011 80.9297 12.1063 81.2649 12.1063C81.8349 12.1063 82.3961 11.8292 82.7367 11.3176C83.2748 10.5057 83.0542 9.40986 82.2425 8.87155Z" fill="#10476A"/>
<path d="M68.0982 2.24636C64.8494 1.28101 61.486 0.626274 58.1012 0.301596C57.1342 0.215153 56.2677 0.920966 56.1759 1.88983C56.0824 2.8587 56.7936 3.72168 57.7642 3.81515C60.9231 4.11874 64.0623 4.72922 67.0924 5.62922C67.2601 5.67864 67.4295 5.70325 67.5953 5.70325C68.3541 5.70325 69.0566 5.20569 69.2876 4.44155C69.5647 3.5064 69.0317 2.52347 68.0982 2.24636Z" fill="#10476A"/>
<path d="M47.9204 0.300169C44.5357 0.623193 41.1723 1.27606 37.9215 2.24141C36.988 2.51853 36.4551 3.50146 36.7322 4.43496C36.9599 5.2026 37.6622 5.69851 38.4228 5.69851C38.5887 5.69851 38.7581 5.67391 38.9276 5.62448C41.9593 4.72448 45.0971 4.11379 48.2558 3.81393C49.2247 3.72211 49.9359 2.86099 49.8441 1.89047C49.7522 0.919953 48.8909 0.21021 47.9204 0.300169Z" fill="#10476A"/>
<path d="M30.8503 6.82619C30.3984 5.96321 29.3309 5.6315 28.468 6.08315C26.8621 6.92484 25.2774 7.86372 23.7578 8.87146C22.9462 9.40976 22.7238 10.5056 23.2638 11.3173C23.6025 11.8291 24.1638 12.106 24.7356 12.106C25.0708 12.106 25.4098 12.0107 25.7096 11.8113C27.1266 10.869 28.6073 9.99377 30.1056 9.20834C30.9703 8.75689 31.302 7.68917 30.8503 6.82619Z" fill="#10476A"/>
<path d="M100.143 73.0044C99.2608 72.5898 98.2109 72.9744 97.7979 73.8568C97.0813 75.3921 96.275 76.9099 95.4015 78.3674C94.9021 79.2039 95.1721 80.2873 96.0084 80.7886C96.2926 80.9599 96.6049 81.0409 96.9138 81.0409C97.5138 81.0409 98.0996 80.7338 98.4262 80.1833C99.3632 78.6216 100.228 76.9963 100.996 75.3498C101.408 74.4673 101.026 73.4174 100.143 73.0044Z" fill="#10476A"/>
<path d="M105.703 47.9512C105.611 46.9807 104.754 46.2782 103.78 46.3611C102.809 46.453 102.098 47.3141 102.189 48.2846C102.339 49.8428 102.414 51.4292 102.414 52.9999C102.414 55.8058 102.175 58.6205 101.708 61.3664C101.546 62.3264 102.191 63.2388 103.151 63.4028C103.25 63.4204 103.351 63.4274 103.45 63.4274C104.293 63.4274 105.04 62.8205 105.186 61.961C105.689 59.0195 105.943 56.0053 105.943 53.0001C105.943 51.3184 105.862 49.6189 105.703 47.9512Z" fill="#10476A"/>
<path d="M102.526 34.278C101.883 32.582 101.142 30.8951 100.323 29.2661C99.8837 28.3961 98.8232 28.0431 97.9532 28.4826C97.0815 28.9202 96.7302 29.9808 97.168 30.8525C97.9321 32.3719 98.6238 33.9461 99.2238 35.5289C99.4903 36.2331 100.161 36.669 100.874 36.669C101.082 36.669 101.292 36.632 101.5 36.5542C102.413 36.2085 102.872 35.1904 102.526 34.278Z" fill="#10476A"/>
<path d="M8.04785 28.4826C7.17618 28.0431 6.1155 28.3961 5.6779 29.2661C4.85918 30.8949 4.118 32.582 3.47547 34.278C3.12949 35.1904 3.58838 36.2087 4.50079 36.5544C4.70718 36.632 4.91729 36.6692 5.12554 36.6692C5.83838 36.6692 6.50904 36.2333 6.77726 35.5291C7.37719 33.9463 8.06894 32.3721 8.83307 30.8527C9.27087 29.9808 8.91786 28.9204 8.04785 28.4826Z" fill="#10476A"/>
<path d="M4.29203 61.3536C3.82445 58.613 3.58787 55.8018 3.58787 52.9994C3.58787 51.4217 3.66376 49.8318 3.81018 48.2752C3.90365 47.3047 3.19246 46.4434 2.22194 46.3499C1.26011 46.267 0.390097 46.9676 0.298483 47.9382C0.139867 49.6077 0.0585938 51.3088 0.0585938 52.9994C0.0585938 56.0011 0.312753 59.0101 0.812178 61.9465C0.960455 62.8076 1.70515 63.4148 2.55034 63.4148C2.6492 63.4148 2.7497 63.4077 2.84855 63.39C3.81039 63.226 4.45623 62.3136 4.29203 61.3536Z" fill="#10476A"/>
<path d="M10.5928 78.3674C9.71928 76.9097 8.91275 75.3921 8.19639 73.8568C7.78341 72.9744 6.73348 72.5898 5.85106 73.0044C4.96863 73.4174 4.5875 74.4673 4.99862 75.3498C5.76813 76.9963 6.63091 78.6216 7.56813 80.1833C7.89984 80.7357 8.48405 81.0409 9.08398 81.0409C9.39274 81.0409 9.70522 80.9597 9.98585 80.7886C10.8222 80.2873 11.0939 79.2037 10.5928 78.3674Z" fill="#10476A"/>
<path d="M77.6995 45.9409H45.9436C43.9954 45.9409 42.4106 47.5256 42.4106 49.4739V70.6434C42.4106 72.5916 43.9954 74.1763 45.9453 74.1763H62.8565L72.9277 84.2476C73.2648 84.5847 73.7165 84.7646 74.1754 84.7646C74.4031 84.7646 74.6324 84.7205 74.8512 84.6304C75.5094 84.3568 75.94 83.7128 75.94 82.9997V74.1761H77.7011C79.6494 74.1761 81.2341 72.5914 81.2341 70.6415V49.4737C81.2341 47.5256 79.6494 45.9409 77.6995 45.9409ZM77.7013 70.6467H74.1754C73.2013 70.6467 72.4107 71.4373 72.4107 72.4113V78.7396L64.8348 71.1637C64.5047 70.832 64.0547 70.6467 63.5871 70.6467L45.9401 70.6413V49.4737L45.9436 49.4702L77.7048 49.4737L77.7013 70.6467Z" fill="#10476A"/>
<path d="M58.2878 35.353H26.532C24.5837 35.353 22.999 36.9377 22.999 38.886V60.0555C22.999 62.0038 24.5837 63.5885 26.532 63.5885H28.2931V72.4121C28.2931 73.1249 28.7237 73.7691 29.3838 74.0427C29.601 74.1327 29.8303 74.1769 30.058 74.1769C30.5169 74.1769 30.9685 73.997 31.3056 73.6599L41.3768 63.5887H44.1757C45.1497 63.5887 45.9403 62.7981 45.9403 61.824V49.4741L60.058 49.4705C61.0321 49.4705 61.8227 48.6799 61.8227 47.7059V38.8858C61.8227 36.9377 60.238 35.353 58.2878 35.353ZM58.2932 45.9413H45.9438C43.9956 45.9413 42.4108 47.526 42.4108 49.4743V60.059H40.6462C40.1786 60.059 39.7286 60.2443 39.3986 60.576L31.8226 68.1518V61.8234C31.8226 60.8494 31.032 60.0588 30.058 60.0588L26.5285 60.0553L26.532 38.8823L58.2932 38.8858V45.9413Z" fill="#10476A"/>
<path d="M61.8238 54.7642H51.2356C50.2615 54.7642 49.4709 55.5548 49.4709 56.5288C49.4709 57.5028 50.2615 58.2934 51.2356 58.2934H61.8238C62.7979 58.2934 63.5885 57.5028 63.5885 56.5288C63.5885 55.5548 62.7979 54.7642 61.8238 54.7642Z" fill="#10476A"/>
<path d="M72.4131 54.7642H68.8837C67.9096 54.7642 67.119 55.5548 67.119 56.5288C67.119 57.5028 67.9096 58.2934 68.8837 58.2934H72.4131C73.3872 58.2934 74.1778 57.5028 74.1778 56.5288C74.1778 55.5548 73.3872 54.7642 72.4131 54.7642Z" fill="#10476A"/>
<path d="M72.4129 61.8232H61.8247C60.8507 61.8232 60.0601 62.6138 60.0601 63.5879C60.0601 64.5619 60.8507 65.3525 61.8247 65.3525H72.4129C73.387 65.3525 74.1776 64.5619 74.1776 63.5879C74.1776 62.6138 73.387 61.8232 72.4129 61.8232Z" fill="#10476A"/>
<path d="M54.7637 61.8232H51.2342C50.2602 61.8232 49.4696 62.6138 49.4696 63.5879C49.4696 64.5619 50.2602 65.3525 51.2342 65.3525H54.7637C55.7378 65.3525 56.5284 64.5619 56.5284 63.5879C56.5284 62.6138 55.738 61.8232 54.7637 61.8232Z" fill="#10476A"/>
<path d="M35.5277 99.2229C33.9465 98.6229 32.3742 97.9328 30.8513 97.1671C29.9813 96.7311 28.9189 97.0806 28.4813 97.9506C28.0438 98.8223 28.3949 99.883 29.2666 100.321C30.8972 101.141 32.5843 101.882 34.2784 102.523C34.4848 102.601 34.6949 102.638 34.9031 102.638C35.6162 102.638 36.2866 102.202 36.5532 101.498C36.899 100.585 36.4401 99.567 35.5277 99.2229Z" fill="#10476A"/>
<path d="M60.8855 103.603C60.7691 102.636 59.8955 101.944 58.9231 102.06C55.016 102.528 50.9731 102.528 47.0503 102.057C46.0797 101.94 45.2043 102.63 45.0879 103.597C44.9731 104.564 45.6632 105.443 46.6302 105.56C48.7336 105.812 50.8761 105.941 53.0008 105.941C55.1203 105.941 57.2555 105.814 59.3432 105.565C60.312 105.449 61.0019 104.57 60.8855 103.603Z" fill="#10476A"/>
<path d="M77.5149 97.9502C77.0754 97.0802 76.015 96.7272 75.145 97.1667C73.6237 97.9324 72.0498 98.6244 70.4686 99.2225C69.558 99.5666 69.0975 100.585 69.4432 101.497C69.7115 102.201 70.3821 102.637 71.095 102.637C71.3032 102.637 71.5131 102.6 71.7178 102.522C73.412 101.88 75.099 101.139 76.7297 100.32C77.6013 99.8826 77.9525 98.8221 77.5149 97.9502Z" fill="#10476A"/>
</g>
<defs>
<clipPath id="clip0_3292_13154">
<rect width="105.882" height="105.882" fill="white" transform="translate(0.0585938 0.0585938)"/>
</clipPath>
</defs>
</svg>
