<svg width="106" height="106" viewBox="0 0 106 106" fill="none" xmlns="http://www.w3.org/2000/svg">
<g clip-path="url(#clip0_3292_13146)">
<path d="M8.99739 47.0033H62.0113C62.8668 47.0033 63.5599 46.3101 63.5599 45.4547C63.5599 44.5992 62.8668 43.9053 62.0113 43.9053H8.99739C8.14191 43.9053 7.448 44.5992 7.448 45.4547C7.448 46.3101 8.14191 47.0033 8.99739 47.0033Z" fill="#10476A"/>
<path d="M8.99739 52.9997H36.2871C37.1426 52.9997 37.8365 52.3058 37.8365 51.4503C37.8365 50.5948 37.1434 49.9009 36.2871 49.9009H8.99739C8.14191 49.9009 7.448 50.5948 7.448 51.4503C7.448 52.3058 8.14191 52.9997 8.99739 52.9997Z" fill="#10476A"/>
<path d="M97.8259 26.2205H94.3539V23.974C96.9558 22.2509 98.6757 19.2983 98.6757 15.9507V6.63983C98.6757 3.46753 96.0947 0.88655 92.9224 0.88655H85.1932C82.0201 0.88655 79.4399 3.46753 79.4399 6.63983V15.9507C79.4399 19.2151 81.0749 22.1023 83.5679 23.8415V26.2205H70.9481V7.09625C70.9481 3.67191 68.162 0.885742 64.7376 0.885742H16.1692C15.3137 0.885742 14.6206 1.57966 14.6206 2.43514C14.6206 3.29062 15.3137 3.98373 16.1692 3.98373H64.7376C66.4534 3.98373 67.8501 5.38044 67.8501 7.09625V26.2205H53.8103C54.2231 25.5517 54.4662 24.7673 54.4662 23.9255C54.4662 23.1153 54.2416 22.3592 53.8579 21.7073L59.4084 14.8238C59.8479 14.9717 60.3156 15.0549 60.8043 15.0549C63.223 15.0549 65.1908 13.087 65.1908 10.6684C65.1908 8.24901 63.223 6.28116 60.8043 6.28116C58.3849 6.28116 56.4171 8.24901 56.4171 10.6684C56.4171 11.4682 56.6352 12.2154 57.0108 12.8625L51.4482 19.7596C51.0168 19.6174 50.5572 19.5383 50.0789 19.5383C49.4771 19.5383 48.9028 19.6602 48.3801 19.8808L45.4227 16.7569C45.7038 16.1785 45.8662 15.5323 45.8662 14.8473C45.8662 12.4278 43.8975 10.46 41.4789 10.46C39.0603 10.46 37.0917 12.4278 37.0917 14.8473C37.0917 15.647 37.3106 16.395 37.6862 17.0413L34.0599 21.4851C33.6213 21.3373 33.1535 21.2541 32.6664 21.2541C31.5654 21.2541 30.5604 21.6644 29.789 22.3374L25.7143 20.149C25.7386 19.9599 25.7563 19.7693 25.7563 19.5738C25.7563 17.1544 23.7877 15.1865 21.3691 15.1865C18.9505 15.1865 16.9818 17.1544 16.9818 19.5738C16.9818 20.1651 17.1014 20.7282 17.3138 21.2436L12.9072 25.3659C12.3223 25.0767 11.6664 24.9094 10.9708 24.9094C8.55143 24.9094 6.58359 26.8773 6.58359 29.2967C6.58359 31.7153 8.55143 33.6832 10.9708 33.6832C13.3895 33.6832 15.3573 31.7153 15.3573 29.2967C15.3573 28.7054 15.2386 28.1423 15.0253 27.6269L19.4327 23.5038C20.0176 23.7939 20.6736 23.9603 21.3691 23.9603C22.4701 23.9603 23.4751 23.5499 24.2465 22.8778L28.3212 25.0662C28.2961 25.2544 28.2792 25.4458 28.2792 25.6413C28.2792 28.0599 30.247 30.0286 32.6664 30.0286C35.085 30.0286 37.0529 28.0599 37.0529 25.6413C37.0529 24.8408 36.834 24.0927 36.4583 23.4457L40.0838 19.0027C40.5225 19.1505 40.991 19.2345 41.4781 19.2345C42.0799 19.2345 42.6543 19.1117 43.1769 18.892L46.1352 22.0167C45.8541 22.5942 45.6917 23.2405 45.6917 23.9255C45.6917 25.6712 46.7192 27.1778 48.1983 27.8838V31.7315C48.1983 34.7099 50.6226 37.1325 53.6018 37.1325H77.3153V57.967C74.2424 59.0454 72.0985 61.9972 72.0985 65.3206V73.5595C72.0985 77.0315 73.8118 80.2006 76.6255 82.0456V84.6743H75.4671C71.5176 84.6743 68.0553 86.7948 66.1545 89.9566C64.2545 86.7948 60.7922 84.6743 56.8428 84.6743H55.6844V82.0351C58.498 80.1513 60.2114 76.9846 60.2114 73.5603V65.3206C60.2114 63.5595 59.6233 61.9342 58.6345 60.6279H64.7368C68.162 60.6279 70.9473 57.8418 70.9473 54.4174V43.3519C70.9473 42.4965 70.2542 41.8034 69.3987 41.8034C68.5432 41.8034 67.8493 42.4965 67.8493 43.3519V54.4174C67.8493 56.1332 66.4534 57.53 64.7368 57.53H52.4273C52.4249 57.53 52.4216 57.53 52.4192 57.53H47.6127C47.6103 57.53 47.607 57.53 47.6046 57.53H20.1565C20.1533 57.53 20.1509 57.53 20.1485 57.53H15.3411C15.3387 57.53 15.3363 57.53 15.3331 57.53H6.26934C4.55354 57.53 3.15682 56.1332 3.15682 54.4174V7.09625C3.15682 5.38044 4.55354 3.98373 6.26934 3.98373H9.55797C10.4135 3.98373 11.1074 3.29062 11.1074 2.43514C11.1074 1.57966 10.4135 0.885742 9.55797 0.885742H6.26934C2.845 0.885742 0.0588379 3.67191 0.0588379 7.09625V54.4166C0.0588379 57.8418 2.845 60.6279 6.26934 60.6279H9.1266C8.13783 61.9342 7.54974 63.5603 7.54974 65.3214V67.0986C7.54974 67.1091 7.55054 67.1196 7.55054 67.1301V73.5595C7.55054 76.9838 9.26393 80.1513 12.0776 82.0351V84.6735H10.9191C4.93079 84.6735 0.0588379 89.5454 0.0588379 95.5338V101.432C0.0588379 103.541 1.77464 105.256 3.88386 105.256H31.6049C32.458 105.256 33.244 104.972 33.8806 104.499C34.5171 104.972 35.3031 105.256 36.1554 105.256H63.8781C64.732 105.256 65.518 104.972 66.1553 104.497C66.7919 104.972 67.5787 105.256 68.4318 105.256H96.1553C98.2629 105.256 99.9779 103.541 99.9779 101.432V95.5338C99.9779 93.183 99.2104 90.8929 97.8073 89.0211V72.3518C97.8073 71.4963 97.1142 70.8032 96.2579 70.8032C95.4024 70.8032 94.7093 71.4963 94.7093 72.3518V86.222C93.0411 85.2195 91.1161 84.6735 89.12 84.6735H87.9616V82.0311C88.0286 81.9867 88.0965 81.9438 88.1619 81.8978C90.8713 79.9873 92.4886 76.8699 92.4886 73.5595V67.1066C92.4886 67.1034 92.4886 67.101 92.4886 67.0986V65.3206C92.4886 63.5458 91.8908 61.9083 90.8875 60.5964H94.7093V65.1226C94.7093 65.9781 95.4024 66.672 96.2587 66.672C97.1142 66.672 97.8073 65.9789 97.8073 65.1226V60.5964H98.0181C102.387 60.5964 105.941 57.042 105.941 52.6734V34.3359C105.941 29.8614 102.301 26.2205 97.8259 26.2205ZM82.5379 6.63983C82.5379 5.17526 83.7294 3.98453 85.1932 3.98453H92.9232C94.387 3.98453 95.5785 5.17606 95.5785 6.63983V9.07298C94.7836 8.65776 93.8797 8.42269 92.9232 8.42269H88.2815V8.30555C88.2815 7.45007 87.5884 6.75697 86.7321 6.75697C85.8766 6.75697 85.1835 7.45007 85.1835 8.30555V8.42269C84.2303 8.4243 83.3304 8.65938 82.5379 9.07298V6.63983ZM82.5379 14.176C82.5379 12.7122 83.7294 11.5207 85.1932 11.5207H92.9232C94.387 11.5207 95.5785 12.7122 95.5785 14.176V15.9507C95.5785 19.5463 92.6534 22.4715 89.0578 22.4715C85.463 22.4715 82.5379 19.5463 82.5379 15.9507V14.176ZM89.0578 25.5694C89.8139 25.5694 90.549 25.479 91.2559 25.3126V27.6908C91.2551 27.7102 91.2542 27.7295 91.2542 27.7481C91.2365 28.9938 90.2081 30.0068 88.9609 30.0068C87.7136 30.0068 86.6852 28.9938 86.6683 27.7489C86.6683 27.7295 86.6675 27.7102 86.6666 27.6908V25.2681C87.4308 25.4644 88.2322 25.5694 89.0578 25.5694ZM60.8035 9.37914C61.5144 9.37914 62.0928 9.95754 62.0928 10.6684C62.0928 11.3793 61.5144 11.9569 60.8035 11.9569C60.4966 11.9569 60.2146 11.8486 59.9925 11.6685C59.9868 11.6637 59.982 11.658 59.9755 11.6532C59.9739 11.6523 59.9715 11.6507 59.9699 11.6491C59.692 11.4124 59.5151 11.061 59.5151 10.6684C59.5151 9.95754 60.0935 9.37914 60.8035 9.37914ZM50.8763 22.9141L50.886 22.9238C50.8908 22.9279 50.8956 22.9295 50.9005 22.9335C51.1857 23.1702 51.3674 23.5265 51.3674 23.9255C51.3674 24.6364 50.789 25.214 50.0781 25.214C49.3681 25.214 48.7897 24.6364 48.7897 23.9255C48.7897 23.2146 49.3681 22.6362 50.0781 22.6362C50.3795 22.6362 50.6565 22.7413 50.8763 22.9141ZM10.97 30.5852C10.26 30.5852 9.68157 30.0068 9.68157 29.2959C9.68157 28.585 10.2592 28.0074 10.97 28.0074C11.6809 28.0074 12.2593 28.585 12.2593 29.2959C12.2593 30.0068 11.6809 30.5852 10.97 30.5852ZM21.3691 20.8623C20.6582 20.8623 20.0798 20.2839 20.0798 19.573C20.0798 18.8629 20.6582 18.2845 21.3691 18.2845C22.0792 18.2845 22.6576 18.8629 22.6576 19.573C22.6576 20.2839 22.0792 20.8623 21.3691 20.8623ZM32.6664 26.9298C31.9555 26.9298 31.3771 26.3514 31.3771 25.6405C31.3771 24.9305 31.9555 24.3521 32.6664 24.3521C33.3765 24.3521 33.9549 24.9305 33.9549 25.6405C33.9549 26.3514 33.3765 26.9298 32.6664 26.9298ZM40.1896 14.8465C40.1896 14.1356 40.768 13.558 41.4789 13.558C42.1898 13.558 42.7674 14.1356 42.7674 14.8465C42.7674 15.5573 42.1898 16.1357 41.4789 16.1357C40.768 16.1357 40.1896 15.5573 40.1896 14.8465ZM75.1964 65.3197C75.1964 63.1217 76.7523 61.1926 78.9019 60.7322C79.2202 60.6627 79.5522 60.6271 79.8891 60.6271H84.6956C87.2846 60.6271 89.3906 62.7323 89.3906 65.3197V67.1066C89.3858 71.0157 86.2046 74.1953 82.2939 74.1953C78.3801 74.1953 75.1964 71.0116 75.1964 67.0986V65.3197ZM43.1899 84.6735C39.2429 84.6735 35.7822 86.7916 33.8806 89.9509C31.9798 86.7916 28.5175 84.6735 24.5697 84.6735H23.4129V82.0343C26.2273 80.1505 27.9407 76.9838 27.9407 73.5595V65.3197C27.9407 63.5595 27.3526 61.9334 26.3638 60.6271H41.3981C40.8706 61.3243 40.457 62.1119 40.1864 62.9633C39.9497 63.7073 39.8213 64.499 39.8213 65.3206V67.0986V67.1066V73.5595C39.8213 76.9838 41.5346 80.1513 44.3491 82.0351V84.6735H43.1899ZM15.1763 81.1708C15.1763 81.1619 15.1755 81.153 15.1755 81.1441C15.1747 81.0916 15.1723 81.0464 15.1683 81.0076C15.1174 80.5156 14.8338 80.0568 14.3669 79.8031C12.3425 78.7037 10.9967 76.71 10.7083 74.4659C12.5396 76.2156 15.018 77.294 17.7452 77.294C20.4732 77.294 22.9516 76.2148 24.7829 74.4643C24.4953 76.7092 23.1495 78.7029 21.1251 79.8031C20.6065 80.0851 20.3133 80.619 20.3149 81.1708V86.2229C20.3149 86.6882 19.936 87.0678 19.4707 87.0678H16.0213C15.5552 87.0678 15.1763 86.6882 15.1763 86.2229V81.1708ZM10.6485 65.3197C10.6485 62.7323 12.7537 60.6271 15.3411 60.6271H20.1477C21.0088 60.6271 21.8158 60.8614 22.5105 61.2669C23.9032 62.082 24.8419 63.5934 24.8419 65.3206V67.0986C24.8419 71.0116 21.6583 74.1953 17.7452 74.1953C13.8426 74.1953 10.6663 71.0286 10.6493 67.1301V65.3197H10.6485ZM42.9201 65.3197C42.9201 64.8351 42.9936 64.3665 43.1309 63.9263C43.1454 63.8802 43.1616 63.835 43.1769 63.7897C43.1866 63.7631 43.1947 63.7356 43.2052 63.709C43.6794 62.4156 44.7078 61.3873 46.0011 60.9123C46.0277 60.9026 46.0552 60.8945 46.0827 60.8848C46.1279 60.8695 46.1723 60.8533 46.2184 60.8388C46.6595 60.7015 47.1272 60.6279 47.6127 60.6279H52.4208C52.7447 60.6279 53.0598 60.6603 53.3652 60.7233C53.4031 60.7313 53.4411 60.7402 53.4782 60.7491C53.5162 60.758 53.5542 60.7661 53.5913 60.7758C55.6149 61.2968 57.1134 63.1378 57.1134 65.3214V67.0986C57.1134 71.0116 53.9298 74.1953 50.0167 74.1953C46.1061 74.1953 42.9241 71.0165 42.9201 67.1066V65.3197ZM47.4471 81.1708C47.4471 81.1667 47.4471 81.1627 47.4471 81.1594C47.4471 81.0496 47.4406 80.9753 47.4277 80.9284C47.3558 80.4671 47.0795 80.043 46.6376 79.8031C44.6132 78.7037 43.2674 76.71 42.979 74.4651C44.8104 76.2156 47.2895 77.294 50.0167 77.294C52.7439 77.294 55.2223 76.2156 57.0536 74.4651C56.7661 76.71 55.4202 78.7037 53.3958 79.8031C52.9208 80.0608 52.6357 80.531 52.5921 81.031C52.588 81.0666 52.5864 81.1086 52.5856 81.1578V81.1708V86.2229C52.5856 86.689 52.2067 87.0678 51.7406 87.0678H48.2912C47.8259 87.0678 47.4471 86.689 47.4471 86.2229V81.1708ZM31.6049 102.158H26.8267V98.7238C26.8267 97.8684 26.1336 97.1753 25.2773 97.1753C24.4218 97.1753 23.7287 97.8684 23.7287 98.7238V102.158H11.8732V98.7238C11.8732 97.8684 11.1801 97.1753 10.3238 97.1753C9.4683 97.1753 8.7752 97.8684 8.7752 98.7238V102.158H3.88386C3.48318 102.158 3.15682 101.833 3.15682 101.433V95.5346C3.15682 91.2539 6.63933 87.7722 10.9191 87.7722H12.3958C12.9993 89.1779 14.396 90.1658 16.0205 90.1658H19.4699C21.0944 90.1658 22.492 89.1787 23.0954 87.7722H24.5697C28.8495 87.7722 32.332 91.2539 32.332 95.5346V101.433C32.332 101.832 32.0056 102.158 31.6049 102.158ZM64.6027 101.432C64.6027 101.832 64.278 102.158 63.8781 102.158H59.0982V98.7238C59.0982 97.8684 58.4051 97.1744 57.5488 97.1744C56.6934 97.1744 56.0003 97.8684 56.0003 98.7238V102.158H44.1447V98.7238C44.1447 97.8684 43.4516 97.1744 42.5953 97.1744C41.7398 97.1744 41.0467 97.8684 41.0467 98.7238V102.158H36.1554C35.7555 102.158 35.43 101.832 35.43 101.432V95.5338C35.43 91.2539 38.9109 87.7722 43.1899 87.7722H44.6666C45.27 89.1779 46.6675 90.1658 48.292 90.1658H51.7414C53.366 90.1658 54.7627 89.1779 55.3661 87.7722H56.8428C61.1218 87.7722 64.6027 91.2539 64.6027 95.5338V101.432ZM95.0712 90.5511C96.2377 91.9438 96.8799 93.7129 96.8799 95.5338V101.432C96.8799 101.832 96.5552 102.157 96.1553 102.157H91.3754V98.7238C91.3754 97.8684 90.6823 97.1744 89.826 97.1744C88.9705 97.1744 88.2774 97.8684 88.2774 98.7238V102.157H76.4219V98.7238C76.4219 97.8684 75.728 97.1744 74.8725 97.1744C74.017 97.1744 73.3231 97.8684 73.3231 98.7238V102.157H68.4318C68.0327 102.157 67.7072 101.832 67.7072 101.432V95.5338C67.7072 91.2539 71.188 87.7714 75.4671 87.7714H76.9454C76.9954 87.8878 77.0488 88.0033 77.1094 88.1148C77.8017 89.3798 79.1281 90.1658 80.5684 90.1658H84.0178C85.6423 90.1658 87.0399 89.1779 87.6433 87.7714H89.12C91.4215 87.7722 93.5913 88.7844 95.0712 90.5511ZM86.3799 79.3629C86.1795 79.5042 85.9687 79.6367 85.7554 79.7571C85.3362 79.993 85.0292 80.4025 84.9145 80.8484C84.8806 80.8872 84.8628 80.968 84.8628 81.1061V86.2229C84.8628 86.6882 84.4839 87.0678 84.0178 87.0678H80.5684C80.2598 87.0678 79.9755 86.899 79.8285 86.63C79.8123 86.6001 79.7978 86.5694 79.7857 86.5387C79.8067 86.4369 79.818 86.3311 79.818 86.2229C79.818 86.0371 79.784 85.8601 79.7243 85.6954V81.1627C79.7243 81.1603 79.7243 81.1586 79.7243 81.1562C79.7243 81.1376 79.7226 81.1191 79.7218 81.0997C79.721 81.0633 79.7186 81.0278 79.7154 80.9979C79.7138 80.9817 79.7105 80.9648 79.7081 80.9486C79.7057 80.9365 79.7049 80.9211 79.7016 80.9106C79.6249 80.4478 79.3422 80.0253 78.8954 79.791C76.8428 78.7134 75.526 76.7601 75.2522 74.461C77.0843 76.214 79.5643 77.294 82.2939 77.294C85.0211 77.294 87.4995 76.2156 89.3308 74.4651C89.078 76.4232 88.0149 78.2101 86.3799 79.3629ZM102.843 52.6734C102.843 55.3335 100.678 57.4985 98.0181 57.4985H97.8065V39.4373C97.8065 38.5818 97.1134 37.8879 96.2579 37.8879C95.4016 37.8879 94.7085 38.5818 94.7085 39.4373V57.4985H80.4141V36.1826C80.4141 34.9983 79.4504 34.0346 78.2661 34.0346H53.6018C52.3311 34.0346 51.2971 33.0014 51.2971 31.7315V29.3185H83.8167C84.5049 31.5061 86.56 33.1048 88.9609 33.1048C91.3617 33.1048 93.4168 31.5061 94.105 29.3185H97.8267C100.593 29.3185 102.843 31.5691 102.843 34.3359V52.6734Z" fill="#10476A"/>
</g>
<defs>
<clipPath id="clip0_3292_13146">
<rect width="105.882" height="105.882" fill="white" transform="translate(0.0588379 0.0585938)"/>
</clipPath>
</defs>
</svg>
