<svg width="106" height="106" viewBox="0 0 106 106" fill="none" xmlns="http://www.w3.org/2000/svg">
<path d="M87.7429 3.36719C79.5337 3.36719 72.8532 10.0477 72.8532 18.2569C72.8532 26.4661 79.5337 33.1466 87.7429 33.1466C95.9521 33.1466 102.633 26.4661 102.633 18.2569C102.633 10.0477 95.9521 3.36719 87.7429 3.36719ZM81.4115 27.9418C81.6712 26.7109 82.2569 25.5826 83.1503 24.6777C84.4142 23.4286 86.0802 22.7403 87.8438 22.7403C90.9144 22.7403 93.5516 24.8994 94.2414 27.8376C92.3869 29.0983 90.1501 29.8378 87.7429 29.8378C85.4069 29.8378 83.233 29.1363 81.4115 27.9418ZM84.5334 16.1227C84.5334 14.2979 86.0174 12.8139 87.8422 12.8139C89.667 12.8139 91.151 14.2979 91.151 16.1227C91.151 17.9475 89.667 19.4315 87.8422 19.4315C86.0174 19.4315 84.5334 17.9475 84.5334 16.1227ZM96.8703 25.3593C95.9868 23.369 94.488 21.7345 92.6085 20.6922C93.7501 19.5027 94.4598 17.8962 94.4598 16.1227C94.4598 12.4731 91.4918 9.50506 87.8422 9.50506C84.1926 9.50506 81.2245 12.4731 81.2245 16.1227C81.2245 17.8847 81.9277 19.4778 83.0527 20.6641C82.2437 21.1108 81.4859 21.6666 80.8076 22.3383C79.8944 23.2648 79.2128 24.3435 78.7264 25.5065C77.1266 23.5212 76.162 21.0016 76.162 18.2569C76.162 11.8709 81.3569 6.67601 87.7429 6.67601C94.1289 6.67601 99.3238 11.8709 99.3238 18.2569C99.3238 20.9337 98.4023 23.3955 96.8703 25.3593Z" fill="#10476A"/>
<path d="M87.7429 72.8525C79.5337 72.8525 72.8532 79.5331 72.8532 87.7422C72.8532 95.9514 79.5337 102.632 87.7429 102.632C95.9521 102.632 102.633 95.9514 102.633 87.7422C102.633 79.5331 95.9521 72.8525 87.7429 72.8525ZM81.4115 97.4272C81.6712 96.1963 82.2569 95.068 83.1503 94.163C84.4142 92.9139 86.0802 92.2257 87.8438 92.2257C90.9144 92.2257 93.5516 94.3847 94.2414 97.3229C92.3869 98.5836 90.1501 99.3231 87.7429 99.3231C85.4069 99.3231 83.233 98.6217 81.4115 97.4272ZM84.5334 85.6081C84.5334 83.7832 86.0174 82.2992 87.8422 82.2992C89.667 82.2992 91.151 83.7832 91.151 85.6081C91.151 87.4329 89.667 88.9169 87.8422 88.9169C86.0174 88.9169 84.5334 87.4329 84.5334 85.6081ZM96.8703 94.8446C95.9868 92.8544 94.488 91.2198 92.6085 90.1775C93.7501 88.988 94.4598 87.3816 94.4598 85.6081C94.4598 81.9584 91.4918 78.9904 87.8422 78.9904C84.1926 78.9904 81.2245 81.9584 81.2245 85.6081C81.2245 87.37 81.9277 88.9632 83.0527 90.1494C82.2437 90.5961 81.4859 91.152 80.8076 91.8237C79.8944 92.7501 79.2128 93.8288 78.7264 94.9919C77.1266 93.0066 76.162 90.4869 76.162 87.7422C76.162 81.3562 81.3569 76.1614 87.7429 76.1614C94.1289 76.1614 99.3238 81.3562 99.3238 87.7422C99.3238 90.4191 98.4023 92.8808 96.8703 94.8446Z" fill="#10476A"/>
<path d="M33.1473 18.2569C33.1473 10.0477 26.4668 3.36719 18.2576 3.36719C10.0484 3.36719 3.36792 10.0477 3.36792 18.2569C3.36792 26.4661 10.0484 33.1466 18.2576 33.1466C26.4668 33.1466 33.1473 26.4661 33.1473 18.2569ZM11.9262 27.9418C12.1859 26.7109 12.7716 25.5826 13.665 24.6777C14.9289 23.4286 16.5949 22.7403 18.3585 22.7403C21.4291 22.7403 24.0663 24.8994 24.7562 27.8376C22.9016 29.0983 20.6648 29.8378 18.2576 29.8378C15.9216 29.8378 13.7477 29.1363 11.9262 27.9418ZM15.0481 16.1227C15.0481 14.2979 16.5321 12.8139 18.3569 12.8139C20.1817 12.8139 21.6657 14.2979 21.6657 16.1227C21.6657 17.9475 20.1817 19.4315 18.3569 19.4315C16.5321 19.4315 15.0481 17.9475 15.0481 16.1227ZM6.67674 18.2569C6.67674 11.8709 11.8716 6.67601 18.2576 6.67601C24.6437 6.67601 29.8385 11.8709 29.8385 18.2569C29.8385 20.9337 28.917 23.3955 27.385 25.3593C26.5016 23.369 25.0027 21.7345 23.1233 20.6922C24.2648 19.5027 24.9745 17.8962 24.9745 16.1227C24.9745 12.4731 22.0065 9.50506 18.3569 9.50506C14.7073 9.50506 11.7392 12.4731 11.7392 16.1227C11.7392 17.8847 12.4424 19.4778 13.5674 20.6641C12.7584 21.1108 12.0006 21.6666 11.3223 22.3383C10.4091 23.2648 9.72748 24.3435 9.24108 25.5065C7.64127 23.5212 6.67674 21.0016 6.67674 18.2569Z" fill="#10476A"/>
<path d="M18.2576 102.632C26.4668 102.632 33.1473 95.9514 33.1473 87.7422C33.1473 79.5331 26.4668 72.8525 18.2576 72.8525C10.0484 72.8525 3.36792 79.5331 3.36792 87.7422C3.36792 95.9514 10.0484 102.632 18.2576 102.632ZM11.9262 97.4272C12.1859 96.1963 12.7716 95.068 13.665 94.163C14.9289 92.9139 16.5949 92.2257 18.3585 92.2257C21.4291 92.2257 24.0663 94.3847 24.7562 97.3229C22.9016 98.5836 20.6648 99.3231 18.2576 99.3231C15.9216 99.3231 13.7477 98.6217 11.9262 97.4272ZM15.0481 85.6081C15.0481 83.7832 16.5321 82.2992 18.3569 82.2992C20.1817 82.2992 21.6657 83.7832 21.6657 85.6081C21.6657 87.4329 20.1817 88.9169 18.3569 88.9169C16.5321 88.9169 15.0481 87.4329 15.0481 85.6081ZM18.2576 76.1614C24.6437 76.1614 29.8385 81.3562 29.8385 87.7422C29.8385 90.4191 28.917 92.8808 27.385 94.8446C26.5016 92.8544 25.0027 91.2198 23.1233 90.1775C24.2648 88.988 24.9745 87.3816 24.9745 85.6081C24.9745 81.9584 22.0065 78.9904 18.3569 78.9904C14.7073 78.9904 11.7392 81.9584 11.7392 85.6081C11.7392 87.37 12.4424 88.9632 13.5674 90.1494C12.7584 90.5961 12.0006 91.152 11.3223 91.8237C10.4091 92.7501 9.72748 93.8288 9.24108 94.9919C7.64127 93.0066 6.67674 90.4869 6.67674 87.7422C6.67674 81.3562 11.8716 76.1614 18.2576 76.1614Z" fill="#10476A"/>
<path d="M67.352 15.9665C68.204 16.2974 69.1784 15.9183 69.544 15.0807C69.9094 14.2435 69.5283 13.2654 68.6779 12.9319C63.6895 10.9754 58.4235 9.98486 52.9996 9.98486C47.5758 9.98486 42.3098 10.9754 37.3214 12.9319C36.471 13.2654 36.0899 14.2435 36.4553 15.0807C36.8208 15.9183 37.7953 16.2974 38.6473 15.9665C43.2162 14.1922 48.0364 13.2937 52.9996 13.2937C57.9629 13.2937 62.7831 14.1922 67.352 15.9665Z" fill="#10476A"/>
<path d="M15.0813 36.4554C14.2441 36.0901 13.2661 36.4712 12.9325 37.3216C10.9761 42.31 9.98553 47.576 9.98553 52.9998C9.98553 58.3026 10.9339 63.4605 12.8073 68.3532C13.134 69.2065 14.1094 69.5953 14.9495 69.2362C15.7897 68.8771 16.1762 67.906 15.8524 67.0516C14.1542 62.5719 13.2944 57.8537 13.2944 52.9998C13.2944 48.0366 14.1929 43.2164 15.9672 38.6475C16.2981 37.7955 15.919 36.821 15.0813 36.4554Z" fill="#10476A"/>
<path d="M69.2358 91.0509C68.8764 90.2112 67.9056 89.825 67.0515 90.1487C62.5729 91.8457 57.8547 92.7056 53.0006 92.7056C48.1468 92.7056 43.4287 91.8458 38.9503 90.1489C38.096 89.8252 37.1251 90.2117 36.766 91.0517C36.4069 91.892 36.7959 92.8675 37.6494 93.194C42.5417 95.0661 47.698 96.0144 53.0006 96.0144C58.303 96.0144 63.4591 95.0662 68.3524 93.1943C69.2063 92.8677 69.5955 91.8915 69.2358 91.0509Z" fill="#10476A"/>
<path d="M91.0518 69.2349C91.8924 69.5946 92.8685 69.2055 93.1952 68.3516C95.0671 63.4582 96.0153 58.3022 96.0153 52.9998C96.0153 47.576 95.0247 42.3099 93.0682 37.3215C92.7347 36.4711 91.7567 36.09 90.9196 36.4554C90.0819 36.821 89.7029 37.7955 90.0338 38.6475C91.8079 43.2151 92.7064 48.0352 92.7064 52.9998C92.7064 57.8538 91.8466 62.5721 90.1495 67.0507C89.8259 67.9048 90.2121 68.8756 91.0518 69.2349Z" fill="#10476A"/>
<path d="M74.5078 67.8893V54.654H76.1622C76.7363 54.654 77.2674 54.3562 77.5701 53.8699C77.8712 53.3818 77.8993 52.773 77.6429 52.2601L74.3341 45.6425C74.0528 45.0816 73.4804 44.7276 72.8534 44.7276H64.5813V34.8011C64.5813 33.8879 63.8402 33.1467 62.9269 33.1467H59.6181V28.1835C59.6181 27.2702 58.8769 26.529 57.9637 26.529H54.6549V23.2202H51.346V26.529H48.0372C47.124 26.529 46.3828 27.2702 46.3828 28.1835V33.1467H43.074C42.1607 33.1467 41.4196 33.8879 41.4196 34.8011V44.7276H33.1475C32.5205 44.7276 31.9481 45.0816 31.6668 45.6425L28.358 52.2601C28.1016 52.773 28.1297 53.3818 28.4308 53.8699C28.7335 54.3562 29.2646 54.654 29.8387 54.654H31.4931V67.8893C31.4931 68.8026 32.2343 69.5437 33.1475 69.5437H41.4196C41.4196 70.457 42.1607 71.1982 43.074 71.1982H62.9269C63.8402 71.1982 64.5813 70.457 64.5813 69.5437H72.8534C73.7666 69.5437 74.5078 68.8026 74.5078 67.8893ZM34.1699 48.0364H41.4196V51.3452H32.5155L34.1699 48.0364ZM34.8019 66.2349V54.654H41.4196V66.2349H34.8019ZM49.6916 29.8379H56.3093V33.1467H49.6916V29.8379ZM54.6549 67.8893H51.346V62.9261C51.346 62.0145 52.0889 61.2717 53.0005 61.2717C53.912 61.2717 54.6549 62.0145 54.6549 62.9261V67.8893ZM61.2725 67.8893H57.9637V62.9261C57.9637 60.1897 55.7368 57.9629 53.0005 57.9629C50.2641 57.9629 48.0372 60.1897 48.0372 62.9261V67.8893H44.7284V36.4555H61.2725V67.8893ZM71.831 48.0364L73.4854 51.3452H64.5813V48.0364H71.831ZM64.5813 66.2349V54.654H71.199V66.2349H64.5813Z" fill="#10476A"/>
<path d="M48.037 39.7646H51.3459V43.0735H48.037V39.7646Z" fill="#10476A"/>
<path d="M48.037 46.3823H51.3459V49.6912H48.037V46.3823Z" fill="#10476A"/>
<path d="M48.037 53H51.3459V56.3088H48.037V53Z" fill="#10476A"/>
<path d="M54.6547 39.7646H57.9635V43.0735H54.6547V39.7646Z" fill="#10476A"/>
<path d="M54.6547 46.3823H57.9635V49.6912H54.6547V46.3823Z" fill="#10476A"/>
<path d="M54.6547 53H57.9635V56.3088H54.6547V53Z" fill="#10476A"/>
<path d="M66.2355 57.9629H69.5444V61.2717H66.2355V57.9629Z" fill="#10476A"/>
<path d="M36.4561 57.9629H39.7649V61.2717H36.4561V57.9629Z" fill="#10476A"/>
</svg>
