<svg width="551" height="886" viewBox="0 0 551 886" fill="none" xmlns="http://www.w3.org/2000/svg">
<g clip-path="url(#clip0_2926_10463)">
<path d="M-157.801 29.5333H181.833V0H-172.567C-181.427 0 -187.334 5.90667 -187.334 14.7667V59.0667H-157.801V29.5333Z" fill="#F3F4F6"/>
<path d="M521.468 562.61L434.344 448.907C431.391 444.477 426.961 443 422.531 443H344.268V472.533H415.148L524.421 614.293C527.374 618.723 531.804 620.2 536.234 620.2C537.711 620.2 539.188 620.2 540.664 618.723C546.571 617.247 551.001 611.34 551.001 605.433V383.933H521.468V562.61Z" fill="#F3F4F6"/>
<path d="M373.801 708.8H344.268V738.333H388.568C397.428 738.333 403.334 732.427 403.334 723.567V516.833H373.801V708.8Z" fill="#F3F4F6"/>
<path d="M299.967 443H-83.9663C-92.8263 443 -98.7329 448.907 -98.7329 457.767V516.833H-172.566V546.367H-83.9663C-75.1063 546.367 -69.1996 540.46 -69.1996 531.6V485.823L99.1404 602.48C102.094 603.957 105.047 605.433 108 605.433C110.954 605.433 113.907 603.957 115.384 602.48L285.2 484.347V708.8H-69.1996V649.733C-69.1996 640.873 -75.1063 634.967 -83.9663 634.967H-202.1V664.5H-98.7329V723.567C-98.7329 732.427 -92.8263 738.333 -83.9663 738.333H299.967C308.827 738.333 314.734 732.427 314.734 723.567V457.767C314.734 448.907 308.827 443 299.967 443ZM108 572.947L-38.1896 472.533H252.714L108 572.947Z" fill="#F3F4F6"/>
<path d="M536.233 147.667H494.887C493.41 146.19 493.41 143.237 491.933 141.76L519.99 113.703C522.943 110.75 524.42 107.797 524.42 103.367C524.42 98.9367 522.943 95.9833 519.99 93.03L457.97 31.01C452.063 25.1033 443.203 25.1033 437.297 31.01L409.24 59.0667C406.287 59.0667 404.81 57.59 403.333 57.59V14.7667C403.333 5.90667 397.427 0 388.567 0H299.967C291.107 0 285.2 5.90667 285.2 14.7667V56.1133C283.723 57.59 280.77 57.59 279.293 59.0667L251.237 31.01C245.33 25.1033 236.47 25.1033 230.563 31.01L168.543 93.03C165.59 95.9833 164.113 98.9367 164.113 103.367C164.113 107.797 165.59 110.75 168.543 113.703L196.6 141.76C196.6 144.713 195.123 146.19 195.123 146.19H152.3C143.44 146.19 137.533 152.097 137.533 160.957V249.557C137.533 258.417 143.44 264.323 152.3 264.323H193.647C195.123 265.8 195.123 268.753 196.6 270.23L168.543 298.287C165.59 301.24 164.113 304.193 164.113 308.623C164.113 313.053 165.59 316.007 168.543 318.96L230.563 380.98C236.47 386.887 245.33 386.887 251.237 380.98L279.293 352.923C282.247 354.4 283.723 354.4 285.2 355.877V398.7C285.2 407.56 291.107 413.467 299.967 413.467H388.567C397.427 413.467 403.333 407.56 403.333 398.7V357.353C404.81 355.877 407.763 355.877 409.24 354.4L437.297 382.457C443.203 388.363 452.063 388.363 457.97 382.457L519.99 320.437C522.943 317.483 524.42 314.53 524.42 310.1C524.42 305.67 522.943 302.717 519.99 299.763L491.933 271.707C493.41 270.23 493.41 267.277 494.887 265.8H536.233C545.093 265.8 551 259.893 551 251.033V162.433C551 153.573 545.093 147.667 536.233 147.667ZM521.467 236.267H484.55C477.167 236.267 471.26 242.173 469.783 248.08C469.783 251.033 463.877 262.847 462.4 265.8C460.923 268.753 459.447 271.707 459.447 274.66C459.447 279.09 460.923 282.043 463.877 284.997L488.98 310.1L447.633 351.447L422.53 326.343C419.577 323.39 416.623 321.913 412.193 321.913C409.24 321.913 406.287 323.39 403.333 324.867C400.38 326.343 388.567 330.773 385.613 332.25C378.23 333.727 373.8 339.633 373.8 347.017V383.933H314.733V347.017C314.733 342.587 313.257 339.633 310.303 336.68C307.35 332.25 282.247 321.913 276.34 321.913C271.91 321.913 268.957 323.39 266.003 326.343L240.9 351.447L199.553 310.1L224.657 284.997C227.61 282.043 229.087 279.09 229.087 274.66C229.087 271.707 227.61 268.753 226.133 265.8C224.657 262.847 220.227 251.033 218.75 248.08C217.273 240.697 211.367 236.267 203.983 236.267H167.067V177.2H203.983C208.413 177.2 211.367 175.723 214.32 172.77C218.75 169.817 229.087 144.713 229.087 138.807C229.087 134.377 227.61 131.423 224.657 128.47L199.553 103.367L240.9 62.02L266.003 87.1233C268.957 90.0767 271.91 91.5533 276.34 91.5533C279.293 91.5533 282.247 90.0767 285.2 88.6C288.153 87.1233 299.967 82.6933 302.92 81.2167C310.303 79.74 314.733 73.8333 314.733 66.45V29.5333H373.8V66.45C373.8 70.88 375.277 73.8333 378.23 76.7867C381.183 81.2167 406.287 91.5533 412.193 91.5533C416.623 91.5533 419.577 90.0767 422.53 87.1233L447.633 62.02L488.98 103.367L463.877 128.47C460.923 131.423 459.447 134.377 459.447 138.807C459.447 141.76 460.923 144.713 462.4 147.667C463.877 150.62 468.307 162.433 469.783 165.387C471.26 172.77 477.167 177.2 484.55 177.2H521.467V236.267Z" fill="#F3F4F6"/>
<path d="M344.266 147.667C311.779 147.667 285.199 174.247 285.199 206.733C285.199 239.22 311.779 265.8 344.266 265.8C376.753 265.8 403.333 239.22 403.333 206.733C403.333 174.247 376.753 147.667 344.266 147.667ZM344.266 236.267C328.023 236.267 314.733 222.977 314.733 206.733C314.733 190.49 328.023 177.2 344.266 177.2C360.509 177.2 373.799 190.49 373.799 206.733C373.799 222.977 360.509 236.267 344.266 236.267Z" fill="#F3F4F6"/>
<path d="M122.767 354.4H-39.666V383.933H122.767V354.4Z" fill="#F3F4F6"/>
<path d="M122.767 295.333H-113.5V324.867H122.767V295.333Z" fill="#F3F4F6"/>
<path d="M122.767 236.267H-113.5V265.8H122.767V236.267Z" fill="#F3F4F6"/>
<path d="M122.766 177.2H34.166V206.733H122.766V177.2Z" fill="#F3F4F6"/>
<path d="M122.766 118.133H34.166V147.667H122.766V118.133Z" fill="#F3F4F6"/>
<path d="M122.766 59.0667H34.166V88.6H122.766V59.0667Z" fill="#F3F4F6"/>
</g>
<defs>
<clipPath id="clip0_2926_10463">
<rect width="886" height="886" fill="white" transform="translate(-335)"/>
</clipPath>
</defs>
</svg>
