<svg width="864" height="750" viewBox="0 0 864 750" fill="none" xmlns="http://www.w3.org/2000/svg">
<path d="M794.341 509.72H641.824M0 496.558H27.5584M335.308 496.558H397.129M231.491 496.558H170.328M545.822 496.558H484.638" stroke="#AED1F3" stroke-width="2"/>
<path d="M807.502 480.104H668.147M118.459 480.104H231.49M361.631 480.104H397.128M545.82 480.104H484.637" stroke="#AED1F3" stroke-width="2"/>
<path d="M723.924 494.584H732.479M776.573 494.584H739.719" stroke="#AED1F3" stroke-width="2"/>
<path d="M741.693 538.02H707.553M131.623 538.02H231.492M361.633 538.02H383.968M687.892 538.02H700.376M536.609 538.02H507.014" stroke="#AED1F3" stroke-width="2"/>
<path d="M58.5723 574.874H90.4907M107.273 574.874H96.4137" stroke="#AED1F3" stroke-width="2"/>
<path d="M187.904 588.295C187.904 577.802 196.411 569.295 206.904 569.295H673.651C684.144 569.295 692.651 577.802 692.651 588.295V613.576C692.651 618.547 688.621 622.576 683.651 622.576H196.904C191.934 622.576 187.904 618.547 187.904 613.576V588.295Z" stroke="#AED1F3" stroke-width="2"/>
<path d="M158.947 651.473C158.947 640.979 167.454 632.473 177.947 632.473H709.188C719.682 632.473 728.188 640.979 728.188 651.473V676.754C728.188 681.725 724.159 685.754 719.188 685.754H167.947C162.977 685.754 158.947 681.725 158.947 676.754V651.473Z" stroke="#AED1F3" stroke-width="2"/>
<path d="M122.094 714.65C122.094 704.157 130.6 695.65 141.094 695.65H744.727C755.221 695.65 763.727 704.157 763.727 714.65V739.932C763.727 744.902 759.698 748.932 754.727 748.932H131.094C126.123 748.932 122.094 744.902 122.094 739.932V714.65Z" stroke="#AED1F3" stroke-width="2"/>
<rect x="264.246" y="345.534" width="55.9139" height="183.588" rx="9" stroke="#AED1F3" stroke-width="2"/>
<rect x="412.979" y="345.534" width="55.9139" height="183.588" rx="9" stroke="#AED1F3" stroke-width="2"/>
<rect x="561.711" y="345.534" width="55.9139" height="183.588" rx="9" stroke="#AED1F3" stroke-width="2"/>
<path d="M319.134 271.875C319.134 273.76 318.499 275.197 317.23 276.187C315.961 277.176 314.215 277.671 311.994 277.671C310.762 277.671 309.53 277.512 308.298 277.195C307.085 276.877 306.123 276.401 305.414 275.767L305.974 271.259L308.97 271.539L308.942 273.751C309.577 274.087 310.118 274.292 310.566 274.367C311.014 274.423 311.397 274.451 311.714 274.451C312.703 274.451 313.515 274.329 314.15 274.087C314.785 273.825 315.102 273.237 315.102 272.323C315.102 271.315 314.729 270.643 313.982 270.307C313.235 269.952 312.358 269.681 311.35 269.495C310.473 269.345 309.586 269.131 308.69 268.851C307.813 268.552 307.075 268.076 306.478 267.423C305.881 266.751 305.582 265.761 305.582 264.455C305.582 262.42 306.273 260.992 307.654 260.171C309.035 259.331 310.547 258.911 312.19 258.911C313.385 258.911 314.523 259.097 315.606 259.471C316.689 259.825 317.519 260.311 318.098 260.927L318.266 264.875L315.27 265.155L315.018 263.027C314.551 262.709 314.075 262.495 313.59 262.383C313.123 262.271 312.666 262.215 312.218 262.215C311.471 262.215 310.846 262.345 310.342 262.607C309.857 262.868 309.614 263.325 309.614 263.979C309.614 264.744 309.931 265.276 310.566 265.575C311.201 265.873 311.929 266.116 312.75 266.303C313.497 266.452 314.365 266.667 315.354 266.947C316.362 267.208 317.239 267.712 317.986 268.459C318.751 269.187 319.134 270.325 319.134 271.875ZM344.324 262.383H342.084V274.199H344.044V277.391H336.736V274.199H338.332V267.255H338.22L333.432 275.907H331.864L326.712 266.919H326.6V274.199H328.336V277.391H321.14V274.199H323.1V262.383H320.86V259.191H326.236L332.704 270.475H332.816L338.892 259.191H344.324V262.383ZM360.351 277.391H346.295V274.199H348.255V262.383H346.295V259.191H360.183L360.743 264.511L357.551 264.791L356.991 262.383H352.007V266.667H359.679V269.831H352.007V274.199H357.159L357.719 271.791L360.911 272.071L360.351 277.391ZM383.655 275.459C383.058 276.112 382.097 276.644 380.771 277.055C379.465 277.465 378.158 277.671 376.851 277.671C374.257 277.671 372.082 276.84 370.327 275.179C368.573 273.499 367.695 271.305 367.695 268.599C367.695 267.18 367.994 265.724 368.591 264.231C369.189 262.737 370.169 261.477 371.531 260.451C372.894 259.424 374.723 258.911 377.019 258.911C378.569 258.911 379.903 259.144 381.023 259.611C382.143 260.059 382.993 260.553 383.571 261.095L384.019 265.323L380.967 265.603L380.575 263.195C380.09 262.877 379.502 262.635 378.811 262.467C378.121 262.299 377.467 262.215 376.851 262.215C375.283 262.215 374.033 262.737 373.099 263.783C372.185 264.828 371.727 266.349 371.727 268.347C371.727 270.456 372.231 271.987 373.239 272.939C374.247 273.891 375.535 274.367 377.103 274.367C378.578 274.367 379.735 274.115 380.575 273.611L380.967 270.895L384.019 271.175L383.655 275.459ZM399.127 271.091C399.127 273.088 398.473 274.684 397.167 275.879C395.86 277.073 394.199 277.671 392.183 277.671C390.241 277.671 388.655 277.111 387.423 275.991C386.209 274.852 385.603 273.265 385.603 271.231C385.603 269.383 386.163 267.796 387.283 266.471C388.403 265.145 390.101 264.483 392.379 264.483C394.656 264.483 396.345 265.145 397.447 266.471C398.567 267.777 399.127 269.317 399.127 271.091ZM395.403 270.979C395.403 269.691 395.104 268.748 394.507 268.151C393.909 267.553 393.181 267.255 392.323 267.255C391.389 267.255 390.652 267.591 390.111 268.263C389.588 268.916 389.327 269.84 389.327 271.035C389.327 272.117 389.569 273.032 390.055 273.779C390.559 274.525 391.305 274.899 392.295 274.899C393.228 274.899 393.975 274.553 394.535 273.863C395.113 273.153 395.403 272.192 395.403 270.979ZM423.891 277.391H418.599V270.279C418.599 269.196 418.412 268.421 418.039 267.955C417.684 267.488 417.152 267.255 416.443 267.255C415.584 267.255 414.959 267.535 414.567 268.095C414.194 268.655 414.007 269.373 414.007 270.251V274.675H415.687V277.391H410.395V270.279C410.395 269.196 410.208 268.421 409.835 267.955C409.48 267.488 408.948 267.255 408.239 267.255C407.362 267.255 406.736 267.535 406.363 268.095C405.99 268.655 405.803 269.373 405.803 270.251V274.675H408.211V277.391H400.511V274.675H402.191V267.507H400.539V264.763H405.803V266.667C406.606 265.229 407.884 264.511 409.639 264.511C410.554 264.511 411.394 264.735 412.159 265.183C412.924 265.631 413.456 266.312 413.755 267.227C414.502 265.416 415.874 264.511 417.871 264.511C419.01 264.511 420.018 264.865 420.895 265.575C421.772 266.284 422.211 267.385 422.211 268.879V274.675H423.891V277.391ZM439.598 270.783C439.598 272.649 439.104 274.264 438.114 275.627C437.144 276.989 435.706 277.671 433.802 277.671C432.029 277.671 430.741 277.045 429.938 275.795V280.555H432.178V283.355H424.646V280.555H426.326V267.479H424.506V264.763H429.938V267.171C430.274 266.443 430.778 265.817 431.45 265.295C432.122 264.772 433.037 264.511 434.194 264.511C435.8 264.511 437.097 265.061 438.086 266.163C439.094 267.264 439.598 268.804 439.598 270.783ZM435.846 271.147C435.846 269.915 435.566 268.981 435.006 268.347C434.465 267.693 433.765 267.367 432.906 267.367C431.973 267.367 431.254 267.712 430.75 268.403C430.265 269.093 430.004 269.971 429.966 271.035L429.938 271.483C429.938 272.509 430.209 273.321 430.75 273.919C431.292 274.516 432.01 274.815 432.906 274.815C433.765 274.815 434.465 274.516 435.006 273.919C435.566 273.321 435.846 272.397 435.846 271.147ZM453.186 273.415C453.093 274.535 452.542 275.524 451.534 276.383C450.526 277.241 449.117 277.671 447.306 277.671C445.421 277.671 443.862 277.139 442.63 276.075C441.417 275.011 440.81 273.424 440.81 271.315C440.81 269.373 441.361 267.759 442.462 266.471C443.582 265.164 445.141 264.511 447.138 264.511C448.893 264.511 450.312 265.015 451.394 266.023C452.496 267.031 453.056 268.356 453.074 269.999C453.074 270.615 453.009 271.221 452.878 271.819H444.59C444.796 273.816 445.785 274.815 447.558 274.815C448.529 274.815 449.182 274.581 449.518 274.115C449.873 273.648 450.088 273.228 450.162 272.855L453.186 273.415ZM449.35 269.719C449.425 269.084 449.285 268.487 448.93 267.927C448.594 267.367 447.997 267.087 447.138 267.087C446.392 267.087 445.813 267.329 445.402 267.815C444.992 268.3 444.73 268.935 444.618 269.719H449.35ZM465.126 273.471C464.939 274.927 464.435 275.991 463.614 276.663C462.792 277.335 461.728 277.671 460.422 277.671C459.022 277.671 457.883 277.325 457.006 276.635C456.147 275.925 455.718 274.917 455.718 273.611V267.339H453.926V264.763H455.718V260.927H459.33V264.763H463.866V267.339H459.33V272.995C459.33 274.096 459.834 274.647 460.842 274.647C461.066 274.647 461.364 274.553 461.738 274.367C462.13 274.161 462.382 273.592 462.494 272.659L465.126 273.471ZM467.35 262.523V258.771H470.962V262.523H467.35ZM472.782 277.391H465.81V274.675H467.49V267.507H465.67V264.763H471.102V274.675H472.782V277.391ZM484.649 273.471C484.462 274.927 483.958 275.991 483.137 276.663C482.316 277.335 481.252 277.671 479.945 277.671C478.545 277.671 477.406 277.325 476.529 276.635C475.67 275.925 475.241 274.917 475.241 273.611V267.339H473.449V264.763H475.241V260.927H478.853V264.763H483.389V267.339H478.853V272.995C478.853 274.096 479.357 274.647 480.365 274.647C480.589 274.647 480.888 274.553 481.261 274.367C481.653 274.161 481.905 273.592 482.017 272.659L484.649 273.471ZM486.873 262.523V258.771H490.485V262.523H486.873ZM492.305 277.391H485.333V274.675H487.013V267.507H485.193V264.763H490.625V274.675H492.305V277.391ZM507.009 267.479H505.721L501.213 277.391H498.609L493.849 267.479H492.505V264.763H498.945V267.479H497.741L500.205 272.771H500.373L502.249 267.479H501.241V264.763H507.009V267.479ZM519.741 273.415C519.648 274.535 519.097 275.524 518.089 276.383C517.081 277.241 515.672 277.671 513.861 277.671C511.976 277.671 510.417 277.139 509.185 276.075C507.972 275.011 507.365 273.424 507.365 271.315C507.365 269.373 507.916 267.759 509.017 266.471C510.137 265.164 511.696 264.511 513.693 264.511C515.448 264.511 516.866 265.015 517.949 266.023C519.05 267.031 519.61 268.356 519.629 269.999C519.629 270.615 519.564 271.221 519.433 271.819H511.145C511.35 273.816 512.34 274.815 514.113 274.815C515.084 274.815 515.737 274.581 516.073 274.115C516.428 273.648 516.642 273.228 516.717 272.855L519.741 273.415ZM515.905 269.719C515.98 269.084 515.84 268.487 515.485 267.927C515.149 267.367 514.552 267.087 513.693 267.087C512.946 267.087 512.368 267.329 511.957 267.815C511.546 268.3 511.285 268.935 511.173 269.719H515.905ZM536.58 277.391H529.608V274.675H531.288V270.279C531.288 269.196 531.102 268.421 530.728 267.955C530.374 267.488 529.842 267.255 529.132 267.255C528.274 267.255 527.611 267.525 527.144 268.067C526.678 268.589 526.435 269.28 526.416 270.139V274.675H528.096V277.391H521.124V274.675H522.804V267.507H520.984V264.763H526.416V266.695C527.256 265.239 528.61 264.511 530.476 264.511C531.671 264.511 532.707 264.865 533.584 265.575C534.462 266.284 534.9 267.385 534.9 268.879V274.675H536.58V277.391ZM549.874 273.415C549.781 274.535 549.23 275.524 548.222 276.383C547.214 277.241 545.805 277.671 543.994 277.671C542.109 277.671 540.55 277.139 539.318 276.075C538.105 275.011 537.498 273.424 537.498 271.315C537.498 269.373 538.049 267.759 539.15 266.471C540.27 265.164 541.829 264.511 543.826 264.511C545.581 264.511 546.999 265.015 548.082 266.023C549.183 267.031 549.743 268.356 549.762 269.999C549.762 270.615 549.697 271.221 549.566 271.819H541.278C541.483 273.816 542.473 274.815 544.246 274.815C545.217 274.815 545.87 274.581 546.206 274.115C546.561 273.648 546.775 273.228 546.85 272.855L549.874 273.415ZM546.038 269.719C546.113 269.084 545.973 268.487 545.618 267.927C545.282 267.367 544.685 267.087 543.826 267.087C543.079 267.087 542.501 267.329 542.09 267.815C541.679 268.3 541.418 268.935 541.306 269.719H546.038ZM562.625 273.527C562.625 274.927 562.065 275.972 560.945 276.663C559.844 277.335 558.406 277.671 556.633 277.671C555.718 277.671 554.794 277.577 553.861 277.391C552.946 277.185 552.069 276.868 551.229 276.439L551.733 272.911L554.533 273.219V274.787C554.869 274.899 555.224 274.973 555.597 275.011C555.97 275.029 556.25 275.039 556.437 275.039C557.128 275.039 557.725 274.927 558.229 274.703C558.733 274.479 558.985 274.143 558.985 273.695C558.985 273.153 558.602 272.799 557.837 272.631C557.072 272.463 556.185 272.295 555.177 272.127C554.169 271.959 553.282 271.613 552.517 271.091C551.752 270.568 551.369 269.681 551.369 268.431C551.369 266.881 551.966 265.845 553.161 265.323C554.374 264.781 555.625 264.511 556.913 264.511C558.593 264.511 560.17 264.893 561.645 265.659L561.953 268.879L559.153 269.187L558.929 267.423C558.313 267.217 557.65 267.115 556.941 267.115C556.474 267.115 556.073 267.217 555.737 267.423C555.42 267.609 555.261 267.908 555.261 268.319C555.261 268.86 555.625 269.224 556.353 269.411C557.1 269.579 557.958 269.747 558.929 269.915C559.918 270.083 560.777 270.428 561.505 270.951C562.252 271.455 562.625 272.313 562.625 273.527ZM575.477 273.527C575.477 274.927 574.917 275.972 573.797 276.663C572.695 277.335 571.258 277.671 569.485 277.671C568.57 277.671 567.646 277.577 566.713 277.391C565.798 277.185 564.921 276.868 564.081 276.439L564.585 272.911L567.385 273.219V274.787C567.721 274.899 568.075 274.973 568.449 275.011C568.822 275.029 569.102 275.039 569.289 275.039C569.979 275.039 570.577 274.927 571.081 274.703C571.585 274.479 571.837 274.143 571.837 273.695C571.837 273.153 571.454 272.799 570.689 272.631C569.923 272.463 569.037 272.295 568.029 272.127C567.021 271.959 566.134 271.613 565.369 271.091C564.603 270.568 564.221 269.681 564.221 268.431C564.221 266.881 564.818 265.845 566.013 265.323C567.226 264.781 568.477 264.511 569.765 264.511C571.445 264.511 573.022 264.893 574.497 265.659L574.805 268.879L572.005 269.187L571.781 267.423C571.165 267.217 570.502 267.115 569.793 267.115C569.326 267.115 568.925 267.217 568.589 267.423C568.271 267.609 568.113 267.908 568.113 268.319C568.113 268.86 568.477 269.224 569.205 269.411C569.951 269.579 570.81 269.747 571.781 269.915C572.77 270.083 573.629 270.428 574.357 270.951C575.103 271.455 575.477 272.313 575.477 273.527Z" fill="#10476A"/>
<path d="M374.518 594.295L372.238 594.495L371.838 592.575H368.438V596.215H373.898V598.475H368.438V601.015H370.558V603.295H364.358V601.015H365.758V592.575H364.358V590.295H374.118L374.518 594.295ZM376.666 592.675V589.995H379.246V592.675H376.666ZM380.546 603.295H375.566V601.355H376.766V596.235H375.466V594.275H379.346V601.355H380.546V603.295ZM387.182 594.155C387.435 594.155 387.715 594.195 388.022 594.275C388.342 594.342 388.655 594.468 388.962 594.655L389.362 597.815L387.402 598.035L387.062 596.495C386.795 596.335 386.562 596.255 386.362 596.255C386.069 596.255 385.809 596.368 385.582 596.595C385.369 596.822 385.262 597.155 385.262 597.595V601.355H386.862V603.295H381.482V601.355H382.682V596.235H381.382V594.275H385.062V595.995C385.209 595.475 385.442 595.042 385.762 594.695C386.095 594.335 386.569 594.155 387.182 594.155ZM407.01 603.295H403.23V598.215C403.23 597.442 403.097 596.888 402.83 596.555C402.577 596.222 402.197 596.055 401.69 596.055C401.077 596.055 400.63 596.255 400.35 596.655C400.084 597.055 399.95 597.568 399.95 598.195V601.355H401.15V603.295H397.37V598.215C397.37 597.442 397.237 596.888 396.97 596.555C396.717 596.222 396.337 596.055 395.83 596.055C395.204 596.055 394.757 596.255 394.49 596.655C394.224 597.055 394.09 597.568 394.09 598.195V601.355H395.81V603.295H390.31V601.355H391.51V596.235H390.33V594.275H394.09V595.635C394.664 594.608 395.577 594.095 396.83 594.095C397.484 594.095 398.084 594.255 398.63 594.575C399.177 594.895 399.557 595.382 399.77 596.035C400.304 594.742 401.284 594.095 402.71 594.095C403.524 594.095 404.244 594.348 404.87 594.855C405.497 595.362 405.81 596.148 405.81 597.215V601.355H407.01V603.295ZM422.86 601.915C422.434 602.382 421.747 602.762 420.8 603.055C419.867 603.348 418.934 603.495 418 603.495C416.147 603.495 414.594 602.902 413.34 601.715C412.087 600.515 411.46 598.948 411.46 597.015C411.46 596.002 411.674 594.962 412.1 593.895C412.527 592.828 413.227 591.928 414.2 591.195C415.174 590.462 416.48 590.095 418.12 590.095C419.227 590.095 420.18 590.262 420.98 590.595C421.78 590.915 422.387 591.268 422.8 591.655L423.12 594.675L420.94 594.875L420.66 593.155C420.314 592.928 419.894 592.755 419.4 592.635C418.907 592.515 418.44 592.455 418 592.455C416.88 592.455 415.987 592.828 415.32 593.575C414.667 594.322 414.34 595.408 414.34 596.835C414.34 598.342 414.7 599.435 415.42 600.115C416.14 600.795 417.06 601.135 418.18 601.135C419.234 601.135 420.06 600.955 420.66 600.595L420.94 598.655L423.12 598.855L422.86 601.915ZM425.211 594.915C425.998 594.595 426.651 594.382 427.171 594.275C427.705 594.155 428.338 594.095 429.071 594.095C430.045 594.095 430.885 594.348 431.591 594.855C432.298 595.362 432.651 596.128 432.651 597.155V601.075C432.651 601.542 432.858 601.775 433.271 601.775C433.391 601.775 433.518 601.755 433.651 601.715L433.671 603.075C433.151 603.355 432.611 603.495 432.051 603.495C430.865 603.495 430.205 602.902 430.071 601.715V601.695C429.818 602.148 429.451 602.562 428.971 602.935C428.505 603.308 427.905 603.495 427.171 603.495C426.518 603.495 425.891 603.302 425.291 602.915C424.691 602.528 424.391 601.862 424.391 600.915C424.391 599.808 424.831 599.075 425.711 598.715C426.605 598.355 427.565 598.175 428.591 598.175C429.165 598.175 429.658 598.202 430.071 598.255V597.955C430.071 597.488 430.005 597.035 429.871 596.595C429.751 596.155 429.325 595.935 428.591 595.935C428.325 595.935 428.078 595.955 427.851 595.995C427.638 596.022 427.425 596.088 427.211 596.195L426.871 597.475L424.811 597.255L425.211 594.915ZM430.071 599.615V599.495C429.858 599.468 429.638 599.442 429.411 599.415C429.198 599.388 428.985 599.375 428.771 599.375C428.318 599.375 427.918 599.462 427.571 599.635C427.225 599.795 427.051 600.122 427.051 600.615C427.051 600.908 427.131 601.155 427.291 601.355C427.451 601.555 427.725 601.655 428.111 601.655C428.565 601.655 428.985 601.495 429.371 601.175C429.771 600.842 430.005 600.322 430.071 599.615ZM444.949 598.575C444.949 599.908 444.595 601.062 443.889 602.035C443.195 603.008 442.169 603.495 440.809 603.495C439.542 603.495 438.622 603.048 438.049 602.155V605.555H439.649V607.555H434.269V605.555H435.469V596.215H434.169V594.275H438.049V595.995C438.289 595.475 438.649 595.028 439.129 594.655C439.609 594.282 440.262 594.095 441.089 594.095C442.235 594.095 443.162 594.488 443.869 595.275C444.589 596.062 444.949 597.162 444.949 598.575ZM442.269 598.835C442.269 597.955 442.069 597.288 441.669 596.835C441.282 596.368 440.782 596.135 440.169 596.135C439.502 596.135 438.989 596.382 438.629 596.875C438.282 597.368 438.095 597.995 438.069 598.755L438.049 599.075C438.049 599.808 438.242 600.388 438.629 600.815C439.015 601.242 439.529 601.455 440.169 601.455C440.782 601.455 441.282 601.242 441.669 600.815C442.069 600.388 442.269 599.728 442.269 598.835ZM446.754 594.915C447.541 594.595 448.194 594.382 448.714 594.275C449.248 594.155 449.881 594.095 450.614 594.095C451.588 594.095 452.428 594.348 453.134 594.855C453.841 595.362 454.194 596.128 454.194 597.155V601.075C454.194 601.542 454.401 601.775 454.814 601.775C454.934 601.775 455.061 601.755 455.194 601.715L455.214 603.075C454.694 603.355 454.154 603.495 453.594 603.495C452.408 603.495 451.748 602.902 451.614 601.715V601.695C451.361 602.148 450.994 602.562 450.514 602.935C450.048 603.308 449.448 603.495 448.714 603.495C448.061 603.495 447.434 603.302 446.834 602.915C446.234 602.528 445.934 601.862 445.934 600.915C445.934 599.808 446.374 599.075 447.254 598.715C448.148 598.355 449.108 598.175 450.134 598.175C450.708 598.175 451.201 598.202 451.614 598.255V597.955C451.614 597.488 451.548 597.035 451.414 596.595C451.294 596.155 450.868 595.935 450.134 595.935C449.868 595.935 449.621 595.955 449.394 595.995C449.181 596.022 448.968 596.088 448.754 596.195L448.414 597.475L446.354 597.255L446.754 594.915ZM451.614 599.615V599.495C451.401 599.468 451.181 599.442 450.954 599.415C450.741 599.388 450.528 599.375 450.314 599.375C449.861 599.375 449.461 599.462 449.114 599.635C448.768 599.795 448.594 600.122 448.594 600.615C448.594 600.908 448.674 601.155 448.834 601.355C448.994 601.555 449.268 601.655 449.654 601.655C450.108 601.655 450.528 601.495 450.914 601.175C451.314 600.842 451.548 600.322 451.614 599.615ZM466.111 598.575C466.111 599.908 465.758 601.062 465.051 602.035C464.358 603.008 463.331 603.495 461.971 603.495C460.598 603.495 459.631 602.975 459.071 601.935C459.045 602.162 459.011 602.388 458.971 602.615C458.945 602.842 458.911 603.068 458.871 603.295H456.291C456.385 602.828 456.465 602.362 456.531 601.895C456.598 601.428 456.631 600.968 456.631 600.515V591.495H455.431V589.535H459.211V595.995C459.451 595.475 459.811 595.028 460.291 594.655C460.785 594.282 461.438 594.095 462.251 594.095C463.385 594.095 464.311 594.488 465.031 595.275C465.751 596.062 466.111 597.162 466.111 598.575ZM463.431 598.795C463.431 597.928 463.245 597.268 462.871 596.815C462.498 596.362 462.005 596.135 461.391 596.135C460.698 596.135 460.158 596.388 459.771 596.895C459.398 597.402 459.211 597.988 459.211 598.655V598.875C459.211 599.608 459.391 600.228 459.751 600.735C460.125 601.228 460.651 601.475 461.331 601.475C461.918 601.475 462.411 601.262 462.811 600.835C463.225 600.395 463.431 599.715 463.431 598.795ZM468.267 592.675V589.995H470.847V592.675H468.267ZM472.147 603.295H467.167V601.355H468.367V596.235H467.067V594.275H470.947V601.355H472.147V603.295ZM477.844 603.295H472.864V601.355H474.064V591.495H472.764V589.535H476.644V601.355H477.844V603.295ZM479.947 592.675V589.995H482.527V592.675H479.947ZM483.827 603.295H478.847V601.355H480.047V596.235H478.747V594.275H482.627V601.355H483.827V603.295ZM492.303 600.495C492.17 601.535 491.81 602.295 491.223 602.775C490.637 603.255 489.877 603.495 488.943 603.495C487.943 603.495 487.13 603.248 486.503 602.755C485.89 602.248 485.583 601.528 485.583 600.595V596.115H484.303V594.275H485.583V591.535H488.163V594.275H491.403V596.115H488.163V600.155C488.163 600.942 488.523 601.335 489.243 601.335C489.403 601.335 489.617 601.268 489.883 601.135C490.163 600.988 490.343 600.582 490.423 599.915L492.303 600.495ZM493.892 592.675V589.995H496.472V592.675H493.892ZM497.772 603.295H492.792V601.355H493.992V596.235H492.692V594.275H496.572V601.355H497.772V603.295ZM507.389 600.455C507.322 601.255 506.929 601.962 506.209 602.575C505.489 603.188 504.482 603.495 503.189 603.495C501.842 603.495 500.729 603.115 499.849 602.355C498.982 601.595 498.549 600.462 498.549 598.955C498.549 597.568 498.942 596.415 499.729 595.495C500.529 594.562 501.642 594.095 503.069 594.095C504.322 594.095 505.335 594.455 506.109 595.175C506.895 595.895 507.295 596.842 507.309 598.015C507.309 598.455 507.262 598.888 507.169 599.315H501.249C501.395 600.742 502.102 601.455 503.369 601.455C504.062 601.455 504.529 601.288 504.769 600.955C505.022 600.622 505.175 600.322 505.229 600.055L507.389 600.455ZM504.649 597.815C504.702 597.362 504.602 596.935 504.349 596.535C504.109 596.135 503.682 595.935 503.069 595.935C502.535 595.935 502.122 596.108 501.829 596.455C501.535 596.802 501.349 597.255 501.269 597.815H504.649ZM516.497 600.535C516.497 601.535 516.097 602.282 515.297 602.775C514.51 603.255 513.483 603.495 512.217 603.495C511.563 603.495 510.903 603.428 510.237 603.295C509.583 603.148 508.957 602.922 508.357 602.615L508.717 600.095L510.717 600.315V601.435C510.957 601.515 511.21 601.568 511.477 601.595C511.743 601.608 511.943 601.615 512.077 601.615C512.57 601.615 512.997 601.535 513.357 601.375C513.717 601.215 513.897 600.975 513.897 600.655C513.897 600.268 513.623 600.015 513.077 599.895C512.53 599.775 511.897 599.655 511.177 599.535C510.457 599.415 509.823 599.168 509.277 598.795C508.73 598.422 508.457 597.788 508.457 596.895C508.457 595.788 508.883 595.048 509.737 594.675C510.603 594.288 511.497 594.095 512.417 594.095C513.617 594.095 514.743 594.368 515.797 594.915L516.017 597.215L514.017 597.435L513.857 596.175C513.417 596.028 512.943 595.955 512.437 595.955C512.103 595.955 511.817 596.028 511.577 596.175C511.35 596.308 511.237 596.522 511.237 596.815C511.237 597.202 511.497 597.462 512.017 597.595C512.55 597.715 513.163 597.835 513.857 597.955C514.563 598.075 515.177 598.322 515.697 598.695C516.23 599.055 516.497 599.668 516.497 600.535Z" fill="#10476A"/>
<path d="M363.048 662.613C363.048 663.653 362.694 664.559 361.988 665.333C361.294 666.093 360.201 666.473 358.708 666.473H351.868V664.193H353.268V655.753H351.868V653.473H358.628C359.814 653.473 360.768 653.753 361.488 654.313C362.221 654.859 362.588 655.593 362.588 656.513C362.588 657.193 362.381 657.786 361.968 658.293C361.554 658.799 360.974 659.113 360.228 659.233V659.313C361.161 659.446 361.861 659.813 362.328 660.413C362.808 661.013 363.048 661.746 363.048 662.613ZM359.708 657.213C359.708 656.626 359.528 656.239 359.168 656.053C358.821 655.853 358.408 655.753 357.928 655.753H355.948V658.793H357.728C358.488 658.793 359.008 658.639 359.288 658.333C359.568 658.026 359.708 657.653 359.708 657.213ZM360.168 662.513C360.168 661.419 359.508 660.873 358.188 660.873H355.948V664.193H358.008C359.448 664.193 360.168 663.633 360.168 662.513ZM374.949 666.473H371.069V665.093C370.469 666.133 369.502 666.653 368.169 666.653C367.316 666.653 366.576 666.399 365.949 665.893C365.322 665.386 365.009 664.599 365.009 663.533V659.393H363.809V657.453H367.589V662.533C367.589 663.319 367.716 663.879 367.969 664.213C368.236 664.533 368.622 664.693 369.129 664.693C369.742 664.693 370.216 664.493 370.549 664.093C370.896 663.693 371.069 663.179 371.069 662.553V659.393H369.609V657.453H373.649V664.533H374.949V666.473ZM383.928 663.713C383.928 664.713 383.528 665.459 382.728 665.953C381.942 666.433 380.915 666.673 379.648 666.673C378.995 666.673 378.335 666.606 377.668 666.473C377.015 666.326 376.388 666.099 375.788 665.793L376.148 663.273L378.148 663.493V664.613C378.388 664.693 378.642 664.746 378.908 664.773C379.175 664.786 379.375 664.793 379.508 664.793C380.002 664.793 380.428 664.713 380.788 664.553C381.148 664.393 381.328 664.153 381.328 663.833C381.328 663.446 381.055 663.193 380.508 663.073C379.962 662.953 379.328 662.833 378.608 662.713C377.888 662.593 377.255 662.346 376.708 661.973C376.162 661.599 375.888 660.966 375.888 660.073C375.888 658.966 376.315 658.226 377.168 657.853C378.035 657.466 378.928 657.273 379.848 657.273C381.048 657.273 382.175 657.546 383.228 658.093L383.448 660.393L381.448 660.613L381.288 659.353C380.848 659.206 380.375 659.133 379.868 659.133C379.535 659.133 379.248 659.206 379.008 659.353C378.782 659.486 378.668 659.699 378.668 659.993C378.668 660.379 378.928 660.639 379.448 660.773C379.982 660.893 380.595 661.013 381.288 661.133C381.995 661.253 382.608 661.499 383.128 661.873C383.662 662.233 383.928 662.846 383.928 663.713ZM386.148 655.853V653.173H388.728V655.853H386.148ZM390.028 666.473H385.048V664.533H386.248V659.413H384.948V657.453H388.828V664.533H390.028V666.473ZM402.005 666.473H397.025V664.533H398.225V661.393C398.225 660.619 398.091 660.066 397.825 659.733C397.571 659.399 397.191 659.233 396.685 659.233C396.071 659.233 395.598 659.426 395.265 659.813C394.931 660.186 394.758 660.679 394.745 661.293V664.533H395.945V666.473H390.965V664.533H392.165V659.413H390.865V657.453H394.745V658.833C395.345 657.793 396.311 657.273 397.645 657.273C398.498 657.273 399.238 657.526 399.865 658.033C400.491 658.539 400.805 659.326 400.805 660.393V664.533H402.005V666.473ZM411.5 663.633C411.433 664.433 411.04 665.139 410.32 665.753C409.6 666.366 408.593 666.673 407.3 666.673C405.953 666.673 404.84 666.293 403.96 665.533C403.093 664.773 402.66 663.639 402.66 662.133C402.66 660.746 403.053 659.593 403.84 658.673C404.64 657.739 405.753 657.273 407.18 657.273C408.433 657.273 409.447 657.633 410.22 658.353C411.007 659.073 411.407 660.019 411.42 661.193C411.42 661.633 411.373 662.066 411.28 662.493H405.36C405.507 663.919 406.213 664.633 407.48 664.633C408.173 664.633 408.64 664.466 408.88 664.133C409.133 663.799 409.287 663.499 409.34 663.233L411.5 663.633ZM408.76 660.993C408.813 660.539 408.713 660.113 408.46 659.713C408.22 659.313 407.793 659.113 407.18 659.113C406.647 659.113 406.233 659.286 405.94 659.633C405.647 659.979 405.46 660.433 405.38 660.993H408.76ZM420.608 663.713C420.608 664.713 420.208 665.459 419.408 665.953C418.621 666.433 417.595 666.673 416.328 666.673C415.675 666.673 415.015 666.606 414.348 666.473C413.695 666.326 413.068 666.099 412.468 665.793L412.828 663.273L414.828 663.493V664.613C415.068 664.693 415.321 664.746 415.588 664.773C415.855 664.786 416.055 664.793 416.188 664.793C416.681 664.793 417.108 664.713 417.468 664.553C417.828 664.393 418.008 664.153 418.008 663.833C418.008 663.446 417.735 663.193 417.188 663.073C416.641 662.953 416.008 662.833 415.288 662.713C414.568 662.593 413.935 662.346 413.388 661.973C412.841 661.599 412.568 660.966 412.568 660.073C412.568 658.966 412.995 658.226 413.848 657.853C414.715 657.466 415.608 657.273 416.528 657.273C417.728 657.273 418.855 657.546 419.908 658.093L420.128 660.393L418.128 660.613L417.968 659.353C417.528 659.206 417.055 659.133 416.548 659.133C416.215 659.133 415.928 659.206 415.688 659.353C415.461 659.486 415.348 659.699 415.348 659.993C415.348 660.379 415.608 660.639 416.128 660.773C416.661 660.893 417.275 661.013 417.968 661.133C418.675 661.253 419.288 661.499 419.808 661.873C420.341 662.233 420.608 662.846 420.608 663.713ZM429.788 663.713C429.788 664.713 429.388 665.459 428.588 665.953C427.801 666.433 426.774 666.673 425.508 666.673C424.854 666.673 424.194 666.606 423.528 666.473C422.874 666.326 422.248 666.099 421.648 665.793L422.008 663.273L424.008 663.493V664.613C424.248 664.693 424.501 664.746 424.768 664.773C425.034 664.786 425.234 664.793 425.368 664.793C425.861 664.793 426.288 664.713 426.648 664.553C427.008 664.393 427.188 664.153 427.188 663.833C427.188 663.446 426.914 663.193 426.368 663.073C425.821 662.953 425.188 662.833 424.468 662.713C423.748 662.593 423.114 662.346 422.568 661.973C422.021 661.599 421.748 660.966 421.748 660.073C421.748 658.966 422.174 658.226 423.028 657.853C423.894 657.466 424.788 657.273 425.708 657.273C426.908 657.273 428.034 657.546 429.088 658.093L429.308 660.393L427.308 660.613L427.148 659.353C426.708 659.206 426.234 659.133 425.728 659.133C425.394 659.133 425.108 659.206 424.868 659.353C424.641 659.486 424.528 659.699 424.528 659.993C424.528 660.379 424.788 660.639 425.308 660.773C425.841 660.893 426.454 661.013 427.148 661.133C427.854 661.253 428.468 661.499 428.988 661.873C429.521 662.233 429.788 662.846 429.788 663.713ZM444.818 666.473H434.778V664.193H436.178V655.753H434.778V653.473H444.698L445.098 657.273L442.818 657.473L442.418 655.753H438.858V658.813H444.338V661.073H438.858V664.193H442.538L442.938 662.473L445.218 662.673L444.818 666.473ZM454.953 663.113C454.86 663.939 454.5 664.739 453.873 665.513C453.26 666.286 452.227 666.673 450.773 666.673C449.467 666.673 448.387 666.293 447.533 665.533C446.693 664.773 446.273 663.633 446.273 662.113C446.273 660.513 446.733 659.306 447.653 658.493C448.573 657.679 449.687 657.273 450.993 657.273C451.487 657.273 452.013 657.339 452.573 657.473C453.147 657.593 453.707 657.799 454.253 658.093L454.653 660.833L452.593 661.053L452.293 659.573C451.773 659.399 451.32 659.313 450.933 659.313C450.387 659.313 449.92 659.526 449.533 659.953C449.147 660.366 448.953 661.046 448.953 661.993C448.953 663.753 449.64 664.633 451.013 664.633C452.027 664.633 452.62 663.993 452.793 662.713L454.953 663.113ZM465.327 661.973C465.327 663.399 464.861 664.539 463.927 665.393C462.994 666.246 461.807 666.673 460.367 666.673C458.981 666.673 457.847 666.273 456.967 665.473C456.101 664.659 455.667 663.526 455.667 662.073C455.667 660.753 456.067 659.619 456.867 658.673C457.667 657.726 458.881 657.253 460.507 657.253C462.134 657.253 463.341 657.726 464.127 658.673C464.927 659.606 465.327 660.706 465.327 661.973ZM462.667 661.893C462.667 660.973 462.454 660.299 462.027 659.873C461.601 659.446 461.081 659.233 460.467 659.233C459.801 659.233 459.274 659.473 458.887 659.953C458.514 660.419 458.327 661.079 458.327 661.933C458.327 662.706 458.501 663.359 458.847 663.893C459.207 664.426 459.741 664.693 460.447 664.693C461.114 664.693 461.647 664.446 462.047 663.953C462.461 663.446 462.667 662.759 462.667 661.893ZM474.436 663.713C474.436 664.713 474.036 665.459 473.236 665.953C472.449 666.433 471.423 666.673 470.156 666.673C469.503 666.673 468.843 666.606 468.176 666.473C467.523 666.326 466.896 666.099 466.296 665.793L466.656 663.273L468.656 663.493V664.613C468.896 664.693 469.149 664.746 469.416 664.773C469.683 664.786 469.883 664.793 470.016 664.793C470.509 664.793 470.936 664.713 471.296 664.553C471.656 664.393 471.836 664.153 471.836 663.833C471.836 663.446 471.563 663.193 471.016 663.073C470.469 662.953 469.836 662.833 469.116 662.713C468.396 662.593 467.763 662.346 467.216 661.973C466.669 661.599 466.396 660.966 466.396 660.073C466.396 658.966 466.823 658.226 467.676 657.853C468.543 657.466 469.436 657.273 470.356 657.273C471.556 657.273 472.683 657.546 473.736 658.093L473.956 660.393L471.956 660.613L471.796 659.353C471.356 659.206 470.883 659.133 470.376 659.133C470.043 659.133 469.756 659.206 469.516 659.353C469.289 659.486 469.176 659.699 469.176 659.993C469.176 660.379 469.436 660.639 469.956 660.773C470.489 660.893 471.103 661.013 471.796 661.133C472.503 661.253 473.116 661.499 473.636 661.873C474.169 662.233 474.436 662.846 474.436 663.713ZM485.278 659.393H484.398L481.498 666.473L480.638 668.733H481.818V670.733H476.838V668.733H478.278L478.998 666.613L475.838 659.393H474.918V657.453H479.518V659.393H478.618L480.458 663.553H480.578L481.938 659.393H481.158V657.453H485.278V659.393ZM493.831 663.713C493.831 664.713 493.431 665.459 492.631 665.953C491.844 666.433 490.817 666.673 489.551 666.673C488.897 666.673 488.237 666.606 487.571 666.473C486.917 666.326 486.291 666.099 485.691 665.793L486.051 663.273L488.051 663.493V664.613C488.291 664.693 488.544 664.746 488.811 664.773C489.077 664.786 489.277 664.793 489.411 664.793C489.904 664.793 490.331 664.713 490.691 664.553C491.051 664.393 491.231 664.153 491.231 663.833C491.231 663.446 490.957 663.193 490.411 663.073C489.864 662.953 489.231 662.833 488.511 662.713C487.791 662.593 487.157 662.346 486.611 661.973C486.064 661.599 485.791 660.966 485.791 660.073C485.791 658.966 486.217 658.226 487.071 657.853C487.937 657.466 488.831 657.273 489.751 657.273C490.951 657.273 492.077 657.546 493.131 658.093L493.351 660.393L491.351 660.613L491.191 659.353C490.751 659.206 490.277 659.133 489.771 659.133C489.437 659.133 489.151 659.206 488.911 659.353C488.684 659.486 488.571 659.699 488.571 659.993C488.571 660.379 488.831 660.639 489.351 660.773C489.884 660.893 490.497 661.013 491.191 661.133C491.897 661.253 492.511 661.499 493.031 661.873C493.564 662.233 493.831 662.846 493.831 663.713ZM502.43 663.673C502.297 664.713 501.937 665.473 501.35 665.953C500.764 666.433 500.004 666.673 499.07 666.673C498.07 666.673 497.257 666.426 496.63 665.933C496.017 665.426 495.71 664.706 495.71 663.773V659.293H494.43V657.453H495.71V654.713H498.29V657.453H501.53V659.293H498.29V663.333C498.29 664.119 498.65 664.513 499.37 664.513C499.53 664.513 499.744 664.446 500.01 664.313C500.29 664.166 500.47 663.759 500.55 663.093L502.43 663.673ZM511.539 663.633C511.472 664.433 511.079 665.139 510.359 665.753C509.639 666.366 508.632 666.673 507.339 666.673C505.992 666.673 504.879 666.293 503.999 665.533C503.132 664.773 502.699 663.639 502.699 662.133C502.699 660.746 503.092 659.593 503.879 658.673C504.679 657.739 505.792 657.273 507.219 657.273C508.472 657.273 509.486 657.633 510.259 658.353C511.046 659.073 511.446 660.019 511.459 661.193C511.459 661.633 511.412 662.066 511.319 662.493H505.399C505.546 663.919 506.252 664.633 507.519 664.633C508.212 664.633 508.679 664.466 508.919 664.133C509.172 663.799 509.326 663.499 509.379 663.233L511.539 663.633ZM508.799 660.993C508.852 660.539 508.752 660.113 508.499 659.713C508.259 659.313 507.832 659.113 507.219 659.113C506.686 659.113 506.272 659.286 505.979 659.633C505.686 659.979 505.499 660.433 505.419 660.993H508.799ZM529.227 666.473H525.447V661.393C525.447 660.619 525.314 660.066 525.047 659.733C524.794 659.399 524.414 659.233 523.907 659.233C523.294 659.233 522.847 659.433 522.567 659.833C522.3 660.233 522.167 660.746 522.167 661.373V664.533H523.367V666.473H519.587V661.393C519.587 660.619 519.454 660.066 519.187 659.733C518.934 659.399 518.554 659.233 518.047 659.233C517.42 659.233 516.974 659.433 516.707 659.833C516.44 660.233 516.307 660.746 516.307 661.373V664.533H518.027V666.473H512.527V664.533H513.727V659.413H512.547V657.453H516.307V658.813C516.88 657.786 517.794 657.273 519.047 657.273C519.7 657.273 520.3 657.433 520.847 657.753C521.394 658.073 521.774 658.559 521.987 659.213C522.52 657.919 523.5 657.273 524.927 657.273C525.74 657.273 526.46 657.526 527.087 658.033C527.714 658.539 528.027 659.326 528.027 660.393V664.533H529.227V666.473Z" fill="#10476A"/>
<path d="M358.295 718.93H356.895V729.65L355.395 729.67L348.415 721.41H348.335V727.37H350.135V729.65H344.435V727.37H345.835V718.93H344.215V716.65H347.755L354.315 724.37H354.395V718.93H352.515V716.65H358.295V718.93ZM359.663 721.27C360.449 720.95 361.103 720.737 361.623 720.63C362.156 720.51 362.789 720.45 363.523 720.45C364.496 720.45 365.336 720.704 366.043 721.21C366.749 721.717 367.103 722.484 367.103 723.51V727.43C367.103 727.897 367.309 728.13 367.723 728.13C367.843 728.13 367.969 728.11 368.103 728.07L368.123 729.43C367.603 729.71 367.063 729.85 366.503 729.85C365.316 729.85 364.656 729.257 364.523 728.07V728.05C364.269 728.504 363.903 728.917 363.423 729.29C362.956 729.664 362.356 729.85 361.623 729.85C360.969 729.85 360.343 729.657 359.743 729.27C359.143 728.884 358.843 728.217 358.843 727.27C358.843 726.164 359.283 725.43 360.163 725.07C361.056 724.71 362.016 724.53 363.043 724.53C363.616 724.53 364.109 724.557 364.523 724.61V724.31C364.523 723.844 364.456 723.39 364.323 722.95C364.203 722.51 363.776 722.29 363.043 722.29C362.776 722.29 362.529 722.31 362.303 722.35C362.089 722.377 361.876 722.444 361.663 722.55L361.323 723.83L359.263 723.61L359.663 721.27ZM364.523 725.97V725.85C364.309 725.824 364.089 725.797 363.863 725.77C363.649 725.744 363.436 725.73 363.223 725.73C362.769 725.73 362.369 725.817 362.023 725.99C361.676 726.15 361.503 726.477 361.503 726.97C361.503 727.264 361.583 727.51 361.743 727.71C361.903 727.91 362.176 728.01 362.563 728.01C363.016 728.01 363.436 727.85 363.823 727.53C364.223 727.197 364.456 726.677 364.523 725.97ZM376.54 726.85C376.407 727.89 376.047 728.65 375.46 729.13C374.873 729.61 374.113 729.85 373.18 729.85C372.18 729.85 371.367 729.604 370.74 729.11C370.127 728.604 369.82 727.884 369.82 726.95V722.47H368.54V720.63H369.82V717.89H372.4V720.63H375.64V722.47H372.4V726.51C372.4 727.297 372.76 727.69 373.48 727.69C373.64 727.69 373.853 727.624 374.12 727.49C374.4 727.344 374.58 726.937 374.66 726.27L376.54 726.85ZM378.129 719.03V716.35H380.709V719.03H378.129ZM382.009 729.65H377.029V727.71H378.229V722.59H376.929V720.63H380.809V727.71H382.009V729.65ZM392.425 725.15C392.425 726.577 391.959 727.717 391.025 728.57C390.092 729.424 388.905 729.85 387.465 729.85C386.079 729.85 384.945 729.45 384.065 728.65C383.199 727.837 382.765 726.704 382.765 725.25C382.765 723.93 383.165 722.797 383.965 721.85C384.765 720.904 385.979 720.43 387.605 720.43C389.232 720.43 390.439 720.904 391.225 721.85C392.025 722.784 392.425 723.884 392.425 725.15ZM389.765 725.07C389.765 724.15 389.552 723.477 389.125 723.05C388.699 722.624 388.179 722.41 387.565 722.41C386.899 722.41 386.372 722.65 385.985 723.13C385.612 723.597 385.425 724.257 385.425 725.11C385.425 725.884 385.599 726.537 385.945 727.07C386.305 727.604 386.839 727.87 387.545 727.87C388.212 727.87 388.745 727.624 389.145 727.13C389.559 726.624 389.765 725.937 389.765 725.07ZM404.454 729.65H399.474V727.71H400.674V724.57C400.674 723.797 400.541 723.244 400.274 722.91C400.021 722.577 399.641 722.41 399.134 722.41C398.521 722.41 398.047 722.604 397.714 722.99C397.381 723.364 397.207 723.857 397.194 724.47V727.71H398.394V729.65H393.414V727.71H394.614V722.59H393.314V720.63H397.194V722.01C397.794 720.97 398.761 720.45 400.094 720.45C400.947 720.45 401.687 720.704 402.314 721.21C402.941 721.717 403.254 722.504 403.254 723.57V727.71H404.454V729.65ZM406.05 721.27C406.836 720.95 407.49 720.737 408.01 720.63C408.543 720.51 409.176 720.45 409.91 720.45C410.883 720.45 411.723 720.704 412.43 721.21C413.136 721.717 413.49 722.484 413.49 723.51V727.43C413.49 727.897 413.696 728.13 414.11 728.13C414.23 728.13 414.356 728.11 414.49 728.07L414.51 729.43C413.99 729.71 413.45 729.85 412.89 729.85C411.703 729.85 411.043 729.257 410.91 728.07V728.05C410.656 728.504 410.29 728.917 409.81 729.29C409.343 729.664 408.743 729.85 408.01 729.85C407.356 729.85 406.73 729.657 406.13 729.27C405.53 728.884 405.23 728.217 405.23 727.27C405.23 726.164 405.67 725.43 406.55 725.07C407.443 724.71 408.403 724.53 409.43 724.53C410.003 724.53 410.496 724.557 410.91 724.61V724.31C410.91 723.844 410.843 723.39 410.71 722.95C410.59 722.51 410.163 722.29 409.43 722.29C409.163 722.29 408.916 722.31 408.69 722.35C408.476 722.377 408.263 722.444 408.05 722.55L407.71 723.83L405.65 723.61L406.05 721.27ZM410.91 725.97V725.85C410.696 725.824 410.476 725.797 410.25 725.77C410.036 725.744 409.823 725.73 409.61 725.73C409.156 725.73 408.756 725.817 408.41 725.99C408.063 726.15 407.89 726.477 407.89 726.97C407.89 727.264 407.97 727.51 408.13 727.71C408.29 727.91 408.563 728.01 408.95 728.01C409.403 728.01 409.823 727.85 410.21 727.53C410.61 727.197 410.843 726.677 410.91 725.97ZM420.147 729.65H415.167V727.71H416.367V717.85H415.067V715.89H418.947V727.71H420.147V729.65ZM435.06 729.65H425.02V727.37H426.42V718.93H425.02V716.65H434.94L435.34 720.45L433.06 720.65L432.66 718.93H429.1V721.99H434.58V724.25H429.1V727.37H432.78L433.18 725.65L435.46 725.85L435.06 729.65ZM447.716 729.65H442.736V727.71H443.936V724.57C443.936 723.797 443.802 723.244 443.536 722.91C443.282 722.577 442.902 722.41 442.396 722.41C441.782 722.41 441.309 722.604 440.976 722.99C440.642 723.364 440.469 723.857 440.456 724.47V727.71H441.656V729.65H436.676V727.71H437.876V722.59H436.576V720.63H440.456V722.01C441.056 720.97 442.022 720.45 443.356 720.45C444.209 720.45 444.949 720.704 445.576 721.21C446.202 721.717 446.516 722.504 446.516 723.57V727.71H447.716V729.65ZM457.902 722.57H456.982L453.762 729.65H451.902L448.502 722.57H447.542V720.63H452.142V722.57H451.282L453.042 726.35H453.162L454.502 722.57H453.782V720.63H457.902V722.57ZM459.789 719.03V716.35H462.369V719.03H459.789ZM463.669 729.65H458.689V727.71H459.889V722.59H458.589V720.63H462.469V727.71H463.669V729.65ZM470.305 720.51C470.559 720.51 470.839 720.55 471.145 720.63C471.465 720.697 471.779 720.824 472.085 721.01L472.485 724.17L470.525 724.39L470.185 722.85C469.919 722.69 469.685 722.61 469.485 722.61C469.192 722.61 468.932 722.724 468.705 722.95C468.492 723.177 468.385 723.51 468.385 723.95V727.71H469.985V729.65H464.605V727.71H465.805V722.59H464.505V720.63H468.185V722.35C468.332 721.83 468.565 721.397 468.885 721.05C469.219 720.69 469.692 720.51 470.305 720.51ZM482.914 725.15C482.914 726.577 482.447 727.717 481.514 728.57C480.58 729.424 479.394 729.85 477.954 729.85C476.567 729.85 475.434 729.45 474.554 728.65C473.687 727.837 473.254 726.704 473.254 725.25C473.254 723.93 473.654 722.797 474.454 721.85C475.254 720.904 476.467 720.43 478.094 720.43C479.72 720.43 480.927 720.904 481.714 721.85C482.514 722.784 482.914 723.884 482.914 725.15ZM480.254 725.07C480.254 724.15 480.04 723.477 479.614 723.05C479.187 722.624 478.667 722.41 478.054 722.41C477.387 722.41 476.86 722.65 476.474 723.13C476.1 723.597 475.914 724.257 475.914 725.11C475.914 725.884 476.087 726.537 476.434 727.07C476.794 727.604 477.327 727.87 478.034 727.87C478.7 727.87 479.234 727.624 479.634 727.13C480.047 726.624 480.254 725.937 480.254 725.07ZM494.942 729.65H489.962V727.71H491.162V724.57C491.162 723.797 491.029 723.244 490.762 722.91C490.509 722.577 490.129 722.41 489.622 722.41C489.009 722.41 488.536 722.604 488.202 722.99C487.869 723.364 487.696 723.857 487.682 724.47V727.71H488.882V729.65H483.902V727.71H485.102V722.59H483.802V720.63H487.682V722.01C488.282 720.97 489.249 720.45 490.582 720.45C491.436 720.45 492.176 720.704 492.802 721.21C493.429 721.717 493.742 722.504 493.742 723.57V727.71H494.942V729.65ZM512.458 729.65H508.678V724.57C508.678 723.797 508.544 723.244 508.278 722.91C508.024 722.577 507.644 722.41 507.138 722.41C506.524 722.41 506.078 722.61 505.798 723.01C505.531 723.41 505.398 723.924 505.398 724.55V727.71H506.598V729.65H502.818V724.57C502.818 723.797 502.684 723.244 502.418 722.91C502.164 722.577 501.784 722.41 501.278 722.41C500.651 722.41 500.204 722.61 499.938 723.01C499.671 723.41 499.538 723.924 499.538 724.55V727.71H501.258V729.65H495.758V727.71H496.958V722.59H495.778V720.63H499.538V721.99C500.111 720.964 501.024 720.45 502.278 720.45C502.931 720.45 503.531 720.61 504.078 720.93C504.624 721.25 505.004 721.737 505.218 722.39C505.751 721.097 506.731 720.45 508.158 720.45C508.971 720.45 509.691 720.704 510.318 721.21C510.944 721.717 511.258 722.504 511.258 723.57V727.71H512.458V729.65ZM521.957 726.81C521.891 727.61 521.497 728.317 520.777 728.93C520.057 729.544 519.051 729.85 517.757 729.85C516.411 729.85 515.297 729.47 514.417 728.71C513.551 727.95 513.117 726.817 513.117 725.31C513.117 723.924 513.511 722.77 514.297 721.85C515.097 720.917 516.211 720.45 517.637 720.45C518.891 720.45 519.904 720.81 520.677 721.53C521.464 722.25 521.864 723.197 521.877 724.37C521.877 724.81 521.831 725.244 521.737 725.67H515.817C515.964 727.097 516.671 727.81 517.937 727.81C518.631 727.81 519.097 727.644 519.337 727.31C519.591 726.977 519.744 726.677 519.797 726.41L521.957 726.81ZM519.217 724.17C519.271 723.717 519.171 723.29 518.917 722.89C518.677 722.49 518.251 722.29 517.637 722.29C517.104 722.29 516.691 722.464 516.397 722.81C516.104 723.157 515.917 723.61 515.837 724.17H519.217ZM533.985 729.65H529.005V727.71H530.205V724.57C530.205 723.797 530.072 723.244 529.805 722.91C529.552 722.577 529.172 722.41 528.665 722.41C528.052 722.41 527.579 722.604 527.245 722.99C526.912 723.364 526.739 723.857 526.725 724.47V727.71H527.925V729.65H522.945V727.71H524.145V722.59H522.845V720.63H526.725V722.01C527.325 720.97 528.292 720.45 529.625 720.45C530.479 720.45 531.219 720.704 531.845 721.21C532.472 721.717 532.785 722.504 532.785 723.57V727.71H533.985V729.65ZM542.341 726.85C542.207 727.89 541.847 728.65 541.261 729.13C540.674 729.61 539.914 729.85 538.981 729.85C537.981 729.85 537.167 729.604 536.541 729.11C535.927 728.604 535.621 727.884 535.621 726.95V722.47H534.341V720.63H535.621V717.89H538.201V720.63H541.441V722.47H538.201V726.51C538.201 727.297 538.561 727.69 539.281 727.69C539.441 727.69 539.654 727.624 539.921 727.49C540.201 727.344 540.381 726.937 540.461 726.27L542.341 726.85Z" fill="#10476A"/>
<path d="M297.866 465.244C298.333 465.671 298.713 466.358 299.006 467.304C299.299 468.238 299.446 469.171 299.446 470.104C299.446 471.958 298.853 473.511 297.666 474.764C296.466 476.018 294.899 476.644 292.966 476.644C291.953 476.644 290.913 476.431 289.846 476.004C288.779 475.578 287.879 474.878 287.146 473.904C286.413 472.931 286.046 471.624 286.046 469.984C286.046 468.878 286.213 467.924 286.546 467.124C286.866 466.324 287.219 465.718 287.606 465.304L290.626 464.984L290.826 467.164L289.106 467.444C288.879 467.791 288.706 468.211 288.586 468.704C288.466 469.198 288.406 469.664 288.406 470.104C288.406 471.224 288.779 472.118 289.526 472.784C290.273 473.438 291.359 473.764 292.786 473.764C294.293 473.764 295.386 473.404 296.066 472.684C296.746 471.964 297.086 471.044 297.086 469.924C297.086 468.871 296.906 468.044 296.546 467.444L294.606 467.164L294.806 464.984L297.866 465.244ZM294.746 454.193C296.173 454.193 297.313 454.66 298.166 455.593C299.019 456.526 299.446 457.713 299.446 459.153C299.446 460.54 299.046 461.673 298.246 462.553C297.433 463.42 296.299 463.853 294.846 463.853C293.526 463.853 292.393 463.453 291.446 462.653C290.499 461.853 290.026 460.64 290.026 459.013C290.026 457.386 290.499 456.18 291.446 455.393C292.379 454.593 293.479 454.193 294.746 454.193ZM294.666 456.853C293.746 456.853 293.073 457.066 292.646 457.493C292.219 457.92 292.006 458.44 292.006 459.053C292.006 459.72 292.246 460.246 292.726 460.633C293.193 461.006 293.853 461.193 294.706 461.193C295.479 461.193 296.133 461.02 296.666 460.673C297.199 460.313 297.466 459.78 297.466 459.073C297.466 458.406 297.219 457.873 296.726 457.473C296.219 457.06 295.533 456.853 294.666 456.853ZM299.246 436.504L299.246 440.284L294.166 440.284C293.393 440.284 292.839 440.418 292.506 440.684C292.173 440.938 292.006 441.318 292.006 441.824C292.006 442.438 292.206 442.884 292.606 443.164C293.006 443.431 293.519 443.564 294.146 443.564L297.306 443.564L297.306 442.364L299.246 442.364L299.246 446.144L294.166 446.144C293.393 446.144 292.839 446.278 292.506 446.544C292.173 446.798 292.006 447.178 292.006 447.684C292.006 448.311 292.206 448.758 292.606 449.024C293.006 449.291 293.519 449.424 294.146 449.424L297.306 449.424L297.306 447.704L299.246 447.704L299.246 453.204L297.306 453.204L297.306 452.004L292.186 452.004L292.186 453.184L290.226 453.184L290.226 449.424L291.586 449.424C290.559 448.851 290.046 447.938 290.046 446.684C290.046 446.031 290.206 445.431 290.526 444.884C290.846 444.338 291.333 443.958 291.986 443.744C290.693 443.211 290.046 442.231 290.046 440.804C290.046 439.991 290.299 439.271 290.806 438.644C291.313 438.018 292.099 437.704 293.166 437.704L297.306 437.704L297.306 436.504L299.246 436.504ZM294.526 425.285C295.859 425.285 297.013 425.638 297.986 426.345C298.959 427.038 299.446 428.065 299.446 429.425C299.446 430.691 298.999 431.611 298.106 432.185L301.506 432.185L301.506 430.585L303.506 430.585L303.506 435.965L301.506 435.965L301.506 434.765L292.166 434.765L292.166 436.065L290.226 436.065L290.226 432.185L291.946 432.185C291.426 431.945 290.979 431.585 290.606 431.105C290.233 430.625 290.046 429.971 290.046 429.145C290.046 427.998 290.439 427.071 291.226 426.365C292.013 425.645 293.113 425.285 294.526 425.285ZM294.786 427.965C293.906 427.965 293.239 428.165 292.786 428.565C292.319 428.951 292.086 429.451 292.086 430.065C292.086 430.731 292.333 431.245 292.826 431.605C293.319 431.951 293.946 432.138 294.706 432.165L295.026 432.185C295.759 432.185 296.339 431.991 296.766 431.605C297.193 431.218 297.406 430.705 297.406 430.065C297.406 429.451 297.193 428.951 296.766 428.565C296.339 428.165 295.679 427.965 294.786 427.965ZM296.406 415.579C297.206 415.646 297.913 416.039 298.526 416.759C299.139 417.479 299.446 418.486 299.446 419.779C299.446 421.126 299.066 422.239 298.306 423.119C297.546 423.986 296.413 424.419 294.906 424.419C293.519 424.419 292.366 424.026 291.446 423.239C290.513 422.439 290.046 421.326 290.046 419.899C290.046 418.646 290.406 417.632 291.126 416.859C291.846 416.072 292.793 415.672 293.966 415.659C294.406 415.659 294.839 415.706 295.266 415.799L295.266 421.719C296.693 421.572 297.406 420.866 297.406 419.599C297.406 418.906 297.239 418.439 296.906 418.199C296.573 417.946 296.273 417.792 296.006 417.739L296.406 415.579ZM293.766 418.319C293.313 418.266 292.886 418.366 292.486 418.619C292.086 418.859 291.886 419.286 291.886 419.899C291.886 420.432 292.059 420.846 292.406 421.139C292.753 421.432 293.206 421.619 293.766 421.699L293.766 418.319ZM296.446 407.051C297.486 407.184 298.246 407.544 298.726 408.131C299.206 408.718 299.446 409.478 299.446 410.411C299.446 411.411 299.199 412.224 298.706 412.851C298.199 413.464 297.479 413.771 296.546 413.771L292.066 413.771L292.066 415.051L290.226 415.051L290.226 413.771L287.486 413.771L287.486 411.191L290.226 411.191L290.226 407.951L292.066 407.951L292.066 411.191L296.106 411.191C296.893 411.191 297.286 410.831 297.286 410.111C297.286 409.951 297.219 409.738 297.086 409.471C296.939 409.191 296.533 409.011 295.866 408.931L296.446 407.051ZM296.406 397.942C297.206 398.009 297.913 398.402 298.526 399.122C299.139 399.842 299.446 400.849 299.446 402.142C299.446 403.489 299.066 404.602 298.306 405.482C297.546 406.349 296.413 406.782 294.906 406.782C293.519 406.782 292.366 406.389 291.446 405.602C290.513 404.802 290.046 403.689 290.046 402.262C290.046 401.009 290.406 399.996 291.126 399.222C291.846 398.436 292.793 398.036 293.966 398.022C294.406 398.022 294.839 398.069 295.266 398.162L295.266 404.082C296.693 403.936 297.406 403.229 297.406 401.962C297.406 401.269 297.239 400.802 296.906 400.562C296.573 400.309 296.273 400.156 296.006 400.102L296.406 397.942ZM293.766 400.682C293.313 400.629 292.886 400.729 292.486 400.982C292.086 401.222 291.886 401.649 291.886 402.262C291.886 402.796 292.059 403.209 292.406 403.502C292.753 403.796 293.206 403.982 293.766 404.062L293.766 400.682Z" fill="#FF4F4F"/>
<path d="M446.599 462.5C447.065 462.927 447.445 463.613 447.739 464.56C448.032 465.493 448.179 466.427 448.179 467.36C448.179 469.213 447.585 470.767 446.399 472.02C445.199 473.273 443.632 473.9 441.699 473.9C440.685 473.9 439.645 473.687 438.579 473.26C437.512 472.833 436.612 472.133 435.879 471.16C435.145 470.187 434.779 468.88 434.779 467.24C434.779 466.133 434.945 465.18 435.279 464.38C435.599 463.58 435.952 462.973 436.339 462.56L439.359 462.24L439.559 464.42L437.839 464.7C437.612 465.047 437.439 465.467 437.319 465.96C437.199 466.453 437.139 466.92 437.139 467.36C437.139 468.48 437.512 469.373 438.259 470.04C439.005 470.693 440.092 471.02 441.519 471.02C443.025 471.02 444.119 470.66 444.799 469.94C445.479 469.22 445.819 468.3 445.819 467.18C445.819 466.127 445.639 465.3 445.279 464.7L443.339 464.42L443.539 462.24L446.599 462.5ZM443.479 451.449C444.905 451.449 446.045 451.916 446.899 452.849C447.752 453.782 448.179 454.969 448.179 456.409C448.179 457.796 447.779 458.929 446.979 459.809C446.165 460.676 445.032 461.109 443.579 461.109C442.259 461.109 441.125 460.709 440.179 459.909C439.232 459.109 438.759 457.896 438.759 456.269C438.759 454.642 439.232 453.436 440.179 452.649C441.112 451.849 442.212 451.449 443.479 451.449ZM443.399 454.109C442.479 454.109 441.805 454.322 441.379 454.749C440.952 455.176 440.739 455.696 440.739 456.309C440.739 456.976 440.979 457.502 441.459 457.889C441.925 458.262 442.585 458.449 443.439 458.449C444.212 458.449 444.865 458.276 445.399 457.929C445.932 457.569 446.199 457.036 446.199 456.329C446.199 455.662 445.952 455.129 445.459 454.729C444.952 454.316 444.265 454.109 443.399 454.109ZM447.979 439.42L447.979 444.4L446.039 444.4L446.039 443.2L442.899 443.2C442.125 443.2 441.572 443.334 441.239 443.6C440.905 443.854 440.739 444.234 440.739 444.74C440.739 445.354 440.932 445.827 441.319 446.16C441.692 446.494 442.185 446.667 442.799 446.68L446.039 446.68L446.039 445.48L447.979 445.48L447.979 450.46L446.039 450.46L446.039 449.26L440.919 449.26L440.919 450.56L438.959 450.56L438.959 446.68L440.339 446.68C439.299 446.08 438.779 445.114 438.779 443.78C438.779 442.927 439.032 442.187 439.539 441.56C440.045 440.934 440.832 440.62 441.899 440.62L446.039 440.62L446.039 439.42L447.979 439.42ZM447.979 427.565L447.979 432.545L446.039 432.545L446.039 431.345L442.899 431.345C442.125 431.345 441.572 431.478 441.239 431.745C440.905 431.998 440.739 432.378 440.739 432.885C440.739 433.498 440.932 433.971 441.319 434.305C441.692 434.638 442.185 434.811 442.799 434.825L446.039 434.825L446.039 433.625L447.979 433.625L447.979 438.605L446.039 438.605L446.039 437.405L440.919 437.405L440.919 438.705L438.959 438.705L438.959 434.825L440.339 434.825C439.299 434.225 438.779 433.258 438.779 431.925C438.779 431.071 439.032 430.331 439.539 429.705C440.045 429.078 440.832 428.765 441.899 428.765L446.039 428.765L446.039 427.565L447.979 427.565ZM445.139 418.069C445.939 418.136 446.645 418.529 447.259 419.249C447.872 419.969 448.179 420.976 448.179 422.269C448.179 423.616 447.799 424.729 447.039 425.609C446.279 426.476 445.145 426.909 443.639 426.909C442.252 426.909 441.099 426.516 440.179 425.729C439.245 424.929 438.779 423.816 438.779 422.389C438.779 421.136 439.139 420.123 439.859 419.349C440.579 418.563 441.525 418.163 442.699 418.149C443.139 418.149 443.572 418.196 443.999 418.289L443.999 424.209C445.425 424.063 446.139 423.356 446.139 422.089C446.139 421.396 445.972 420.929 445.639 420.689C445.305 420.436 445.005 420.283 444.739 420.229L445.139 418.069ZM442.499 420.809C442.045 420.756 441.619 420.856 441.219 421.109C440.819 421.349 440.619 421.776 440.619 422.389C440.619 422.923 440.792 423.336 441.139 423.629C441.485 423.923 441.939 424.109 442.499 424.189L442.499 420.809ZM444.619 408.561C445.445 408.655 446.245 409.015 447.019 409.641C447.792 410.255 448.179 411.288 448.179 412.741C448.179 414.048 447.799 415.128 447.039 415.981C446.279 416.821 445.139 417.241 443.619 417.241C442.019 417.241 440.812 416.781 439.999 415.861C439.185 414.941 438.779 413.828 438.779 412.521C438.779 412.028 438.845 411.501 438.979 410.941C439.099 410.368 439.305 409.808 439.599 409.261L442.339 408.861L442.559 410.921L441.079 411.221C440.905 411.741 440.819 412.195 440.819 412.581C440.819 413.128 441.032 413.595 441.459 413.981C441.872 414.368 442.552 414.561 443.499 414.561C445.259 414.561 446.139 413.875 446.139 412.501C446.139 411.488 445.499 410.895 444.219 410.721L444.619 408.561ZM445.179 400.127C446.219 400.261 446.979 400.621 447.459 401.207C447.939 401.794 448.179 402.554 448.179 403.487C448.179 404.487 447.932 405.301 447.439 405.927C446.932 406.541 446.212 406.847 445.279 406.847L440.799 406.847L440.799 408.127L438.959 408.127L438.959 406.847L436.219 406.847L436.219 404.267L438.959 404.267L438.959 401.027L440.799 401.027L440.799 404.267L444.839 404.267C445.625 404.267 446.019 403.907 446.019 403.187C446.019 403.027 445.952 402.814 445.819 402.547C445.672 402.267 445.265 402.087 444.599 402.007L445.179 400.127Z" fill="#44CA7A"/>
<path d="M595.331 459.199C595.798 459.626 596.178 460.313 596.471 461.259C596.764 462.193 596.911 463.126 596.911 464.059C596.911 465.913 596.318 467.466 595.131 468.719C593.931 469.973 592.364 470.599 590.431 470.599C589.418 470.599 588.378 470.386 587.311 469.959C586.244 469.533 585.344 468.833 584.611 467.859C583.878 466.886 583.511 465.579 583.511 463.939C583.511 462.833 583.678 461.879 584.011 461.079C584.331 460.279 584.684 459.673 585.071 459.259L588.091 458.939L588.291 461.119L586.571 461.399C586.344 461.746 586.171 462.166 586.051 462.659C585.931 463.153 585.871 463.619 585.871 464.059C585.871 465.179 586.244 466.073 586.991 466.739C587.738 467.393 588.824 467.719 590.251 467.719C591.758 467.719 592.851 467.359 593.531 466.639C594.211 465.919 594.551 464.999 594.551 463.879C594.551 462.826 594.371 461.999 594.011 461.399L592.071 461.119L592.271 458.939L595.331 459.199ZM596.711 446.848L596.711 451.828L594.771 451.828L594.771 450.628L591.631 450.628C590.858 450.628 590.304 450.768 589.971 451.048C589.638 451.315 589.471 451.701 589.471 452.208C589.471 452.795 589.651 453.255 590.011 453.588C590.371 453.908 590.844 454.081 591.431 454.108L594.771 454.108L594.771 452.908L596.711 452.908L596.711 457.888L594.771 457.888L594.771 456.688L584.911 456.688L584.911 457.888L582.951 457.888L582.951 454.108L589.071 454.108C588.031 453.508 587.511 452.541 587.511 451.208C587.511 450.355 587.764 449.615 588.271 448.988C588.778 448.361 589.564 448.048 590.631 448.048L594.771 448.048L594.771 446.848L596.711 446.848ZM588.331 445.227C588.011 444.44 587.798 443.787 587.691 443.267C587.571 442.734 587.511 442.1 587.511 441.367C587.511 440.394 587.764 439.554 588.271 438.847C588.778 438.14 589.544 437.787 590.571 437.787L594.491 437.787C594.958 437.787 595.191 437.58 595.191 437.167C595.191 437.047 595.171 436.92 595.131 436.787L596.491 436.767C596.771 437.287 596.911 437.827 596.911 438.387C596.911 439.574 596.318 440.234 595.131 440.367L595.111 440.367C595.564 440.62 595.978 440.987 596.351 441.467C596.724 441.934 596.911 442.534 596.911 443.267C596.911 443.92 596.718 444.547 596.331 445.147C595.944 445.747 595.278 446.047 594.331 446.047C593.224 446.047 592.491 445.607 592.131 444.727C591.771 443.834 591.591 442.874 591.591 441.847C591.591 441.274 591.618 440.78 591.671 440.367L591.371 440.367C590.904 440.367 590.451 440.434 590.011 440.567C589.571 440.687 589.351 441.114 589.351 441.847C589.351 442.114 589.371 442.36 589.411 442.587C589.438 442.8 589.504 443.014 589.611 443.227L590.891 443.567L590.671 445.627L588.331 445.227ZM593.031 440.367L592.911 440.367C592.884 440.58 592.858 440.8 592.831 441.027C592.804 441.24 592.791 441.454 592.791 441.667C592.791 442.12 592.878 442.52 593.051 442.867C593.211 443.214 593.538 443.387 594.031 443.387C594.324 443.387 594.571 443.307 594.771 443.147C594.971 442.987 595.071 442.714 595.071 442.327C595.071 441.874 594.911 441.454 594.591 441.067C594.258 440.667 593.738 440.434 593.031 440.367ZM596.711 424.85L596.711 429.83L594.771 429.83L594.771 428.63L591.631 428.63C590.858 428.63 590.304 428.763 589.971 429.03C589.638 429.283 589.471 429.663 589.471 430.17C589.471 430.783 589.664 431.257 590.051 431.59C590.424 431.923 590.918 432.097 591.531 432.11L594.771 432.11L594.771 430.91L596.711 430.91L596.711 435.89L594.771 435.89L594.771 434.69L589.651 434.69L589.651 435.99L587.691 435.99L587.691 432.11L589.071 432.11C588.031 431.51 587.511 430.543 587.511 429.21C587.511 428.357 587.764 427.617 588.271 426.99C588.778 426.363 589.564 426.05 590.631 426.05L594.771 426.05L594.771 424.85L596.711 424.85ZM589.651 413.514L589.651 414.714L596.251 414.714C597.691 414.714 598.864 415.121 599.771 415.934C600.691 416.748 601.151 418.001 601.151 419.694C601.151 420.628 600.958 421.521 600.571 422.374C600.198 423.228 599.491 423.848 598.451 424.234L597.331 422.254C598.518 421.614 599.111 420.754 599.111 419.674C599.111 418.981 598.858 418.414 598.351 417.974C597.858 417.521 597.158 417.294 596.251 417.294L595.071 417.294C595.524 417.534 595.911 417.888 596.231 418.354C596.551 418.821 596.711 419.454 596.711 420.254C596.711 421.308 596.344 422.228 595.611 423.014C594.878 423.801 593.798 424.194 592.371 424.194C591.024 424.194 589.878 423.834 588.931 423.114C587.984 422.394 587.511 421.401 587.511 420.134C587.511 419.428 587.658 418.841 587.951 418.374C588.244 417.908 588.624 417.548 589.091 417.294L587.691 417.294L587.691 413.514L589.651 413.514ZM592.151 417.294L591.931 417.294C591.184 417.294 590.604 417.488 590.191 417.874C589.764 418.248 589.551 418.728 589.551 419.314C589.551 419.888 589.764 420.368 590.191 420.754C590.618 421.128 591.291 421.314 592.211 421.314C593.078 421.314 593.704 421.148 594.091 420.814C594.478 420.468 594.671 420.021 594.671 419.474C594.671 418.768 594.418 418.228 593.911 417.854C593.404 417.481 592.818 417.294 592.151 417.294ZM593.871 403.987C594.671 404.054 595.378 404.447 595.991 405.167C596.604 405.887 596.911 406.894 596.911 408.187C596.911 409.534 596.531 410.647 595.771 411.527C595.011 412.394 593.878 412.827 592.371 412.827C590.984 412.827 589.831 412.434 588.911 411.647C587.978 410.847 587.511 409.734 587.511 408.307C587.511 407.054 587.871 406.041 588.591 405.267C589.311 404.481 590.258 404.081 591.431 404.067C591.871 404.067 592.304 404.114 592.731 404.207L592.731 410.127C594.158 409.981 594.871 409.274 594.871 408.007C594.871 407.314 594.704 406.847 594.371 406.607C594.038 406.354 593.738 406.201 593.471 406.147L593.871 403.987ZM591.231 406.727C590.778 406.674 590.351 406.774 589.951 407.027C589.551 407.267 589.351 407.694 589.351 408.307C589.351 408.841 589.524 409.254 589.871 409.547C590.218 409.841 590.671 410.027 591.231 410.107L591.231 406.727Z" fill="#BB85FF"/>
<path d="M214.229 252.678C214.229 245.599 218.164 239.107 224.44 235.832L431.488 127.807C436.995 124.934 443.559 124.934 449.066 127.807L656.114 235.832C662.39 239.107 666.326 245.599 666.326 252.678V302.16C666.326 312.653 657.819 321.16 647.326 321.16H233.229C222.735 321.16 214.229 312.653 214.229 302.16V252.678Z" stroke="#AED1F3" stroke-width="2"/>
<path d="M247.451 241.126L431.027 145.347C436.823 142.323 443.733 142.323 449.529 145.347L633.105 241.126" stroke="#AED1F3" stroke-linecap="round"/>
<rect x="256.35" y="329.74" width="71.7085" height="9.84601" rx="4.92301" stroke="#AED1F3" stroke-width="2"/>
<rect x="256.35" y="535.071" width="71.7085" height="9.84601" rx="4.92301" stroke="#AED1F3" stroke-width="2"/>
<path d="M243.186 554.472C243.186 551.753 245.39 549.549 248.109 549.549H336.296C339.014 549.549 341.219 551.753 341.219 554.472C341.219 557.191 339.014 559.395 336.296 559.395H248.109C245.39 559.395 243.186 557.191 243.186 554.472Z" stroke="#AED1F3" stroke-width="2"/>
<rect x="405.082" y="535.071" width="71.7085" height="9.84601" rx="4.92301" stroke="#AED1F3" stroke-width="2"/>
<path d="M391.92 554.472C391.92 551.753 394.124 549.549 396.843 549.549H485.03C487.749 549.549 489.953 551.753 489.953 554.472C489.953 557.191 487.749 559.395 485.03 559.395H396.843C394.124 559.395 391.92 557.191 391.92 554.472Z" stroke="#AED1F3" stroke-width="2"/>
<rect x="553.814" y="535.071" width="71.7085" height="9.84601" rx="4.92301" stroke="#AED1F3" stroke-width="2"/>
<path d="M540.652 554.472C540.652 551.753 542.856 549.549 545.575 549.549H633.762C636.481 549.549 638.685 551.753 638.685 554.472C638.685 557.191 636.481 559.395 633.762 559.395H545.575C542.856 559.395 540.652 557.191 540.652 554.472Z" stroke="#AED1F3" stroke-width="2"/>
<rect x="405.082" y="329.74" width="71.7085" height="9.84601" rx="4.92301" stroke="#AED1F3" stroke-width="2"/>
<rect x="553.814" y="329.74" width="71.7085" height="9.84601" rx="4.92301" stroke="#AED1F3" stroke-width="2"/>
<path d="M209.28 383.829C209.28 417.203 182.173 444.258 148.734 444.258C115.295 444.258 88.1875 417.203 88.1875 383.829C88.1875 350.455 148.734 250.153 148.734 250.153C148.734 250.153 209.28 350.455 209.28 383.829Z" stroke="#AED1F3" stroke-width="2"/>
<path d="M149.625 480.762V318.712" stroke="#AED1F3" stroke-width="2"/>
<path d="M163.869 336.521L149.623 350.767L121.131 322.274" stroke="#AED1F3" stroke-width="2"/>
<path d="M163.871 305.358L149.625 319.605L135.379 305.358" stroke="#AED1F3" stroke-width="2"/>
<path d="M122.021 381.931L148.733 408.642L193.252 364.123" stroke="#AED1F3" stroke-width="2"/>
<path d="M179.008 352.548V378.369" stroke="#AED1F3" stroke-width="2"/>
<path d="M122.021 357.891V383.712" stroke="#AED1F3" stroke-width="2"/>
<path d="M122.02 381.931H101.541" stroke="#AED1F3" stroke-width="2"/>
<path d="M199.486 394.396H162.98" stroke="#AED1F3" stroke-width="2"/>
<path d="M113.196 498.029C113.196 515.649 98.885 529.932 81.231 529.932C63.577 529.932 49.2656 515.649 49.2656 498.029C49.2656 480.409 81.231 427.455 81.231 427.455C81.231 427.455 113.196 480.409 113.196 498.029Z" stroke="#AED1F3" stroke-width="2"/>
<path d="M81.7012 575.531V463.652" stroke="#AED1F3" stroke-width="2"/>
<path d="M89.224 473.054L81.7027 480.576L66.6602 465.533" stroke="#AED1F3" stroke-width="2"/>
<path d="M89.2222 456.601L81.701 464.122L74.1797 456.601" stroke="#AED1F3" stroke-width="2"/>
<path d="M67.1289 497.027L81.2313 511.129L104.735 487.625" stroke="#AED1F3" stroke-width="2"/>
<path d="M97.2129 481.515V495.147" stroke="#AED1F3" stroke-width="2"/>
<path d="M67.1289 484.335V497.967" stroke="#AED1F3" stroke-width="2"/>
<path d="M67.1282 497.026H56.3164" stroke="#AED1F3" stroke-width="2"/>
<path d="M108.025 503.609H88.752" stroke="#AED1F3" stroke-width="2"/>
<path d="M726.058 418.997C726.058 440.263 708.785 457.502 687.478 457.502C666.171 457.502 648.898 440.263 648.898 418.997C648.898 397.732 687.478 333.82 687.478 333.82C687.478 333.82 726.058 397.732 726.058 418.997Z" stroke="#AED1F3" stroke-width="2"/>
<path d="M688.045 480.763V458.642M688.045 377.506V429.134V451.913" stroke="#AED1F3" stroke-width="2"/>
<path d="M668.336 382.635L688.298 401.042L706.453 382.887" stroke="#AED1F3" stroke-width="2"/>
<path d="M697.122 369.585L688.044 378.663L678.967 369.585" stroke="#AED1F3" stroke-width="2"/>
<path d="M704.961 424.007L687.941 441.028L659.573 412.66" stroke="#AED1F3" stroke-width="2"/>
<path d="M703.656 403.731V424.849" stroke="#AED1F3" stroke-width="2"/>
<path d="M672.225 408.458V424.911" stroke="#AED1F3" stroke-width="2"/>
<path d="M707.748 433.576H694.762" stroke="#AED1F3" stroke-width="2"/>
<path d="M717.493 425.562H703.322" stroke="#AED1F3" stroke-width="2"/>
<path d="M764.725 439.303L759.46 444.568L754.195 439.303" stroke="#AED1F3" stroke-width="2"/>
<path d="M769.991 445.885L759.461 456.415L748.932 445.885" stroke="#AED1F3" stroke-width="2"/>
<path d="M759.461 436.668V493.924" stroke="#AED1F3" stroke-width="2"/>
<path d="M762.094 187.902H637.053" stroke="#AED1F3"/>
<path d="M796.316 187.903C833.39 187.903 863.444 157.554 863.444 120.118C863.444 82.6806 833.39 52.332 796.316 52.332" stroke="#AED1F3"/>
<path d="M629.155 187.904C601.532 187.904 579.139 165.216 579.139 137.229C579.139 109.242 601.532 86.5547 629.155 86.5547" stroke="#AED1F3"/>
<path d="M802.896 94.4519C802.896 42.8398 761.155 1 709.665 1C662.527 1 623.56 36.0649 617.309 81.5915" stroke="#AED1F3"/>
<path d="M618.628 164.212C618.628 150.479 614.751 137.639 608.018 126.699C595.148 105.789 571.844 91.8193 545.232 91.8193C518.621 91.8193 495.317 105.789 482.447 126.699" stroke="#AED1F3"/>
<path d="M698.914 122.092C698.914 110.759 702.493 100.242 708.607 91.5592C718.572 77.4071 735.274 68.127 754.195 68.127" stroke="#AED1F3"/>
<path d="M648.898 95.7664C648.898 91.0674 650.347 86.7067 652.822 83.1064C656.855 77.2385 663.615 73.3906 671.274 73.3906" stroke="#AED1F3"/>
<circle cx="523" cy="40.9316" r="27.5" stroke="#FF1376" stroke-opacity="0.2"/>
<path d="M107.93 276.091H125.863M204.672 276.091H172.26" stroke="#AED1F3"/>
<path d="M228.365 172.109C248.281 172.109 265.581 183.307 274.313 199.75" stroke="#AED1F3"/>
<path d="M139.52 237.261C139.52 215.817 122.136 198.433 100.692 198.433C79.2474 198.433 61.8633 215.817 61.8633 237.261C61.8633 258.706 79.2474 276.09 100.692 276.09" stroke="#AED1F3"/>
<path d="M234.289 204.355C234.289 164.738 202.172 132.621 162.555 132.621C127.897 132.621 98.9793 157.199 92.2821 189.877C91.3237 194.553 90.8203 199.395 90.8203 204.355" stroke="#AED1F3"/>
<path d="M743.352 435.353C743.352 426.455 750.565 419.242 759.462 419.242C768.36 419.242 775.573 426.455 775.573 435.353V451.148C775.573 460.046 768.36 467.259 759.462 467.259C750.565 467.259 743.352 460.046 743.352 451.148V435.353Z" stroke="#AED1F3" stroke-width="2"/>
</svg>
