<svg width="1233" height="867" viewBox="0 0 1233 867" fill="none" xmlns="http://www.w3.org/2000/svg">
<rect x="-10.033" y="-42.4517" width="195.937" height="342.89" transform="rotate(-45 -10.033 -42.4517)" fill="#68A6FF" fill-opacity="0.05"/>
<rect x="501.2" y="420.444" width="195.937" height="647.436" transform="rotate(-45 501.2 420.444)" fill="#68A6FF" fill-opacity="0.05"/>
<rect width="195.937" height="342.89" transform="matrix(-0.707107 -0.707107 -0.707107 0.707107 998.162 31.0239)" fill="#68A6FF" fill-opacity="0.05"/>
<rect width="195.937" height="634.72" transform="matrix(-0.707107 -0.707107 -0.707107 0.707107 308.363 373.914)" fill="#68A6FF" fill-opacity="0.05"/>
<rect width="195.937" height="489.842" transform="matrix(-0.707107 -0.707107 -0.707107 0.707107 430.821 618.834)" fill="#68A6FF" fill-opacity="0.05"/>
<rect width="195.937" height="269.413" transform="matrix(-0.707107 -0.707107 -0.707107 0.707107 1232.86 251.452)" fill="#68A6FF" fill-opacity="0.05"/>
<rect x="-156.99" y="177.977" width="195.937" height="220.429" transform="rotate(-45 -156.99 177.977)" fill="#68A6FF" fill-opacity="0.05"/>
<rect x="501.2" y="790.279" width="195.937" height="367.382" transform="rotate(-45 501.2 790.279)" fill="#68A6FF" fill-opacity="0.05"/>
</svg>
