<svg width="699" height="400" viewBox="0 0 699 400" fill="none" xmlns="http://www.w3.org/2000/svg">
<rect x="155.564" y="-1.86499" width="113.328" height="198.324" transform="rotate(-45 155.564 -1.86499)" fill="#0FA7FF" fill-opacity="0.08"/>
<rect x="353.889" y="265.871" width="113.328" height="374.471" transform="rotate(-45 353.889 265.871)" fill="#0FA7FF" fill-opacity="0.08"/>
<rect width="113.328" height="198.324" transform="matrix(-0.707107 -0.707107 -0.707107 0.707107 608.881 40.6345)" fill="#0FA7FF" fill-opacity="0.08"/>
<rect width="113.328" height="367.116" transform="matrix(-0.707107 -0.707107 -0.707107 0.707107 339.727 238.959)" fill="#0FA7FF" fill-opacity="0.08"/>
<rect width="113.328" height="283.32" transform="matrix(-0.707107 -0.707107 -0.707107 0.707107 410.555 380.618)" fill="#0FA7FF" fill-opacity="0.08"/>
<rect width="113.328" height="155.826" transform="matrix(-0.707107 -0.707107 -0.707107 0.707107 679.705 168.128)" fill="#0FA7FF" fill-opacity="0.08"/>
<rect x="70.5664" y="125.63" width="113.328" height="127.494" transform="rotate(-45 70.5664 125.63)" fill="#0FA7FF" fill-opacity="0.08"/>
<rect x="353.889" y="479.78" width="113.328" height="212.49" transform="rotate(-45 353.889 479.78)" fill="#0FA7FF" fill-opacity="0.08"/>
</svg>
