<svg width="820" height="97" viewBox="0 0 820 97" fill="none" xmlns="http://www.w3.org/2000/svg">
<path d="M305.458 15.18C304.84 15.18 304.237 15.102 303.649 14.946C303.061 14.79 302.527 14.559 302.047 14.253C301.567 13.941 301.168 13.554 300.85 13.092C300.538 12.63 300.343 12.09 300.265 11.472H302.272C302.374 11.94 302.575 12.333 302.875 12.651C303.181 12.969 303.556 13.209 304 13.371C304.444 13.533 304.927 13.614 305.449 13.614C306.025 13.614 306.541 13.536 306.997 13.38C307.459 13.218 307.825 12.99 308.095 12.696C308.365 12.396 308.5 12.036 308.5 11.616C308.5 11.238 308.407 10.917 308.221 10.653C308.041 10.389 307.783 10.17 307.447 9.996C307.117 9.816 306.718 9.675 306.25 9.573L303.784 9.015C302.818 8.811 302.056 8.433 301.498 7.881C300.946 7.323 300.667 6.585 300.661 5.667C300.655 4.899 300.856 4.227 301.264 3.651C301.678 3.075 302.242 2.628 302.956 2.31C303.67 1.986 304.483 1.824 305.395 1.824C306.457 1.824 307.348 2.001 308.068 2.355C308.794 2.709 309.343 3.177 309.715 3.759C310.087 4.335 310.276 4.962 310.282 5.64H308.311C308.263 5.088 308.101 4.65 307.825 4.326C307.549 4.002 307.201 3.771 306.781 3.633C306.367 3.489 305.911 3.417 305.413 3.417C305.053 3.417 304.708 3.462 304.378 3.552C304.048 3.642 303.757 3.774 303.505 3.948C303.253 4.122 303.052 4.338 302.902 4.596C302.758 4.848 302.686 5.139 302.686 5.469C302.686 5.913 302.836 6.273 303.136 6.549C303.436 6.825 303.988 7.062 304.792 7.26L307.204 7.809C307.894 7.953 308.452 8.166 308.878 8.448C309.304 8.724 309.631 9.039 309.859 9.393C310.087 9.747 310.243 10.116 310.327 10.5C310.411 10.878 310.453 11.241 310.453 11.589C310.453 12.261 310.252 12.87 309.85 13.416C309.448 13.956 308.875 14.385 308.131 14.703C307.387 15.021 306.496 15.18 305.458 15.18ZM324.334 10.374C324.334 11.388 324.166 12.255 323.83 12.975C323.494 13.689 322.966 14.235 322.246 14.613C321.532 14.991 320.599 15.18 319.447 15.18C318.283 15.18 317.341 14.988 316.621 14.604C315.907 14.22 315.385 13.659 315.055 12.921C314.731 12.183 314.569 11.283 314.569 10.221V1.986H316.558V10.464C316.558 11.496 316.81 12.264 317.314 12.768C317.824 13.266 318.535 13.515 319.447 13.515C320.053 13.515 320.575 13.407 321.013 13.191C321.457 12.969 321.796 12.633 322.03 12.183C322.264 11.727 322.381 11.154 322.381 10.464V1.986H324.334V10.374ZM338.258 15H336.233L333.929 9.555H330.662V15H328.736V1.986H333.902C334.868 1.986 335.669 2.136 336.305 2.436C336.941 2.73 337.415 3.15 337.727 3.696C338.039 4.242 338.195 4.887 338.195 5.631C338.195 6.333 338.075 6.918 337.835 7.386C337.601 7.854 337.295 8.235 336.917 8.529C336.545 8.823 336.152 9.054 335.738 9.222L338.258 15ZM333.38 7.998C334.286 7.998 334.988 7.803 335.486 7.413C335.984 7.017 336.233 6.453 336.233 5.721C336.233 5.001 336.005 4.455 335.549 4.083C335.099 3.711 334.487 3.525 333.713 3.525H330.662V7.998H333.38ZM352.034 1.986L347.453 15H345.185L340.667 1.986H342.548L346.319 12.786L350.162 1.986H352.034ZM355.522 15V1.986H363.928L363.919 3.66H357.457V7.611H363.226V9.258H357.448V13.299L364.081 13.308V15H355.522ZM377.924 1.986L373.487 9.483V15H371.561V9.474L367.097 1.986H369.203L372.533 7.773L375.818 1.986H377.924ZM384.99 15.18C384.372 15.18 383.769 15.102 383.181 14.946C382.593 14.79 382.059 14.559 381.579 14.253C381.099 13.941 380.7 13.554 380.382 13.092C380.07 12.63 379.875 12.09 379.797 11.472H381.804C381.906 11.94 382.107 12.333 382.407 12.651C382.713 12.969 383.088 13.209 383.532 13.371C383.976 13.533 384.459 13.614 384.981 13.614C385.557 13.614 386.073 13.536 386.529 13.38C386.991 13.218 387.357 12.99 387.627 12.696C387.897 12.396 388.032 12.036 388.032 11.616C388.032 11.238 387.939 10.917 387.753 10.653C387.573 10.389 387.315 10.17 386.979 9.996C386.649 9.816 386.25 9.675 385.782 9.573L383.316 9.015C382.35 8.811 381.588 8.433 381.03 7.881C380.478 7.323 380.199 6.585 380.193 5.667C380.187 4.899 380.388 4.227 380.796 3.651C381.21 3.075 381.774 2.628 382.488 2.31C383.202 1.986 384.015 1.824 384.927 1.824C385.989 1.824 386.88 2.001 387.6 2.355C388.326 2.709 388.875 3.177 389.247 3.759C389.619 4.335 389.808 4.962 389.814 5.64H387.843C387.795 5.088 387.633 4.65 387.357 4.326C387.081 4.002 386.733 3.771 386.313 3.633C385.899 3.489 385.443 3.417 384.945 3.417C384.585 3.417 384.24 3.462 383.91 3.552C383.58 3.642 383.289 3.774 383.037 3.948C382.785 4.122 382.584 4.338 382.434 4.596C382.29 4.848 382.218 5.139 382.218 5.469C382.218 5.913 382.368 6.273 382.668 6.549C382.968 6.825 383.52 7.062 384.324 7.26L386.736 7.809C387.426 7.953 387.984 8.166 388.41 8.448C388.836 8.724 389.163 9.039 389.391 9.393C389.619 9.747 389.775 10.116 389.859 10.5C389.943 10.878 389.985 11.241 389.985 11.589C389.985 12.261 389.784 12.87 389.382 13.416C388.98 13.956 388.407 14.385 387.663 14.703C386.919 15.021 386.028 15.18 384.99 15.18ZM404.525 1.806C405.461 1.806 406.292 1.998 407.018 2.382C407.744 2.766 408.326 3.282 408.764 3.93C409.208 4.578 409.472 5.295 409.556 6.081H407.504C407.414 5.589 407.24 5.145 406.982 4.749C406.73 4.347 406.394 4.032 405.974 3.804C405.554 3.57 405.056 3.453 404.48 3.453C403.742 3.453 403.115 3.627 402.599 3.975C402.083 4.323 401.69 4.866 401.42 5.604C401.156 6.342 401.024 7.293 401.024 8.457C401.024 10.215 401.321 11.502 401.915 12.318C402.509 13.128 403.364 13.533 404.48 13.533C405.056 13.533 405.554 13.41 405.974 13.164C406.394 12.912 406.73 12.579 406.982 12.165C407.24 11.745 407.414 11.289 407.504 10.797H409.556C409.484 11.367 409.334 11.916 409.106 12.444C408.878 12.966 408.56 13.434 408.152 13.848C407.75 14.262 407.249 14.589 406.649 14.829C406.049 15.063 405.341 15.18 404.525 15.18C403.349 15.18 402.341 14.91 401.501 14.37C400.661 13.824 400.016 13.05 399.566 12.048C399.122 11.04 398.9 9.834 398.9 8.43C398.9 7.032 399.122 5.841 399.566 4.857C400.01 3.867 400.652 3.111 401.492 2.589C402.332 2.067 403.343 1.806 404.525 1.806ZM418.625 15.18C417.443 15.18 416.42 14.919 415.556 14.397C414.698 13.869 414.035 13.11 413.567 12.12C413.105 11.124 412.874 9.924 412.874 8.52C412.874 7.104 413.108 5.898 413.576 4.902C414.05 3.9 414.716 3.135 415.574 2.607C416.438 2.073 417.455 1.806 418.625 1.806C419.789 1.806 420.797 2.073 421.649 2.607C422.507 3.135 423.167 3.9 423.629 4.902C424.097 5.898 424.331 7.104 424.331 8.52C424.331 9.924 424.1 11.121 423.638 12.111C423.176 13.101 422.516 13.86 421.658 14.388C420.806 14.916 419.795 15.18 418.625 15.18ZM418.625 13.533C419.381 13.533 420.026 13.359 420.56 13.011C421.1 12.663 421.511 12.12 421.793 11.382C422.075 10.644 422.216 9.699 422.216 8.547C422.216 7.365 422.072 6.399 421.784 5.649C421.502 4.899 421.091 4.347 420.551 3.993C420.017 3.633 419.375 3.453 418.625 3.453C417.875 3.453 417.227 3.633 416.681 3.993C416.141 4.353 415.724 4.908 415.43 5.658C415.136 6.408 414.989 7.371 414.989 8.547C414.989 9.705 415.136 10.653 415.43 11.391C415.724 12.123 416.141 12.663 416.681 13.011C417.227 13.359 417.875 13.533 418.625 13.533ZM428.357 15V1.986H431.075L434.738 12.336L438.455 1.986H441.155V15H439.184V4.632L435.584 15H433.901L430.319 4.713V15H428.357ZM445.881 15V1.986H450.39C451.32 1.986 452.151 2.145 452.883 2.463C453.621 2.781 454.2 3.249 454.62 3.867C455.046 4.485 455.259 5.244 455.259 6.144C455.259 7.008 455.064 7.746 454.674 8.358C454.29 8.964 453.75 9.429 453.054 9.753C452.364 10.071 451.563 10.23 450.651 10.23H447.843V15H445.881ZM447.834 8.655H450.597C451.425 8.655 452.1 8.418 452.622 7.944C453.144 7.464 453.405 6.828 453.405 6.036C453.405 5.232 453.135 4.617 452.595 4.191C452.055 3.759 451.365 3.543 450.525 3.543H447.834V8.655ZM458.862 1.986H460.815V13.308H466.827V15H458.853L458.862 1.986ZM470.681 15V1.986H479.087L479.078 3.66H472.616V7.611H478.385V9.258H472.607V13.299L479.24 13.308V15H470.681ZM482.437 3.741V1.986H492.436V3.741H488.503V15H486.559V3.741H482.437ZM495.921 15V1.986H504.327L504.318 3.66H497.856V7.611H503.625V9.258H497.847V13.299L504.48 13.308V15H495.921ZM508.786 1.986C508.834 1.986 508.975 1.989 509.209 1.995C509.449 1.995 509.737 1.995 510.073 1.995C510.409 1.989 510.751 1.989 511.099 1.995C511.453 1.995 511.768 1.998 512.044 2.004C513.634 2.028 514.927 2.292 515.923 2.796C516.919 3.3 517.648 4.026 518.11 4.974C518.578 5.916 518.812 7.065 518.812 8.421C518.812 9.831 518.563 11.028 518.065 12.012C517.567 12.99 516.805 13.734 515.779 14.244C514.759 14.748 513.466 15 511.9 15H508.786V1.986ZM510.748 3.606V13.38H511.918C512.902 13.38 513.757 13.221 514.483 12.903C515.215 12.579 515.782 12.057 516.184 11.337C516.586 10.611 516.787 9.642 516.787 8.43C516.787 7.242 516.595 6.297 516.211 5.595C515.827 4.887 515.275 4.38 514.555 4.074C513.841 3.762 512.98 3.606 511.972 3.606H510.748Z" fill="#10476A"/>
<path d="M71.1792 94V93.1525V92.71C71.1792 92.155 71.2817 91.675 71.4867 91.27C71.6967 90.865 71.9717 90.5125 72.3117 90.2125C72.6567 89.9075 73.0317 89.635 73.4367 89.395C73.8467 89.155 74.2542 88.925 74.6592 88.705C75.0692 88.48 75.4442 88.2475 75.7842 88.0075C76.1242 87.7625 76.3967 87.4875 76.6017 87.1825C76.8117 86.8725 76.9167 86.5075 76.9167 86.0875C76.9167 85.5375 76.7217 85.09 76.3317 84.745C75.9467 84.4 75.4242 84.2275 74.7642 84.2275C74.0542 84.2275 73.4842 84.4275 73.0542 84.8275C72.6242 85.2275 72.3817 85.76 72.3267 86.425H70.9467C70.9617 85.8 71.1167 85.23 71.4117 84.715C71.7067 84.195 72.1392 83.78 72.7092 83.47C73.2792 83.16 73.9817 83.005 74.8167 83.005C75.5417 83.005 76.1717 83.135 76.7067 83.395C77.2417 83.65 77.6542 84.01 77.9442 84.475C78.2392 84.935 78.3867 85.4725 78.3867 86.0875C78.3867 86.6475 78.2842 87.1275 78.0792 87.5275C77.8742 87.9275 77.6017 88.275 77.2617 88.57C76.9267 88.86 76.5592 89.12 76.1592 89.35C75.7592 89.58 75.3567 89.8025 74.9517 90.0175C74.5467 90.2275 74.1767 90.45 73.8417 90.685C73.5067 90.915 73.2367 91.18 73.0317 91.48C72.8267 91.78 72.7242 92.1375 72.7242 92.5525V92.77H78.4467V94H71.1792ZM83.7822 83.005C84.9572 83.005 85.8922 83.4775 86.5872 84.4225C87.2872 85.3625 87.6372 86.755 87.6372 88.6C87.6372 90.435 87.2897 91.8225 86.5947 92.7625C85.8997 93.6975 84.9572 94.165 83.7672 94.165C82.5822 94.165 81.6422 93.7 80.9472 92.77C80.2522 91.835 79.9047 90.4525 79.9047 88.6225C79.9047 87.3875 80.0647 86.3525 80.3847 85.5175C80.7047 84.6825 81.1547 84.055 81.7347 83.635C82.3147 83.215 82.9972 83.005 83.7822 83.005ZM83.7822 92.965C84.5572 92.965 85.1422 92.625 85.5372 91.945C85.9372 91.26 86.1372 90.1475 86.1372 88.6075C86.1372 87.0375 85.9347 85.9075 85.5297 85.2175C85.1297 84.5225 84.5447 84.175 83.7747 84.175C83.0097 84.175 82.4197 84.525 82.0047 85.225C81.5947 85.92 81.3897 87.0475 81.3897 88.6075C81.3897 90.1425 81.5947 91.2525 82.0047 91.9375C82.4147 92.6225 83.0072 92.965 83.7822 92.965ZM92.8789 83.005C94.0539 83.005 94.9889 83.4775 95.6839 84.4225C96.3839 85.3625 96.7339 86.755 96.7339 88.6C96.7339 90.435 96.3864 91.8225 95.6914 92.7625C94.9964 93.6975 94.0539 94.165 92.8639 94.165C91.6789 94.165 90.7389 93.7 90.0439 92.77C89.3489 91.835 89.0014 90.4525 89.0014 88.6225C89.0014 87.3875 89.1614 86.3525 89.4814 85.5175C89.8014 84.6825 90.2514 84.055 90.8314 83.635C91.4114 83.215 92.0939 83.005 92.8789 83.005ZM92.8789 92.965C93.6539 92.965 94.2389 92.625 94.6339 91.945C95.0339 91.26 95.2339 90.1475 95.2339 88.6075C95.2339 87.0375 95.0314 85.9075 94.6264 85.2175C94.2264 84.5225 93.6414 84.175 92.8714 84.175C92.1064 84.175 91.5164 84.525 91.1014 85.225C90.6914 85.92 90.4864 87.0475 90.4864 88.6075C90.4864 90.1425 90.6914 91.2525 91.1014 91.9375C91.5114 92.6225 92.1039 92.965 92.8789 92.965Z" fill="#7E94AD"/>
<path d="M565.742 83.005C566.437 83.005 567.059 83.12 567.609 83.35C568.159 83.58 568.594 83.915 568.914 84.355C569.234 84.795 569.394 85.33 569.394 85.96C569.394 86.55 569.234 87.045 568.914 87.445C568.599 87.845 568.192 88.15 567.692 88.36C568.057 88.43 568.404 88.6 568.734 88.87C569.069 89.14 569.344 89.4675 569.559 89.8525C569.774 90.2375 569.882 90.64 569.882 91.06C569.882 91.685 569.709 92.23 569.364 92.695C569.024 93.16 568.544 93.5225 567.924 93.7825C567.304 94.0375 566.577 94.165 565.742 94.165C564.912 94.165 564.187 94.0375 563.567 93.7825C562.947 93.5225 562.464 93.16 562.119 92.695C561.779 92.23 561.609 91.685 561.609 91.06C561.609 90.64 561.714 90.2375 561.924 89.8525C562.139 89.4675 562.414 89.14 562.749 88.87C563.084 88.6 563.434 88.43 563.799 88.36C563.304 88.15 562.894 87.845 562.569 87.445C562.249 87.045 562.089 86.55 562.089 85.96C562.089 85.33 562.249 84.795 562.569 84.355C562.889 83.915 563.324 83.58 563.874 83.35C564.429 83.12 565.052 83.005 565.742 83.005ZM565.742 87.775C566.402 87.775 566.937 87.6125 567.347 87.2875C567.762 86.9625 567.969 86.51 567.969 85.93C567.969 85.345 567.762 84.885 567.347 84.55C566.932 84.21 566.397 84.04 565.742 84.04C565.087 84.04 564.552 84.21 564.137 84.55C563.722 84.89 563.514 85.35 563.514 85.93C563.514 86.51 563.722 86.9625 564.137 87.2875C564.552 87.6125 565.087 87.775 565.742 87.775ZM565.742 93.04C566.547 93.04 567.189 92.86 567.669 92.5C568.149 92.135 568.389 91.6525 568.389 91.0525C568.389 90.6575 568.279 90.305 568.059 89.995C567.844 89.685 567.539 89.4425 567.144 89.2675C566.749 89.0875 566.282 88.9975 565.742 88.9975C565.207 88.9975 564.742 89.0875 564.347 89.2675C563.957 89.4425 563.652 89.685 563.432 89.995C563.217 90.305 563.109 90.6575 563.109 91.0525C563.109 91.6525 563.347 92.135 563.822 92.5C564.302 92.86 564.942 93.04 565.742 93.04ZM575.111 83.005C576.286 83.005 577.221 83.4775 577.916 84.4225C578.616 85.3625 578.966 86.755 578.966 88.6C578.966 90.435 578.618 91.8225 577.923 92.7625C577.228 93.6975 576.286 94.165 575.096 94.165C573.911 94.165 572.971 93.7 572.276 92.77C571.581 91.835 571.233 90.4525 571.233 88.6225C571.233 87.3875 571.393 86.3525 571.713 85.5175C572.033 84.6825 572.483 84.055 573.063 83.635C573.643 83.215 574.326 83.005 575.111 83.005ZM575.111 92.965C575.886 92.965 576.471 92.625 576.866 91.945C577.266 91.26 577.466 90.1475 577.466 88.6075C577.466 87.0375 577.263 85.9075 576.858 85.2175C576.458 84.5225 575.873 84.175 575.103 84.175C574.338 84.175 573.748 84.525 573.333 85.225C572.923 85.92 572.718 87.0475 572.718 88.6075C572.718 90.1425 572.923 91.2525 573.333 91.9375C573.743 92.6225 574.336 92.965 575.111 92.965ZM584.207 83.005C585.382 83.005 586.317 83.4775 587.012 84.4225C587.712 85.3625 588.062 86.755 588.062 88.6C588.062 90.435 587.715 91.8225 587.02 92.7625C586.325 93.6975 585.382 94.165 584.192 94.165C583.007 94.165 582.067 93.7 581.372 92.77C580.677 91.835 580.33 90.4525 580.33 88.6225C580.33 87.3875 580.49 86.3525 580.81 85.5175C581.13 84.6825 581.58 84.055 582.16 83.635C582.74 83.215 583.422 83.005 584.207 83.005ZM584.207 92.965C584.982 92.965 585.567 92.625 585.962 91.945C586.362 91.26 586.562 90.1475 586.562 88.6075C586.562 87.0375 586.36 85.9075 585.955 85.2175C585.555 84.5225 584.97 84.175 584.2 84.175C583.435 84.175 582.845 84.525 582.43 85.225C582.02 85.92 581.815 87.0475 581.815 88.6075C581.815 90.1425 582.02 91.2525 582.43 91.9375C582.84 92.6225 583.432 92.965 584.207 92.965Z" fill="#7E94AD"/>
<path d="M238.969 83.155H240.379V90.01H242.179V91.2325H240.379V94H239.022V91.2325H233.914V89.965L238.969 83.155ZM235.242 90.01H238.992V84.9775L235.242 90.01ZM247.248 83.005C248.423 83.005 249.358 83.4775 250.053 84.4225C250.753 85.3625 251.103 86.755 251.103 88.6C251.103 90.435 250.755 91.8225 250.06 92.7625C249.365 93.6975 248.423 94.165 247.233 94.165C246.048 94.165 245.108 93.7 244.413 92.77C243.718 91.835 243.37 90.4525 243.37 88.6225C243.37 87.3875 243.53 86.3525 243.85 85.5175C244.17 84.6825 244.62 84.055 245.2 83.635C245.78 83.215 246.463 83.005 247.248 83.005ZM247.248 92.965C248.023 92.965 248.608 92.625 249.003 91.945C249.403 91.26 249.603 90.1475 249.603 88.6075C249.603 87.0375 249.4 85.9075 248.995 85.2175C248.595 84.5225 248.01 84.175 247.24 84.175C246.475 84.175 245.885 84.525 245.47 85.225C245.06 85.92 244.855 87.0475 244.855 88.6075C244.855 90.1425 245.06 91.2525 245.47 91.9375C245.88 92.6225 246.473 92.965 247.248 92.965ZM256.345 83.005C257.52 83.005 258.455 83.4775 259.15 84.4225C259.85 85.3625 260.2 86.755 260.2 88.6C260.2 90.435 259.852 91.8225 259.157 92.7625C258.462 93.6975 257.52 94.165 256.33 94.165C255.145 94.165 254.205 93.7 253.51 92.77C252.815 91.835 252.467 90.4525 252.467 88.6225C252.467 87.3875 252.627 86.3525 252.947 85.5175C253.267 84.6825 253.717 84.055 254.297 83.635C254.877 83.215 255.56 83.005 256.345 83.005ZM256.345 92.965C257.12 92.965 257.705 92.625 258.1 91.945C258.5 91.26 258.7 90.1475 258.7 88.6075C258.7 87.0375 258.497 85.9075 258.092 85.2175C257.692 84.5225 257.107 84.175 256.337 84.175C255.572 84.175 254.982 84.525 254.567 85.225C254.157 85.92 253.952 87.0475 253.952 88.6075C253.952 90.1425 254.157 91.2525 254.567 91.9375C254.977 92.6225 255.57 92.965 256.345 92.965Z" fill="#7E94AD"/>
<path d="M719.973 94.4639V85.8314H717.88V84.9239C718.53 84.9239 719.035 84.8764 719.395 84.7814C719.755 84.6864 720.01 84.5414 720.16 84.3464C720.315 84.1514 720.4 83.9089 720.415 83.6189H721.405V94.4639H719.973ZM723.943 96.3464L724.783 94.4939L724.131 94.4564V92.7989H725.863V94.2389L724.588 96.3464H723.943ZM734.876 83.4689C736.051 83.4689 736.986 83.9414 737.681 84.8864C738.381 85.8264 738.731 87.2189 738.731 89.0639C738.731 90.8989 738.383 92.2864 737.688 93.2264C736.993 94.1614 736.051 94.6289 734.861 94.6289C733.676 94.6289 732.736 94.1639 732.041 93.2339C731.346 92.2989 730.998 90.9164 730.998 89.0864C730.998 87.8514 731.158 86.8164 731.478 85.9814C731.798 85.1464 732.248 84.5189 732.828 84.0989C733.408 83.6789 734.091 83.4689 734.876 83.4689ZM734.876 93.4289C735.651 93.4289 736.236 93.0889 736.631 92.4089C737.031 91.7239 737.231 90.6114 737.231 89.0714C737.231 87.5014 737.028 86.3714 736.623 85.6814C736.223 84.9864 735.638 84.6389 734.868 84.6389C734.103 84.6389 733.513 84.9889 733.098 85.6889C732.688 86.3839 732.483 87.5114 732.483 89.0714C732.483 90.6064 732.688 91.7164 733.098 92.4014C733.508 93.0864 734.101 93.4289 734.876 93.4289ZM743.972 83.4689C745.147 83.4689 746.082 83.9414 746.777 84.8864C747.477 85.8264 747.827 87.2189 747.827 89.0639C747.827 90.8989 747.48 92.2864 746.785 93.2264C746.09 94.1614 745.147 94.6289 743.957 94.6289C742.772 94.6289 741.832 94.1639 741.137 93.2339C740.442 92.2989 740.095 90.9164 740.095 89.0864C740.095 87.8514 740.255 86.8164 740.575 85.9814C740.895 85.1464 741.345 84.5189 741.925 84.0989C742.505 83.6789 743.187 83.4689 743.972 83.4689ZM743.972 93.4289C744.747 93.4289 745.332 93.0889 745.727 92.4089C746.127 91.7239 746.327 90.6114 746.327 89.0714C746.327 87.5014 746.125 86.3714 745.72 85.6814C745.32 84.9864 744.735 84.6389 743.965 84.6389C743.2 84.6389 742.61 84.9889 742.195 85.6889C741.785 86.3839 741.58 87.5114 741.58 89.0714C741.58 90.6064 741.785 91.7164 742.195 92.4014C742.605 93.0864 743.197 93.4289 743.972 93.4289ZM753.069 83.4689C754.244 83.4689 755.179 83.9414 755.874 84.8864C756.574 85.8264 756.924 87.2189 756.924 89.0639C756.924 90.8989 756.577 92.2864 755.882 93.2264C755.187 94.1614 754.244 94.6289 753.054 94.6289C751.869 94.6289 750.929 94.1639 750.234 93.2339C749.539 92.2989 749.192 90.9164 749.192 89.0864C749.192 87.8514 749.352 86.8164 749.672 85.9814C749.992 85.1464 750.442 84.5189 751.022 84.0989C751.602 83.6789 752.284 83.4689 753.069 83.4689ZM753.069 93.4289C753.844 93.4289 754.429 93.0889 754.824 92.4089C755.224 91.7239 755.424 90.6114 755.424 89.0714C755.424 87.5014 755.222 86.3714 754.817 85.6814C754.417 84.9864 753.832 84.6389 753.062 84.6389C752.297 84.6389 751.707 84.9889 751.292 85.6889C750.882 86.3839 750.677 87.5114 750.677 89.0714C750.677 90.6064 750.882 91.7164 751.292 92.4014C751.702 93.0864 752.294 93.4289 753.069 93.4289Z" fill="#7E94AD"/>
<path d="M401.494 83.005C402.094 83.005 402.646 83.1175 403.151 83.3425C403.661 83.5675 404.084 83.89 404.419 84.31C404.754 84.73 404.961 85.2375 405.041 85.8325H403.736C403.591 85.3175 403.329 84.91 402.949 84.61C402.569 84.31 402.091 84.16 401.516 84.16C400.876 84.16 400.341 84.3425 399.911 84.7075C399.486 85.0675 399.176 85.5975 398.981 86.2975C398.786 86.9925 398.719 87.8475 398.779 88.8625C398.914 88.4975 399.119 88.1775 399.394 87.9025C399.674 87.6225 399.999 87.4075 400.369 87.2575C400.739 87.1025 401.139 87.025 401.569 87.025C402.284 87.025 402.909 87.165 403.444 87.445C403.979 87.72 404.396 88.115 404.696 88.63C404.996 89.14 405.146 89.75 405.146 90.46C405.146 91.185 404.991 91.8275 404.681 92.3875C404.376 92.9425 403.941 93.3775 403.376 93.6925C402.811 94.0075 402.144 94.165 401.374 94.165C400.534 94.165 399.804 93.9475 399.184 93.5125C398.569 93.0775 398.091 92.4575 397.751 91.6525C397.416 90.8425 397.249 89.8725 397.249 88.7425C397.249 87.5825 397.411 86.5725 397.736 85.7125C398.066 84.8525 398.546 84.1875 399.176 83.7175C399.806 83.2425 400.579 83.005 401.494 83.005ZM401.344 88.15C400.949 88.15 400.569 88.245 400.204 88.435C399.844 88.62 399.549 88.865 399.319 89.17C399.094 89.475 398.981 89.8125 398.981 90.1825C398.976 90.7325 399.071 91.2225 399.266 91.6525C399.466 92.0775 399.746 92.4125 400.106 92.6575C400.466 92.8975 400.884 93.0175 401.359 93.0175C401.804 93.0175 402.199 92.9125 402.544 92.7025C402.889 92.4925 403.159 92.2 403.354 91.825C403.554 91.45 403.654 91.0175 403.654 90.5275C403.654 90.0325 403.564 89.6075 403.384 89.2525C403.209 88.8975 402.949 88.625 402.604 88.435C402.259 88.245 401.839 88.15 401.344 88.15ZM410.37 83.005C411.545 83.005 412.48 83.4775 413.175 84.4225C413.875 85.3625 414.225 86.755 414.225 88.6C414.225 90.435 413.877 91.8225 413.182 92.7625C412.487 93.6975 411.545 94.165 410.355 94.165C409.17 94.165 408.23 93.7 407.535 92.77C406.84 91.835 406.492 90.4525 406.492 88.6225C406.492 87.3875 406.652 86.3525 406.972 85.5175C407.292 84.6825 407.742 84.055 408.322 83.635C408.902 83.215 409.585 83.005 410.37 83.005ZM410.37 92.965C411.145 92.965 411.73 92.625 412.125 91.945C412.525 91.26 412.725 90.1475 412.725 88.6075C412.725 87.0375 412.522 85.9075 412.117 85.2175C411.717 84.5225 411.132 84.175 410.362 84.175C409.597 84.175 409.007 84.525 408.592 85.225C408.182 85.92 407.977 87.0475 407.977 88.6075C407.977 90.1425 408.182 91.2525 408.592 91.9375C409.002 92.6225 409.595 92.965 410.37 92.965ZM419.466 83.005C420.641 83.005 421.576 83.4775 422.271 84.4225C422.971 85.3625 423.321 86.755 423.321 88.6C423.321 90.435 422.974 91.8225 422.279 92.7625C421.584 93.6975 420.641 94.165 419.451 94.165C418.266 94.165 417.326 93.7 416.631 92.77C415.936 91.835 415.589 90.4525 415.589 88.6225C415.589 87.3875 415.749 86.3525 416.069 85.5175C416.389 84.6825 416.839 84.055 417.419 83.635C417.999 83.215 418.681 83.005 419.466 83.005ZM419.466 92.965C420.241 92.965 420.826 92.625 421.221 91.945C421.621 91.26 421.821 90.1475 421.821 88.6075C421.821 87.0375 421.619 85.9075 421.214 85.2175C420.814 84.5225 420.229 84.175 419.459 84.175C418.694 84.175 418.104 84.525 417.689 85.225C417.279 85.92 417.074 87.0475 417.074 88.6075C417.074 90.1425 417.279 91.2525 417.689 91.9375C418.099 92.6225 418.691 92.965 419.466 92.965Z" fill="#7E94AD"/>
<path d="M0 58.6274C0 55.0734 2.88105 52.1924 6.435 52.1924H165.159V65.0624H6.43499C2.88104 65.0624 0 62.1813 0 58.6274Z" fill="#10476A" fill-opacity="0.2"/>
<rect x="165.16" y="52.1924" width="163.71" height="12.87" fill="#10476A" fill-opacity="0.4"/>
<rect x="328.869" y="52.1924" width="163.71" height="12.87" fill="#10476A" fill-opacity="0.6"/>
<rect opacity="0.8" x="492.58" y="52.1924" width="163.71" height="12.87" fill="#10476A"/>
<path d="M656.289 52.1924H813.564C817.118 52.1924 819.999 55.0734 819.999 58.6274C819.999 62.1813 817.118 65.0624 813.564 65.0624H656.289V52.1924Z" fill="#10476A"/>
</svg>
