<svg width="136" height="135" viewBox="0 0 136 135" fill="none" xmlns="http://www.w3.org/2000/svg">
<path d="M133.272 41.7186V25.76L127.381 24.3113C127.121 23.6113 126.828 22.9112 126.503 22.2132L129.65 17.0153L118.364 5.72952L113.168 8.8778C112.47 8.55306 111.77 8.25995 111.07 8.00058L109.621 2.10889H93.6626L92.2139 8.00058C91.5138 8.25995 90.8138 8.55306 90.1158 8.8778L84.9178 5.73163L73.6321 17.0174L76.7783 22.2153C76.4535 22.9133 76.1604 23.6134 75.9011 24.3135L70.0115 25.76V40.0654H13.0767C7.26301 40.0654 2.5332 44.7952 2.5332 50.6089V101.218C2.5332 107.031 7.26301 111.761 13.0767 111.761H29.9463V120.196H21.5115C19.1856 120.196 17.2941 122.087 17.2941 124.413V128.631C17.2941 130.957 19.1856 132.848 21.5115 132.848H65.7941H70.0958H133.272V124.413C133.272 109.07 122.967 96.1082 108.919 92.03C113.43 88.9977 116.403 83.8525 116.403 78.0219C116.403 72.5204 113.744 67.6408 109.657 64.56L109.872 64.3513L111.07 59.4781C111.77 59.2187 112.47 58.9256 113.168 58.6009L118.366 61.747L129.652 50.4613L126.506 45.2634C126.83 44.5654 127.123 43.8653 127.383 43.1652L133.272 41.7186ZM13.0767 44.2828H84.7723C88.2601 44.2828 91.0984 47.1211 91.0984 50.6089V63.434C89.5106 64.3555 88.0872 65.53 86.881 66.9007V52.7176C86.881 50.3917 84.9895 48.5002 82.6637 48.5002H15.1854C12.8595 48.5002 10.968 50.3917 10.968 52.7176V94.8915H6.7506V50.6089C6.7506 47.1211 9.5889 44.2828 13.0767 44.2828ZM86.881 33.7393C86.881 25.6019 93.5045 18.9785 101.642 18.9785C109.779 18.9785 116.403 25.6019 116.403 33.7393C116.403 41.8768 109.779 48.5002 101.642 48.5002C99.1368 48.5002 96.6991 47.8402 94.5272 46.6382C93.456 44.0171 91.3641 41.9253 88.7409 40.8541C87.5411 38.6779 86.881 36.2423 86.881 33.7393ZM109.794 115.913L102.528 128.631H102.308L111.032 97.2237C111.932 97.6054 112.81 98.0356 113.664 98.5016L112.327 106.529L107.513 111.344L109.794 115.913ZM96.5389 128.631L89.2723 115.913L91.556 111.346L86.7419 106.532L85.405 98.5037C86.2569 98.0377 87.1341 97.6075 88.0366 97.2258L96.7582 128.631H96.5389ZM74.2289 94.8915H70.0115V61.1524H74.2289V94.8915ZM86.881 93.1582V89.1432C87.8426 90.2376 88.9328 91.2161 90.1474 92.03C89.034 92.3526 87.9438 92.7259 86.881 93.1582ZM82.6637 94.8915H78.4463V56.935H65.7941V94.8915H61.5767V65.3698H48.9245V94.8915H44.7071V73.8046H32.0549V94.8915H15.1854V52.7176H82.6637V94.8915ZM57.3593 94.8915H53.1419V69.5872H57.3593V94.8915ZM40.4897 94.8915H36.2723V78.0219H40.4897V94.8915ZM6.7506 101.218V99.1089H77.2928C74.5494 101.523 72.2045 104.366 70.3594 107.544H13.0767C9.5889 107.544 6.7506 104.705 6.7506 101.218ZM34.1636 111.761H68.2781C67.1964 114.422 66.4562 117.25 66.0872 120.196H34.1636V111.761ZM21.5115 128.631V124.413H65.7941V128.631H21.5115ZM70.0115 128.631V124.413C70.0115 114.903 74.5494 106.453 81.5545 101.051L82.8049 108.556L86.4256 112.176L84.4919 116.044L91.6825 128.631H80.555V111.761H76.3376V128.631H70.0958H70.0115ZM129.055 124.413V128.631H122.729V111.761H118.511V128.631H107.384L114.577 116.044L112.643 112.176L116.264 108.556L117.514 101.051C124.517 106.453 129.055 114.903 129.055 124.413ZM107.023 95.891L99.5332 122.857L92.0431 95.891C94.4407 95.2605 96.9416 94.8915 99.5332 94.8915C102.125 94.8915 104.626 95.2605 107.023 95.891ZM112.185 78.0219C112.185 84.9996 106.511 90.6741 99.5332 90.6741C92.5555 90.6741 86.881 84.9996 86.881 78.0219C86.881 71.0443 92.5555 65.3698 99.5332 65.3698C106.511 65.3698 112.185 71.0443 112.185 78.0219ZM124.329 49.8202L117.723 56.4268L113.349 53.7804L112.299 54.3265C111.091 54.9549 109.866 55.4673 108.662 55.849L107.532 56.2054L106.066 62.173L105.842 62.3902C103.892 61.5973 101.764 61.1524 99.5332 61.1524C98.074 61.1524 96.6675 61.3569 95.3158 61.707V51.5873C97.3402 52.3043 99.4678 52.7176 101.642 52.7176C112.107 52.7176 120.62 44.2048 120.62 33.7393C120.62 23.2739 112.107 14.7611 101.642 14.7611C91.1765 14.7611 82.6637 23.2739 82.6637 33.7393C82.6637 35.9134 83.077 38.0411 83.7939 40.0654H74.2289V29.0665L79.178 27.8497L79.5343 26.7195C79.916 25.5175 80.4284 24.2924 81.0568 23.082L81.603 22.0318L78.9566 17.6584L85.5631 11.0519L89.9365 13.6983L90.9867 13.1521C92.195 12.5237 93.4201 12.0113 94.6242 11.6296L95.7544 11.2733L96.969 6.32628H106.315L107.532 11.2754L108.662 11.6318C109.864 12.0134 111.089 12.5258 112.299 13.1542L113.349 13.7004L117.723 11.054L124.329 17.6605L121.683 22.034L122.229 23.0841C122.858 24.2924 123.37 25.5175 123.752 26.7216L124.108 27.8518L129.055 29.0665V38.4122L124.106 39.6289L123.749 40.7571C123.368 41.9611 122.855 43.1863 122.227 44.3967L121.681 45.4468L124.329 49.8202Z" fill="#10476A"/>
<path d="M101.641 44.2828C107.455 44.2828 112.185 39.553 112.185 33.7393C112.185 27.9256 107.455 23.1958 101.641 23.1958C95.8275 23.1958 91.0977 27.9256 91.0977 33.7393C91.0977 39.553 95.8275 44.2828 101.641 44.2828ZM101.641 27.4132C105.129 27.4132 107.967 30.2515 107.967 33.7393C107.967 37.2271 105.129 40.0654 101.641 40.0654C98.1534 40.0654 95.315 37.2271 95.315 33.7393C95.315 30.2515 98.1534 27.4132 101.641 27.4132Z" fill="#10476A"/>
<path d="M19.4023 56.9346H23.6197V61.152H19.4023V56.9346Z" fill="#10476A"/>
<path d="M27.8359 56.9346H32.0533V61.152H27.8359V56.9346Z" fill="#10476A"/>
<path d="M36.2715 56.9346H40.4889V61.152H36.2715V56.9346Z" fill="#10476A"/>
<path d="M19.4023 65.3696H40.4893V69.587H19.4023V65.3696Z" fill="#10476A"/>
</svg>
