<svg width="136" height="135" viewBox="0 0 136 135" fill="none" xmlns="http://www.w3.org/2000/svg">
<path d="M129.054 44.2827H6.74932C5.58532 44.2827 4.64062 45.2274 4.64062 46.3914V128.631C4.64062 129.795 5.58532 130.739 6.74932 130.739H129.054C130.218 130.739 131.162 129.795 131.162 128.631V46.3914C131.162 45.2274 130.218 44.2827 129.054 44.2827ZM126.945 126.522H8.85802V48.5001H126.945V126.522Z" fill="#10476A"/>
<path d="M14.2423 103.104L17.2936 104.629V120.195C17.2936 121.359 18.2383 122.304 19.4023 122.304H32.0544C33.2184 122.304 34.1631 121.359 34.1631 120.195V104.629L36.2718 103.575L38.3805 104.629V120.195C38.3805 121.359 39.3252 122.304 40.4892 122.304H53.1414C54.3054 122.304 55.2501 121.359 55.2501 120.195V104.629L57.3588 103.575L59.4675 104.629V120.195C59.4675 121.359 60.4122 122.304 61.5762 122.304H74.2283C75.3923 122.304 76.337 121.359 76.337 120.195V104.629L78.4457 103.575L80.5544 104.629V120.195C80.5544 121.359 81.4991 122.304 82.6631 122.304H95.3153C96.4793 122.304 97.424 121.359 97.424 120.195V104.629L99.5327 103.575L101.641 104.629V120.195C101.641 121.359 102.586 122.304 103.75 122.304H116.402C117.566 122.304 118.511 121.359 118.511 120.195V104.629L121.562 103.102C122.277 102.746 122.728 102.016 122.728 101.217V90.6737C122.728 86.4563 120.223 82.8357 116.634 81.1508C117.79 79.7064 118.511 77.9013 118.511 75.9128C118.511 71.261 114.728 67.478 110.076 67.478C105.424 67.478 101.641 71.261 101.641 75.9128C101.641 77.9013 102.363 79.7064 103.518 81.1508C101.932 81.8952 100.57 83.0212 99.5327 84.413C98.4952 83.0212 97.1351 81.8952 95.5473 81.1508C96.7028 79.7064 97.424 77.9013 97.424 75.9128C97.424 71.261 93.641 67.478 88.9892 67.478C84.3374 67.478 80.5544 71.261 80.5544 75.9128C80.5544 77.9013 81.2756 79.7064 82.4312 81.1508C80.8454 81.8952 79.4832 83.0212 78.4457 84.413C77.4083 83.0212 76.0482 81.8952 74.4603 81.1508C75.6159 79.7064 76.337 77.9013 76.337 75.9128C76.337 71.261 72.554 67.478 67.9023 67.478C63.2505 67.478 59.4675 71.261 59.4675 75.9128C59.4675 77.9013 60.1887 79.7064 61.3442 81.1508C59.7585 81.8952 58.3963 83.0212 57.3588 84.413C56.3213 83.0212 54.9612 81.8952 53.3733 81.1508C54.5289 79.7064 55.2501 77.9013 55.2501 75.9128C55.2501 71.261 51.4671 67.478 46.8153 67.478C42.1635 67.478 38.3805 71.261 38.3805 75.9128C38.3805 77.9013 39.1017 79.7064 40.2573 81.1508C38.6715 81.8952 37.3093 83.0212 36.2718 84.413C35.2343 83.0212 33.8742 81.8952 32.2864 81.1508C33.442 79.7064 34.1631 77.9013 34.1631 75.9128C34.1631 71.261 30.3801 67.478 25.7283 67.478C21.0766 67.478 17.2936 71.261 17.2936 75.9128C17.2936 77.9013 18.0147 79.7064 19.1703 81.1508C15.5834 82.8357 13.0762 86.4563 13.0762 90.6737V101.217C13.0762 102.016 13.5274 102.746 14.2423 103.104ZM110.076 71.6954C112.402 71.6954 114.294 73.5869 114.294 75.9128C114.294 78.2387 112.402 80.1302 110.076 80.1302C107.75 80.1302 105.859 78.2387 105.859 75.9128C105.859 73.5869 107.75 71.6954 110.076 71.6954ZM107.967 84.3476H112.185C115.673 84.3476 118.511 87.1859 118.511 90.6737V99.914L115.46 101.441C114.745 101.797 114.294 102.527 114.294 103.326V118.087H105.859V103.326C105.859 102.527 105.408 101.797 104.693 101.439L101.641 99.914V90.6737C101.641 87.1859 104.48 84.3476 107.967 84.3476ZM88.9892 71.6954C91.3151 71.6954 93.2066 73.5869 93.2066 75.9128C93.2066 78.2387 91.3151 80.1302 88.9892 80.1302C86.6633 80.1302 84.7718 78.2387 84.7718 75.9128C84.7718 73.5869 86.6633 71.6954 88.9892 71.6954ZM86.8805 84.3476H91.0979C94.5857 84.3476 97.424 87.1859 97.424 90.6737V99.914L94.3727 101.441C93.6579 101.797 93.2066 102.527 93.2066 103.326V118.087H84.7718V103.326C84.7718 102.527 84.3206 101.797 83.6057 101.439L80.5544 99.914V90.6737C80.5544 87.1859 83.3927 84.3476 86.8805 84.3476ZM67.9023 71.6954C70.2282 71.6954 72.1197 73.5869 72.1197 75.9128C72.1197 78.2387 70.2282 80.1302 67.9023 80.1302C65.5764 80.1302 63.6849 78.2387 63.6849 75.9128C63.6849 73.5869 65.5764 71.6954 67.9023 71.6954ZM65.7936 84.3476H70.011C73.4987 84.3476 76.337 87.1859 76.337 90.6737V99.914L73.2858 101.441C72.5709 101.797 72.1197 102.527 72.1197 103.326V118.087H63.6849V103.326C63.6849 102.527 63.2336 101.797 62.5188 101.439L59.4675 99.914V90.6737C59.4675 87.1859 62.3058 84.3476 65.7936 84.3476ZM46.8153 71.6954C49.1412 71.6954 51.0327 73.5869 51.0327 75.9128C51.0327 78.2387 49.1412 80.1302 46.8153 80.1302C44.4894 80.1302 42.5979 78.2387 42.5979 75.9128C42.5979 73.5869 44.4894 71.6954 46.8153 71.6954ZM44.7066 84.3476H48.924C52.4118 84.3476 55.2501 87.1859 55.2501 90.6737V99.914L52.1988 101.441C51.484 101.797 51.0327 102.527 51.0327 103.326V118.087H42.5979V103.326C42.5979 102.527 42.1467 101.797 41.4318 101.439L38.3805 99.914V90.6737C38.3805 87.1859 41.2188 84.3476 44.7066 84.3476ZM25.7283 71.6954C28.0542 71.6954 29.9457 73.5869 29.9457 75.9128C29.9457 78.2387 28.0542 80.1302 25.7283 80.1302C23.4025 80.1302 21.511 78.2387 21.511 75.9128C21.511 73.5869 23.4025 71.6954 25.7283 71.6954ZM17.2936 90.6737C17.2936 87.1859 20.1319 84.3476 23.6197 84.3476H27.837C31.3248 84.3476 34.1631 87.1859 34.1631 90.6737V99.914L31.1118 101.441C30.397 101.797 29.9457 102.527 29.9457 103.326V118.087H21.511V103.326C21.511 102.527 21.0597 101.797 20.3448 101.439L17.2936 99.914V90.6737Z" fill="#10476A"/>
<path d="M91.0982 31.6303H98.3563C99.1028 34.321 99.5329 37.1404 99.5329 40.0651H103.75C103.75 20.2982 87.6694 4.21729 67.9025 4.21729C48.1356 4.21729 32.0547 20.2982 32.0547 40.0651H36.2721C36.2721 37.1404 36.7023 34.321 37.4487 31.6303H44.7069V27.4129H38.9311C40.7299 23.3115 43.3826 19.6804 46.6511 16.705L51.2881 21.342L54.2698 18.3603L49.9575 14.048C54.5165 10.8934 59.9401 8.93022 65.7938 8.54222V14.7608H70.0112V8.54222C75.6435 8.91546 80.8794 10.7458 85.3267 13.6938L81.5331 17.4873L84.5148 20.469L88.6942 16.2896C92.1757 19.3366 94.9908 23.1217 96.8718 27.4129H91.0982V31.6303Z" fill="#10476A"/>
<path d="M81.615 23.4736L72.0141 28.9562C71.9572 28.9077 71.9129 28.8466 71.8538 28.8002C70.5338 27.7437 68.8742 27.2672 67.2042 27.4506C65.5235 27.6362 64.0179 28.4649 62.9615 29.785C61.9071 31.1029 61.4263 32.754 61.614 34.4346C61.9725 37.6652 64.7201 40.0627 67.8979 40.0627C68.1299 40.0627 68.3639 40.0501 68.6001 40.0227C72.0689 39.6368 74.5741 36.5033 74.1882 33.0387C74.1713 32.8953 74.1249 32.7603 74.0996 32.619L83.7068 27.1322L81.615 23.4736ZM69.5469 35.0567C69.1948 35.4953 68.6929 35.7737 68.1341 35.8348C66.9617 35.9655 65.9326 35.1263 65.8061 33.9728C65.7428 33.4119 65.9031 32.8615 66.2552 32.4229C66.6074 31.9843 67.1093 31.7081 67.6702 31.6448C67.7482 31.6343 67.8262 31.6301 67.9064 31.6301C68.3829 31.6301 68.8405 31.7903 69.2201 32.0919C69.6587 32.444 69.9349 32.9459 69.9982 33.5047C70.0593 34.0656 69.8991 34.616 69.5469 35.0567Z" fill="#10476A"/>
</svg>
