<svg width="137" height="136" viewBox="0 0 137 136" fill="none" xmlns="http://www.w3.org/2000/svg">
<g clip-path="url(#clip0_2926_11046)">
<path d="M101.043 82.7278L99.6478 90.8584C99.5201 91.6025 99.826 92.3546 100.437 92.7983C101.047 93.242 101.856 93.3007 102.525 92.9493L109.828 89.1105L117.129 92.9493C117.42 93.1018 117.737 93.1769 118.052 93.1769C118.463 93.1769 118.873 93.0492 119.218 92.798C119.829 92.3543 120.135 91.6025 120.007 90.8584L118.612 82.7275L124.52 76.9689C125.06 76.4421 125.255 75.6538 125.022 74.9359C124.788 74.2179 124.168 73.6946 123.421 73.5862L115.257 72.3997L111.606 65.0021C111.271 64.3251 110.582 63.8965 109.827 63.8965C109.072 63.8965 108.383 64.3251 108.048 65.0021L104.397 72.3997L96.2331 73.5862C95.4864 73.6946 94.8655 74.2182 94.6322 74.9359C94.399 75.6536 94.5936 76.4419 95.1339 76.9689L101.043 82.7278ZM106 76.175C106.646 76.0814 107.204 75.6755 107.493 75.0901L109.828 70.3606L112.161 75.0901C112.45 75.6755 113.009 76.0812 113.654 76.175L118.874 76.9334L115.097 80.6152C114.629 81.0708 114.416 81.7271 114.527 82.3705L115.418 87.5683L110.75 85.1143C110.461 84.9625 110.145 84.8866 109.828 84.8866C109.511 84.8866 109.194 84.9625 108.905 85.1143L104.237 87.5683L105.128 82.3708C105.239 81.7271 105.025 81.0708 104.558 80.6149L100.781 76.9334L106 76.175Z" fill="#10476A"/>
<path d="M17.4802 62.8562L16.0853 70.9868C15.9576 71.7309 16.2635 72.483 16.8741 72.9267C17.4847 73.3704 18.2941 73.4294 18.9626 73.0777L26.265 69.2389L33.5669 73.0777C33.8572 73.2303 34.174 73.3054 34.4895 73.3054C34.901 73.3054 35.3101 73.1776 35.6554 72.9264C36.2663 72.4827 36.5722 71.7309 36.4442 70.9868L35.0499 62.8559L40.9574 57.0973C41.4979 56.5705 41.6922 55.7823 41.459 55.0643C41.2258 54.3464 40.6051 53.823 39.8581 53.7146L31.6942 52.5284L28.0431 45.1305C27.7088 44.4536 27.0195 44.0249 26.2645 44.0249C25.5095 44.0249 24.8202 44.4536 24.4859 45.1305L20.8343 52.5281L12.6706 53.7146C11.9239 53.823 11.303 54.3466 11.0697 55.0643C10.8365 55.782 11.0311 56.5703 11.5714 57.0973L17.4802 62.8562ZM22.4376 56.3037C23.0833 56.2101 23.6418 55.8042 23.9306 55.2187L26.265 50.4893L28.5989 55.2187C28.888 55.8042 29.4462 56.2098 30.0919 56.3037L35.3111 57.0621L31.5344 60.7439C31.0669 61.1995 30.8538 61.8558 30.9643 62.4992L31.8557 67.6969L27.1879 65.243C26.8989 65.0912 26.5821 65.0153 26.265 65.0153C25.9482 65.0153 25.6312 65.0912 25.3421 65.243L20.6741 67.6969L21.5657 62.4995C21.6763 61.8558 21.4629 61.1995 20.9956 60.7439L17.2189 57.0621L22.4376 56.3037Z" fill="#10476A"/>
<path d="M56.9769 13.1567V15.5676C56.9769 21.2284 61.0921 25.943 66.4871 26.886V32.4489C61.627 33.2401 57.7742 37.0623 56.9354 41.9062H54.1596C51.6017 41.9062 51.6017 45.8728 54.1596 45.8728H82.633C85.1909 45.8728 85.1909 41.9062 82.633 41.9062H79.776C78.9505 37.139 75.2053 33.3623 70.4539 32.4899V26.8857C75.8489 25.943 79.9641 21.2281 79.9641 15.5673V13.1359C82.496 12.7953 84.5084 11.7782 85.9596 10.0964C88.8959 6.69287 88.2245 1.89495 88.1946 1.69265C88.0502 0.720323 87.2157 0 86.2325 0H77.9805H77.8853H58.9604C58.9515 0 58.943 0.00132218 58.934 0.00132218C58.925 0.00132218 58.9166 0 58.9076 0H50.5601C49.5769 0 48.7424 0.720323 48.5983 1.69265C48.5684 1.89521 47.897 6.69287 50.8333 10.0964C52.3125 11.8116 54.3743 12.8368 56.9769 13.1567ZM75.7209 41.9065H60.9903C61.8655 38.6597 64.836 36.2629 68.3559 36.2629C71.8752 36.2629 74.8456 38.6595 75.7209 41.9065ZM82.9559 7.50548C82.2562 8.31651 81.2534 8.85437 79.9638 9.11563V3.96654H84.2831C84.1897 5.04782 83.8737 6.44139 82.9559 7.50548ZM60.9435 3.96654H75.9973V11.0524C75.9885 11.128 75.9827 11.2047 75.9827 11.283C75.9827 11.3612 75.9883 11.4376 75.9973 11.5135V15.5676C75.9973 19.7177 72.6207 23.0942 68.4704 23.0942C64.32 23.0942 60.9435 19.7177 60.9435 15.5676V3.96654ZM56.9769 3.96654V9.14314C55.6243 8.89562 54.5758 8.35432 53.8505 7.52162C52.9221 6.45647 52.6037 5.05363 52.5098 3.96654H56.9769Z" fill="#10476A"/>
<path d="M134.109 131.686H131.046V105.699C131.046 102.887 128.759 100.6 125.948 100.6H91.8234C91.3358 100.6 90.8653 100.673 90.4184 100.802V58.9297C90.4184 56.1179 88.1321 53.8306 85.3217 53.8306H51.1971C48.3869 53.8306 46.1006 56.1179 46.1006 58.9297V80.0108C45.7362 79.9277 45.3588 79.8799 44.9698 79.8799H10.8452C8.03424 79.8799 5.7474 82.1667 5.7474 84.9779V100.482C5.7474 103.04 9.71394 103.04 9.71394 100.482V84.9779C9.71394 84.3541 10.2214 83.8464 10.8452 83.8464H44.9696C45.5931 83.8464 46.1003 84.3541 46.1003 84.9779V131.686H9.71394V110.266C9.71394 107.709 5.7474 107.709 5.7474 110.266V131.686H2.68444C1.58888 131.686 0.701172 132.573 0.701172 133.669C0.701172 134.765 1.58888 135.652 2.68444 135.652H134.109C135.205 135.652 136.092 134.765 136.092 133.669C136.092 132.573 135.204 131.686 134.109 131.686ZM50.0669 131.686V84.9779V58.9297C50.0669 58.3054 50.5738 57.7971 51.1968 57.7971H85.3217C85.9447 57.7971 86.4519 58.3054 86.4519 58.9297V131.686H50.0669V131.686ZM90.6929 131.686V105.699C90.6929 105.075 91.2001 104.567 91.8234 104.567H125.948C126.572 104.567 127.079 105.075 127.079 105.699V131.686H90.6929Z" fill="#10476A"/>
</g>
<defs>
<clipPath id="clip0_2926_11046">
<rect width="135.652" height="135.652" fill="white" transform="translate(0.568359)"/>
</clipPath>
</defs>
</svg>
