<svg width="137" height="136" viewBox="0 0 137 136" fill="none" xmlns="http://www.w3.org/2000/svg">
<path d="M125.624 69.9457V50.8696C125.624 45.026 120.87 40.2718 115.026 40.2718H59.9177C58.2581 40.2718 56.7087 40.6894 55.3098 41.3719C52.1156 37.6626 48.1096 34.9135 43.6119 33.3451C48.311 30.3247 51.4395 25.0639 51.4395 19.0762C51.4395 9.72675 43.8323 2.11963 34.4829 2.11963C25.1335 2.11963 17.5264 9.72675 17.5264 19.0762C17.5264 25.0809 20.6718 30.3522 25.3921 33.3663C14.6586 37.1327 6.92858 47.3427 6.92858 59.3479V69.9457H2.68945V133.533H134.103V69.9457H125.624ZM72.6351 103.859V95.3805H102.309V103.859H72.6351ZM59.9177 91.1414C56.412 91.1414 53.559 88.2884 53.559 84.7827V82.6631H121.385V84.7827C121.385 88.2884 118.532 91.1414 115.026 91.1414H59.9177ZM115.026 44.5109C118.532 44.5109 121.385 47.3639 121.385 50.8696V78.424H53.559V50.8696C53.559 47.3639 56.412 44.5109 59.9177 44.5109H115.026ZM21.7655 19.0762C21.7655 12.0625 27.4693 6.35876 34.4829 6.35876C41.4966 6.35876 47.2003 12.0625 47.2003 19.0762C47.2003 26.0898 41.4966 31.7935 34.4829 31.7935C27.4693 31.7935 21.7655 26.0898 21.7655 19.0762ZM11.1677 59.3479C11.1677 46.4927 21.6278 36.0327 34.4829 36.0327C41.2677 36.0327 47.5225 38.9153 51.9524 43.9556C50.3352 45.8166 49.3199 48.2159 49.3199 50.8696V69.9457H21.7655V50.8696H17.5264V69.9457H11.1677V59.3479ZM49.3199 74.1849V84.7827C49.3199 90.6263 54.0741 95.3805 59.9177 95.3805H68.396V103.859H59.9177V108.098H115.026V103.859H106.548V95.3805H115.026C120.87 95.3805 125.624 90.6263 125.624 84.7827V74.1849H129.863V116.576H6.92858V74.1849H49.3199ZM6.92858 129.294V120.815H129.863V129.294H6.92858Z" fill="#10476A"/>
<path d="M30.2441 112.337C36.6875 112.337 49.3201 109.776 49.3201 103.859V86.9021C49.3201 80.9843 36.6875 78.4238 30.2441 78.4238C23.8006 78.4238 11.168 80.9843 11.168 86.9021V103.859C11.168 109.776 23.8006 112.337 30.2441 112.337ZM30.2441 108.098C22.957 108.098 15.8204 105.224 15.4071 103.859V100.607C19.6738 102.839 26.1851 103.859 30.2441 103.859C34.3051 103.859 40.8186 102.839 45.0853 100.605V103.81C44.6677 105.224 37.5311 108.098 30.2441 108.098ZM30.2441 82.663C37.4485 82.663 44.5045 85.4735 45.0704 86.9021C44.5045 88.3307 37.4485 91.1412 30.2441 91.1412C22.9718 91.1412 15.8543 88.2777 15.4071 86.9614V86.9424C15.8543 85.5265 22.9718 82.663 30.2441 82.663ZM15.4071 92.1289C19.6738 94.3608 26.1851 95.3804 30.2441 95.3804C34.3051 95.3804 40.8164 94.3608 45.0831 92.1289V95.3358C44.6507 96.7517 37.5248 99.6195 30.2441 99.6195C22.957 99.6195 15.8204 96.7454 15.4071 95.3804V92.1289Z" fill="#10476A"/>
<path d="M62.0384 23.3153C63.3398 23.3153 64.5501 22.9189 65.559 22.2449L72.9541 27.7918C72.7655 28.3895 72.6362 29.0148 72.6362 29.674C72.6362 33.1797 75.4891 36.0327 78.9949 36.0327C82.5007 36.0327 85.3536 33.1797 85.3536 29.674C85.3536 28.6947 85.1141 27.7791 84.7156 26.9503L93.2257 18.4403C94.0565 18.8366 94.9722 19.0762 95.9514 19.0762C96.9307 19.0762 97.8463 18.8366 98.6751 18.4382L102.946 22.7091C102.55 23.54 102.31 24.4556 102.31 25.4348C102.31 28.9406 105.163 31.7935 108.669 31.7935C112.175 31.7935 115.028 28.9406 115.028 25.4348C115.028 24.4556 114.788 23.54 114.39 22.7112L122.9 14.2012C123.73 14.5975 124.646 14.837 125.625 14.837C129.131 14.837 131.984 11.9841 131.984 8.47832C131.984 4.97256 129.131 2.11963 125.625 2.11963C122.12 2.11963 119.267 4.97256 119.267 8.47832C119.267 9.45756 119.506 10.3732 119.905 11.202L111.395 19.712C110.564 19.3157 109.648 19.0762 108.669 19.0762C107.69 19.0762 106.774 19.3157 105.945 19.7141L101.674 15.4432C102.071 14.6123 102.31 13.6967 102.31 12.7175C102.31 9.21169 99.4572 6.35876 95.9514 6.35876C92.4457 6.35876 89.5927 9.21169 89.5927 12.7175C89.5927 13.6967 89.8322 14.6123 90.2307 15.4411L81.7207 23.9512C80.8898 23.5548 79.9741 23.3153 78.9949 23.3153C77.6935 23.3153 76.4832 23.7116 75.4743 24.3857L68.0791 18.8388C68.2678 18.241 68.3971 17.6158 68.3971 16.9566C68.3971 13.4508 65.5441 10.5979 62.0384 10.5979C58.5326 10.5979 55.6797 13.4508 55.6797 16.9566C55.6797 20.4623 58.5326 23.3153 62.0384 23.3153ZM125.625 6.35876C126.793 6.35876 127.745 7.31044 127.745 8.47832C127.745 9.6462 126.793 10.5979 125.625 10.5979C124.457 10.5979 123.506 9.6462 123.506 8.47832C123.506 7.31044 124.457 6.35876 125.625 6.35876ZM110.788 25.4348C110.788 26.6027 109.837 27.5544 108.669 27.5544C107.501 27.5544 106.549 26.6027 106.549 25.4348C106.549 24.267 107.501 23.3153 108.669 23.3153C109.837 23.3153 110.788 24.267 110.788 25.4348ZM95.9514 10.5979C97.1193 10.5979 98.071 11.5496 98.071 12.7175C98.071 13.8853 97.1193 14.837 95.9514 14.837C94.7835 14.837 93.8319 13.8853 93.8319 12.7175C93.8319 11.5496 94.7835 10.5979 95.9514 10.5979ZM78.9949 27.5544C80.1628 27.5544 81.1145 28.5061 81.1145 29.674C81.1145 30.8419 80.1628 31.7935 78.9949 31.7935C77.827 31.7935 76.8753 30.8419 76.8753 29.674C76.8753 28.5061 77.827 27.5544 78.9949 27.5544ZM62.0384 14.837C63.2063 14.837 64.1579 15.7887 64.1579 16.9566C64.1579 18.1245 63.2063 19.0762 62.0384 19.0762C60.8705 19.0762 59.9188 18.1245 59.9188 16.9566C59.9188 15.7887 60.8705 14.837 62.0384 14.837Z" fill="#10476A"/>
<path d="M115.027 69.9457H110.788V48.75H98.0701V69.9457H93.831V57.2283H81.1136V69.9457H76.8745V52.9891H64.1571V69.9457H59.918V74.1848H115.027V69.9457ZM102.309 52.9891H106.548V69.9457H102.309V52.9891ZM85.3527 61.4674H89.5919V69.9457H85.3527V61.4674ZM68.3962 57.2283H72.6354V69.9457H68.3962V57.2283Z" fill="#10476A"/>
</svg>
