<svg width="137" height="136" viewBox="0 0 137 136" fill="none" xmlns="http://www.w3.org/2000/svg">
<g clip-path="url(#clip0_2926_11008)">
<path d="M122.299 47.7466C121.202 47.7466 120.312 48.636 120.312 49.7337V131.016C120.312 131.381 120.015 131.678 119.65 131.678H53.2859C52.1883 131.678 51.2988 132.568 51.2988 133.665C51.2988 134.763 52.1883 135.652 53.2859 135.652H119.65C122.206 135.652 124.286 133.572 124.286 131.016V49.7337C124.286 48.636 123.397 47.7466 122.299 47.7466Z" fill="#10476A"/>
<path d="M117.001 0H19.788C15.7706 0 12.502 3.26837 12.502 7.28601V131.016C12.502 133.572 14.582 135.652 17.1385 135.652H44.6332C45.7309 135.652 46.6203 134.763 46.6203 133.665C46.6203 132.567 45.7309 131.678 44.6332 131.678H17.1385C16.7731 131.678 16.4761 131.381 16.4761 131.016V21.6675H22.1062C22.7697 21.6675 23.3894 21.3363 23.7579 20.785L27.783 14.7652C27.9059 14.5813 28.1118 14.4713 28.3335 14.4713H42.1968C42.4183 14.4713 42.6242 14.5813 42.7474 14.7654L46.7722 20.785C47.141 21.3363 47.7604 21.6675 48.4238 21.6675H120.313V41.0801C120.313 42.1778 121.202 43.0672 122.3 43.0672C123.397 43.0672 124.287 42.1778 124.287 41.0801V7.28601C124.287 3.26837 121.019 0 117.001 0V0ZM70.2254 17.6933L66.7915 12.5568C65.9301 11.2671 64.4893 10.4971 62.9373 10.4971H60.4566C59.3589 10.4971 58.4695 11.3866 58.4695 12.4842C58.4695 13.5819 59.3589 14.4713 60.4566 14.4713H62.9373C63.1588 14.4713 63.3641 14.5808 63.487 14.7649L65.4447 17.6933H49.486L48.0253 15.5089L48.5205 14.7683C48.6456 14.5823 48.8528 14.4713 49.0753 14.4713H51.8029C52.9006 14.4713 53.79 13.5819 53.79 12.4842C53.79 11.3866 52.9006 10.4971 51.8029 10.4971H49.0753C47.7527 10.4971 46.5104 11.0588 45.6358 12.0259C44.7639 11.0596 43.5213 10.4971 42.1971 10.4971H28.3338C26.7825 10.4971 25.3412 11.2671 24.4794 12.5563L21.0446 17.6933H16.4761V7.28601C16.4761 5.45973 17.9617 3.97418 19.788 3.97418H117.001C118.828 3.97418 120.313 5.45973 120.313 7.28601V17.6933H70.2254Z" fill="#10476A"/>
<path d="M28.1599 118.445L27.7087 118.896L27.2575 118.445C26.4812 117.669 25.2233 117.669 24.4473 118.445C23.6712 119.221 23.6712 120.479 24.4473 121.255L26.3037 123.111C26.6919 123.499 27.2006 123.693 27.709 123.693C28.2174 123.693 28.7261 123.499 29.1143 123.111L30.9707 121.255C31.7468 120.479 31.7468 119.221 30.9707 118.445C30.1939 117.669 28.936 117.669 28.1599 118.445Z" fill="#10476A"/>
<path d="M47.5437 66.7925C46.4461 66.7925 45.5566 67.6819 45.5566 68.7796C45.5566 69.8772 46.4461 70.7667 47.5437 70.7667H62.2567C63.3544 70.7667 64.2438 69.8772 64.2438 68.7796C64.2438 67.6819 63.3544 66.7925 62.2567 66.7925H47.5437Z" fill="#10476A"/>
<path d="M25.2793 68.7796C25.2793 69.8772 26.1687 70.7667 27.2664 70.7667H38.8678C39.9655 70.7667 40.8549 69.8772 40.8549 68.7796C40.8549 67.6819 39.9655 66.7925 38.8678 66.7925H27.2664C26.1687 66.7925 25.2793 67.6819 25.2793 68.7796Z" fill="#10476A"/>
<path d="M27.2664 77.9483H62.2564C63.3541 77.9483 64.2435 77.0589 64.2435 75.9612C64.2435 74.8635 63.3541 73.9741 62.2564 73.9741H27.2664C26.1687 73.9741 25.2793 74.8635 25.2793 75.9612C25.2793 77.0589 26.1687 77.9483 27.2664 77.9483Z" fill="#10476A"/>
<path d="M27.2664 85.1304H62.2564C63.3541 85.1304 64.2435 84.241 64.2435 83.1433C64.2435 82.0457 63.3541 81.1562 62.2564 81.1562H27.2664C26.1687 81.1562 25.2793 82.0457 25.2793 83.1433C25.2793 84.241 26.1687 85.1304 27.2664 85.1304Z" fill="#10476A"/>
<path d="M51.0558 32.3901C43.2611 32.3901 36.9199 38.7316 36.9199 46.526C36.9199 54.3207 43.2614 60.662 51.0558 60.662C58.8503 60.662 65.1917 54.3205 65.1917 46.526C65.1915 38.7316 58.8503 32.3901 51.0558 32.3901ZM51.0558 56.6878C45.4528 56.6878 40.8941 52.1291 40.8941 46.526C40.8941 40.923 45.4528 36.3643 51.0558 36.3643C56.6589 36.3643 61.2176 40.9227 61.2176 46.526C61.2176 52.1294 56.6589 56.6878 51.0558 56.6878Z" fill="#10476A"/>
<path d="M46.3269 45.7054C47.4246 45.7054 48.314 44.816 48.314 43.7183V43.6873C48.314 42.5896 47.4246 41.7002 46.3269 41.7002C45.2293 41.7002 44.3398 42.5896 44.3398 43.6873V43.7183C44.3398 44.8157 45.2293 45.7054 46.3269 45.7054Z" fill="#10476A"/>
<path d="M55.784 41.7002C54.6863 41.7002 53.7969 42.5896 53.7969 43.6873V43.7183C53.7969 44.816 54.6863 45.7054 55.784 45.7054C56.8816 45.7054 57.7711 44.816 57.7711 43.7183V43.6873C57.7711 42.5896 56.8816 41.7002 55.784 41.7002Z" fill="#10476A"/>
<path d="M56.5319 47.652C55.6767 46.9637 54.4261 47.0996 53.7383 47.9551C53.0797 48.774 52.101 49.2435 51.0539 49.2435C50.0066 49.2435 49.0281 48.774 48.3697 47.9551C47.6822 47.0996 46.4314 46.9637 45.5759 47.6517C44.7206 48.3395 44.585 49.5901 45.2725 50.4456C46.6892 52.2072 48.7963 53.2177 51.0536 53.2177C53.3107 53.2177 55.4178 52.2075 56.8345 50.4456C57.5228 49.5906 57.3869 48.3398 56.5319 47.652Z" fill="#10476A"/>
<path d="M28.6355 39.1106C29.7332 39.1106 30.6226 38.2212 30.6226 37.1235V37.096C30.6226 35.9983 29.7332 35.1089 28.6355 35.1089C27.5379 35.1089 26.6484 35.9983 26.6484 37.096V37.1235C26.6484 38.2212 27.5379 39.1106 28.6355 39.1106Z" fill="#10476A"/>
<path d="M26.6484 43.8179C26.6484 44.9155 27.5379 45.805 28.6355 45.805C29.7332 45.805 30.6226 44.9155 30.6226 43.8179V43.7903C30.6226 42.6926 29.7332 41.8032 28.6355 41.8032C27.5379 41.8032 26.6484 42.6926 26.6484 43.7903V43.8179Z" fill="#10476A"/>
<path d="M26.6484 50.5117C26.6484 51.6094 27.5379 52.4988 28.6355 52.4988C29.7332 52.4988 30.6226 51.6094 30.6226 50.5117V50.4842C30.6226 49.3865 29.7332 48.4971 28.6355 48.4971C27.5379 48.4971 26.6484 49.3865 26.6484 50.4842V50.5117Z" fill="#10476A"/>
<path d="M26.6484 57.2056C26.6484 58.3032 27.5379 59.1926 28.6355 59.1926C29.7332 59.1926 30.6226 58.3032 30.6226 57.2056V57.178C30.6226 56.0803 29.7332 55.1909 28.6355 55.1909C27.5379 55.1909 26.6484 56.0803 26.6484 57.178V57.2056Z" fill="#10476A"/>
<path d="M74.532 70.7667H90.0398C91.1375 70.7667 92.0269 69.8772 92.0269 68.7796C92.0269 67.6819 91.1375 66.7925 90.0398 66.7925H74.532C73.4343 66.7925 72.5449 67.6819 72.5449 68.7796C72.5449 69.8772 73.4343 70.7667 74.532 70.7667Z" fill="#10476A"/>
<path d="M96.7305 68.7796C96.7305 69.8772 97.6199 70.7667 98.7176 70.7667H109.524C110.622 70.7667 111.511 69.8772 111.511 68.7796C111.511 67.6819 110.622 66.7925 109.524 66.7925H98.7176C97.6202 66.7925 96.7305 67.6819 96.7305 68.7796Z" fill="#10476A"/>
<path d="M109.522 73.9741H74.532C73.4343 73.9741 72.5449 74.8635 72.5449 75.9612C72.5449 77.0589 73.4343 77.9483 74.532 77.9483H109.522C110.62 77.9483 111.509 77.0589 111.509 75.9612C111.509 74.8635 110.62 73.9741 109.522 73.9741Z" fill="#10476A"/>
<path d="M109.522 81.1562H74.532C73.4343 81.1562 72.5449 82.0457 72.5449 83.1433C72.5449 84.241 73.4343 85.1304 74.532 85.1304H109.522C110.62 85.1304 111.509 84.241 111.509 83.1433C111.509 82.0457 110.62 81.1562 109.522 81.1562Z" fill="#10476A"/>
<path d="M85.7336 32.3901C77.9389 32.3901 71.5977 38.7316 71.5977 46.526C71.5977 54.3207 77.9391 60.662 85.7336 60.662C93.528 60.662 99.8695 54.3205 99.8695 46.526C99.8695 38.7316 93.528 32.3901 85.7336 32.3901ZM85.7336 56.6878C80.1305 56.6878 75.5718 52.1291 75.5718 46.526C75.5718 40.923 80.1305 36.3643 85.7336 36.3643C91.3367 36.3643 95.8953 40.9227 95.8953 46.526C95.8953 52.1294 91.3369 56.6878 85.7336 56.6878Z" fill="#10476A"/>
<path d="M81.0047 45.7054C82.1023 45.7054 82.9918 44.816 82.9918 43.7183V43.6873C82.9918 42.5896 82.1023 41.7002 81.0047 41.7002C79.907 41.7002 79.0176 42.5896 79.0176 43.6873V43.7183C79.0176 44.8157 79.907 45.7054 81.0047 45.7054Z" fill="#10476A"/>
<path d="M90.4617 41.7002C89.364 41.7002 88.4746 42.5896 88.4746 43.6873V43.7183C88.4746 44.816 89.364 45.7054 90.4617 45.7054C91.5594 45.7054 92.4488 44.816 92.4488 43.7183V43.6873C92.4488 42.5896 91.5594 41.7002 90.4617 41.7002Z" fill="#10476A"/>
<path d="M85.7336 47.2129C83.4763 47.2129 81.3692 48.2231 79.9525 49.985C79.2645 50.8403 79.4004 52.0908 80.2556 52.7786C81.1111 53.4672 82.3617 53.331 83.0492 52.4755C83.7079 51.6566 84.6866 51.1871 85.7339 51.1871C86.781 51.1871 87.7597 51.6566 88.4183 52.4755C88.8107 52.9638 89.3867 53.2174 89.968 53.2174C90.4049 53.2174 90.8452 53.074 91.2119 52.7786C92.0672 52.0908 92.2028 50.8403 91.515 49.985C90.0978 48.2234 87.9907 47.2129 85.7336 47.2129Z" fill="#10476A"/>
<path d="M108.153 39.1106C109.251 39.1106 110.14 38.2212 110.14 37.1235V37.096C110.14 35.9983 109.251 35.1089 108.153 35.1089C107.055 35.1089 106.166 35.9983 106.166 37.096V37.1235C106.166 38.2212 107.056 39.1106 108.153 39.1106Z" fill="#10476A"/>
<path d="M106.166 43.8179C106.166 44.9155 107.055 45.805 108.153 45.805C109.251 45.805 110.14 44.9155 110.14 43.8179V43.7903C110.14 42.6926 109.251 41.8032 108.153 41.8032C107.055 41.8032 106.166 42.6926 106.166 43.7903V43.8179Z" fill="#10476A"/>
<path d="M106.166 50.5117C106.166 51.6094 107.055 52.4988 108.153 52.4988C109.251 52.4988 110.14 51.6094 110.14 50.5117V50.4842C110.14 49.3865 109.251 48.4971 108.153 48.4971C107.055 48.4971 106.166 49.3865 106.166 50.4842V50.5117Z" fill="#10476A"/>
<path d="M106.166 57.2056C106.166 58.3032 107.055 59.1926 108.153 59.1926C109.251 59.1926 110.14 58.3032 110.14 57.2056V57.178C110.14 56.0803 109.251 55.1909 108.153 55.1909C107.055 55.1909 106.166 56.0803 106.166 57.178V57.2056Z" fill="#10476A"/>
<path d="M98.5965 8.84424C97.4988 8.84424 96.6094 9.73366 96.6094 10.8313V10.8589C96.6094 11.9566 97.4988 12.846 98.5965 12.846C99.6941 12.846 100.584 11.9566 100.584 10.8589V10.8313C100.584 9.73366 99.6941 8.84424 98.5965 8.84424Z" fill="#10476A"/>
<path d="M104.985 8.84424C103.887 8.84424 102.998 9.73366 102.998 10.8313V10.8589C102.998 11.9566 103.887 12.846 104.985 12.846C106.083 12.846 106.972 11.9566 106.972 10.8589V10.8313C106.972 9.73366 106.083 8.84424 104.985 8.84424Z" fill="#10476A"/>
<path d="M111.374 8.84424C110.276 8.84424 109.387 9.73366 109.387 10.8313V10.8589C109.387 11.9566 110.276 12.846 111.374 12.846C112.471 12.846 113.361 11.9566 113.361 10.8589V10.8313C113.361 9.73366 112.471 8.84424 111.374 8.84424Z" fill="#10476A"/>
<path d="M27.2664 96.2017H62.2564C63.3541 96.2017 64.2435 95.3123 64.2435 94.2146C64.2435 93.117 63.3541 92.2275 62.2564 92.2275H27.2664C26.1687 92.2275 25.2793 93.117 25.2793 94.2146C25.2793 95.3123 26.1687 96.2017 27.2664 96.2017Z" fill="#10476A"/>
<path d="M27.2664 103.383H62.2564C63.3541 103.383 64.2435 102.494 64.2435 101.396C64.2435 100.299 63.3541 99.4092 62.2564 99.4092H27.2664C26.1687 99.4092 25.2793 100.299 25.2793 101.396C25.2793 102.494 26.1687 103.383 27.2664 103.383Z" fill="#10476A"/>
<path d="M64.2435 108.578C64.2435 107.481 63.3541 106.591 62.2564 106.591H27.2664C26.1687 106.591 25.2793 107.481 25.2793 108.578C25.2793 109.676 26.1687 110.565 27.2664 110.565H62.2564C63.3541 110.565 64.2435 109.676 64.2435 108.578Z" fill="#10476A"/>
<path d="M109.522 92.2275H74.532C73.4343 92.2275 72.5449 93.117 72.5449 94.2146C72.5449 95.3123 73.4343 96.2017 74.532 96.2017H109.522C110.62 96.2017 111.509 95.3123 111.509 94.2146C111.509 93.117 110.62 92.2275 109.522 92.2275Z" fill="#10476A"/>
<path d="M109.522 99.4092H74.532C73.4343 99.4092 72.5449 100.299 72.5449 101.396C72.5449 102.494 73.4343 103.383 74.532 103.383H109.522C110.62 103.383 111.509 102.494 111.509 101.396C111.509 100.299 110.62 99.4092 109.522 99.4092Z" fill="#10476A"/>
<path d="M109.522 106.591H74.532C73.4343 106.591 72.5449 107.481 72.5449 108.578C72.5449 109.676 73.4343 110.565 74.532 110.565H109.522C110.62 110.565 111.509 109.676 111.509 108.578C111.509 107.481 110.62 106.591 109.522 106.591Z" fill="#10476A"/>
</g>
<defs>
<clipPath id="clip0_2926_11008">
<rect width="135.652" height="135.652" fill="white" transform="translate(0.568359)"/>
</clipPath>
</defs>
</svg>
