<svg width="136" height="136" viewBox="0 0 136 136" fill="none" xmlns="http://www.w3.org/2000/svg">
<path d="M67.9367 23.3154C59.1333 23.3154 50.5275 25.9259 43.2078 30.8169C35.888 35.7078 30.1829 42.6594 26.814 50.7927C23.4451 58.926 22.5636 67.8757 24.2811 76.5099C25.9985 85.1442 30.2378 93.0753 36.4627 99.3002C42.6877 105.525 50.6188 109.764 59.253 111.482C67.8873 113.199 76.8369 112.318 84.9702 108.949C93.1035 105.58 100.055 99.875 104.946 92.5552C109.837 85.2354 112.448 76.6297 112.448 67.8263C112.434 56.0254 107.74 44.7117 99.3957 36.3672C91.0512 28.0227 79.7376 23.3289 67.9367 23.3154ZM103.391 86.9024H89.0518C90.3693 81.3429 91.0884 75.6584 91.1968 69.9459H108.1C107.809 75.8776 106.2 81.6701 103.391 86.9024ZM27.773 69.9459H44.6766C44.7849 75.6584 45.504 81.3429 46.8216 86.9024H32.4827C29.6732 81.6701 28.0643 75.8776 27.773 69.9459ZM32.4827 48.7502H46.8216C45.504 54.3097 44.7849 59.9942 44.6766 65.7067H27.773C28.0643 59.775 29.6732 53.9825 32.4827 48.7502ZM70.0562 44.5111V27.8343C75.4632 29.1633 80.2535 35.4987 83.3544 44.5111H70.0562ZM84.6537 48.7502C86.0644 54.2964 86.838 59.9853 86.9598 65.7067H70.0562V48.7502H84.6537ZM65.8171 27.8343V44.5111H52.519C55.6199 35.4987 60.4101 29.1633 65.8171 27.8343ZM65.8171 48.7502V65.7067H48.9136C49.0353 59.9853 49.809 54.2964 51.2197 48.7502H65.8171ZM48.9136 69.9459H65.8171V86.9024H51.2197C49.809 81.3562 49.0353 75.6673 48.9136 69.9459ZM65.8171 91.1415V107.818C60.4101 106.489 55.6199 100.154 52.519 91.1415H65.8171ZM70.0562 107.818V91.1415H83.3544C80.2535 100.154 75.4632 106.489 70.0562 107.818ZM70.0562 86.9024V69.9459H86.9598C86.838 75.6673 86.0644 81.3562 84.6537 86.9024H70.0562ZM91.1968 65.7067C91.0884 59.9942 90.3693 54.3097 89.0518 48.7502H103.391C106.2 53.9825 107.809 59.775 108.1 65.7067H91.1968ZM100.712 44.5111H87.8606C86.257 38.9381 83.4958 33.7662 79.7575 29.3329C88.2171 31.9586 95.5795 37.2915 100.712 44.5111ZM56.1074 29.3329C52.3721 33.7669 49.6138 38.9388 48.0128 44.5111H35.1618C40.2917 37.293 47.6509 31.9602 56.1074 29.3329ZM35.1618 91.1415H48.0128C49.6164 96.7145 52.3775 101.886 56.1159 106.32C47.6562 103.694 40.2939 98.3611 35.1618 91.1415ZM79.766 106.32C83.5013 101.886 86.2595 96.7138 87.8606 91.1415H100.703C95.5753 98.3581 88.2194 103.691 79.766 106.32Z" fill="#10476A"/>
<path d="M67.9377 6.35889C66.5658 6.36316 65.2323 6.81205 64.137 7.63825C63.0418 8.46445 62.2439 9.62342 61.863 10.9414C48.4398 12.3789 35.957 18.5155 26.6207 28.2665C17.2845 38.0175 11.696 50.7552 10.8429 64.2282C9.98991 77.7011 13.9273 91.0419 21.9591 101.893C29.991 112.743 41.6002 120.405 54.7349 123.524C55.2799 123.634 55.8461 123.532 56.3185 123.239C56.791 122.946 57.1342 122.484 57.2784 121.947C57.4056 121.401 57.3107 120.826 57.0147 120.349C56.7187 119.872 56.2456 119.532 55.6993 119.404C43.5536 116.523 32.8149 109.446 25.3764 99.4216C17.9379 89.3971 14.2772 77.0684 15.0396 64.6089C15.8021 52.1494 20.9387 40.359 29.544 31.3164C38.1492 22.2737 49.6707 16.5593 62.0771 15.1805C62.5226 16.2409 63.2474 17.1607 64.1743 17.8417C65.1012 18.5228 66.1954 18.9397 67.3405 19.048C68.4856 19.1563 69.6386 18.9521 70.6768 18.4569C71.715 17.9618 72.5994 17.1943 73.2359 16.2362C73.8723 15.2782 74.237 14.1654 74.2911 13.0165C74.3452 11.8676 74.0866 10.7255 73.5429 9.71191C72.9992 8.69831 72.1908 7.85117 71.2037 7.26071C70.2166 6.67025 69.0879 6.35857 67.9377 6.35889ZM67.9377 14.8371C67.5185 14.8371 67.1087 14.7128 66.7601 14.4799C66.4116 14.247 66.1399 13.916 65.9795 13.5287C65.819 13.1414 65.7771 12.7152 65.8589 12.3041C65.9406 11.8929 66.1425 11.5153 66.4389 11.2188C66.7354 10.9224 67.113 10.7205 67.5242 10.6387C67.9353 10.557 68.3615 10.5989 68.7488 10.7594C69.1361 10.9198 69.4672 11.1915 69.7001 11.54C69.933 11.8886 70.0573 12.2984 70.0573 12.7176C70.0573 13.2797 69.834 13.8188 69.4365 14.2163C69.039 14.6138 68.4998 14.8371 67.9377 14.8371Z" fill="#10476A"/>
<path d="M125.166 67.826C125.211 54.9309 120.881 42.4018 112.885 32.2853C104.888 22.1688 93.6978 15.0628 81.141 12.1281C80.5938 11.9994 80.0178 12.0933 79.5398 12.3892C79.0618 12.6852 78.721 13.1589 78.5922 13.7061C78.4635 14.2534 78.5574 14.8293 78.8534 15.3073C79.1493 15.7853 79.623 16.1262 80.1702 16.2549C92.3118 19.1391 103.046 26.216 110.481 36.2387C117.916 46.2614 121.575 58.5867 120.814 71.0429C120.052 83.4991 114.919 95.2868 106.318 104.329C97.7175 113.371 86.2013 119.088 73.7988 120.472C73.2273 119.074 72.1797 117.923 70.8412 117.223C69.5028 116.523 67.9598 116.319 66.4854 116.647C65.011 116.975 63.7002 117.814 62.785 119.016C61.8698 120.217 61.4091 121.704 61.4846 123.212C61.56 124.721 62.1666 126.154 63.1972 127.259C64.2277 128.363 65.6156 129.067 67.1154 129.246C68.6152 129.426 70.1301 129.069 71.392 128.239C72.654 127.409 73.5816 126.159 74.0108 124.711C88.0484 123.198 101.033 116.556 110.474 106.058C119.915 95.5593 125.147 81.9449 125.166 67.826ZM67.9382 125.054C67.519 125.054 67.1092 124.93 66.7607 124.697C66.4121 124.464 66.1404 124.133 65.98 123.746C65.8196 123.359 65.7776 122.932 65.8594 122.521C65.9412 122.11 66.143 121.732 66.4395 121.436C66.7359 121.14 67.1136 120.938 67.5247 120.856C67.9359 120.774 68.3621 120.816 68.7494 120.977C69.1367 121.137 69.4677 121.409 69.7006 121.757C69.9335 122.106 70.0578 122.516 70.0578 122.935C70.0578 123.497 69.8345 124.036 69.437 124.433C69.0395 124.831 68.5004 125.054 67.9382 125.054Z" fill="#10476A"/>
</svg>
