<svg width="136" height="136" viewBox="0 0 136 136" fill="none" xmlns="http://www.w3.org/2000/svg">
<path d="M125.165 33.913H122.412C124.872 31.1696 126.484 27.7728 127.055 24.1329C127.625 20.4929 127.129 16.7656 125.627 13.4014C124.125 10.0372 121.681 7.17996 118.59 5.17497C115.499 3.16998 111.893 2.10303 108.209 2.10303C104.524 2.10303 100.919 3.16998 97.8278 5.17497C94.7367 7.17996 92.2924 10.0372 90.7902 13.4014C89.288 16.7656 88.7922 20.4929 89.3627 24.1329C89.9332 27.7728 91.5456 31.1696 94.005 33.913H67.937V12.7173C67.937 12.1552 67.7137 11.616 67.3162 11.2186C66.9187 10.8211 66.3796 10.5977 65.8174 10.5977H57.3392C56.777 10.5977 56.2379 10.8211 55.8404 11.2186C55.4429 11.616 55.2196 12.1552 55.2196 12.7173V33.913H53.1V4.23905C53.1 3.67691 52.8767 3.13779 52.4792 2.74029C52.0817 2.3428 51.5426 2.11949 50.9805 2.11949H42.5022C41.9401 2.11949 41.4009 2.3428 41.0035 2.74029C40.606 3.13779 40.3826 3.67691 40.3826 4.23905V33.913H38.2631V19.076C38.2631 18.5139 38.0398 17.9747 37.6423 17.5772C37.2448 17.1798 36.7057 16.9564 36.1435 16.9564H27.6653C27.1031 16.9564 26.564 17.1798 26.1665 17.5772C25.769 17.9747 25.5457 18.5139 25.5457 19.076V33.913H10.7087C8.46093 33.9155 6.30592 34.8095 4.71648 36.399C3.12705 37.9884 2.23299 40.1434 2.23047 42.3912V105.978C2.23299 108.226 3.12705 110.381 4.71648 111.97C6.30592 113.56 8.46093 114.454 10.7087 114.456H54.3983L51.5713 122.935H44.6218C44.0596 122.935 43.5205 123.158 43.123 123.555C42.7255 123.953 42.5022 124.492 42.5022 125.054V129.293H21.3066C20.7444 129.293 20.2053 129.517 19.8078 129.914C19.4103 130.312 19.187 130.851 19.187 131.413C19.187 131.975 19.4103 132.514 19.8078 132.912C20.2053 133.309 20.7444 133.533 21.3066 133.533H114.567C115.13 133.533 115.669 133.309 116.066 132.912C116.464 132.514 116.687 131.975 116.687 131.413C116.687 130.851 116.464 130.312 116.066 129.914C115.669 129.517 115.13 129.293 114.567 129.293H93.3718V125.054C93.3718 124.492 93.1485 123.953 92.751 123.555C92.3535 123.158 91.8144 122.935 91.2522 122.935H84.3027L81.4757 114.456H125.165C127.413 114.454 129.568 113.56 131.158 111.97C132.747 110.381 133.641 108.226 133.644 105.978V42.3912C133.641 40.1434 132.747 37.9884 131.158 36.399C129.568 34.8095 127.413 33.9155 125.165 33.913ZM110.328 6.51229C113.496 6.97454 116.43 8.44701 118.694 10.7107C120.957 12.9743 122.43 15.9083 122.892 19.076H110.328V6.51229ZM109.086 23.3151H122.892C122.526 25.8621 121.503 28.2699 119.925 30.3018C118.346 32.3338 116.266 33.92 113.889 34.9044C111.511 35.8889 108.919 36.2377 106.366 35.9166C103.813 35.5955 101.387 34.6156 99.3278 33.0731L109.086 23.3151ZM93.3718 21.1956C93.3769 17.6294 94.6643 14.1839 96.9991 11.4882C99.3339 8.79255 102.56 7.02643 106.089 6.51229V20.3186L96.3312 30.0765C94.4072 27.5158 93.3685 24.3986 93.3718 21.1956ZM59.4587 14.8369H63.6979V55.1086H59.4587V14.8369ZM53.1 38.1521H55.2196V55.1086H53.1V38.1521ZM44.6218 6.35862H48.8609V55.1086H44.6218V6.35862ZM38.2631 38.1521H40.3826V55.1086H38.2631V38.1521ZM29.7848 21.1956H34.024V55.1086H29.7848V21.1956ZM89.1327 127.174V129.293H46.7413V127.174H89.1327ZM56.0409 122.935L58.8679 114.456H77.0061L79.8331 122.935H56.0409ZM129.404 105.978C129.403 107.102 128.956 108.179 128.161 108.974C127.366 109.769 126.289 110.216 125.165 110.217H10.7087C9.5849 110.216 8.50751 109.769 7.71284 108.974C6.91817 108.179 6.47107 107.102 6.4696 105.978V101.739H129.404V105.978ZM129.404 97.4999H6.4696V42.3912C6.47107 41.2674 6.91817 40.19 7.71284 39.3953C8.50751 38.6007 9.5849 38.1536 10.7087 38.1521H25.5457V55.1086H23.4261V42.3912C23.4261 41.8291 23.2028 41.29 22.8053 40.8925C22.4078 40.495 21.8687 40.2717 21.3066 40.2717H12.8283C12.2662 40.2717 11.727 40.495 11.3295 40.8925C10.932 41.29 10.7087 41.8291 10.7087 42.3912V57.2282C10.7087 57.7903 10.932 58.3294 11.3295 58.7269C11.727 59.1244 12.2662 59.3477 12.8283 59.3477H80.6544C81.2165 59.3477 81.7557 59.1244 82.1532 58.7269C82.5507 58.3294 82.774 57.7903 82.774 57.2282V42.3912C82.774 41.8291 82.5507 41.29 82.1532 40.8925C81.7557 40.495 81.2165 40.2717 80.6544 40.2717H72.1761C71.614 40.2717 71.0749 40.495 70.6774 40.8925C70.2799 41.29 70.0566 41.8291 70.0566 42.3912V55.1086H67.937V38.1521H99.4867C102.183 39.5449 105.174 40.2717 108.209 40.2717C111.244 40.2717 114.234 39.5449 116.931 38.1521H125.165C126.289 38.1536 127.366 38.6007 128.161 39.3953C128.956 40.19 129.403 41.2674 129.404 42.3912V97.4999ZM19.187 44.5108V55.1086H14.9479V44.5108H19.187ZM74.2957 55.1086V44.5108H78.5348V55.1086H74.2957Z" fill="#10476A"/>
<path d="M25.5459 103.859H12.8285C12.2664 103.859 11.7273 104.082 11.3298 104.48C10.9323 104.877 10.709 105.416 10.709 105.978C10.709 106.541 10.9323 107.08 11.3298 107.477C11.7273 107.875 12.2664 108.098 12.8285 108.098H25.5459C26.1081 108.098 26.6472 107.875 27.0447 107.477C27.4422 107.08 27.6655 106.541 27.6655 105.978C27.6655 105.416 27.4422 104.877 27.0447 104.48C26.6472 104.082 26.1081 103.859 25.5459 103.859Z" fill="#10476A"/>
<path d="M34.0243 103.859H31.9047C31.3426 103.859 30.8035 104.082 30.406 104.48C30.0085 104.877 29.7852 105.416 29.7852 105.978C29.7852 106.541 30.0085 107.08 30.406 107.477C30.8035 107.875 31.3426 108.098 31.9047 108.098H34.0243C34.5864 108.098 35.1256 107.875 35.523 107.477C35.9205 107.08 36.1439 106.541 36.1439 105.978C36.1439 105.416 35.9205 104.877 35.523 104.48C35.1256 104.082 34.5864 103.859 34.0243 103.859Z" fill="#10476A"/>
<path d="M91.2525 55.109C91.5309 55.1094 91.8066 55.0547 92.0638 54.9482C92.321 54.8417 92.5547 54.6854 92.7513 54.4882L100.608 46.6307H118.807C119.369 46.6307 119.908 46.4074 120.306 46.0099C120.703 45.6124 120.926 45.0733 120.926 44.5112C120.926 43.949 120.703 43.4099 120.306 43.0124C119.908 42.6149 119.369 42.3916 118.807 42.3916H99.7307C99.4524 42.3916 99.1767 42.4464 98.9196 42.5529C98.6624 42.6594 98.4287 42.8156 98.2319 43.0124L89.7537 51.4906C89.4572 51.7871 89.2553 52.1647 89.1735 52.5759C89.0918 52.9871 89.1337 53.4133 89.2942 53.8006C89.4546 54.1879 89.7263 54.5189 90.0748 54.7518C90.4234 54.9847 90.8332 55.109 91.2525 55.109Z" fill="#10476A"/>
<path d="M118.806 78.4239C117.693 78.4247 116.598 78.718 115.634 79.2746C114.669 79.8312 113.867 80.6314 113.309 81.5953L91.1196 68.65C90.819 67.2056 90.0254 65.9107 88.8749 64.987C87.7244 64.0634 86.2885 63.5686 84.8133 63.5874C83.338 63.6062 81.9152 64.1374 80.7886 65.09C79.662 66.0426 78.9017 67.3574 78.638 68.809L56.3084 85.5562C55.7009 84.6207 54.8579 83.8617 53.864 83.3553C52.8701 82.849 51.7605 82.6132 50.6466 82.6718C49.5328 82.7303 48.4539 83.0811 47.5186 83.6888C46.5833 84.2965 45.8245 85.1398 45.3184 86.1338L23.2485 76.9375C22.9002 75.4856 22.0524 74.2024 20.8533 73.3126C19.6543 72.4228 18.1804 71.9832 16.6899 72.0707C15.1993 72.1581 13.787 72.7671 12.7003 73.791C11.6135 74.8149 10.9216 76.1885 10.7455 77.6712C10.5695 79.1539 10.9207 80.6513 11.7375 81.9011C12.5543 83.151 13.7848 84.0737 15.2134 84.5078C16.6421 84.9418 18.1779 84.8594 19.5519 84.2751C20.9259 83.6908 22.0507 82.6418 22.7292 81.3118L44.7991 90.508C45.1399 91.9261 45.9578 93.1839 47.1158 94.0705C48.2738 94.9571 49.7014 95.4186 51.1593 95.3776C52.6171 95.3366 54.0165 94.7956 55.1229 93.8453C56.2292 92.895 56.9752 91.5933 57.2357 90.1583L79.5653 73.4111C80.1568 74.3224 80.9722 75.0667 81.9335 75.5729C82.8948 76.0791 83.9699 76.3302 85.056 76.3023C86.1421 76.2744 87.2029 75.9684 88.1369 75.4135C89.0709 74.8586 89.847 74.0734 90.391 73.1329L112.58 86.0781C112.825 87.255 113.399 88.3384 114.234 89.2025C115.07 90.0667 116.133 90.6764 117.301 90.9607C118.469 91.2451 119.694 91.1926 120.833 90.8093C121.972 90.426 122.98 89.7276 123.738 88.7951C124.497 87.8625 124.976 86.7341 125.119 85.5406C125.262 84.3471 125.064 83.1374 124.548 82.0518C124.032 80.9662 123.218 80.0492 122.202 79.4071C121.186 78.7649 120.008 78.424 118.806 78.4239ZM19.1868 78.4345C19.1854 78.9975 18.9606 79.5371 18.5617 79.9345C18.1628 80.3319 17.6224 80.5547 17.0593 80.554C16.4962 80.5533 15.9565 80.3291 15.5585 79.9307C15.1606 79.5323 14.9371 78.9922 14.9371 78.4292C14.9371 77.8661 15.1606 77.326 15.5585 76.9276C15.9565 76.5292 16.4962 76.305 17.0593 76.3043C17.6224 76.3036 18.1628 76.5264 18.5617 76.9238C18.9606 77.3213 19.1854 77.8608 19.1868 78.4239V78.4345ZM50.9803 91.1413C50.4184 91.1405 49.8797 90.9169 49.4824 90.5196C49.0851 90.1223 48.8615 89.5836 48.8607 89.0217V89.0111C48.8628 88.5923 48.9889 88.1836 49.2231 87.8364C49.4573 87.4893 49.789 87.2192 50.1765 87.0604C50.564 86.9016 50.9898 86.8612 51.4003 86.9442C51.8107 87.0271 52.1874 87.2298 52.4828 87.5267C52.7781 87.8235 52.979 88.2012 53.0599 88.6121C53.1408 89.0229 53.0982 89.4486 52.9375 89.8352C52.7768 90.2219 52.5051 90.5523 52.1568 90.7848C51.8084 91.0172 51.3991 91.1412 50.9803 91.1413ZM84.8934 72.0652C84.4741 72.0652 84.0644 71.9409 83.7158 71.708C83.3672 71.4751 83.0956 71.144 82.9351 70.7567C82.7747 70.3694 82.7327 69.9432 82.8145 69.5321C82.8963 69.1209 83.0982 68.7433 83.3946 68.4468C83.691 68.1504 84.0687 67.9485 84.4798 67.8668C84.891 67.785 85.3172 67.827 85.7045 67.9874C86.0918 68.1478 86.4228 68.4195 86.6557 68.768C86.8886 69.1166 87.0129 69.5264 87.0129 69.9456C87.0121 70.5075 86.7886 71.0462 86.3913 71.4435C85.9939 71.8408 85.4553 72.0644 84.8934 72.0652ZM118.806 86.9021C118.387 86.9021 117.977 86.7778 117.629 86.5449C117.28 86.312 117.009 85.981 116.848 85.5937C116.688 85.2064 116.646 84.7802 116.728 84.369C116.809 83.9579 117.011 83.5802 117.308 83.2838C117.604 82.9874 117.982 82.7855 118.393 82.7037C118.804 82.6219 119.23 82.6639 119.618 82.8243C120.005 82.9848 120.336 83.2564 120.569 83.605C120.802 83.9536 120.926 84.3633 120.926 84.7826C120.925 85.3445 120.702 85.8831 120.304 86.2805C119.907 86.6778 119.368 86.9014 118.806 86.9021Z" fill="#10476A"/>
<path d="M101.849 91.1416H87.0121C86.45 91.1416 85.9109 91.3649 85.5134 91.7624C85.1159 92.1599 84.8926 92.699 84.8926 93.2612C84.8926 93.8233 85.1159 94.3624 85.5134 94.7599C85.9109 95.1574 86.45 95.3807 87.0121 95.3807H101.849C102.411 95.3807 102.95 95.1574 103.348 94.7599C103.745 94.3624 103.969 93.8233 103.969 93.2612C103.969 92.699 103.745 92.1599 103.348 91.7624C102.95 91.3649 102.411 91.1416 101.849 91.1416Z" fill="#10476A"/>
<path d="M101.849 84.7827H95.4907C94.9285 84.7827 94.3894 85.006 93.9919 85.4035C93.5944 85.801 93.3711 86.3401 93.3711 86.9023C93.3711 87.4644 93.5944 88.0035 93.9919 88.401C94.3894 88.7985 94.9285 89.0219 95.4907 89.0219H101.849C102.411 89.0219 102.951 88.7985 103.348 88.401C103.746 88.0035 103.969 87.4644 103.969 86.9023C103.969 86.3401 103.746 85.801 103.348 85.4035C102.951 85.006 102.411 84.7827 101.849 84.7827Z" fill="#10476A"/>
<path d="M12.8285 65.7064H36.1438C36.7059 65.7064 37.245 65.4831 37.6425 65.0856C38.04 64.6881 38.2633 64.149 38.2633 63.5869C38.2633 63.0247 38.04 62.4856 37.6425 62.0881C37.245 61.6906 36.7059 61.4673 36.1438 61.4673H12.8285C12.2664 61.4673 11.7273 61.6906 11.3298 62.0881C10.9323 62.4856 10.709 63.0247 10.709 63.5869C10.709 64.149 10.9323 64.6881 11.3298 65.0856C11.7273 65.4831 12.2664 65.7064 12.8285 65.7064Z" fill="#10476A"/>
<path d="M42.5024 65.7064H44.6219C45.1841 65.7064 45.7232 65.4831 46.1207 65.0856C46.5182 64.6881 46.7415 64.149 46.7415 63.5869C46.7415 63.0247 46.5182 62.4856 46.1207 62.0881C45.7232 61.6906 45.1841 61.4673 44.6219 61.4673H42.5024C41.9402 61.4673 41.4011 61.6906 41.0036 62.0881C40.6061 62.4856 40.3828 63.0247 40.3828 63.5869C40.3828 64.149 40.6061 64.6881 41.0036 65.0856C41.4011 65.4831 41.9402 65.7064 42.5024 65.7064Z" fill="#10476A"/>
</svg>
