<svg width="137" height="136" viewBox="0 0 137 136" fill="none" xmlns="http://www.w3.org/2000/svg">
<g clip-path="url(#clip0_2926_10975)">
<path d="M121.711 48.6785H120.075V42.2692C120.075 40.8411 119.164 39.625 117.895 39.1608V33.177C117.895 29.9799 115.517 27.3289 112.437 26.8962L86.123 0.581556C85.7548 0.213546 85.2386 0 84.718 0H17.7318C12.984 0 9.12109 3.86264 9.12109 8.61073V33.4094C9.12109 34.507 10.0108 35.3965 11.1082 35.3965C12.2056 35.3965 13.0953 34.507 13.0953 33.4094V8.61073C13.0953 6.05427 15.1754 3.97418 17.7318 3.97418H82.7309V22.1977C82.7309 26.945 86.5933 30.8073 91.3406 30.8073H105.668C105.372 31.5402 105.207 32.3395 105.207 33.177V39.1608C103.938 39.6247 103.027 40.8408 103.027 42.2692V48.6785H102.762C101.665 48.6785 100.775 49.5679 100.775 50.6655C100.775 51.7632 101.665 52.6526 102.762 52.6526H103.027V106.716C103.027 109.9 104.784 112.681 107.378 114.144L102.835 118.618C101.732 119.705 101.503 121.399 102.277 122.74L106.979 130.886C106.223 131.394 105.331 131.678 104.398 131.678H50.3699C49.2725 131.678 48.3829 132.567 48.3829 133.665C48.3829 134.762 49.2725 135.652 50.3699 135.652H104.397C106.049 135.652 107.635 135.181 108.995 134.321C109.587 135.099 110.473 135.571 111.458 135.637C111.535 135.646 111.612 135.652 111.692 135.652H111.693H111.694H111.694C111.774 135.652 111.853 135.646 111.93 135.637C113.062 135.56 114.063 134.947 114.638 133.952L121.111 122.74C121.885 121.399 121.655 119.704 120.552 118.618L115.904 114.04C118.399 112.552 120.075 109.826 120.075 106.715V98.6427C120.075 97.545 119.185 96.6556 118.088 96.6556C116.99 96.6556 116.101 97.545 116.101 98.6427V106.715C116.101 109.224 114.06 111.265 111.551 111.265C109.042 111.265 107.001 109.224 107.001 106.715V52.6526H116.101V89.9829C116.101 91.0806 116.99 91.97 118.088 91.97C119.185 91.97 120.075 91.0806 120.075 89.9829V52.6526H121.711C122.807 52.6526 123.698 53.5439 123.698 54.6397V79.0855C123.698 80.1829 124.588 81.0726 125.686 81.0726C126.783 81.0726 127.673 80.1829 127.673 79.0855V54.6397C127.673 51.3528 124.999 48.6785 121.711 48.6785ZM113.681 127.661V123.001C113.681 121.904 112.791 121.014 111.694 121.014C110.597 121.014 109.707 121.904 109.707 123.001V127.663L105.94 121.138L111.693 115.471L117.447 121.138L113.681 127.661ZM86.7051 22.1977V6.7842L106.754 26.8332H91.3406C88.7844 26.8332 86.7051 24.7539 86.7051 22.1977ZM113.921 33.1773V38.9573H109.181V33.1773C109.181 31.8706 110.244 30.8076 111.551 30.8076C112.858 30.8076 113.921 31.8706 113.921 33.1773ZM107.001 48.6785V42.9315H116.101V48.6785H107.001Z" fill="#10476A"/>
<path d="M41.7099 131.678H17.7318C15.1754 131.678 13.0953 129.597 13.0953 127.041V42.0686C13.0953 40.971 12.2056 40.0815 11.1082 40.0815C10.0108 40.0815 9.12109 40.971 9.12109 42.0686V127.041C9.12109 131.789 12.984 135.652 17.7318 135.652H41.7099C42.8073 135.652 43.697 134.762 43.697 133.665C43.697 132.567 42.8076 131.678 41.7099 131.678Z" fill="#10476A"/>
<path d="M82.5329 37.1415C76.5894 32.3754 69.3471 29.9223 62.0627 29.7676C61.8189 29.758 61.5752 29.749 61.329 29.749C61.0816 29.749 60.8362 29.758 60.5912 29.7678C53.3083 29.9236 46.0676 32.3768 40.1249 37.1418C36.7961 39.8109 34.0328 43.0254 31.9111 46.6957C31.3369 47.689 31.3369 48.9229 31.9111 49.9162C34.033 53.587 36.7967 56.8013 40.1249 59.4704C46.0698 64.2373 53.6003 66.8624 61.3288 66.8624H61.329H61.3293C69.0578 66.8621 76.588 64.237 82.5326 59.4704C85.8606 56.8029 88.6245 53.5883 90.7465 49.917C91.3217 48.9231 91.3217 47.6888 90.747 46.6957C88.6245 43.0244 85.8609 39.8101 82.5329 37.1415ZM61.3306 62.8882C61.3301 62.8882 61.3296 62.8882 61.3293 62.8882C53.2885 62.8882 46.747 56.3467 46.747 48.3058C46.747 40.2647 53.2885 33.7232 61.3296 33.7232C69.3707 33.7232 75.9122 40.2647 75.9122 48.3058C75.9116 56.3461 69.3707 62.8874 61.3306 62.8882ZM35.5745 48.3058C37.418 45.2208 39.7834 42.5099 42.6112 40.2422C43.6802 39.3851 44.7986 38.6154 45.9535 37.9274C43.9462 40.8916 42.7725 44.4641 42.7725 48.3058C42.7725 52.1436 43.9436 55.7126 45.9468 58.675C44.7853 57.9843 43.6683 57.2173 42.6112 56.3694C39.7839 54.1028 37.4182 51.3916 35.5745 48.3058ZM80.0469 56.3697C78.9898 57.2173 77.8733 57.9843 76.712 58.6747C78.7153 55.7124 79.8861 52.1436 79.8861 48.3061C79.8861 44.4644 78.7124 40.8918 76.7051 37.9276C77.86 38.616 78.9781 39.3854 80.0472 40.2425C82.8739 42.5091 85.2393 45.2197 87.0841 48.3063C85.2396 51.3924 82.8739 54.1036 80.0469 56.3697Z" fill="#10476A"/>
<path d="M61.3286 38.4189C55.8766 38.4189 51.4414 42.8544 51.4414 48.3062C51.4414 53.758 55.8769 58.1934 61.3286 58.1934C66.7807 58.1934 71.2159 53.758 71.2159 48.3062C71.2159 42.8544 66.7804 38.4189 61.3286 38.4189ZM61.3286 54.2195C58.0682 54.2195 55.4156 51.5669 55.4156 48.3065C55.4156 45.0458 58.0682 42.3934 61.3286 42.3934C64.5891 42.3934 67.2417 45.046 67.2417 48.3065C67.2417 51.5669 64.5891 54.2195 61.3286 54.2195Z" fill="#10476A"/>
<path d="M95.4473 84.9214H55.2371C54.1397 84.9214 53.25 85.8108 53.25 86.9085C53.25 88.0062 54.1397 88.8956 55.2371 88.8956H95.4473C96.5447 88.8956 97.4344 88.0062 97.4344 86.9085C97.4344 85.8111 96.5447 84.9214 95.4473 84.9214Z" fill="#10476A"/>
<path d="M95.4473 76.7275H55.2371C54.1397 76.7275 53.25 77.617 53.25 78.7146C53.25 79.8123 54.1397 80.7017 55.2371 80.7017H95.4473C96.5447 80.7017 97.4344 79.8123 97.4344 78.7146C97.4344 77.617 96.5447 76.7275 95.4473 76.7275Z" fill="#10476A"/>
<path d="M46.3837 71.6239C45.5533 70.9061 44.2986 70.9978 43.5808 71.8276L42.285 73.3267C41.7196 72.8922 41.0146 72.6307 40.2481 72.6307H26.5901C24.7418 72.6307 23.2383 74.1342 23.2383 75.9822V89.6404C23.2383 91.4887 24.7418 92.992 26.5901 92.992H40.2481C42.0963 92.992 43.5999 91.4884 43.5999 89.6404V77.8827L46.5874 74.4262C47.3052 73.5961 47.2138 72.3413 46.3837 71.6239ZM39.6257 89.0181H27.2125V76.6049H39.4514L35.1015 81.6372L33.6742 80.0568C32.939 79.2424 31.6821 79.1785 30.8677 79.9138C30.0532 80.6492 29.9891 81.9059 30.7246 82.7203L33.6591 85.9702C34.0361 86.3877 34.5721 86.6256 35.1338 86.6256H35.1555C35.7252 86.6195 36.2646 86.3689 36.6374 85.9378L39.6257 82.4806V89.0181Z" fill="#10476A"/>
<path d="M95.4473 111.051H55.2371C54.1397 111.051 53.25 111.941 53.25 113.038C53.25 114.136 54.1397 115.025 55.2371 115.025H95.4473C96.5447 115.025 97.4344 114.136 97.4344 113.038C97.4344 111.941 96.5447 111.051 95.4473 111.051Z" fill="#10476A"/>
<path d="M95.4473 102.857H55.2371C54.1397 102.857 53.25 103.747 53.25 104.845C53.25 105.942 54.1397 106.832 55.2371 106.832H95.4473C96.5447 106.832 97.4344 105.942 97.4344 104.845C97.4344 103.747 96.5447 102.857 95.4473 102.857Z" fill="#10476A"/>
<path d="M46.3837 97.7538C45.5533 97.0361 44.2986 97.1275 43.5808 97.9578L42.285 99.4569C41.7196 99.0224 41.0146 98.7609 40.2481 98.7609H26.5901C24.7418 98.7609 23.2383 100.264 23.2383 102.112V115.771C23.2383 117.619 24.7418 119.122 26.5901 119.122H40.2481C42.0963 119.122 43.5999 117.619 43.5999 115.771V104.013L46.5874 100.556C47.3052 99.7261 47.2138 98.4713 46.3837 97.7538ZM39.6257 115.148H27.2125V102.735H39.4514L35.1015 107.767L33.6742 106.187C32.939 105.372 31.6821 105.308 30.8677 106.044C30.0532 106.779 29.9891 108.036 30.7246 108.85L33.6591 112.1C34.0361 112.518 34.5721 112.756 35.1338 112.756H35.1555C35.7252 112.75 36.2646 112.499 36.6374 112.068L39.6257 108.611V115.148Z" fill="#10476A"/>
</g>
<defs>
<clipPath id="clip0_2926_10975">
<rect width="135.652" height="135.652" fill="white" transform="translate(0.570312)"/>
</clipPath>
</defs>
</svg>
